<svg width="305" height="242" fill="none" xmlns="http://www.w3.org/2000/svg"><path fill-rule="evenodd" clip-rule="evenodd" d="M138.634 106.345c.347-.536 1.008-.788 1.512-1.134-.22.504-.252.661-.031 1.165.189.378.283.787.472 1.165.152.25.278.513.379.787.094.315.031.63.157.945-1.386-.378-2.615-1.26-3.78-2.047.22-.031.787-.031.976-.189.126-.094.158-.504.315-.692zM105.43 101.715c-.599.473-.599.473-.63 1.291a1.248 1.248 0 00.63-1.291zm29.141 2.11c.283.032.346-.787.409-1.007-.094 0-.189-.032-.283-.032-.126.126-.599 1.008-.126 1.039zm-41.837 8.25a58.523 58.523 0 00-1.513-6.486 50.27 50.27 0 00-1.04-3.086c-.314-.882-.944-1.827-1.07-2.771 1.008.913 1.795 2.015 2.677 3.054.82.976 1.67 1.952 2.458 2.96.347.399.566.892.63 1.417.031.598-.315.945-.567 1.448a8.204 8.204 0 00-.536 1.701c-.126.598.063.913.284 1.448.44-.16.839-.419 1.165-.755.347-.41.63-.914.977-1.354.725-.945 1.45-1.921 2.142-2.866a40.845 40.845 0 003.749-6.014c1.071-2.173 2.048-4.409 3.119-6.581.221-.473.315-.976.914-.976.441 0 .819.283 1.228.377.102.037.208.058.315.063a.573.573 0 00.063.315c.095.126.158.095.284.063.189 0 .315-.126.504-.094.263.061.517.157.756.283v-.598c.788.41 2.709 1.763 3.119.22.031.284-.032.787.252.977.189.125.41 0 .599.031.238.075.47.17.693.283 0-.409.346-.377.63-.409.409-.063.756-.283 1.165-.22.41.063.693.252 1.103.031.284-.157.536-.346.819-.504a.817.817 0 00.441-.535c.126-.315.095-.252.441-.157.693.188.945-.63 1.071-1.197a4.596 4.596 0 00-.945-3.905c-1.165-1.354-2.363-2.708-3.875-3.684-1.386-.913-2.867-2.047-4.505-2.487 1.292-2.897 3.151-5.605 4.789-8.345.472.095.756.378 1.26.284.41-.063.378-.032.536.377.126.378.189.41.567.536.378.126.063-.126.346.189.126.126.189.283.347.377.567.378 1.291.158 1.89.41.409.157.22.378.409.661.221.315.599.158.914.095.662-.095.851.126.977.724.094.44.157.693.661.787.284.063.693-.157.882 0 .063.063.032.252.063.346.065.155.162.295.284.41.234.261.525.465.85.598.284.126.631.063.914.157.441.158.347.662.315 1.04.252-.063.315-.063.473-.252.063-.095.031-.22.157-.284.317.089.608.25.851.473.252.314 0 .787.063 1.165s.378.661.63.944c.094-.22.157-.472.252-.692.126.157.283.252.346.44.032.095-.063.22 0 .347.126.283.253.094.505.126.22 0 .787.157.661.504-.063.22-.504.157-.441.472.063.378.536.126.725.189.252.094.157.315.252.535.157.378.441.41.787.598.272.164.474.422.567.725.189.409.158.283.536.252a.347.347 0 01.441.252c.063.188-.063.409 0 .566.094.19.504.441.662.63.409.567.567 1.26.913 1.858.15.264.318.516.504.756.252.315.41.252.725.44.535.284.378 1.04.441 1.512.013.256.113.5.283.693.095.126.504.252.41.472-.095.283-.41-.031-.347.41.032.346.441.63.536.976.063.251-.032.472.031.692.108.241.234.473.379.693.094.252-.064.567.031.756.095.22.473.157.567.44.095.315-.157.788-.189 1.103-.031.189-.126.409.032.598.157.126.504.126.346.472-.063.158-.315.126-.346.378-.032.189.189.472.315.598.315.347.913.63.472 1.071-.063.063-.157.031-.22.126a1.164 1.164 0 00-.126.472c-.126.32-.285.626-.473.913-.756 1.071-2.016 1.575-2.835 2.52-1.008-1.008-2.048-1.984-2.993-3.055a33.465 33.465 0 00-2.52-2.645c-.473-.41-1.04-.724-1.418-1.228-.378-.472-.536-1.07-.819-1.606-.567-1.039-1.386-1.89-1.985-2.897-1.197.787-.693 2.771-.346 3.873.218.678.503 1.332.85 1.953.284.535.725 1.039.851 1.637a1.53 1.53 0 01-.347 1.291c-.409.567-.882 1.102-1.291 1.637-1.04 1.354-2.08 2.677-3.088 4.031-.378-.535-.976-.189-1.481-.095-.724.158-1.48.095-2.205.158-.787.063-1.543.189-2.331.315-.693.126-.221.441-.567.819-.693-1.26-2.048-.473-3.151-.347-.693.063-1.417.032-2.079.126-.693.095-1.354.315-2.048.378-1.323.126-2.52.598-3.843.819-.693.126-1.386.22-2.079.346-.252.032-.662.063-.819.315-.158.283.157.913.252 1.196.126.41.22 1.008.504 1.354.22.252.252.095.535.095.315 0 .189.063.41.283.278.243.64.368 1.008.347.215-.018.43.015.63.094.189.158.032.189.032.441.031.441.63.756.976.945.221.124.471.189.725.189.157 0 .346-.158.504-.095.22.095.22.535.346.724.252.347.567.095.914.252.378.221.599.693.977.945.724.472 1.575.535 1.921-.378.158.315.504.756.347 1.071a1.498 1.498 0 01-.725.598c-.724.378-1.417.787-2.11 1.228-1.576 1.008-3.088 2.11-4.758 2.96-1.669.819-3.402 1.7-5.23 2.078a9.309 9.309 0 01-5.544-.63c.233-.445.342-.946.315-1.448 0-.567.032-1.134.032-1.669 0-1.102 0-2.236-.032-3.338a52.368 52.368 0 00-.787-6.644zM72.917 110.469c.185-.607.322-1.229.41-1.858.031-.44-.126-1.133.126-1.511.126-.157.315-.22.378-.441.063-.157-.032-.472 0-.661a6.45 6.45 0 01.41-1.323c.377-.976.409-1.983.724-2.991.189-.535.504-1.008.693-1.543.168-.489.274-.996.315-1.511a13.95 13.95 0 01.189-1.606c.126-.504.283-.976.378-1.48.248-1.196.574-2.374.977-3.527.157-.44.283-1.165.661-1.448.284-.22.662-.158.977-.126.378.031.661.031.913.346.266.419.56.819.883 1.197.41.343.8.71 1.165 1.102.252.315.126.44-.157.692.378.063.661-.063.945.22.268.337.49.708.661 1.103.319.738.5 1.527.536 2.33.094-.157.22-.315.315-.472a1.391 1.391 0 00.693.881c.473.19.441.126.441.63 0 .756.63 1.197 1.008 1.764.238.317.429.667.567 1.039.19.44.063.755.032 1.228-.063.692.598 1.228 1.008 1.732.113.116.199.256.252.409.063.126-.032.22.094.378.19.283.599.189.725.535.157.315-.063.63-.095.913-.063.473.252.945.41 1.386a6 6 0 01.378 1.48c.042.292.053.587.032.881 0 .126-.126.473-.032.599.126.157.378-.032.473.157.22.378-.599.472-.757.535.218.096.42.223.6.378.188.221.062.347.157.599.094.283.41.346.535.598.095.252-.094.315-.22.504-.252.503-.032 1.259.063 1.763.031.22.031.756.157.913.095.095.252.063.347.158.157.189 0 .252-.063.472a1.795 1.795 0 000 .819c.108.246.203.498.283.755.063.284-.094.378-.189.662-.22.598-.063 1.322 0 1.92.095.693-.157 1.354.032 2.016.189-.095.378-.158.598-.252l-.189.944-.094.473c.031.189-.032.283-.19.252-.346.094-.85-.441-1.133-.599-.851-.472-1.733-.818-2.615-1.228-.914-.409-1.67-1.007-2.489-1.543-.85-.566-1.733-1.039-2.583-1.605-3.592-2.551-7.467-4.692-11.216-6.991 1.103.063 1.292-1.322 1.481-2.047zM68.507 81.531c-.567.157-.441.63-.22 1.04.22-.19.598-.442.692-.725.127-.346-.157-.41-.472-.315zM52.818 95.575c.016.279.069.554.157.819.095.094.63-.032.757-.032a3.6 3.6 0 011.165.158c.693.189.82-.252.85-.913.536 1.07 1.45 1.605 2.584 1.826.52.104 1.046.178 1.575.22.412.015.824-.017 1.229-.094.238-.065.47-.15.693-.252.504-.095.063.283.41.378.094.031.44-.126.598-.126.22.016.442.016.662 0 .504-.032.661-.315 1.07-.535a.721.721 0 01.568-.064c.252.032.063.126.347.064.094-.032.251-.127.346-.158a4.524 4.524 0 001.386-.882c.315-.315.693-.535 1.008-.818.126-.126.158-.252.284-.378.126-.158.126-.126.283-.22.183-.093.335-.235.441-.41.152-.38.227-.787.221-1.197a6.188 6.188 0 00-.756-3.59c-.662-1.227-1.229-2.55-2.016-3.715a24.803 24.803 0 00-2.458-2.991 6.49 6.49 0 00-.819-.788 6.246 6.246 0 01-.63-.346c-.44-.346-.22-.976-.22-1.48-.126.252-.347.598-.693.535-.22-.063-.22-.283-.379-.377a1.595 1.595 0 00-.409-.063 64.182 64.182 0 012.048-7.684 356.026 356.026 0 016.9 6.896c1.165 1.197 2.236 2.488 3.401 3.716l3.686 3.779c-.346.315-.724.535-.945.944a7.401 7.401 0 01-.724 1.008c-.662.724-.977 1.826-1.355 2.74a.612.612 0 00-.094.377c0 .095.126.19.126.315a.452.452 0 01-.158.347c-.094.094-.315.22-.346.377-.032.158.157.284.188.441.253.693-.567 1.165-.85 1.7a.814.814 0 00-.032.882c.158.252.504.347.315.693-.126.22-.44.094-.41.41.032.157.347.314.032.503-.252.158-.535-.126-.44.347.062.22.346.409.251.66-.063.221-.472.253-.661.442-.18.264-.298.566-.347.881-.15.965-.35 1.921-.598 2.866-.158.661.252.661.819.661a55.237 55.237 0 01-1.197 1.638c-.41.535-.504 1.322-.725 1.952-.22.756-.472 1.511-.693 2.267-.12.334-.131.698-.032 1.039a1.08 1.08 0 01.095.819c-1.827-1.039-3.528-2.204-5.261-3.401-.82-.567-1.67-1.134-2.457-1.732-.63-.472-1.292-.944-1.702-1.637-.945-1.606-2.362-2.834-3.654-4.188-.662-.693-1.26-1.543-2.048-2.047-.787-.504-1.607-.945-2.363-1.448a4.78 4.78 0 00.977-1.134z" fill="#7166ed"/><path fill-rule="evenodd" clip-rule="evenodd" d="M110.344 116.987c-.756-.346-1.417-.819-2.142-1.228-.63-.346-1.197-.504-1.733-.976a3.06 3.06 0 00-.693-.409 4.803 4.803 0 01-.882-.693c.756-.284 1.512-.756 2.331-.756a6.56 6.56 0 001.103.063c.358-.079.692-.241.977-.472.535-.41.787-.347 1.386 0 .143.126.317.213.504.252.283 0 .22-.189.346-.378.095-.189-.031-.189.158-.189.126 0 .189.157.315.189.252.063.725-.189 1.008-.252a5.1 5.1 0 011.197.031 3.02 3.02 0 001.292-.22c.378-.126.756-.315 1.134-.441.504-.157.599.032 1.071.157.693.158 1.386-.85 2.016-.314-.945 1.385-2.236 2.519-3.433 3.684a27.05 27.05 0 01-1.985 1.795c-.315.252-.63.503-.977.755-.157.126-.283.221-.441.347-.252.189-.252.252-.472.157-.347-.157-.599-.472-.946-.63-.409-.189-.787-.315-1.134-.472zM109.872 86.947c-.032.63-.41 1.134.126 1.638.031-.315.031-.599.063-.913 0-.315.157-.662-.189-.725zm.598-2.708a.924.924 0 00.473.598c.378.19.882-.125 1.134.158.252.283.221.945.567 1.165.095.063.221.032.347.126.094.094.126.283.22.378.189.126.347 0 .504.063.189.094.221.315.284.504.063.189.063.44.189.567.157.188.567.314.756.44.756.473 1.481.913 2.237 1.386-.221.22-.725.472-.756.819-.032.22.126.251-.063.44-.095.095-.378.158-.473.22-.405.228-.84.397-1.292.505-.535.126-1.102.063-1.638.188a6.382 6.382 0 01-1.733.22c-.504 0-.976-.157-1.48-.188-.945-.094-2.142 0-2.93-.661a5.94 5.94 0 01.409-1.827c.221-.598.473-1.196.694-1.763a28.67 28.67 0 011.606-3.464c.126.787.441-.252.725-.252.157-.063.157.22.22.378zM58.552 92.804a4.728 4.728 0 00-1.134.347c-.284.126-.41.189-.63-.032-.127-.126-.158-.315-.347-.41a1.261 1.261 0 00-.599-.062c-.472-.032-.945-.032-1.386-.063.536-.504 1.071-1.04 1.607-1.543.094.157.315.661.472.693.064 0 .19-.158.284-.158a.456.456 0 01.22.063c.19.095.284.284.505.347.233.026.468.004.693-.063.063.252.22.63.315.881zM59.213 86.129c-.095-.378.094-.788.031-1.165.032-.063.095-.126.126-.19.073.235.18.458.315.662.126.189.315.315.378.535.158.378-.031.661-.22 1.008-.22-.284-.536-.472-.63-.85zM62.395 86.978c.316 0 .19.158.252.41.03.15.095.29.19.41.157.251.567.534.346.88-.189.284-.22-.062-.378.064-.157.157.945 1.29 1.134 1.354.095.031.19-.063.284 0 .02.283.009.569-.032.85 0 .346.032.724-.252.976-.346.284-.882.315-1.291.472a4.558 4.558 0 01-.82.347c-.315.094-.567-.095-.819-.063-.272.13-.535.277-.787.44-.252.127-.315.158-.567.064a1.312 1.312 0 01-.505-.284c-.157-.189-.031-.189-.063-.44-.031-.473-.535-.41-.85-.536.661-.189 1.008-.913 1.355-1.48.209-.257.378-.543.504-.85.094-.346-.158-.598-.315-.882.22.095 1.07.473.661.032-.126-.158-.913-.378-.598-.756.189-.22.44.252.661.189.252-.063.567-.504.788-.63.283-.189.787-.598 1.102-.567zM141.501 100.204a12.46 12.46 0 00-.504-3.243c-.662-2.173-2.048-4.062-2.489-6.298-.22-1.07-.157-2.173-.346-3.243a21.03 21.03 0 01-.253-3.464c-.031-1.134-.094-2.267-.063-3.4 0-.41.126-.977.032-1.355-.095-.346-.221-.22-.504-.315.189-.126.598-.189.63-.44.031-.158-.126-.347-.126-.536.023-.152.065-.3.126-.44.252-.788.599-2.016.158-2.772.283-.031.378-.126.63 0 .282.172.546.372.787.599.473.363.925.752 1.355 1.165a33.822 33.822 0 012.142 2.613c.693.882 1.418 1.763 2.111 2.645.567.693 1.418 1.7 2.205.787.221.315.378.63.756.756.394.15.734.412.977.756.063.094.252.41.346.44.189.064.063-.062.221-.157.22-.126.315-.22.409.158.032.157-.063.346.032.504.063.157.315.314.473.409.347.134.706.239 1.071.315.598.189.976 1.102 1.638.661.252-.157.441-.41.724-.252.221.126.284.441.599.315.189-.063.315-.283.536-.378a2.2 2.2 0 01.441-.094 5.578 5.578 0 001.008-.126c.693-.22 1.197-.85 1.669-1.386.347-.378.252-.63.158-1.133-.095-.41-.158-.85-.284-1.26a10.576 10.576 0 00-.882-2.424 16.412 16.412 0 00-1.764-2.425c-1.292-1.606-2.52-3.338-3.906-4.85-.252-.283-.725-.598-.662-1.038.063-.473.599-.252.945-.158.882.22 1.733.661 2.583.976.473.19 1.103.535 1.607.315.473-.22 1.229-.819.977-1.385a4.083 4.083 0 01-.536-1.197c-.094-.44-.157-.85-.252-1.291a35.403 35.403 0 00-.787-3.023c-.567-1.89-1.292-3.747-1.922-5.636 2.615.22 5.009 1.007 7.435 1.858-.126.251-.347.566-.252.85.094.346.567.22.693.472.126.283-.284.44-.158.787.152.326.342.633.567.913-.819.504-.504-.566-1.039-.63-.158.85.189 1.26.535 1.984.284.63-.378.567-.535 1.071.378.063.661-.126.819.346.063.19-.032.914.189.945.157 0 .126-.315.252-.315.189-.031.63.598.724.724a3.222 3.222 0 00-1.197.22c.284.284.599.568.882.851-.283.126-.756.126-.882.44-.126.284.063.82.095 1.103-.126-.189-.284-.598-.473-.724-.252-.158-.315 0-.283.315.031.598.819.566.945 1.039.126.472-.567.157-.599.63 0 .283.315.503.158.787.283-.143.499-.392.598-.693.126.472.41 1.26.252 1.763-.126.41-.409.315-.094.725.126.157.283.252.283.472 0 .472-.661.819-.126 1.228.189.157.41.189.504.472.095.252 0 .567.063.819.182.497.498.933.914 1.26.347.314.662.692 1.008.976.161.123.299.272.41.44.063.095 0 .158.063.252a.702.702 0 00.441.095c.409.094.882.252 1.039.693.505-.378 1.009.094 1.481.22a.888.888 0 00.693-.032.863.863 0 01.788-.157c1.197.157 2.174-1.07 2.867-1.92a4.78 4.78 0 00.882-2.142c.174-.895.3-1.8.378-2.708.121-1.887.131-3.78.031-5.668a43.686 43.686 0 016.27 4.22c1.984 1.511 3.685 3.4 5.45 5.164-.441.031-.882.189-1.355.189a1.649 1.649 0 01-.662-.126 2.822 2.822 0 01-.315-.19c-.094-.157-.189-.188-.346-.094-.441-.031-.851-.126-1.292-.189-.567-.094-1.165.095-1.732.19-1.04.188-2.143.062-3.151.377-.882.284-1.796.693-2.646 1.04-.819.346-1.512 1.133-2.205 1.668-.41.315-.82.441-1.261.724-.409.252-.724.788-1.008 1.166-.693.881-1.449 1.731-2.142 2.613a4.476 4.476 0 00-.756 1.291c-.095.252-.095.504-.189.756a1.43 1.43 0 01-.347.504c-.409-1.134-.819-2.3-1.26-3.433-.157-.44-.913-2.519-1.512-1.731-.504.692-.22 2.11-.063 2.865.221 1.04.441 2.047.693 3.086.473 2.047.882 4.093 1.449 6.109.057.131.099.268.126.409.032.22.095.094-.063.252-.094.094-.283.063-.346.157-.158.19-.095.819-.095 1.04.032.409.252.598.378.976.095.314-.063.66-.063.976 0 .818.41 1.7.567 2.519.095.504-.189 1.322.504 1.417-.189.315.032.441.189.661.148.28.264.576.347.882.094.283.284.472.315.755.032.252-.095.504 0 .756.095.315.284.347.567.472.252.126.189-.031.252.221.016.167.016.336 0 .504.126.598.599 1.007.977 1.417.157.157.346.535.535.629.252.126.662-.094.914.032.22.126.472 1.071.535 1.322.189.504.347 1.008.505 1.48.598 1.827 1.228 3.653 1.827 5.479-.284 0-.788-.314-1.04-.188-.315.157-.126.598-.22.818-.095.158-.599.158-.819.158a2.26 2.26 0 01-.914-.189c-.599-.189-1.386-.126-2.016-.189-1.418-.158-2.867-.189-4.253-.504-1.324-.283-2.584-.787-3.907-1.165.599-.315.725-1.102.882-1.7.053-.311.159-.609.315-.882.229-.341.409-.712.536-1.102.535-1.512.567-3.37.378-4.944a20.508 20.508 0 00-3.276-8.911 24.5 24.5 0 00-2.899-3.59c-1.102-1.133-2.237-2.33-3.528-3.243-.599-.41-1.26-.567-1.796-1.04-.378-.377-1.008-.44-1.512-.724a6.63 6.63 0 00-2.016-.818c-.567-.126-1.198-.41-1.765-.315-.409.063-.252.22-.472.41-.315.251-.189-.095-.441-.19-.189-.063-.315.126-.473.158-.063.031-.409.031-.378 0-.189.094-.157.472-.252.661-.094.189-.283.315-.346.535a.911.911 0 00.094.756c.126.283.347.41 0 .661.819.535.315 1.606.914 2.267.22.22.693.536.661.882 0 .378-.661.504-.346.882.315.346.976.189 1.354.472.378.315.252.819.284 1.228.031.315.347.693.221 1.008-.095.189-.221.157-.253.378 0 .189.158.409.189.598l.41-.189c.088.237.162.479.221.724-.004.24-.058.476-.158.693-.063.252.095.724.095 1.039-.008.361.103.715.315 1.008.157.157.346.189.504.315.157.126.189.283.315.44a5.752 5.752 0 01-.693-.22c.081.377.279.719.567.976.063-.252.094-.504.157-.787.135.241.211.511.221.787 0 .252-.126.504-.126.756 0 .504.378.819.22 1.322a2.003 2.003 0 00-.031 1.48 7.08 7.08 0 01.409 1.606c.032.63-.252 1.165-.189 1.795.032.284.158.504-.189.535-.283.032-.598-.22-.85-.346a383.56 383.56 0 01-3.718-1.795c.221-.315.189-.346.032-.724-.095-.283-.221-.598-.315-.882-.221-.629-.473-1.259-.693-1.889-.441-1.165-1.04-2.33-1.261-3.59-.252-.976-.157-2.109-.157-3.243zM217.551 190.765c.41-.252.819-.504 1.229-.787-.252-.189-.473-.378-.725-.535-.252-.189-.378-.378-.535 0-.126.409.063.881.031 1.322zm.536-2.991c-.567.661.504.881.913.944-.063-.314-.315-1.668-.913-.944zm-12.696-2.393c.189-.567.504-2.173 1.354-2.079.221.032.41.221.63.252.212-.005.422-.026.631-.063a4.18 4.18 0 011.386.126c.504.158.882.41 1.449.441.401-.001.801.031 1.197.095.662.189.63.787.536 1.354.13-.103.237-.232.315-.378.094-.158.094-.347.22-.504.284-.283.599-.157.945-.126.378.032.914-.22 1.292-.094.157.063.252.251.441.346.16.064.331.096.504.094.378.032.756.158 1.103.158.453-.031.909 0 1.354.094.441.126.851.315 1.292.41.504.126 1.008.157 1.481.252.976.188 1.953.629 2.993.692a13.39 13.39 0 011.575.126c.222.014.444.046.661.095.158.094.252.535.347.692.913 1.89 1.575 3.874 2.3 5.826.756 2.015 1.512 4.062 2.268 6.077.346.945.819 1.889 1.103 2.866.283.913-.788 1.543-1.355 2.109a42.887 42.887 0 01-4.348 3.936c-1.575 1.197-3.371 1.984-5.166 2.771a21.732 21.732 0 01-5.765 1.575c-1.04.157-2.048.252-3.088.315-.98.048-1.963-.016-2.93-.189.095-.221.441-.662.378-.913 0-.063-.157-.189-.189-.284a.782.782 0 01-.031-.378c0-.598.22-1.165-.536-1.385-.031.315-.063.661-.063.976-.378-.567-.126-1.134.095-1.7.252.22.504.44.787.661-.063-.158-.472-1.165-.378-1.26.126-.094.347.158.473.032.094-.095 0-.315.031-.441.063-.189.284-.346.284-.567 0-.283-.378-.535-.567-.724a1.132 1.132 0 01-.378-.85c0-.536-.252-.504-.63-.85-.63-.567-.662-1.354-.347-2.079-.283-.031-.535-.031-.819-.063.252-.629.504-1.259.756-1.92.252-.63-.094-.977-.252-1.543-.378.377-.756.755-1.134 1.102-.094-1.197-.41-2.393-.284-3.621.032-.378.127-.347-.063-.63-.126-.189-.283-.347-.409-.567a3.563 3.563 0 01-.315-1.386 6.64 6.64 0 00-.158-1.354c-.094-.314-.409-.503-.472-.85-.126-.63.85-1.7.283-2.141-.283-.22-.661 0-.882-.378a4.742 4.742 0 01-.346-1.133c-.158-.567-.252-1.008-.032-1.575.126-.441.315-.944.473-1.448zM196.349 156.473c.158-.314.378-.377.725-.44 1.48-.284 2.961-.284 4.442-.41a8.649 8.649 0 001.26-.189c.346-.094.661-.283 1.008-.346.662-.157 1.355.283 2.016.252.334-.076.661-.182.977-.315.261-.032.526-.032.787 0a9.181 9.181 0 001.607-.063 13.058 13.058 0 001.922-.346c.409-.126 1.039-.221 1.354-.567a21.697 21.697 0 011.796 3.401c.504 1.165 1.166 2.235 1.764 3.337 1.229 2.236 2.111 4.629 2.962 7.054-.473-.221-.788-.441-1.134.063-.315.441-.725.315-1.229.378-.851.126-.945 1.07-1.134 1.763-.284-.346-.536-.693-.819-1.008-.221.252-.567.378-.756.662-.126.189-.063.346-.126.503-.063.158-.221.221-.347.347-.851-1.071-1.638.944-1.733 1.637-.094-.252-.22-.535-.315-.787a3.576 3.576 0 00-.472.504c-.063.126-.063.315-.158.409-.126.158-.189.095-.346.126-.252.063-.221.063-.378.252-.473.63-1.166 1.102-1.544 1.763-.504.851-1.166 1.701-1.449 2.645a6.9 6.9 0 01-.536 1.543c-.157.252-.409.473-.535.725-.158.315.126.44.094.724-.031.283-.504.567-.756.661a3.859 3.859 0 01-1.197.095 5.256 5.256 0 01-1.575-.158c-.441-.126-.378-.346-.504-.724a9.446 9.446 0 00-.567-1.291c-.284-.63-.441-1.039.441-1.228-.504-.095-1.292-.221-1.134-.882.063-.315.346-.535.315-.882-.032-.346-.315-.472-.599-.661a3.16 3.16 0 01-1.04-1.574 1.415 1.415 0 01-.031-.882c.158-.468.253-.955.283-1.448-.229.038-.46.059-.693.063.038-.183.091-.362.158-.536.031-.063.189-.094.189-.189 0-.157-.221-.157-.315-.252-.221-.251-.284-.881-.378-1.196a3.043 3.043 0 00-.315-.945c-.315-.504-.693.221-.63-.504.031-.377.063-.913.535-.976.536-.063.693.158.662-.504-.032-.472.094-1.448-.41-1.7a2.86 2.86 0 00-.882-.126c-.315-.031-.567.126-.85.126-.504-.031-.473-.724-.504-1.071a18.516 18.516 0 01-.221-4.754 6.379 6.379 0 01.315-2.079z" fill="#7166ed"/><path fill-rule="evenodd" clip-rule="evenodd" d="M183.621 94.379c.032-1.134.032-1.134-.598-1.575-.189.724.252 1.102.598 1.575zm-11.593 2.928c-.126-.283-.693-.189-.945-.189.255.385.466.797.63 1.228.126-.252.473-.756.315-1.039zm1.512 8.156c-.252-.189-.189-.189-.315-.441-.094-.189-.063-.284-.252-.41-.409-.252-.472-.252-.567-.787-.094-.472-.063-1.102-.252-1.543-.157-.315-.63-.346-.63-.724 0-.756 1.323-1.134 1.071-1.89-.063-.22-.315-.283-.409-.472a.901.901 0 01-.032-.409c-.031-.283-.126-.346-.378-.41a.528.528 0 010 .316c-.157.314-.851-.064-1.008-.284-.315-.472-.032-1.26.094-1.732.131-.6.153-1.219.063-1.826-.283.315-.567.63-.882.945-.157-.473-.189-.725-.63-1.04a2.442 2.442 0 01-.819-.881c-.094-.158-.157-.347-.378-.378-.189-.063-.504.157-.661.063a2.348 2.348 0 01-.252-.661c-.095-.284-.221-.599-.316-.882.631-1.575 1.135-3.212 2.048-4.629a13.635 13.635 0 013.308-3.275c.63-.472 1.229-.944 1.89-1.354.662-.409 1.355-.567 2.048-.881a7.278 7.278 0 012.268-.693c.378-.032.788.063 1.166.031.441-.063.851-.189 1.292-.283 0 2.267.819 4.566 1.606 6.644.347.945.851 1.826 1.229 2.802.378.945.725 1.921 1.134 2.866.819 1.952 1.575 3.968 2.646 5.794.095.157.189.283.158.41-.032.03-.158.125-.189.157l-.284.378a6.693 6.693 0 00-.378 1.007c-.283.787-.819 1.543-1.228 2.267a10.034 10.034 0 01-1.796 2.205c-.315.314-.819.598-1.008 1.007a5.563 5.563 0 00-.252 1.039 7.004 7.004 0 00-.126-.787c-.284.598-1.008.661-1.544.945-.661.378-1.26.85-1.953 1.165a9.684 9.684 0 01-2.237.693 7.384 7.384 0 01-1.197.094 3.712 3.712 0 01-1.04-.346c1.135-.976.725-2.677.063-3.81-.189.44-.409.881-.598 1.322-.126-.315-.567-.598-.378-.976.126-.22.283-.158.315-.409 0-.224-.065-.443-.189-.63-.134.207-.21.446-.221.693zM176.848 112.768c.252-.567 1.323-.693 1.827-.819.883-.189 1.702-.692 2.489-1.102a7.886 7.886 0 001.985-1.354c.256-.227.556-.398.882-.504.319-.156.599-.382.819-.661.504-.567 1.166-1.007 1.575-1.669.378-.661.945-1.102 1.418-1.7a25.37 25.37 0 001.449-2.299c.882.945 1.103 2.425 1.638 3.558.662 1.417 1.292 2.866 1.922 4.314 1.103 2.582 2.205 5.196 3.182 7.873.032.094.221.409.189.535-.031.094-.284.22-.347.283a3.769 3.769 0 00-.504.724c-.315.441-.661.882-1.008 1.292a13.022 13.022 0 01-2.898 2.361c-.473.252-1.134.787-1.67.756a5.457 5.457 0 00-1.89.063 6.816 6.816 0 01-1.953.252 2.377 2.377 0 00-.819.063c-.189.063-.315.283-.536.283-.252 0-.409-.22-.661-.315a2.39 2.39 0 00-.662-.094c-.315.031-1.103.315-1.355.063-.283-.284-.189-1.071-.693-1.165-.378-.063-1.197.629-1.512.85.126-.409.63-1.228.347-1.669-.126-.189-.252-.22-.504-.189-.252.063-.284.252-.505.346-1.134.63-1.039-2.361-.976-2.834.283-.031.567-.031.85-.063 0 .252-.094.851.095.977.157.094.662 0 .851 0-.378.377-.567.692.031 1.007a.634.634 0 00.945-.504c.032-.503-.756-.598-.63-1.102.189-.692.788.473.914.693a1.664 1.664 0 00-.347-1.606c-.472-.567-1.008-.598-1.67-.409-.063-.284-.22-.473-.283-.724-.095-.315.063-.221.189-.504.22-.441-.221-.599-.315-.945a.707.707 0 01.157-.598c.126-.221.347-.347 0-.472-.252-.095-.567.157-.819-.063-.252-.252-.157-.756-.315-1.04-.22-.44-.441-.157-.819-.031-.252.094-.346.094-.378-.189a.348.348 0 01.126-.378c.189-.157.441-.063.63-.094.284-.063.284-.252.41-.504-.473-.032-.504.126-.914.283a1.4 1.4 0 01-1.071 0c.262-.05.516-.135.756-.252.315-.22.252-.472.378-.724zM146.699 96.426c-.472-.882-.913-1.795-1.354-2.708-.252-.567-.819-1.323-.158-1.764.441-.314 1.292-.724 1.859-.503.473.189.756 1.354 1.418.598.126.346.535.283.787.472.189.126.158.284.284.473.139.164.286.322.441.472.117-.239.266-.461.441-.661.106.205.17.43.189.66.063.158.094.253.252.316.347.126.693-.315.882-.535-.094.377-.157.818.095 1.133.189.252.535.315.724.567.221.283.221.535.599.661.131.05.269.082.409.095.095 0 .126-.158.158-.158.126 0 .315.158.409.19-.22.282-.157.409.126.597.315.22.284.252.441.63a.81.81 0 00.315.41c.158.094.41 0 .536.126.284.188.252.724.473.976.315.346.693.566.976.944.278.387.521.798.725 1.228.409.819.976 1.575 1.039 2.488-.009.425.044.85.158 1.259.189.347.567.504.725.914.117.38.201.77.252 1.165.063.441-.221.787-.032 1.228.162.367.247.763.252 1.165.032.409.378.724.158 1.07a2.855 2.855 0 00-.473 1.04c-.063.472 0 .629.41.818a4.355 4.355 0 00-.63 1.197 3.487 3.487 0 01-.568 1.196c-.567.725-1.26 1.102-1.26 2.142-2.52-.851-5.04-1.701-7.592-2.551.977-.189.472-1.889.409-2.519-.126-1.165-.252-2.33-.409-3.495-.158-1.008-.441-1.984-.599-2.96-.094-.504-.157-1.039-.283-1.543-.126-.441-.378-.85-.473-1.291a15.218 15.218 0 00-.787-2.834 19.744 19.744 0 00-1.324-2.708zM220.323 183.522a1.032 1.032 0 00-.63-.126 8.187 8.187 0 01-1.701-.378c-.693-.189-1.449-.315-2.174-.441-.693-.126-1.386-.094-2.047-.283a7.716 7.716 0 00-1.922-.409c-.788-.032-1.229-.378-1.859.252-.567-.788-1.386-.788-2.3-.914-.315-.031-.693 0-.787-.377-.063-.347.22-.851.378-1.134.819-1.543 1.543-3.18 2.646-4.566 1.071-1.354 2.489-2.865 4.001-3.715.819-.473 1.796-.725 2.678-1.071.945-.378 1.89-.787 2.835-1.197.504.536.536 1.165.788 1.827.22.629.63 1.165.819 1.795.41 1.259.788 2.487 1.292 3.715a237.5 237.5 0 013.181 7.778 47.288 47.288 0 00-4.694-.504c-.315-.031-.283-.094-.504-.252zM136.996 87.042c-.441.063-.977.157-1.26.535a34.21 34.21 0 00-4.222-4.849 53.092 53.092 0 00-4.631-4.22c-3.276-2.644-6.93-4.786-10.679-6.675 1.197-1.385 2.362-2.771 3.56-4.125a31.99 31.99 0 013.748-3.4c.095 1.07.284 2.14.284 3.211 0 1.07-.158 2.141-.158 3.212-.042.89.043 1.78.253 2.645.189.661.567 1.606 1.291 1.826.977.284 2.646-.189 3.371-.881.63-.599.977-1.48 1.481-2.173.346-.472.693-.661 1.291-.504a20.4 20.4 0 012.521 1.197c.913.472 1.827.913 2.741 1.385-.063.032-.442.252-.442.315.085.185.158.374.221.567-.009.35-.095.694-.252 1.007a2.999 2.999 0 00-.189 1.04c0 .377.22.63.315 1.007.095.378-.189.504-.347.819a1.677 1.677 0 00-.094 1.039c.103.275.177.56.22.85 0 .158-.126.315-.094.472.031.158.22.252.347.347-.505.315-.599.283-.379.819.106.38.117.78.032 1.165-.032.22-.252.787-.095 1.007.126.19.599.032.788.032-.063.41-.189.346-.378.693-.093.229-.126.478-.095.724-.031.63.347.692.851.913zM209.928 152.664a8.555 8.555 0 01-1.985.378 4.743 4.743 0 00-1.764.315c-.189.094-.441.346-.662.346-.252 0-.189-.189-.378-.315s-.315 0-.472.063c-.26.052-.524.074-.788.063-.756.032-1.481.032-2.237.063-.661.032-1.323.126-1.985.126h-2.11c.567-1.07 1.008-2.173 1.89-3.054.441-.441.819-.913 1.229-1.386.432-.421.896-.811 1.386-1.165.44-.439.926-.829 1.449-1.165.235-.157.489-.284.756-.378.221-.063.41-.031.599-.157.22-.126.441-.409.661-.567.23-.165.472-.313.725-.441.504-.283 1.008-.504 1.48-.818a106.784 106.784 0 014.033 8.344 2.017 2.017 0 00-1.827-.252zM171.24 68.967c-.15.16-.278.34-.378.535-.094.22-.031.441-.094.662-.095.252-.378.378-.189.724.126.22.441.283.504.535.157.473-.378.913-.599 1.291a.992.992 0 00-.157.725c.054.145.128.283.22.409.063.252 0 0-.031.252-.032.252-.126.535-.158.787-.031.283.063.598.032.85a6.255 6.255 0 01-.882 1.921c-.315.44-.536.598-1.04.41-2.646-1.04-3.182-3.905-3.717-6.361a19.923 19.923 0 01-.504-4.346c-.032-1.543-.126-3.117-.032-4.66.441.126.977.157 1.292.535.157.19.157.441.315.63.289.256.606.478.945.661l4.158 3.118c.189.157.378.283.567.44.189.158.252.126.221.347-.132.199-.291.38-.473.535zM152.654 77.626c.252.315.724.41 1.039.693.277.296.481.652.599 1.04.212.446.351.925.409 1.416.038.5.123.996.252 1.48.063.347.032.441-.315.535a4.078 4.078 0 01-1.512.063c-2.3-.22-4.127-2.015-5.544-3.684-1.607-1.92-2.899-4.062-4.254-6.14.662-.378 1.387-.661 2.017-1.07.598-.41 1.134-.914 1.701-1.323.094.252.094.535.189.756.126.283.284.315.504.472.424.282.789.646 1.071 1.07.252.378.378.882.693 1.229.284.315.725.44 1.04.724.472.378.882 1.07 1.292 1.543.298.38.571.78.819 1.196zM195.782 98.661c-.094.252-.283.598-.126.85.252.473.504-.22.725-.346-.04.404-.114.804-.22 1.196a2.355 2.355 0 00-.127.819c.063.283.284.472.316.756a8.54 8.54 0 01-.189.85c.472-.063.567-.126.85.22a2.431 2.431 0 00-.504.126c-.126.095-.063.063-.094.252a5.39 5.39 0 00.031 1.008c0 .346.189.283.347.504.069.213.09.439.063.661-.032.252-.252.504-.221.756.032.315.315.315.473.535.189.283.031.504-.063.819a8.597 8.597 0 00-.158 1.259c-2.016-4.093-3.623-8.376-5.891-12.343a1.324 1.324 0 01-.158-.284c.063-.031.126-.094.189-.126.027-.219.038-.44.032-.66.031-.473.157-.946.22-1.418.063-.535-.063-1.039 0-1.574.037-.177.058-.356.063-.536 0-.283-.157-.472-.157-.724.026-.285.069-.57.126-.85a4.292 4.292 0 00-.063-.63c-.095-.567-.252-1.102-.347-1.669-.189-1.133-.189-2.298-.378-3.463.315.44.662.881.945 1.322.283.455.536.929.757 1.417.234.395.508.764.819 1.102.252.284.252.252.157.63a1.387 1.387 0 00-.063.504c.095.693 1.134.472 1.008 1.228-.063.378-.378.724-.22 1.133.126.378.567.567.724.914.189.409-.063.66-.063 1.07-.004.157.028.312.093.454.066.142.164.267.285.365.315.315.315.535.378.976.07.399.209.782.41 1.134.189.346.441.44.346.85-.07.315-.176.621-.315.913zM200.603 104.927a13.82 13.82 0 01-1.607 3.779 14.17 14.17 0 01-.347-2.015 43.902 43.902 0 00-.126-2.047 37.791 37.791 0 00-.63-3.779 694.806 694.806 0 00-1.638-7.903c.819 1.322 1.638 2.613 2.457 3.936.41.63.788 1.29 1.197 1.92.316.536.914 1.197 1.009 1.795.063.755.063 1.513 0 2.268a9.253 9.253 0 01-.315 2.046zM188.977 89.152a1.993 1.993 0 01-.189.566c-.026.22-.037.44-.032.662 0 .535-.031 1.07-.063 1.606-1.102-1.512-1.669-3.275-2.646-4.85a14.864 14.864 0 01-1.197-2.078c-.347-.819-.662-1.606-1.04-2.393-.22-.44-.441-.85-.661-1.291-.095-.22-.221-.315-.095-.504a.502.502 0 01.284-.22c.283-.063.441.283.661.378.315.157.693.094 1.008.22.725.252 1.45.724 2.174 1.008.221.094.41.126.378.409-.031.252-.283.189 0 .41.126.125.315.062.473.03 0 .536-.095.851.157 1.323.221.378.126.662.158 1.07.058.468.186.925.378 1.355.157.41.409.693.157 1.102-.126.22-.409.378-.252.661.158.284.378.19.347.536zM192.128 159.214c.788-.473.031-.945 0-1.386v1.386zm1.197-2.646c.126 0 .536.063.599.158.005.21-.006.421-.032.63 0 .378.032.787.032 1.165-.032.409-.221.755-.252 1.133 0 .347.22.536.315.882.126.409-.032 1.574-.504 1.7a3.787 3.787 0 00-.095-.881c-.22-.095-.346.472-.409.63-.631-.599-.788-1.449-1.103-2.268-.347-.944-.662-1.889-1.008-2.834.409-.031.819-.063 1.228-.126a4.197 4.197 0 011.229-.189zM204.162 183.397c.347.157.252.567.252.944.012.238-.041.474-.151.685a1.34 1.34 0 01-.479.512c-.158-.441-.756-1.386-.567-1.858.126-.378.63-.441.945-.283z" fill="#7166ed"/><path fill-rule="evenodd" clip-rule="evenodd" d="M136.996 78.477c-.22-.22-.598-.347-.63-.693-.031-.346.284-.882.378-1.197.095.63.189 1.26.252 1.89zM187.843 143.186c.598 0-.063-1.228-.158-1.511-.157.315-.598 1.511.158 1.511zm-4.946-15.65c-.221-.126-.693-.315-.819-.566-.158-.315.157-.315.409-.315a3.814 3.814 0 011.04.031c.315.063.441.126.756-.063.157-.094.315-.378.504-.409.189-.032.441.157.599.252.598.283 1.26.094 1.89.126.22.037.446.026.661-.032.284-.126.347-.315.693-.283.568.031 1.009.22 1.607.063.378-.095.851-.473 1.26-.378.378.094.567.693.851.913.094-.504.157-1.039.535-1.417.442-.409 1.135-.567 1.607-.913 1.134-.787 1.922-1.889 2.773-2.929.51.785.943 1.619 1.291 2.488l1.04 2.645c.693 1.763 1.449 3.495 2.205 5.259 1.544 3.526 3.276 6.959 4.82 10.485-1.039.032-2.048.536-2.961 1.039a1.188 1.188 0 00-.41.378c-.063.095-.157.347-.315.378-.063.032-.315-.126-.441-.094a1.01 1.01 0 00-.441.252 42.787 42.787 0 00-2.583 2.172 5.166 5.166 0 00-.914 1.102c-.276.446-.628.84-1.039 1.166-.694.566-1.103 1.574-1.607 2.33-.293.433-.556.885-.788 1.354-.189.441-.252.944-.63 1.291-.756.724-1.922.315-2.835.409-.347.032-.441.158-.756 0 0-.126-.063-.157-.158-.126a.646.646 0 00-.283.158 5.102 5.102 0 00-.693.44c-.126-.314-.252-.661-.41-.976.158 0 .693.063.788-.157.063-.189-.221-.252-.347-.347-.126-.126-.189-.566-.441-.535-.189 0-.189.189-.189.347-.441 0-.409-.378-.504-.693a15.666 15.666 0 00-.189-.63c-.032-.157-.284-.724-.221-.85.158-.315 1.135-.284.505-.661-.19-.126-.662-.095-.82-.252-.126-.126-.126-.693-.157-.882.283.031.63.189.819-.063.252-.378-.126-.945-.315-1.26-.252.189-.41.41-.693.189a2.51 2.51 0 01-.693-1.039c.315 0 .283.063.441-.189.081-.179.134-.371.157-.566.095-.347.284-.599-.126-.693-.252-.063-.315 0-.378.252a7.362 7.362 0 00-.094 1.196c-.41-.504-.788-1.039-.662-1.7.252.252.284.189.567 0 .315-.189.599-.409.914-.598-.378-.347-.977 0-1.355-.284-.252-.189-.126-.787-.157-1.039-.032-.346-.158-.661-.158-1.008.032-.346.441-.535.221-.85-.158-.22-.504-.189-.567-.535-.063-.346.283-.567.535-.724-.378-.126-1.134-.252-.787-.788.157-.251.378-.251.378-.629a1.708 1.708 0 00-.284-.756c-.157.346-.346 1.102-.819 1.102-.378-.031-.725-.346-.599-.693.347-1.039 1.292-1.133 2.206-1.322-.158-.63-.63-.598-1.103-.284-.283.189-.441.347-.788.158-.346-.221-.189-.284-.031-.567.315-.598-.126-.945-.567-1.291a5.956 5.956 0 01-.599-.661c-.22-.221-.598-.284-.85-.41.346-.157.63-.346 1.008-.22.252.094.441.252.724.094.631-.314-.189-.409-.283-.661-.063-.157.126-.472.063-.661a2.167 2.167 0 00-.315-.598c-.252-.41-.536-.819-.378-1.323a1.184 1.184 0 00-.441.945 9.45 9.45 0 01-.126 1.322c-.032-.661-.63-1.07-.725-1.7-.031-.189.126-.661-.063-.787-.157-.095-.441.126-.598.126a11.15 11.15 0 01.315-1.795c.378-.693.882-.882 1.323-1.26z" fill="#7166ed"/><path fill-rule="evenodd" clip-rule="evenodd" d="M19.613 64.464c.787.158 1.544.41 2.331.567.945.19 1.89.347 2.835.472.63.095 1.23.252 1.639.756.787 1.008 1.575 2.708.504 3.747-.504.504-1.387.347-2.048.536a16.6 16.6 0 01-2.142.598c-3.529.472-7.057 1.323-10.523 2.173-1.592.39-3.151.906-4.662 1.543-.775.295-1.515.675-2.205 1.133-.63.37-1.211.813-1.733 1.323 1.95.325 3.938.336 5.891.031.952-.11 1.909-.174 2.867-.189.945-.063 1.922-.126 2.867-.22a74.667 74.667 0 002.772-.315 3.85 3.85 0 011.04-.063.92.92 0 00.504.032c.163-.06.321-.135.472-.22.693-.253 1.45-.19 2.206-.221.535-.032 1.134-.19 1.7-.063.977.22 1.418 1.574 1.639 2.393.1.568.056 1.153-.126 1.7-.189.598-.567.598-1.04.85-.648.41-1.321.778-2.016 1.102-.63.252-1.26.473-1.859.756-1.354.599-2.803 1.102-4.095 1.858-.693.41-1.355.819-2.08 1.165-.657.3-1.28.669-1.858 1.102a14.642 14.642 0 00-3.182 3.055c.391.047.787.014 1.166-.095.504-.189.945-.44 1.449-.598.945-.284 1.89-.567 2.804-.913.945-.347 1.89-.693 2.835-.977.487-.134.981-.24 1.48-.314.427-.11.84-.27 1.23-.473 1.984-.787 4.126-1.196 6.174-1.763 2.016-.567 3.97-1.134 6.017-1.543.945-.189 1.89-.346 2.867-.504a6.43 6.43 0 012.678.252c.932.232 1.848.527 2.74.882.662.283 1.608.535 2.143 1.039.263.304.559.579.882.819.304.16.62.297.945.409.725.252 1.387.598 2.111.882.444.177.91.294 1.386.346.372.019.731.139 1.04.346.65.282 1.325.503 2.016.662.662.22 1.45.787 2.174.535s1.166-1.165 1.607-1.732c1.102-1.48 2.079-2.96 2.709-4.755.661-1.889 1.291-3.747 1.922-5.636.346-.976.661-1.952 1.008-2.929.189-.535.567-1.133.157-1.637-.504-.567-.661-1.48-1.165-2.141-.505-.661-1.072-1.228-1.607-1.858-.315-.378-.63-.724-.914-1.134a11.095 11.095 0 00-.661-1.007 5.374 5.374 0 00-.82-.661c-.283-.284-.535-.599-.787-.882-.662-.756-1.292-1.575-1.985-2.299-.598-.598-1.26-1.133-1.858-1.732-1.292-1.29-2.678-2.487-4.033-3.715-1.323-1.197-2.646-2.362-3.906-3.59-1.198-1.165-2.647-2.078-3.97-3.054-1.48-1.04-2.867-2.173-4.473-3.055-1.513-.85-3.025-1.102-4.726-1.354.143.338.311.664.504.976.353.432.732.842 1.134 1.228l2.268 2.456c1.481 1.575 3.025 3.086 4.474 4.724 1.134 1.29 2.048 2.613 2.52 4.282.252.882.378 1.827-.157 2.645-.41.63-1.071.567-1.764.504-1.765-.157-3.497-.756-5.23-1.07-1.922-.347-3.907-.441-5.828-.63-.977-.095-1.954-.378-2.93-.441-.441-.032-.882.063-1.323.031-.441-.031-.882-.157-1.323-.22a8.317 8.317 0 00-2.647-.126c-.902.09-1.812.068-2.709-.063-1.922-.157-3.906.063-5.828.252a40.019 40.019 0 00-5.45.85c1.89.472 3.749.976 5.639 1.417 1.921.44 3.906.756 5.797 1.323.819.22 1.67.251 2.52.44zm148.635 39.77c-.221-.755-.41-1.543-.662-2.298a2.03 2.03 0 00-.252-.441c.193.299.331.629.41.976.157.598.315 1.165.504 1.763zm.409.756c-.031-.094-.094-.189-.126-.283.029.1.071.195.126.283zm.158.378l-.095-.283a.984.984 0 00.095.283zm-.536-1.008l.189.284-.189-.284zM53.353 97.401c.756.473 1.481.788 2.08 1.449 1.386 1.48 2.866 2.897 4.19 4.44.535.63.819 1.385 1.417 1.952a19.23 19.23 0 002.269 1.7c1.7 1.197 3.402 2.488 5.198 3.527.41.221.819.472 1.228.693.3.098.587.236.85.409.221.189.316.473.568.63.189.126.41.252.599.378 1.575 1.008 3.181 1.984 4.757 2.96 1.575.944 3.118 1.889 4.662 2.897.82.535 1.575 1.133 2.394 1.637.662.441 1.355.819 2.017 1.26.668.495 1.373.937 2.11 1.322.725.347 1.481.661 2.237 1.008.441.22.82.472 1.229.724.258.098.52.182.787.252.851.283 1.607.787 2.49 1.071 3.59 1.102 7.088-.473 10.206-2.173 1.576-.85 3.025-1.952 4.537-2.897.662-.409 1.481-.724 2.079-1.228.315-.252.41-.504.788-.693.316-.17.621-.359.913-.567a39.49 39.49 0 004.064-3.558c.694-.693 1.387-1.417 2.08-2.141.535-.567.945-1.26 1.449-1.858 1.197-1.448 2.331-2.928 3.497-4.44.567-.724 1.102-1.448 1.67-2.172.378-.473.945-.945 1.071-1.575.126-.567-.221-1.134-.504-1.606-.43-.702-.799-1.44-1.103-2.204-.41-1.165-1.071-3.432.22-4.282.473.787 1.072 1.48 1.576 2.235.504.756.724 1.732 1.354 2.425.662.724 1.513 1.228 2.206 1.921.693.692 1.291 1.448 1.953 2.172.693.756 1.417 1.449 2.142 2.173a20.754 20.754 0 002.237 1.795 26.1 26.1 0 002.489 1.637 5.96 5.96 0 001.165.63c.422.125.833.282 1.229.472 1.701.882 3.402 1.732 5.135 2.551.461.265.947.486 1.449.661.17.006.339.027.504.063.226.081.447.176.662.284.882.377 1.796.692 2.709 1.007 1.922.63 3.844 1.228 5.734 1.921 1.764.661 3.497 1.354 5.324 1.858 1.796.504 3.686.567 5.545.756.504.063 1.071 0 1.543.126.361.141.747.205 1.135.188.814-.02 1.628.054 2.425.221-1.26-2.456-1.89-5.259-2.804-7.841-.252-.693-.535-1.322-.724-2.015a9.043 9.043 0 00-.756-1.795c-.378-.693-.504-1.511-.756-2.236.189.599.315 1.197.504 1.795-.252-.504-.536-.976-.788-1.48a2.656 2.656 0 01-.252-1.385c-.661.063-.693-.598-.787-1.102-.158-.756-.316-1.48-.473-2.236a2.07 2.07 0 01-.095-.63 5.506 5.506 0 00-.22-.661 48.058 48.058 0 01-1.638-4.975c-.473-1.89-.882-3.779-1.292-5.668a25.026 25.026 0 01-.63-3.055c-.031-.503-.284-2.078.41-2.298.535-.158 1.102 1.48 1.26 1.826.346.882.661 1.763.976 2.645.284.787.504 1.575.851 2.362.315.787.441 1.606.725 2.393.157.472.441.819.63 1.26.126.314.189.692.315 1.007.22.693.598 1.386.85 2.078.347.882.756 1.732 1.103 2.614.346.787.535 1.637.85 2.425.316.755.788 1.448 1.072 2.235.346.85.63 1.701.976 2.551.693 1.763 1.355 3.495 1.89 5.321.126.441.347.914.473 1.291.117.344.254.68.41 1.008.23.676.399 1.372.504 2.078l-.032-.22c.284 0 .567.063.756-.158.221-.283.158-.818.189-1.133.315.031.189.189.158.472-.032.158-.032.284-.063.441l-.126 1.102c-.095-.063-.315-.409-.41-.409-.126 0-.283.346-.346.535l.094.189c.092.148.166.307.221.472.107.333.233.659.378.976.094.158.189.315.283.441.095.095.378.252.41.378.126.252-.063.913-.032 1.228.02.41.105.814.252 1.197.063.157.221.252.284.378.078.167.121.35.126.535.134.843.367 1.667.693 2.456.346.882.599 1.826.882 2.708.284.85.662 1.669.945 2.519.347.976.662 1.984 1.008 2.992.252.755.63 1.417.882 2.141.284.756.662 1.417.788 2.204.158.85.599 1.732.945 2.551.284.661.851 1.385.945 2.109.063.347-.031.662.095.976.094.284.283.536.409.819.158.378.032.724.158 1.134.094.346.346.567.504.881.315.504.22 1.102.567 1.638.472.756.63 1.606.914 2.456.126.409.22.85.346 1.291.023.226.076.449.158.661.126.189.315.126.409.221.095.094.095.409.126.535.126.409.284.787.441 1.165.347.819.756 1.637 1.04 2.488l.945 2.645c.157.409.283.85.473 1.259.132.325.337.616.598.85.252.315.378.725.63 1.071.217.275.387.583.504.913.162.717.373 1.422.63 2.11.756 1.732 1.701 3.369 2.458 5.101a134.138 134.138 0 012.236 5.479c.63 1.732 1.071 3.558 1.702 5.29.661 1.732 1.228 3.464 1.858 5.196.662 1.795 1.355 3.558 1.922 5.384.221.661.347 1.291.504 1.952-.031-.283-.094-.598-.126-.85.63 1.071 1.229 2.236.945 3.496a2.845 2.845 0 01-.409-.819c.033.153.086.301.157.441.195.35.354.719.473 1.102.283.944.535 1.858.819 2.802.126.441.252.913.409 1.354.126.378.41.724.536 1.102.126.441.094.945.189 1.386.086.399.235.781.441 1.133.157.284.378.504.504.788.158.346.063.692.095 1.07.063.473.22.913.283 1.354.063.441-.157.724-.22 1.134-.095.441.094.724.22 1.133.114.35.198.708.252 1.071.016.248.069.492.158.724.203.065.416.097.63.095.426.085.857.138 1.291.157.917-.026 1.832-.1 2.741-.22a26.635 26.635 0 005.419-1.039 30.601 30.601 0 004.883-2.142 21.473 21.473 0 004.221-3.117 58.996 58.996 0 002.048-1.984c.315-.315.63-.661.977-.976.252-.252.598-.504.63-.882.031-.44-.284-.944-.441-1.354-.126-.346-.284-.724-.41-1.07a91.107 91.107 0 01-.976-2.645c-.693-1.827-1.355-3.653-2.017-5.479-.693-1.827-1.386-3.621-2.205-5.416a75.167 75.167 0 01-2.174-5.164c-.63-1.669-1.354-3.244-2.047-4.881a45.933 45.933 0 01-1.04-2.645 12.706 12.706 0 00-.788-2.173 6.058 6.058 0 01-.567-1.417 2.793 2.793 0 00-.472-1.133 7.847 7.847 0 01-1.229-2.456 39.765 39.765 0 00-2.079-5.07c-.819-1.638-1.764-3.212-2.52-4.912-.756-1.701-1.796-3.212-2.521-4.944-1.48-3.558-3.497-6.802-5.009-10.328-1.48-3.495-3.213-6.833-4.725-10.297a166.41 166.41 0 01-2.269-5.479l-1.039-2.645c-.315-.787-.882-1.386-1.103-2.204a10.15 10.15 0 00-1.008-2.236c-.41-.787-.63-1.7-.945-2.519-.693-1.795-1.449-3.558-2.205-5.322-.788-1.826-1.607-3.589-2.395-5.416-.315-.692-.472-1.417-.787-2.078-.158-.346-.473-.63-.599-.944a2.887 2.887 0 01-.094-.504 3.984 3.984 0 00-.315-.63c-.819-1.638-1.702-3.243-2.426-4.912-.756-1.732-1.512-3.433-2.174-5.196-.662-1.732-1.481-3.37-2.048-5.164-.252-.85-.535-1.7-.724-2.55-.189-.756-.504-1.858-.347-2.646.095-.472.662-1.448 1.229-1.007.504.41.819 1.196 1.102 1.763.41.85.883 1.7 1.229 2.582.257.708.573 1.393.945 2.047.977 1.574 1.733 3.212 2.615 4.85.195.349.427.676.693.975.252.315.189.441.284.85.189.693.756 1.26 1.071 1.921.345.87.756 1.712 1.228 2.52.41.724.82 1.448 1.166 2.204.788 1.731 1.544 3.463 2.331 5.195.41.913.819 1.858 1.26 2.74.19.409.379.787.599 1.196.126.252.378.441.504.724.126.284 0 .536.095.819.126.315.283.472.567.284.63-.441.756-1.354 1.102-1.984.819-1.543 1.576-2.992 1.891-4.723.11-.973.141-1.952.094-2.929 0-.85-.535-1.448-.977-2.173-1.071-1.668-2.11-3.369-3.213-5.038-.472-.724-.882-1.511-1.386-2.236-.473-.692-1.103-1.228-1.607-1.857-.283-.378-.504-.756-.819-1.102a7.488 7.488 0 01-.724-.945c-.41-.63-.694-1.323-1.135-1.92a136.427 136.427 0 00-3.213-4.283c-.599-.756-1.292-1.197-2.016-1.795a22.692 22.692 0 01-1.985-1.89c-1.26-1.227-2.457-2.519-3.843-3.62a87.514 87.514 0 00-4.442-3.15c-.757-.472-1.67-.85-2.269-1.51a3.562 3.562 0 00-.819-.725c-.315-.19-.661-.22-.945-.41-.851-.472-1.607-1.228-2.394-1.826-.756-.598-1.512-1.165-2.3-1.763-.315-.252-.914-.536-1.166-.85-.126-.19-.126-.41-.252-.599-.346-.409-1.008-.472-1.48-.63-.903-.318-1.83-.56-2.773-.724-.85-.157-1.638-.535-2.457-.818a23.05 23.05 0 00-5.45-1.165c.85 2.456 1.796 4.88 2.426 7.4.252 1.007.315 2.204.724 3.18.158.346.567.692.378 1.07a3.39 3.39 0 01-.85.788c-.567.377-1.292-.032-1.828-.252-.945-.378-1.858-.882-2.898-1.04-1.071-.189-1.953-1.165-3.024-1.165-.437.02-.852.2-1.166.504-.346.284-.756.535-1.103.85a8.545 8.545 0 01-2.583 1.638c-.315.126-.598.063-.913.315-.221.189-.41.472-.725.535a45.665 45.665 0 014.064 4.818c.591.819 1.058 1.72 1.386 2.676.158.473.284.819 0 1.291a.803.803 0 01-.724.41c-.757-.126-1.418-1.134-1.828-1.67-.472-.629-1.008-1.227-1.512-1.857-1.039-1.291-1.953-2.645-3.245-3.716-.378-.315-.787-.661-1.197-.944-.346-.22-.567-.063-.945-.126-.945-.158-1.796-.662-2.615-1.07-.913-.473-1.827-.914-2.741-1.355-.472-.22-1.197-.724-1.764-.504-.63.252-.976 1.26-1.323 1.795-.347.504-.63.945-1.166 1.228-.882.472-2.646 1.04-3.402.126-1.103-1.29-1.008-3.4-.914-5.007.11-.972.142-1.95.095-2.928-.063-.85-.158-1.7-.252-2.55a32.307 32.307 0 00-4.379 4.187c-.693.85-1.418 1.638-2.142 2.457a5.143 5.143 0 00-.914 1.259 4.81 4.81 0 01-.819 1.102c-.662.724-1.103 1.669-1.607 2.488-.472.787-.976 1.606-1.418 2.424a43.885 43.885 0 00-2.488 4.85c-.378.881-.851 1.668-1.229 2.55-.378.882-.725 1.732-1.103 2.614a12.926 12.926 0 00-.598 1.543c-.126.346 0 .818-.158 1.165-.126.315-.441.598-.567.944-.126.347-.22.725-.346 1.071-.693 1.7-1.607 3.338-2.395 5.038a55.978 55.978 0 01-2.551 5.164 50.56 50.56 0 01-3.34 4.818c-.598.819-1.228 1.606-1.827 2.456-.195.32-.428.616-.693.882-.284.194-.59.353-.914.472-.157-.441-.41-.756-.315-1.259.082-.429.198-.85.347-1.26.252-.787.913-1.511.756-2.362-.158-.818-.82-1.48-1.323-2.078-.662-.819-1.355-1.637-2.017-2.456-2.268-2.74-4.662-5.353-7.025-7.998-1.197-1.354-2.363-2.74-3.591-4.062-.567-.598-1.198-1.07-1.796-1.638-.473-.44-.788-1.007-1.26-1.48-.347-.346-.725-.598-1.071-.944l-.85-.85c-.631-.63-1.23-1.26-1.828-1.89-1.229-1.26-2.363-2.613-3.56-3.904-2.331-2.488-4.757-4.85-7.183-7.243a65.176 65.176 0 00-1.764 6.33c-.126.535-.19 1.07-.347 1.574-.189.504-.41.976-.598 1.449a27.21 27.21 0 01-1.292 3.274c-1.008 1.984-1.89 4.251-3.34 5.952-.724.85-1.7 1.574-2.551 2.298-.914.788-1.796 1.575-2.71 2.362.705.6 1.453 1.147 2.237 1.637zm74.885 13.1a.806.806 0 01.22-.347.454.454 0 00-.189.221c-.148.313-.264.64-.346.976.094-.284.189-.567.315-.85zm21.863 15.618c-.63.693-1.291 1.354-1.921 2.047a24.293 24.293 0 00-1.575 2.015 78.307 78.307 0 01-3.529 4.314c-1.166 1.354-2.457 2.613-3.591 3.999a27.492 27.492 0 00-2.836 4.471c-.392.73-.845 1.425-1.354 2.079a4 4 0 00-.725.913 9.53 9.53 0 00-.315 1.291c-.882 3.747-1.764 7.494-2.615 11.241-.409 1.826-.693 3.653-1.071 5.479-.409 1.858-1.008 3.621-1.386 5.479-.756 3.747-1.292 7.557-2.111 11.273-.819 3.621-2.205 7.085-2.961 10.738-.095.503-.252.976-.126 1.511.109.412.172.834.189 1.26-.048.712.14 1.42.535 2.015a8.694 8.694 0 003.529 3.054c.756.347 1.48.819 2.3 1.008.409.094.787.031 1.165.094.41.063.725.347 1.103.473 1.481.598 3.339.409 4.883.409 1.701 0 3.434-.126 5.009-.819l.378-.189c.221-.031.252-.126.126-.283 0-.189-.094-.378-.094-.567.001-.385.065-.768.189-1.133.22-.882.441-1.764.661-2.677.851-3.716 1.229-7.463 1.764-11.21.252-1.921.662-3.841.977-5.794.315-1.858.504-3.715.756-5.573.252-1.858.504-3.716.756-5.542.126-1.008.441-2.015.567-3.023.095-.756-.094-1.48.063-2.267.41-1.795.41-3.684.882-5.479.473-1.858 1.166-3.653 1.796-5.448.315-.944.662-1.858.977-2.802.189-.536.409-1.134.976-1.417.315-.158.63-.126.914-.347.338-.29.654-.606.945-.944.662-.661 1.323-1.323 1.985-2.015 2.583-2.583 5.103-5.291 7.939-7.589 1.323-1.071 2.552-2.267 4.032-3.118 1.575-.913 3.119-1.889 4.694-2.834a17.392 17.392 0 012.426-1.196c.725-.284.284-1.008.063-1.575a44.008 44.008 0 01-.882-2.676c-.221-.693-.315-1.574-1.008-1.952-.473-.252-.662.031-1.103.189a2.517 2.517 0 01-.976.094c-.725-.031-1.576-.346-2.3-.252a3.052 3.052 0 01-1.197 0 9.478 9.478 0 00-1.323-.126c-.823-.026-1.644-.1-2.458-.22a32.563 32.563 0 01-5.229-1.323 55.565 55.565 0 01-5.262-2.33 10.237 10.237 0 01-.535 2.362c-.221.598-.63 1.417-1.197 1.732-1.292.913-1.953 2.141-2.899 3.18zm-26.431 76.045c-.536-.284-.662.126-.977.567-.882 1.228-1.796 2.456-2.678 3.684a873.95 873.95 0 00-2.614 3.558c-.82 1.102-1.733 2.173-2.489 3.338a29.058 29.058 0 00-1.985 3.81c-.504 1.102-1.229 2.235-.725 3.464.504 1.133 1.891 1.605 2.93 2.141 1.292.692 2.3 1.165 3.749.661a71.493 71.493 0 008.128-3.59c2.426-1.196 4.222-2.991 6.238-4.754 1.04-.914 2.142-1.764 3.119-2.771 1.008-1.04 1.985-2.142 3.024-3.149 1.607-1.606 3.277-3.023 2.993-5.511-1.512.504-3.024 1.165-4.6 1.449a21.116 21.116 0 01-5.072.441 15.729 15.729 0 01-2.11-.378c-.693-.126-1.418 0-2.08-.347-.567-.315-.945-.661-1.606-.818a4.981 4.981 0 01-1.828-.788 13.025 13.025 0 00-1.417-1.007zm48.106-66.095a.027.027 0 00-.012.003c-.004.001-.007.004-.01.007-.003.002-.005.006-.007.01s-.002.008-.002.012c0-.004 0-.008.002-.012s.004-.008.007-.01c.003-.003.006-.006.01-.007a.027.027 0 01.012-.003zm1.796-1.007c-.032 0-.032.031-.063.031.031 0 .031-.031.063-.031zm32.669 87.979c-.724 1.291-1.417 2.582-2.111 3.873-.346.661-.661 1.322-.976 1.952-.284.598-.567 1.071-.599 1.763 1.418-.157 2.867-1.007 4.096-1.763a22.481 22.481 0 003.434-2.771 55.599 55.599 0 013.245-2.897 18.859 18.859 0 011.638-1.134 2.85 2.85 0 00.504-.346c.189-.189.252-.504.441-.63.441-.283 1.102.126 1.512.315.52.255 1.006.573 1.449.945.504.441.819 1.007 1.26 1.48.415.45.804.923 1.166 1.417a19.391 19.391 0 002.741 3.243c.472.409 1.071.756 1.48 1.228.38.458.802.88 1.261 1.26a25.046 25.046 0 012.803 2.676c.977 1.102 2.08 2.078 3.119 3.118.158-.662-.126-1.197-.409-1.764-.347-.661-.567-1.354-.851-2.047a48.818 48.818 0 00-2.016-4.313c-.693-1.323-1.418-2.614-2.079-3.936-.567-1.103-1.418-2.457-1.166-3.748.095-.503.378-1.259.914-1.417.535-.157 1.071.315 1.512.567a30.291 30.291 0 003.938 1.921c1.354.567 2.741 1.134 4.032 1.795 1.26.661 2.458 1.448 3.749 2.11.63.314 1.292.566 1.922.913.599.315 1.166.692 1.764 1.007a10.401 10.401 0 003.749 1.291c-.945-1.228-2.205-2.141-3.434-3.085-1.417-1.103-2.835-2.205-4.284-3.244-1.323-.944-2.647-1.826-3.938-2.802a24.689 24.689 0 01-1.764-1.417c-.473-.41-1.009-.819-1.135-1.48a1.73 1.73 0 01.662-1.638c.504-.346 1.134-.252 1.701-.189 1.575.221 3.151.725 4.694 1.166.347.094.725.283 1.071.346a4.59 4.59 0 001.135.063c.693.031 1.386.063 2.047.157.725.095 1.449.063 2.143.189.63.095 1.102.441 1.764.441 2.93-.063 5.639 1.543 8.537 1.543l-5.198-3.023c-.787-.472-1.638-.85-2.394-1.354-.851-.567-1.638-1.196-2.52-1.7-3.151-1.858-6.648-3.212-9.515-5.511-.693-.567-1.354-1.165-2.016-1.732a3.87 3.87 0 00-.535-.472c-.284-.126-.189-.157-.441.095a6.55 6.55 0 00-.694.944 15.089 15.089 0 01-3.307 3.338c-1.481 1.071-3.182 1.732-4.821 2.488-1.669.755-3.307 1.574-5.04 2.172a29.357 29.357 0 01-5.45 1.102 24.342 24.342 0 01-5.671-.126c-.126 1.449-.252 2.677-.945 3.999-.662 1.26-1.481 2.394-2.174 3.622zm-7.309-110.368c-.16.017-.318.048-.472.095.126-.032.252-.032.346-.063.063 0 .095-.032.126-.032zm-.504.819a1.826 1.826 0 01-.157-.441c.019.157.072.308.157.441zm16.603 24.53c2.173 1.291 4.095 2.897 6.206 4.282a33.32 33.32 0 003.245 1.889c.531.284 1.078.536 1.638.756.473.189.945.504 1.449.661a4.07 4.07 0 001.638 0c.473-.063.946-.031 1.324-.346.693-.567 1.165-1.7 1.575-2.488a29.095 29.095 0 001.732-3.432c.41-1.102.946-2.11 1.135-3.275a1.848 1.848 0 01-.032-1.889 7.17 7.17 0 01.504-.819c.189-.315.189-.378.536-.378-.347 1.04-.662 2.047-1.008 3.086.315-1.007.756-2.046 1.008-3.086.136-.905.336-1.799.598-2.676.158-.441.441-.882.567-1.323.095-.377.095-.787.158-1.165.126-1.07.409-2.141.598-3.212.316-2.046.536-4.125.914-6.171.41-2.11.914-4.188 1.386-6.266.189-.788.473-1.48-.283-2.016-.756-.535-1.575-.944-2.363-1.417a19.896 19.896 0 00-2.3-1.196 15.893 15.893 0 01-1.953-.945c-.378-.252-.788-.252-1.197-.378l-1.323-.472c-.819-.284-1.607-.567-2.426-.85-.441-.158-1.355-.725-1.764-.284-.221.221-.252.693-.315.976l-.284 1.417c-.346 1.827-.693 3.653-.977 5.479-.283 1.795-.441 3.622-.724 5.416-.063.441-.284.977-.252 1.417.064.291.232.548.472.725a20.324 20.324 0 011.607 1.7c.567.661 1.103 1.354 1.701 1.952a8 8 0 011.512 1.89c.347.629.82 1.196.662 1.952-.126.567-.284 1.165-.977.913-.787-.283-1.48-1.039-2.11-1.606-.599-.535-1.197-1.07-1.828-1.574-.693-.567-1.449-1.039-2.11-1.638-.567-.503-1.071-1.102-1.607-1.669-1.323-1.322-2.709-2.487-4.095-3.684-.631-.566-1.166-1.259-1.733-1.858-.567-.598-1.197-1.165-1.796-1.763-1.292-1.259-2.678-2.519-3.875-3.873l-1.796-1.889c-.252-.252-.409-.599-.661-.85a7.918 7.918 0 00-.819-.63c-1.103-1.008-1.701-2.393-2.773-3.401a14.106 14.106 0 00-.693 1.921c-.189.598-.346 1.322-.693 1.858-.157.252-.441.44-.567.692a6.393 6.393 0 00-.189.819 10.034 10.034 0 01-.819 1.512 9.785 9.785 0 01-1.134 1.417 3.012 3.012 0 01-.315.314c.063-.031.094-.063.157-.063a3.086 3.086 0 01-1.134 1.165c0 .032.032.063.032.095a17.8 17.8 0 01.787 1.763c.378 1.071.914 2.079 1.26 3.149.19.567.253 1.165.536 1.732.252.472.567.913.788 1.417.567 1.134.913 2.393 1.354 3.558.441 1.228.977 2.393 1.512 3.59a70.588 70.588 0 011.544 3.558c.177.562.42 1.102.725 1.606.378.504.913.661 1.48.85 2.3.63 4.505 1.827 6.585 3.055zm27.03-34.638c1.292-1.07 3.056-.787 4.631-.787 1.827 0 3.623.346 5.45.472 1.813.147 3.632.199 5.45.158a27.175 27.175 0 004.82-.504 19.4 19.4 0 012.363-.315 1.374 1.374 0 001.229-.661c.346-.63.252-1.575.283-2.236.032-.661.126-1.511-.157-2.141-.252-.63-.851-.913-1.449-1.165-.725-.284-1.449-.567-2.206-.85-2.961-1.134-6.017-2.425-9.199-2.708a37.415 37.415 0 00-2.678-.095c-.756-.031-1.48-.22-2.236-.283-1.575-.158-3.119-.19-4.663-.535-.441-.095-.693.125-1.134.22a5.486 5.486 0 01-1.008.031 11.475 11.475 0 00-2.079-.063c-.819.063-1.67.126-2.489.252-.725.126-1.449.315-2.205.41-.814.058-1.624.163-2.426.314-.41.095-1.008.19-1.26.567-.315.504-.063 1.48-.032 2.047.032.787.095 1.575.095 2.362-.012.859-.118 1.714-.315 2.55-.126.599-.378 1.323-.252 1.953a.527.527 0 00.693.44c.252-.031.441-.283.693-.314.441-.063 0 .283.252.566.189.221.535.158.819.252.283.095.567.221.85.347.631.283 1.261.472 1.891.755 1.354.662 2.678 1.48 3.969 2.268.221-.662.378-1.638.819-2.173.41-.535 1.008-.756 1.481-1.134zm-89.66-40.998c-.283-.819-.693-1.637-.913-2.487-.095-.315-.095-.725-.41-.914a2.565 2.565 0 00-.977-.063h-1.48c-.252 0-.599-.063-.756.19-.158.283.094.755.094 1.07-.009.45-.083.895-.22 1.322a179.85 179.85 0 01-1.576 5.542c.568-.251 1.009-.85 1.639-.913.409-.031.724.19 1.102.252.315.063.63.063.945.158 1.418.346 2.741 1.07 4.19 1.322a8.667 8.667 0 00-.252-1.543c-.157-.44-.315-.881-.441-1.322-.315-.819-.63-1.7-.945-2.614zm-4.725-12.47c-.693-.314-1.387-1.196-.725-1.92.347-.378 1.229-.189 1.67-.095.63.126 3.087 1.732 3.371.63.189-.724-.158-1.795-.473-2.424a3.032 3.032 0 00-.819-1.071c-.347-.315-.504-.22-.945-.189-.725.094-1.386-.126-1.859.567-.094.126-.126.315-.315.346-.157.032-.22-.157-.378-.157-.252 0-.283.157-.378.346-.252.504-.599 1.449-1.355 1.04-.756-.41-.787-1.733-.787-2.425 0-1.102-.063-2.205-.126-3.275-.032-.882-.126-1.669-.756-2.299-.599-.63-1.071-1.48-1.796-1.952-.819-.535-1.89-.472-2.804-.535a19 19 0 00-3.276-.095c-1.088.12-2.183.163-3.277.126-1.102-.063-2.173-.126-3.276-.157-1.04-.032-2.111.063-3.15-.063-.41-.032-.977-.19-1.261.22-.315.472-.283 1.323-.378 1.858 1.135-.22 2.962-.724 3.403.85.126.472-.284.913-.63 1.197-.504.409-1.26.409-1.891.472-.346.063-.913.032-1.134.378-.189.346-.094.976-.126 1.354-.094 1.543-.315 3.086-.472 4.629-.158 1.48-.284 2.991-.032 4.471.126.756.41 1.48.473 2.236.031.472-.032 1.007.378 1.322.504.347 1.355.378 1.953.504.788.157 1.544.378 2.3.598 1.197.347 2.678.536 3.119 1.89.472 1.448.819 2.928 1.26 4.377.24.724.535 1.43.882 2.11.169.264.267.568.284.881-.085.33-.212.647-.378.945a3.166 3.166 0 01-.788-.441 4.922 4.922 0 01-.63-.787c-.41-.536-.693-1.008-1.292-1.386-.075.262-.052.541.063.787.13.183.278.351.441.504.378.441.725.913 1.103 1.354.787.85 1.733 1.543 2.552 2.393.819.819 1.575 1.795 2.583 2.425.945.598 1.985 1.102 2.993 1.637-.882-1.983-.284-3.999.787-5.794.473-.818 1.072-1.606 1.639-2.393.441-.63 1.26-1.48 1.26-2.267 0-.44-.315-.787-.504-1.165-.221-.378-.41-.819-.599-1.228-.378-.85-.882-1.732-1.039-2.645-.14-.906.075-1.83.598-2.582.221-.252.536-.22.819-.41.263-.195.506-.417.725-.66.252-.253.598-.442.85-.694.259-.286.481-.603.662-.944.536-.819 1.008-1.606 1.481-2.393zm-2.993-17.507c-.819 0-1.26.472-1.638 1.134.252.409.945 1.637 1.512 1.133.094-.094.157-.283.283-.378.13-.085.267-.159.41-.22.338-.109.643-.304.882-.567.441-.724-.945-1.102-1.449-1.102zm-16.13 30.922c-.158-.032-.599.252-.756.315a4.246 4.246 0 00-.851.41 2.08 2.08 0 00-.472.692c-.063 1.795-.158 3.59-.158 5.416.063-1.795.095-3.59.158-5.416.139.473.234.958.283 1.448 0 .504-.094 1.04-.126 1.575a90.859 90.859 0 01-.315 2.928c0 .568.032 1.136.095 1.7.724-1.007 1.417-2.015 2.142-2.99.63-.883 1.481-.946 2.489-1.009-.662-1.322-1.324-2.676-1.985-3.999-.063-.188-.378-1.039-.504-1.07zM11.516 66.354c-1.07-.284-2.173-.693-3.276-.85-1.04-.126-1.985-.599-2.961-.882-.883-.252-1.796-.472-2.647-.787-.689-.18-1.333-.501-1.89-.945a2.446 2.446 0 01-.725-2.047c.126-.85.757-.976 1.481-1.228a58.43 58.43 0 0111.341-2.519c1.985-.252 4.001-.567 6.018-.535 1.038.063 2.08.063 3.119 0 .945-.063 1.89.283 2.835.094.945-.189 1.827.063 2.804.19 1.008.125 2.048.188 3.056.22.945.031 1.921 0 2.835.252.882.251 1.575.409 2.489.126l-2.836-3.118c-1.953-2.141-3.97-4.44-5.135-7.116-.504-1.134-.756-2.803.095-3.873.756-.945 2.394-.756 3.434-.599 1.34.205 2.625.676 3.78 1.386 1.103.693 2.331 1.228 3.34 2.047 1.008.818 2.142 1.354 3.15 2.14 1.04.82 2.08 1.607 3.119 2.394 2.268 1.732 4.158 3.904 6.3 5.794 1.141.988 2.215 2.05 3.214 3.18.495.517.958 1.064 1.386 1.638.347.503.63 1.007 1.008 1.48.441.566.977 1.039 1.45 1.605.409.504.819 1.04 1.197 1.606.41.567.787 1.165 1.165 1.732.22.315.41.819.82.756.598-.063.913-.567 1.543-.22.193.14.372.298.536.472.254.187.529.346.819.472.577.33 1.125.71 1.638 1.134.577.38 1.134.79 1.67 1.228 2.205 1.984 4.221 4.125 6.332 6.172.504.503 1.04.976 1.544 1.48.41.409.693.881 1.102 1.29.22.221.504.315.756.536.224.22.425.463.599.724.472.535.913 1.07 1.386 1.606.945 1.008 1.953 1.92 2.867 2.96.913 1.07 1.953 2.078 2.898 3.149 1.985 2.267 3.812 4.566 5.64 6.927.913 1.197 1.921 2.267 2.772 3.496a24.935 24.935 0 012.11 3.652c.19.347.41 1.417 1.04 1.039.22-.126.378-.535.536-.755.189-.315.378-.599.567-.914a39.532 39.532 0 002.362-4.03c1.261-2.708 2.521-5.385 3.56-8.187.536-1.417 1.135-2.803 1.702-4.188.598-1.386 1.039-2.803 1.606-4.188 1.134-2.74 2.647-5.353 4.159-7.904 1.386-2.361 2.835-4.786 4.757-6.738 1.008-1.04 1.796-2.236 2.867-3.212.535-.504 1.102-.976 1.638-1.48.378-.378.724-.913 1.197-1.134a2.45 2.45 0 011.071-.126c.284 0 .599-.063.882-.063.252.032.347.252.599.284a.699.699 0 00.598-.19c1.229-.85 2.899-1.196 4.285-1.7-.882-.535-1.953-.566-2.93-.787a6.328 6.328 0 01-2.3-1.039c-1.512-1.133-1.764-2.928-2.016-4.692-.315-2.015-.567-4.156-.283-6.203.252-1.984.535-3.999.85-5.983.128-.96.339-1.909.63-2.834.221-.755.536-1.543.504-2.361 0-.41-.031-1.008-.315-1.291-.22-.22-.535-.315-.787-.536a5.993 5.993 0 01-1.355-1.731c-.284-.536-.725-1.323-.473-1.921.284-.662 1.198-.787 1.828-.945 1.827-.472 3.686-.41 5.544-.661.882-.126 1.827-.378 2.71-.378.882 0 1.764.031 2.646 0a44.564 44.564 0 015.797.126c.504.063 1.008.094 1.512.126.409.031.693.22 1.102.283.265-.016.528-.047.788-.094.389-.042.783-.02 1.166.063.819.157 1.449.661 2.268.85a2.126 2.126 0 011.449 1.04c.819 1.416.851 3.368.945 4.943.095 1.89-.063 3.778.032 5.636.031.441.063.63.567.599.661-.063 1.26-.252 1.953-.063 1.292.346 2.111 1.511 2.615 2.676a8.508 8.508 0 01.724 3.936c-.063 1.165-.504 2.677-1.795 3.023-.693.189-1.386-.094-2.048-.315-.63-.189-1.166-.756-1.512.032-.693 1.574-1.355 2.991-2.457 4.377 1.008-.063 2.016-.158 3.055-.22.662-.032 1.607-.221 2.269.03.378.158.378.41.661.662.284.252.882.157 1.229.126 1.103-.032 2.111-.22 3.213-.126.819.094 1.544.504 2.363.63.995.22 1.965.535 2.898.944.882.347 1.733.724 2.647 1.008.919.278 1.823.604 2.709.976 1.575.724 2.898 1.89 4.285 2.865.387.234.755.497 1.102.788.284.252.473.567.725.787.441.41.945.378 1.417.598.482.286.945.602 1.387.945.409.283.787.535 1.197.819.756.503 1.48 1.133 2.3 1.543 1.512.755 2.677 1.952 3.906 3.117 1.323 1.228 2.772 2.33 4.064 3.59a33.405 33.405 0 013.465 4.125c1.072 1.543 1.954 3.211 2.962 4.786.49.688 1.016 1.35 1.575 1.984.272.33.525.678.756 1.039.221.315.347.724.662.976.598.472 1.228.756 1.732 1.385.551.713 1.056 1.46 1.513 2.236a61.977 61.977 0 012.646 4.692c.202.41.299.865.283 1.322.032.41.158.787.221 1.165.126.63.031 1.291.22 1.921.095.41.378.473.693.693.316.225.611.478.883.756a20.277 20.277 0 001.732 1.543c.638.48 1.248.995 1.828 1.543a17.386 17.386 0 001.701 1.7c1.386 1.134 2.678 2.362 4.032 3.495 1.418 1.197 2.678 2.519 3.97 3.81 1.323 1.354 2.741 2.645 4.158 3.936.095-1.543.189-3.086.315-4.628.174-1.655.458-3.296.851-4.913.283-1.448.504-3.023.976-4.408.347-.976 1.009-1.763 2.017-1.984.504-.126 1.291.126 1.543-.441.252-.566.284-1.448.378-2.046.441-2.709-.441-5.7.693-8.282.505-1.133 1.387-1.7 2.489-2.204 1.418-.63 2.993-.472 4.474-.787.693-.158 1.228-.504 1.953-.536.725-.031 1.449 0 2.142.032.756.031 1.481-.126 2.206-.126.661 0 1.165.44 1.795.346.725-.126 1.292-.283 2.017-.094a6.572 6.572 0 001.921.252c.819.031 1.638-.063 2.458 0 .756.031 1.48.252 2.205.346 1.56.152 3.108.415 4.631.787 1.506.45 2.989.975 4.442 1.575 2.363.881 5.072 1.543 5.734 4.345.351 1.57.436 3.188.252 4.786-.158 1.26-.441 2.677-1.198 3.748-.787 1.133-2.142 1.479-3.402 1.889-1.449.441-2.961.535-4.442.787a23.106 23.106 0 01-4.663.472c-1.575-.031-3.087-.44-4.662-.566-1.607-.126-3.213-.315-4.82-.473-1.071-.094-3.151-.409-3.686.819-.158.378-.41.85-.095 1.197.372.409.719.841 1.04 1.291.452.587.774 1.263.945 1.983.115.75.168 1.509.158 2.268.031 3.148-.756 6.329-1.544 9.352-.788 3.148-1.701 6.297-2.804 9.383-1.071 2.929-1.859 5.952-3.119 8.817a25.428 25.428 0 01-2.331 3.999c-.725 1.102-1.386 2.393-2.489 3.18a4.966 4.966 0 01-3.182.914c-1.323-.095-2.615-.914-3.78-1.512-2.835-1.417-5.419-3.369-7.971-5.259-1.228-.913-2.331-1.952-3.623-2.739a15.814 15.814 0 00-3.969-1.889c1.197 2.487 2.268 5.038 3.528 7.494 1.229 2.425 2.269 4.944 3.403 7.431.472 1.008 1.134 1.921 1.607 2.929.504 1.165 1.039 2.33 1.543 3.495.945 2.141 1.953 4.251 2.804 6.424.189.503.095 1.102.347 1.511.271.413.514.844.724 1.291.41 1.008.756 2.047 1.229 3.054 1.039 2.205 1.701 4.598 2.709 6.833 1.008 2.236 1.922 4.503 2.804 6.802.441 1.134.945 2.236 1.355 3.369.378 1.039.724 2.11 1.354 3.055 1.355 2.046 2.395 4.282 3.434 6.518.473 1.07.914 2.109.977 3.275.063 1.07-.599 1.92-1.134 2.771.976.472 1.858 1.102 2.804 1.605 1.039.536 2.11.945 3.181 1.386 1.103.441 2.174.882 3.277 1.322.945.41 1.827.882 2.772 1.323.882.441 1.67.976 2.52 1.511.914.536 1.796 1.071 2.71 1.638 1.764 1.07 3.465 2.173 5.324 3.086.977.472 1.922.944 2.898 1.448.788.41 1.67.756 2.237 1.449a3.12 3.12 0 01-.031 3.747c-.536.693-1.859.63-2.647.661a7.141 7.141 0 01-1.638-.126c-.441-.094-.819-.315-1.26-.441a12.901 12.901 0 00-1.544-.157c-.504-.063-.976-.158-1.481-.252-1.039-.221-2.11-.472-3.15-.693-1.04-.22-2.048-.441-3.056-.724a4.587 4.587 0 00-1.291-.346c-.452.021-.905.01-1.355-.032-.473-.094-.945-.22-1.449-.283-.441-.063-.914 0-1.355-.063-.504-.095-.977-.315-1.449-.441a5.16 5.16 0 00-1.386-.095c1.197.945 2.457 1.795 3.686 2.677 1.228.913 2.394 1.921 3.591 2.865.977.788 2.174 1.543 2.772 2.677.455.939.587 2.001.378 3.023-.252 1.259-1.165 1.417-2.299 1.48-1.449.094-2.584-.504-3.844-1.134-2.489-1.228-4.883-2.645-7.246-4.093a40.216 40.216 0 00-3.686-1.858c-.661-.315-1.323-.63-1.953-.945-.535-.252-1.228-.756-1.827-.693 1.638 3.37 3.339 6.707 4.757 10.171a15.08 15.08 0 011.197 4.535c.095 1.102.032 3.274-1.354 3.652-.631.158-1.166-.252-1.576-.661-.598-.567-1.134-1.228-1.701-1.826-1.102-1.197-2.268-2.299-3.465-3.401a45.138 45.138 0 01-3.529-3.401c-1.039-1.165-2.362-2.047-3.339-3.275-1.008-1.259-1.922-2.582-2.961-3.81-.662-.819-1.229-2.11-2.395-2.267-.157.976-1.008 1.826-1.575 2.614a30.702 30.702 0 01-4.442 4.597 15.714 15.714 0 01-4.852 3.086c-1.197.472-3.717 1.543-4.662.094-.441-.693-.221-2.047-.032-2.802.221-1.071.756-2.047 1.198-3.023.945-1.984 1.984-3.873 3.055-5.794.536-.976 1.04-1.921 1.639-2.866.504-.818 1.197-1.605 1.449-2.519.12-.42.131-.865.031-1.291-.126-.409-.315-.346-.661-.377-.819-.126-.567-1.606-.473-2.205a7.7 7.7 0 01.473-1.511c.157-.409.504-.976.504-1.449-.032-.44-.441-.881-.599-1.259-.189-.441-.315-.913-.472-1.386-.63-2.141-1.481-4.219-1.985-6.392a57.036 57.036 0 00-1.859-6.392c-.787-2.173-1.67-4.314-2.394-6.518a254.763 254.763 0 00-2.174-6.392c-1.544-4.251-3.213-8.439-5.072-12.564-1.827-4.062-3.875-8.03-5.45-12.218-.756-2.015-1.512-3.999-2.205-6.014a105.238 105.238 0 00-2.363-6.203c-.882-2.11-1.575-4.251-2.331-6.392-.725-2.11-1.355-4.283-2.269-6.33a4.287 4.287 0 00-.598.725 4.61 4.61 0 01-.536.818c-.432.439-.919.82-1.449 1.134a2.372 2.372 0 01-.945.535h-.032a.394.394 0 01.189.032c-.441.315-.913.629-1.386.944a.65.65 0 01.126-.252c-.157.252-.315.504-.63.567h.063c-.22.158-.976.913-.913.095-.032.126.031.22-.032.378a1.18 1.18 0 01-.315.377 4.442 4.442 0 01-.725.63c-.598.441-1.26.819-1.858 1.26-.158.126-.756.818-.945.818-.378.315-.757.662-1.135.977.158-.504.284-1.008.441-1.512-.094.378-.22.724-.315 1.102a1.68 1.68 0 01-.63.85c-.567.504-1.102 1.008-1.669 1.48-1.04.851-2.269 1.543-3.403 2.299-.598.409-1.228.85-1.795 1.291-.473.378-1.072.504-1.544.85a12.903 12.903 0 00-1.638 1.575 7.004 7.004 0 00-1.323 1.574c-.379.661-.379 1.543-.473 2.299-.126.755-.221 1.511-.347 2.267-.22 1.543-.441 3.117-.63 4.66-.189 1.543-.409 3.055-.535 4.598-.126 1.543-.095 3.117-.284 4.66a93.077 93.077 0 01-1.417 9.352c-.662 3.086-1.103 6.235-1.702 9.321-.315 1.605-.63 3.18-.945 4.786l-.472 2.361c-.126.662-.063 1.291-.189 1.953a5.77 5.77 0 00-.158 1.07c0 .347.221.662.221.977.031.44-.378 1.133-.63 1.479-.378.536-.883 1.008-1.292 1.48-.441.473-.599.662-.441 1.323.661 2.834-1.008 5.196-2.804 7.179-1.985 2.205-3.938 4.314-6.206 6.204-1.197 1.007-2.3 2.078-3.434 3.117a23.62 23.62 0 01-3.529 2.582c-1.291.787-2.646 1.354-4.001 2.047a30.436 30.436 0 01-4 1.795c-1.324.472-2.678.881-3.97 1.448a4.163 4.163 0 01-3.308 0c-.693-.283-1.26-.819-1.89-1.228a33.11 33.11 0 00-1.764-1.102c-.977-.567-1.954-1.228-2.395-2.362-.504-1.322-.063-2.897.221-4.219.308-1.35.863-2.631 1.638-3.779.756-1.228 1.701-2.267 2.552-3.432.882-1.165 1.701-2.425 2.646-3.558a31.923 31.923 0 012.962-3.244c1.039-1.039 1.953-2.172 2.929-3.274.221-.252.599-.536.631-.914.031-.314-.189-.566-.284-.85-.221-.567-.158-1.165-.158-1.763a1.629 1.629 0 00-.157-.85c-.126-.252-.378-.347-.473-.599a3.098 3.098 0 01-.094-.755 3.68 3.68 0 00-.315-.819c-.252-.724.063-1.574.189-2.299.126-.692.252-1.354.378-2.046.283-1.48.472-2.929.945-4.377.945-2.897 1.859-5.763 1.922-8.849.031-1.543.472-3.023.819-4.502.378-1.575.756-3.149 1.166-4.724.756-3.023 1.638-5.983 2.394-9.005.756-2.992 1.449-6.015 2.363-8.975a58.484 58.484 0 013.56-8.628 18.642 18.642 0 012.331-3.684 310.406 310.406 0 013.056-3.558l6.237-7.085a29.943 29.943 0 013.34-3.275c1.102-.881 2.583-1.606 2.93-3.054.094-.409.157-.819.283-1.228a2.61 2.61 0 00.221-.85c-.063-.504-.977-.693-1.355-.882-1.292-.598-2.615-1.165-3.906-1.826a18.723 18.723 0 01-1.985-1.228c-.567-.378-1.197-.473-1.796-.662a22.023 22.023 0 01-3.938-1.731c-1.323-.693-2.646-1.386-3.938-2.173a20.44 20.44 0 01-3.402-2.771c-.504-.472-.851-.221-1.197.283-.41.599-.882 1.197-1.324 1.795-.167.303-.392.57-.661.787a.032.032 0 00-.022.01.029.029 0 00-.01.022c.063-.032.095-.032.158-.063-.095.756-.662 1.259-1.166 1.795.032-.126.095-.252.126-.378a3.857 3.857 0 01-.535.913c-.473.598-.977 1.134-1.512 1.7-.284.284-.568.567-.851.819-.126.095-.221.22-.347.315a1.359 1.359 0 01-.472.315c-.378.189-.473.472-.819.724-.504.378-1.134.598-1.67.976-.441.284-.788.882-1.292 1.008-.189.031-.315 0-.441.157-.189.189 0 .189-.283.252-.158.032-.315-.063-.473 0a2.114 2.114 0 00-.441.284c-.315.22-.63.44-.913.661-.567.409-1.103.819-1.67 1.228-1.103.819-2.079 1.763-3.182 2.582a20.47 20.47 0 01-1.764 1.102c-.504.315-.914.724-1.386 1.071-.567.409-1.229.598-1.796.976-.559.386-1.137.744-1.733 1.07a35.982 35.982 0 01-4.001 1.953 13.8 13.8 0 01-4.347 1.102 10.632 10.632 0 01-4.41-.882 48.168 48.168 0 01-4.096-1.889c-1.292-.693-2.49-1.512-3.75-2.267a56.066 56.066 0 01-3.685-2.331c-1.166-.787-2.237-1.668-3.497-2.33-1.26-.661-2.363-1.511-3.56-2.267-1.229-.787-2.426-1.606-3.623-2.393-2.52-1.669-5.04-3.401-7.403-5.259a31.342 31.342 0 01-3.277-2.865c-1.07-1.134-2.363-2.078-3.528-3.086a332.848 332.848 0 00-3.403-3.275l3.403 3.307c-.536-.095-.882-.441-1.323-.788-.441-.346-.914-.724-1.355-1.07-.662-.536-1.386-1.071-1.323-2.015-.28-.269-.574-.521-.882-.756a16.81 16.81 0 00-1.607-.976c-1.071-.725-2.016-1.638-3.024-2.425-.441-.346-.85-.63-.914-1.228a14.345 14.345 0 01.032-2.015c0-.504.157-1.228-.032-1.7-.189-.473-.85-.693-1.26-.914-1.197-.661-2.363-1.354-3.56-1.984a8.868 8.868 0 00-3.528-1.196 32.553 32.553 0 01-1.733-.22c-.599-.095-1.166.094-1.733.188-1.323.252-2.678.378-4 .63a60.052 60.052 0 00-3.97.913c-1.323.315-2.647.662-3.97.913-.691.088-1.375.225-2.047.41-.505.157-.977.378-1.513.504-1.26.283-2.52.315-3.749.724a21.489 21.489 0 01-3.749.819c-.661.094-1.323.22-1.984.346-.38.105-.78.115-1.166.031a2.628 2.628 0 01-1.796-1.7c-.724-2.236.693-4.629 2.143-6.235 1.575-1.7 3.528-2.897 5.387-4.22-.756-.094-1.481.032-2.237.032-.63 0-1.26-.031-1.89.032-1.418.063-2.836-.347-4.253-.378-1.922-.032-4.285-.44-4.789-2.614-.472-2.046 1.701-3.873 3.245-4.786.977-.598 1.985-1.133 2.961-1.763 1.04-.662 2.332-1.07 3.466-1.512 1.157-.489 2.347-.899 3.56-1.228 1.165-.315 2.331-.472 3.465-.944-1.008-.441-2.11-.536-3.213-.756-1.26-.283-2.332-.535-3.403-.85z" fill="#1e1c26"/><path fill-rule="evenodd" clip-rule="evenodd" d="M4.996 146.083a1.006 1.006 0 00.882.819c.812.153 1.633.258 2.457.314 1.45.189 2.961.252 4.41.599 1.362.319 2.676.816 3.907 1.48-.41-1.89-.85-3.747-.693-5.7.126-1.417.158-3.589 1.607-4.408.346-.189.85-.126 1.228-.126.473-.032.977-.063 1.45-.063a86.61 86.61 0 002.866-.252c1.89-.189 3.75-.409 5.64-.693.315-.031.85 0 1.07-.283.158-.189.095-.504.064-.724-.032-.768 0-1.537.094-2.299a26.601 26.601 0 011.197-4.912c.252-.819.536-1.606.788-2.425.126-.378.41-.913 0-1.196-.252-.189-.725-.158-1.04-.252-.378-.095-.724-.221-1.07-.315-.851-.284-1.67-.567-2.521-.85-3.182-1.071-6.395-2.047-9.577-3.149l-1.323-.473c-.19-.063-.536-.22-.725-.157-.252.094-.189.378-.378.535a4.496 4.496 0 01-.693.252c-.504.284-.82.787-1.197 1.197-.504.504-1.071.976-1.544 1.511-2.016 2.141-3.497 4.692-4.725 7.337a10.711 10.711 0 00-.757 2.204c-.189.725-.44 1.417-.567 2.141-.252 1.701-.283 3.464-.472 5.196-.252 1.48-.725 3.243-.378 4.692zm12.727-3.873a15.367 15.367 0 00.315 3.401 24.952 24.952 0 001.134 3.369c.378 1.039.725 2.11 1.166 3.117.441 1.008 1.008 1.921 1.386 2.96.725 2.141 2.017 3.999 2.899 6.046a61.425 61.425 0 003.055 6.109 22.334 22.334 0 001.733 2.865c.353.432.732.842 1.134 1.228.347.315.504.063.914.158.598.094.914.881 1.292 1.291.727.774 1.495 1.51 2.3 2.204.818.693 1.732 1.291 2.583 1.952.79.653 1.645 1.222 2.551 1.701 1.828.944 3.938 2.078 6.05 1.983.976-.031 1.48-.692 1.89-1.511.44-.882.283-1.952.22-2.929a6.838 6.838 0 00-.977-3.148c-.598-.977 0-1.575.599-2.362 1.355-1.795 3.15-3.18 4.788-4.692.851-.787 1.67-1.574 2.52-2.362.473-.44.914-.881 1.387-1.322.346-.315.662-.535.788-.976-.914-.504-1.89-.913-2.741-1.543-1.733-1.26-3.308-2.803-4.946-4.188a15.672 15.672 0 01-2.048-2.299c-.599-.787-1.292-1.511-1.827-2.361-1.134-1.827-2.426-3.622-3.308-5.542a16.435 16.435 0 01-.914-2.992c-.126-.63-.315-1.228-.472-1.858-.095-.409-.126-1.07-.379-1.417-.472-.598-1.953.378-2.488.536a20.727 20.727 0 01-3.15.63c-2.237.346-4.474.629-6.711 1.07-1.166.221-2.331.472-3.497.598-1.142.09-2.29.1-3.434.032-.252 0-.535.031-.724-.189-.095-.126-.032-.283-.19-.409-.188-.158-.44-.063-.692-.063-.473.063-.914.063-1.387.126-.255-.002-.509.03-.756.094-.126.095-.063.441-.063.693zm32.166 30.638a9.192 9.192 0 01.85 3.779 7.99 7.99 0 01-.22 1.921c-.126.535-.441 1.165-.315 1.731 1.354-.629 2.678-1.291 4.064-1.857 1.197-.504 2.079-1.354 3.087-2.142 1.071-.881 2.016-1.826 3.024-2.739 1.103-.976 2.237-1.921 3.34-2.866 1.985-1.7 3.623-3.621 5.26-5.668 1.419-1.794 3.466-4.093 3.372-6.518-.032-1.133-.126-2.393-.693-3.432a7.752 7.752 0 00-2.08-2.33c-.756-.535-1.48.819-1.89 1.291a262.616 262.616 0 01-2.74 3.054c-1.733 1.921-3.403 3.936-5.293 5.731-1.89 1.795-3.844 3.558-5.891 5.196-1.04.819-2.143 1.574-3.088 2.519-.346.346-1.008.724-1.229 1.134-.22.409.253.818.442 1.196zM3.2 146.272c.284-.032.284 0 .284-.284a6.911 6.911 0 00-.158-1.385 33.04 33.04 0 01.063-6.361c.347-4.093 1.197-8.124 3.34-11.651a21.059 21.059 0 013.496-4.502 21.66 21.66 0 011.985-1.795c.347-.252.882-.41 1.197-.661.19-.158.252-.441.41-.63.598-.756 1.26-.945 2.205-.85 1.006.126 1.997.348 2.961.661 2.017.567 3.938 1.511 5.892 2.267 1.953.756 3.906 1.543 5.828 2.362.85.346 1.859.629 2.615 1.165a1.238 1.238 0 01.535 1.259c-.157 1.921-.882 3.81-1.418 5.637a29.908 29.908 0 00-1.197 6.014c1.985-.157 4.001-.283 5.986-.535 1.008-.126 1.985-.221 2.993-.378a2.34 2.34 0 001.166-.535c.378-.221.535-.032.693.314.819 1.858 1.134 3.874 1.984 5.7.378.819.883 1.606 1.292 2.424.454.896.97 1.759 1.544 2.583.252.377.598.692.882 1.039.252.346.44.724.693 1.07a17.349 17.349 0 001.733 1.984c.63.63 1.228 1.26 1.827 1.921.598.63 1.291 1.165 1.922 1.763.598.567 1.102 1.197 1.7 1.764.568.535.851 1.291 1.482 1.763.346.252.693.472 1.04.724.283.221.566.598.944.535.441-.094.788-.661 1.04-.976.346-.378.693-.787 1.071-1.165 1.386-1.511 2.835-2.991 4.221-4.471.694-.724 1.45-1.386 2.111-2.141.473-.536 1.292-.945 1.954-.567.692.378 1.512.693 2.079 1.259.598.599 1.07 1.417 1.575 2.11.468.743.759 1.583.85 2.456.183.912.257 1.842.221 2.771-.126 1.795-.472 3.779-1.48 5.259a14.16 14.16 0 01-1.765 1.858c-.661.661-1.102 1.48-1.67 2.235a29.27 29.27 0 01-3.748 4.157c-.63.598-1.387 1.133-2.017 1.732a19.996 19.996 0 01-2.173 1.794c-.788.567-1.45 1.292-2.174 1.921a26.07 26.07 0 01-2.332 1.858 17.224 17.224 0 01-4.977 2.362c-2.016.598-3.938 1.385-5.954 2.015-.946.315-1.89-.126-2.804-.409a18.626 18.626 0 01-2.71-1.165c-1.732-.977-3.402-2.11-5.103-3.149a18.717 18.717 0 01-4.6-3.873c-1.291-1.48-2.646-2.992-3.843-4.566-2.394-3.212-3.844-7.022-5.608-10.612-.945-1.889-1.89-3.778-2.678-5.731-.378-.976-.724-1.952-1.134-2.928a.805.805 0 00-.756-.63c-.504-.094-1.04-.126-1.575-.189-2.048-.252-4.064-.598-6.08-.945-1.89-.314-3.78-.661-5.482-1.605a2.25 2.25 0 01-.977-.819c-.094-.158-.315-1.039-.189-1.197.19-.031.662 0 .788-.031zM87.157 16.854a57.512 57.512 0 00-1.984-.976c-1.418-.693-2.804-1.417-4.222-2.078-.63-.284-1.323-.473-1.985-.724a17.14 17.14 0 01-2.047-.945 43.739 43.739 0 00-4.348-1.826c-.44-.158-.913-.347-1.355-.504-.36-.183-.74-.32-1.134-.41-.567-.063-1.008.504-1.386.882-2.11 1.89-3.591 4.723-4.505 7.368a26.95 26.95 0 00-.977 4.472 25.47 25.47 0 00-.567 4.629c0 1.605-.189 3.18-.094 4.754.031.599-.095 1.67.252 2.173.346.535 1.166.661 1.701.882 2.93 1.07 5.86 2.204 8.853 3.149 3.087.976 6.175 1.952 9.293 2.96-.126-.882-.283-1.764-.378-2.645a22.38 22.38 0 01-.031-2.52 26.312 26.312 0 01.44-5.447c.662-3.275 1.765-6.487 3.56-9.32.439-.654.923-1.275 1.45-1.859.189-.22.788-.724.756-1.039-.063-.503-.977-.818-1.292-.976zm-35.22-.378c-.694.032-1.103.19-1.166.914-.063.913-.032 1.857-.095 2.77-.063 1.764-.126 3.559-.095 5.322.095 3.117.41 6.203 1.355 9.163a48.536 48.536 0 001.607 4.22c.567 1.354 1.386 2.55 2.11 3.81.338.596.75 1.147 1.23 1.637a.895.895 0 00.66.41c.359.01.718-.01 1.072-.063 1.575-.126 3.15-.284 4.725-.347 1.576-.063 3.12 0 4.695-.094.724-.032 1.417-.284 2.142-.378.724-.126 1.449-.158 2.174-.252.378-.032.378.031.41-.283.004-.2-.006-.4-.032-.599-.032-.346-.032-.724-.063-1.07-.032-.315.031-.882-.095-1.197-.126-.283-.378-.315-.63-.378a39.743 39.743 0 01-4.253-1.448c-1.418-.567-2.867-1.102-4.285-1.732-.598-.252-1.291-.504-1.764-1.008a3.767 3.767 0 01-.756-1.448c-.913-2.866-.63-6.203-.346-9.163.283-3.055.724-6.172 1.827-9.038-3.402.063-6.93.095-10.428.252zm39.19 2.645c-.977.378-1.575 1.228-2.174 2.047a23.05 23.05 0 00-1.922 3.18 27.658 27.658 0 00-2.362 7.495c-.41 2.456-.63 5.195-.158 7.683.126.661.473 1.196.662 1.826.089.482.067.977-.063 1.449-.158.598-.725.41-1.198.283a39.087 39.087 0 01-2.047-.44c-2.584-.536-5.167-1.512-7.782-1.701.22.693.347 1.322.788 1.952.41.567.977 1.04 1.229 1.732a3.08 3.08 0 01.031 1.92c-.22.6-.756.6-1.292.694-1.575.189-3.118.44-4.694.535a3.599 3.599 0 01-1.008 0 2 2 0 00-.724-.095c-.352.114-.71.208-1.072.284a6.082 6.082 0 01-1.07 0c-1.324-.063-2.615.094-3.939-.032-.378-.031-1.102-.252-1.48-.031-.378.22-.095.693-.284 1.039-.252.41-1.102.22-1.512.189a3.604 3.604 0 01-1.638-.41 9.69 9.69 0 01-2.835-2.204 17.524 17.524 0 01-2.017-3.18 30.236 30.236 0 01-1.701-3.527 27.663 27.663 0 01-1.229-3.873c-.283-1.322-.44-2.645-.693-3.999a31.36 31.36 0 01-.378-4.188 40.018 40.018 0 010-4.345c.095-1.417.252-2.834.41-4.251.031-.378.031-.724.063-1.102.031-.252.157-.473.189-.724.031-.473-.41-.788-.41-1.323.032-1.197 1.292-1.637 2.206-1.92a10.69 10.69 0 013.843-.505c2.74.19 5.545.22 8.128 1.228 1.355-2.298 2.583-4.786 4.788-6.423a3.03 3.03 0 00.694-.567 2.77 2.77 0 01.378-.661c.44-.504 1.008-.567 1.638-.441a22.23 22.23 0 014 1.133c.568.22 1.198.347 1.765.567.567.22 1.103.504 1.638.756 1.166.567 2.395 1.07 3.56 1.669a52.837 52.837 0 016.868 3.905c1.04.724 2.237 1.48 3.15 2.393a1.828 1.828 0 01.504 1.48c-.094.566-.41.346-.85.503zM245.652 23.624c-.126-1.512-.063-2.992-.189-4.503a33.65 33.65 0 00-.661-4.283 18.262 18.262 0 00-1.387-3.999c-.315-.724-.63-1.448-.945-2.204-.189-.44-.315-.913-.85-1.039-.693-.157-1.512-.031-2.206-.063a44.738 44.738 0 01-2.11-.126c-1.544-.126-3.056-.346-4.6-.535-1.481-.158-2.93-.252-4.379-.535-.756-.158-1.481-.347-2.237-.504-.567-.126-1.323-.473-1.89-.347.648 1.566.959 3.25.914 4.944 0 .661.094.945.787.913.882-.063 1.733-.126 2.615-.252 1.638-.189 3.245-.472 4.883-.755.756-.126 1.512-.315 2.268-.504.536-.126.757.094.946.566a1.07 1.07 0 00.504.724c.274.15.537.319.787.505.443.354.836.767 1.166 1.228a13.474 13.474 0 011.607 3.4 30.115 30.115 0 011.701 9.29c.063 1.605.315 3.148.315 4.754 0 .693-.158 1.606.409 2.11.567.504 1.324.85 1.954 1.26.567-1.606.693-3.307.724-5.007.053-1.68.011-3.363-.126-5.038zm-23.785-8.502c-.693.189-1.418.346-2.111.504 1.197 2.897 1.166 6.077 1.26 9.163a35.945 35.945 0 01-.126 4.125 37.91 37.91 0 01-.724 4.125c-.063.315-.221.787 0 1.07.22.315.945.473 1.26.599 1.228.567 2.457 1.165 3.717 1.669 1.292.503 2.615.818 3.844 1.385 1.228.567 2.457 1.102 3.717 1.543 1.26.44 2.552.787 3.749 1.322a15.221 15.221 0 013.056 2.047 21.34 21.34 0 00.914-5.636c.094-1.826.252-3.747.063-5.605a15.988 15.988 0 01-.063-2.456c0-.756-.158-1.48-.221-2.236-.126-1.637-.126-3.275-.347-4.944-.409-3.085-1.26-6.392-2.961-9.037-.097-.2-.213-.39-.346-.567-.252-.22-.158-.157-.504 0-.316.158-.599.315-.914.473-.662.283-1.386.41-2.079.63-.756.22-1.481.566-2.269.692-.787.126-1.575.126-2.331.252-.441.063-.819.22-1.229.315-.342.064-.69.096-1.039.095-.693.063-1.355.251-2.048.314-.788.095-1.481-.063-2.268.158zm25.486 13.382a22.295 22.295 0 01-1.48 5.51c-.252.568-.504 1.355-1.197 1.512-.631.158-1.387-.315-1.985-.472-.473 2.74-.662 5.605-1.89 8.187-.158.315-.347.913-.693 1.134-.316.22-.725 0-1.04-.126a37.533 37.533 0 00-4.19-1.197c-.693-.189-1.386-.315-2.079-.567-.542-.22-1.101-.4-1.67-.535a22.69 22.69 0 01-3.528-1.04c-2.458-.88-4.915-1.636-7.183-2.959a33.898 33.898 0 01-3.214-1.984c-.819-.63-1.732-1.543-1.323-2.645.126-.346.441-.882.851-1.008.346-.094.693.221 1.008.315.504.126.378-.283.441-.692.024-.307.066-.612.126-.914.063-.66.157-1.29.22-1.952.252-2.676.126-5.384.126-8.06 0-1.355-.315-2.52-.63-3.842l-.472-2.079a2.204 2.204 0 01-.063-1.196c.252-.882 1.512-1.102 2.237-1.354a14.554 14.554 0 011.921-.536c.347-.063 1.323 0 1.544-.314.221-.284-.032-1.26-.063-1.638a19.353 19.353 0 00-.189-1.952c-.126-1.04-.126-2.015.725-2.803-.536-.409-.883-1.29-.126-1.7a4.582 4.582 0 012.961-.283c1.008.252 2.111.252 3.15.377 1.103.126 2.206.252 3.308.41 1.89.252 3.812.283 5.702.661.945.189 1.859.346 2.804.472.977.158 1.575.284 2.142 1.103 1.103 1.574 2.143 3.148 2.741 4.975.549 1.739.898 3.535 1.04 5.353.173 1.947.236 3.902.189 5.857a47.053 47.053 0 01-.221 5.982zM287.08 105.746c-.126-.189-.441-.252-.63-.315a9.917 9.917 0 01-.819-.409 34.265 34.265 0 01-3.812-2.456c-.284-.221-1.04-1.039-1.449-.914-.221.063-.315.41-.41.599a7.829 7.829 0 01-.504.881 15.258 15.258 0 01-2.615 3.086c-1.858 1.701-4.001 2.803-6.584 2.929 1.67 2.267 3.245 4.597 5.135 6.675.945 1.039 1.985 1.984 2.993 3.023.128.159.289.288.473.378.22.06.424.168.598.315a1.21 1.21 0 01.252 1.165c1.764.063 3.655-.724 5.261-1.354a21.607 21.607 0 002.741-1.291 6.103 6.103 0 001.701-1.26c-1.606-.85-3.245-1.668-4.788-2.645-1.04-.661-2.899-1.448-2.773-2.991a.943.943 0 01.315-.661c.315-.189.378.031.662.094.473.095 1.008-.504 1.355-.787.945-.724 1.89-1.511 2.457-2.551.189-.314.662-1.165.441-1.511zm9.798 13.572c-.252-.851.945-1.512 1.48-1.921a7.812 7.812 0 001.922-2.141c2.111-3.338 2.867-7.432 2.709-11.336-.063-1.071-.157-2.173-.189-3.244a7.017 7.017 0 00-.094-1.637c-.126-.535-.252-1.04-.378-1.575-.252-1.039-.378-2.11-.693-3.148a15.067 15.067 0 00-1.134-2.771c-.315-.599-.599-1.417-1.387-1.323-1.008.158-1.953.661-2.929.913a98.014 98.014 0 01-3.245.787c-1.04.252-2.08.599-3.119.82a7.33 7.33 0 01-1.67.157c-.252 0-.693-.032-.693.315-.031.377.536.755.756.976.314.297.57.65.756 1.039.448.996.776 2.043.977 3.117a21.81 21.81 0 01.126 3.212c.05 2.115-.303 4.22-1.04 6.203-.693 1.827-1.795 3.055-3.276 4.283 1.544.787 3.119 1.543 4.662 2.33 1.418.693 2.836 1.291 4.033 2.33.55.413 1.029.913 1.418 1.48.441.693-.189 1.165-.851.882-.725-.315-1.449-.662-2.142-.977-.473-.22-1.229-.818-1.764-.787-.473 0-.631.599-.82.913a6.935 6.935 0 01-1.165 1.386 13.114 13.114 0 01-3.214 2.173 15.202 15.202 0 01-4.064 1.259c-.759.131-1.529.184-2.299.158-.567-.032-1.387-.032-1.922-.315-.441-.252-.221-.756-.662-1.008-.472-.252-.976-.472-1.417-.756-1.071-.724-1.702-1.637-2.332-2.708-1.449-2.519-3.213-4.817-4.284-7.525-.252-.63-.41-1.386-.819-1.953-.284-.378-.882-.598-.945-1.07-.063-.473.126-1.512.598-1.732.536-.252 1.323-.252 1.922-.409 2.552-.599 4.946-1.512 6.994-3.212.506-.427.989-.879 1.449-1.354.347-.347.693-.725.63-1.26-.063-.472-.441-1.165.347-1.29.504-.095 1.228.188 1.638.44 1.26.787 2.426 1.763 3.654 2.645 1.103.787 2.237 1.574 3.34 2.33-.126-1.858-.063-3.841-.504-5.636a9.147 9.147 0 00-1.072-2.488c-.504-.787-.882-1.606-1.323-2.424-.252.125-.63.44-.85.094-.126-.22-.032-.85 0-1.102.378-1.984 3.371-2.173 4.914-2.52 2.206-.472 4.442-1.07 6.679-1.416 1.04-.158 2.079-.19 3.119-.252.535-.032 1.166-.158 1.481.378.094.157.094.346.189.472.094.094.346.22.472.315.344.286.651.614.914.976a11.58 11.58 0 011.26 2.393 22.639 22.639 0 011.607 6.266c.325 2.22.431 4.467.315 6.707-.252 4.094-1.386 8.25-3.97 11.525a6.308 6.308 0 01-2.079 1.795c-.473.221-1.764.976-2.016.221zM267.516 167.464c.788 1.039 1.607 2.047 2.3 3.117a186.505 186.505 0 012.111 3.307 28.879 28.879 0 011.985 3.243c.315.661.346 1.543 1.197 1.511a7.142 7.142 0 003.213-.913 13.506 13.506 0 004.946-4.471 27.52 27.52 0 003.056-6.455c.41-1.228.725-2.519 1.04-3.779a8.435 8.435 0 00.315-1.952c0-.284-.032-.599-.032-.882 0-.283-.157-.756.158-.787-.095-.787-.189-1.606-.284-2.393-.063-.567-.063-1.228-.567-1.606-.472-.378-1.228-.378-1.795-.504-.694-.157-1.355-.346-2.048-.535a36.73 36.73 0 01-4.033-1.543c-.661-.284-1.323-.567-1.953-.913-.504-.284-.882-.725-1.26-.063-2.394 4.565-4.159 9.698-8.065 13.225-.315.283-.851.63-.882 1.102-.063.535.346.944.598 1.291zm-3.15-3.243c.567-.378 1.229-.441 1.796-.788.63-.409 1.071-1.322 1.512-1.92 1.04-1.449 2.111-2.897 3.056-4.409.85-1.385 1.638-2.802 2.457-4.188.404-.723.856-1.417 1.355-2.078.22-.283.756-1.291 1.197-1.228.22.031.22.252.378.315a.668.668 0 00.252 0c.315.031.63-.126.945-.095.788.063 1.607.41 2.363.63 1.544.472 3.024 1.134 4.568 1.669 1.512.535 3.213.882 4.599 1.732.536.315 1.166.85.631 1.511-.189.252-.473.252-.694.441-.189.158-.094.252-.063.504.037.155.058.313.063.472.252 1.606.442 3.212.221 4.818a31.594 31.594 0 01-1.04 4.849c-1.449 5.007-4.032 10.958-9.136 13.162-1.197.504-2.363.63-3.623.882-.381.081-.743.23-1.071.441a.94.94 0 01-.567.189c-.472-.063-.85-.787-1.039-1.102-.82-1.291-1.733-2.488-2.584-3.747-.44-.647-.84-1.32-1.197-2.016-.22-.409-.346-1.07-.914-1.07-.157.22-.315.409-.472.63-.063.094-.158.188-.189.251-.126.221-.095.063-.063.347.118.378.323.723.598 1.007a180.155 180.155 0 003.718 4.787 40.47 40.47 0 003.938 4.44c.258.329.628.554 1.039.629.41.032.82-.189 1.229-.252.851-.157 1.733-.188 2.552-.44.441-.126.788-.378 1.229-.41.343-.016.678-.113.976-.283.756-.441 1.575-.693 2.331-1.134a16.15 16.15 0 004.316-3.558c.599-.724 1.072-1.511 1.67-2.236a21.05 21.05 0 001.607-2.141 22.43 22.43 0 002.331-4.786c.315-.882.473-1.449-.315-2.078a14.596 14.596 0 01-1.985-1.953c-.283-.346-1.606-1.637-.63-1.857.536-.126 1.386.787 1.796 1.133a12.243 12.243 0 002.079 1.449c.851.44.882.976.851 1.889-.032 1.858-.725 3.684-1.449 5.353a25.424 25.424 0 01-2.773 4.944c-2.142 2.928-4.505 5.888-7.813 7.557a15.796 15.796 0 01-5.198 1.448c-1.066.121-2.14.163-3.213.126a4.696 4.696 0 01-1.481-.094c-.346-.126-.409-.378-.535-.693-.315-.756-1.103-1.165-1.639-1.763-.567-.661-1.165-1.26-1.764-1.89-1.26-1.354-2.11-2.991-3.119-4.534-.567-.85-1.165-1.7-1.669-2.582a9.25 9.25 0 01-1.04-2.519c-.094-.661.41-1.606 1.134-1.637.378-.032.693.283 1.071.314.209-.031.422-.031.63 0-.598-1.479-1.512-2.865-2.205-4.313a82.788 82.788 0 01-1.102-2.457c-.253-.692-.568-1.196.094-1.668zM254.6 46.863c-1.197 2.77-3.119 4.975-5.104 7.21a21.66 21.66 0 01-3.371 3.212 333.142 333.142 0 01-3.56 2.646c1.198 1.543 2.521 2.928 3.844 4.345 1.228 1.322 2.457 2.645 3.245 4.25.094-.786.598-1.259 1.26-1.574.838-.369 1.631-.834 2.363-1.385a38.57 38.57 0 004.316-4.156c2.709-2.992 4.41-6.77 6.3-10.266-3.087-1.417-6.174-2.834-9.293-4.282zm9.955 6.99a26.506 26.506 0 01-1.733 3.716 38.13 38.13 0 01-1.921 3.527 20.19 20.19 0 01-4.978 5.73 21.356 21.356 0 01-3.213 2.047c-.517.3-1.105.452-1.702.441-.378-.031-.882-.346-1.165-.063-.284.283-.189.882-.819.598a5.725 5.725 0 01-1.324-1.133c-.945-1.008-1.89-2.015-2.803-3.086a34.502 34.502 0 01-2.363-3.275c-.41-.63-.819-1.228-1.229-1.858-.283-.44-.693-.881-.693-1.448.032-1.102 1.386-1.827 2.142-2.425a20.737 20.737 0 002.584-2.393c.85-.945 1.921-1.732 2.835-2.645a36.56 36.56 0 002.772-3.086 32.023 32.023 0 002.017-2.613c.472-.725 1.008-1.26 1.921-1.134.74.126 1.467.315 2.174.567.725.283 1.386.598 2.079.913 1.261.567 2.395 1.291 3.623 1.952.274.139.537.297.788.473.126.094.283.314.409.377.095.064.189.032.315.064.505.125.662.409.914.85.41.692.378 1.07.032 1.763-.284.724-.41 1.448-.662 2.141zM215.314 88.27c-.315.504-.819.252-1.102-.094-.882-1.07-1.701-2.204-2.489-3.338a37.026 37.026 0 00-2.426-3.4 247.678 247.678 0 00-2.772-3.213c-3.529-3.936-7.12-7.777-10.995-11.335-.945-.882-1.922-1.732-2.835-2.645-.41-.41-.882-.85-.882-1.48a1.54 1.54 0 01.693-1.197c.85-.504 1.953.693 2.583 1.134.477.293.971.556 1.481.787.445.279.867.595 1.26.944.85.756 1.733 1.386 2.583 2.11.851.756 1.638 1.606 2.489 2.362.914.819 1.89 1.511 2.678 2.424.787.914 1.48 1.921 2.3 2.803 1.764 1.89 3.213 4.03 4.725 6.109a15.567 15.567 0 011.764 3.275c.252.566.473 1.133.725 1.731.179.542.295 1.102.346 1.67-.126.062-.031 1.164-.126 1.353zM19.046 181.35c-.661-.787-1.102-1.953-1.575-2.866-.504-.976-1.008-1.889-1.229-2.991-.094-.535-.157-1.071-.283-1.606a3.863 3.863 0 01-.22-1.449c.062-.535.314-2.172 1.133-1.983.473.094.378.629.378.976 0 .427.063.852.19 1.259.283.977 1.008 1.827 1.449 2.74.42.879.96 1.695 1.606 2.424.63.725 1.326 1.389 2.08 1.984.661.536 1.417.913 1.89 1.638.283.44.315.566.85.661.419.088.815.26 1.166.504.41.283.693.63 1.134.818.41.158.82.252 1.229.41.945.346 1.764.944 2.74 1.259l1.513.473c.41.126.882.189 1.228.472.567.472.883 1.637.378 2.236-.535.661-1.764.252-2.457.157 0 .032-.031.095-.031.126a32.8 32.8 0 01-3.497-.724 9.941 9.941 0 01-1.67-.756 8.57 8.57 0 00-1.418-.504 2.165 2.165 0 01-1.07-.755c-.347-.473-.505-.347-1.04-.473-.882-.189-1.639-1.196-2.237-1.795a29.909 29.909 0 01-2.237-2.235zM185.953 40.533c-.189-.315-.914-.63-1.229-.819a32.147 32.147 0 01-1.323-.881c-.788-.567-1.323-.19-2.016.346a4.32 4.32 0 00-1.701 3.905c0 .472-.126 1.228.22 1.606.347.378 1.04.315 1.481.41.598.125 1.48.85 2.079.66.536-.189.347-1.133.378-1.574a4.468 4.468 0 01.819-2.173c.254-.322.551-.608.882-.85.284-.189.599-.315.41-.63zm2.331 2.362c-.508.12-1.004.289-1.481.504a3.504 3.504 0 00-.976.472c-.41.378-.252.976-.347 1.448a1.48 1.48 0 00-.094.82c.126.345.472.408.661.692.284.41-.063 1.008-.315 1.354-.409.598-.945.283-1.575.22a10.714 10.714 0 01-2.237-.377c-.598-.19-1.071-.662-1.512-.032-.157.22-.189.44-.535.346-.284-.063-.567-.44-.725-.63-1.166-1.196-1.449-2.802-1.481-4.408-.063-1.763.599-3.432 1.513-4.944.165-.34.389-.65.661-.913.284-.252.63-.346.882-.598.378-.41.284-1.26.882-1.448.63-.19 1.544.566 2.017.913.661.472 1.323.944 1.984 1.448 1.386 1.07 2.962 2.078 4.222 3.306a1.182 1.182 0 01.157 1.637c-.409.41-1.134.095-1.701.19zM113.589 169.983c.29-1.569.722-3.107 1.291-4.598.347-.976 1.166-2.645 2.489-2.55 1.449.094.473 1.984.347 2.708-.536 2.928-.851 5.888-1.292 8.817-.22 1.448-.283 2.96-.63 4.377a12.021 12.021 0 01-.693 2.046c-.189.41-.41.976-.882 1.165-1.418.567-1.071-1.92-1.04-2.55.032-1.512.063-3.023.126-4.534h-.126c.158-1.606.126-3.244.41-4.881zM282.733 197.441c.787.252 1.354.441 2.205.378.598-.063 1.165-.189 1.764-.252 1.513-.186 2.99-.6 4.379-1.228a14.581 14.581 0 003.529-2.173c.553-.474 1.069-.99 1.543-1.542.299-.4.738-.67 1.229-.756a6.93 6.93 0 01-.693 2.11c-.31.568-.657 1.115-1.04 1.637a11.826 11.826 0 01-2.867 2.739 11.49 11.49 0 01-3.56 1.669c-.724.189-1.449.284-2.173.441a6.446 6.446 0 01-2.048.158c-.662-.095-1.323-.126-1.985-.284a6.15 6.15 0 01-1.418-.755c-.819-.599.095-2.488 1.135-2.142zM257.309 20.16c-.378.504-1.229.536-1.166-.252.075-.701.244-1.39.504-2.046a6.693 6.693 0 00.19-2.11 23.738 23.738 0 00-.347-4.944c-.315-1.574-.504-3.18-.851-4.754-.346-1.543-.976-2.992-1.354-4.535-.126-.472-.221-1.385.472-1.511.567-.095.914.724 1.134 1.102.756 1.26 1.544 2.424 1.985 3.841.41 1.282.695 2.6.851 3.937.157 1.385.126 2.802.22 4.188-.126 1.605-.063 3.4-.598 4.975a7.771 7.771 0 01-1.04 2.11zM40.09 26.521c.221.535.347 1.134-.063 1.638-.724.944-1.827-1.197-2.016-1.795-.378-1.291-.85-2.582-1.04-3.905-.22-1.354-.125-2.802-.157-4.188.098-1.624.34-3.236.725-4.818.346-1.416.693-2.833 1.858-3.778.473-.378.788-.095.883.472a3.09 3.09 0 01-.379 1.764c-.661 1.26-.661 2.739-.819 4.156-.283 2.802-.44 5.605.284 8.376.19.71.431 1.404.724 2.078zM281.441 57.947c-.158.63-.347 1.259-.567 1.889a14.905 14.905 0 01-1.765 3.369 18.911 18.911 0 01-4.505 4.597c-.567.41-1.953 1.512-2.677 1.134-1.009-.504.346-1.826.756-2.204.85-.787 1.669-1.575 2.52-2.362.851-.787 1.481-1.795 2.174-2.708.693-.945 1.354-1.89 1.953-2.897.315-.504.599-1.039.914-1.543a6.91 6.91 0 011.039-1.102c.284.126.252.126.347.378.025.146.035.293.031.44-.063.347-.157.662-.22 1.008zM209.139 67.834c-1.606-1.449-3.339-2.677-4.851-4.22-.378-.378-.662-.63-.347-1.133.221-.347.473-.536.851-.284.882.567 1.732 1.291 2.583 1.921 1.764 1.291 3.56 2.55 5.135 4.062.724.67 1.369 1.42 1.922 2.236.598.85 1.008 1.732.378 2.676-1.89-1.732-3.749-3.526-5.671-5.258zM14.572 186.798c.284-.063.756.251.977.377.85.567 1.733 1.071 2.583 1.606a60.26 60.26 0 012.331 1.543c.662.441 1.072.976.85 1.795-.094.378-.283.819-.724.598a8.651 8.651 0 00-.945-.44c-.886-.292-1.75-.65-2.583-1.071-1.418-.787-2.74-1.984-2.961-3.684.157-.221.189-.661.472-.724zM108.107 169.699c.284-.314.63-.314.788.063.157.378-.032 1.071-.095 1.449-.094.63-.189 1.259-.315 1.921-.063.378-.126 1.511-.598 1.669-.756.22-.756-1.575-.819-1.953l.472-1.606c.158-.472.221-1.165.567-1.543zM233.965 138.368c.189-.094.315-.063.347-.251.031-.189-.252-.347-.284-.504-.157-.536.41.031.63.189-.189.472-.378.976-.598 1.448a5.566 5.566 0 00-.662-.252c.221-.315.252-.504.567-.63zM129.435 50.39c-.378.125-.914-.032-1.292-.127a4.653 4.653 0 01-1.134-.315c-.851-.346-.788-1.354-.599-2.141.284-1.07.851-2.078 1.355-3.086.252-.504.473-1.039.693-1.543.158-.41.378-.944.914-.944.787 0 .409 1.857.283 2.298-.315 1.102-.913 2.141-1.386 3.18.45.053.902.074 1.355.063.472 0 .598 0 .724.536.158.787-.063 1.795-.913 2.078zM136.556 41.29c-.851-.064-1.702-.127-2.552-.253-.63-.063-1.701-.094-2.142-.567-.315-.346-.252-1.07.031-1.417.315-.409 1.04-.252 1.512-.252a8.407 8.407 0 013.623.756c.41.19 1.355.567 1.26 1.134-.157.724-1.197.63-1.732.598zM133.026 51.083c.725.189.567 1.385.347 1.889-.315.756-1.166.945-1.922.913-.378-.031-.882.095-1.166-.22a1.21 1.21 0 01-.063-1.26c.252-.44.914-.693 1.355-.913.378-.126 1.008-.504 1.449-.41zM132.933 44.785c-.063-.693.346-2.268 1.26-2.205.441.032.819.662.913 1.04.053.413.009.833-.126 1.227-.189.662-.441 1.638-1.291 1.512-.756-.157-.756-1.008-.756-1.575zM126.221 45.477a.643.643 0 01-.724.19c-.378-.19-.315-.63-.315-.977-.032 0-.095-.031-.126-.031.22-.599.378-1.89 1.134-2.078.756-.158.819.66.724 1.196-.094.567-.283 1.291-.693 1.7zM149.849 45.414c.378.032 1.071.22 1.008.693-.094.693-1.165.819-1.701.882-.63.063-1.544 0-.913-.788a2.04 2.04 0 011.606-.787zM181.353 126.969c.126.252.252.536.41.788-.41.063-.851.094-1.26.157-.032-.346.63-.756.85-.945z" fill="#1e1c26"/><path d="M73.9 23.26l.858.23.226 4.092-.724-.194-.043-.882-1.397-.374-.484.74-.724-.195L73.9 23.26zm-.768 2.403l1.055.282-.088-1.756-.967 1.474zm4.661-.378l-.302 1.124 1.13.303-.16.597-1.13-.303-.301 1.124-.684-.183.302-1.124-1.13-.303.16-.597 1.13.303.301-1.124.684.183zM37.57 161.349l.75-.476 3.163 2.606-.634.401-.677-.565-1.222.774.216.857-.633.402-.964-3.999zm1.246 2.193l.923-.585-1.352-1.125.43 1.71zm2.88-3.685l.622.983.989-.626.33.522-.988.626.623.984-.598.379-.623-.984-.988.626-.331-.522.988-.626-.623-.983.599-.379zM228.432 23.84l.881-.107 1.742 3.71-.745.09-.37-.8-1.435.175-.172.868-.744.09.843-4.025zm.187 2.517l1.084-.133-.74-1.596-.344 1.729zm4.18-2.096l.141 1.156 1.162-.143.075.614-1.161.142.141 1.155-.703.086-.141-1.155-1.162.142-.075-.613 1.162-.142-.142-1.156.703-.086zM253.152 57.582c.175.132.33.27.465.411.278.293.428.594.451.904.026.306-.093.584-.357.835-.287.272-.616.4-.986.381-.39-.021-.733-.188-1.031-.502-.294-.31-.452-.633-.471-.967-.022-.349.106-.66.385-.936l.5.526c-.148.14-.21.293-.186.458a.884.884 0 00.255.478.707.707 0 001.03.03c.288-.272.247-.603-.122-.991l-.818-.862 1.577-1.249 1.607 1.693-.47.446-1.136-1.197-.693.542zM294.876 104.683c.217-.025.424-.033.62-.023.403.02.72.134.95.342.23.203.336.487.318.85-.019.396-.169.715-.45.957-.297.254-.661.37-1.092.348-.428-.021-.764-.146-1.009-.374-.257-.237-.379-.551-.368-.943l.725.036c-.01.203.051.357.182.459a.884.884 0 00.514.17.707.707 0 00.767-.689c.02-.395-.238-.606-.773-.633l-1.187-.059.279-1.993 2.331.116-.032.647-1.648-.081-.127.87zM276.38 164.487c.204.081.389.172.557.273.346.208.572.458.676.75.107.288.066.588-.122.9a1.292 1.292 0 01-.849.63c-.381.083-.757.014-1.127-.209-.367-.221-.604-.49-.712-.807-.114-.331-.073-.666.122-1.005l.622.374c-.105.175-.124.338-.057.491a.891.891 0 00.372.393.707.707 0 001.002-.245c.204-.339.077-.647-.382-.923l-1.018-.613 1.189-1.624 1.999 1.204-.335.555-1.413-.851-.524.707z" fill="#1e1c26"/></svg>