<svg width="264" height="279" fill="none" xmlns="http://www.w3.org/2000/svg"><path d="M112.679 0H16.036c12.32 0 16.817 10.404 16.817 23.232v180.732c0 9.074 7.353 16.427 16.427 16.427h79.826v-203.3C129.106 7.628 121.753 0 112.679 0z" fill="#F8F8F8"/><path d="M16.427 0C7.353 0 0 7.353 0 16.427v56.28h32.853v-56.28C32.853 7.353 25.5 0 16.427 0z" fill="#E0E0E0"/><path d="M225.397 139.861h-96.291l16.466 29.412v93.163c0 9.073 7.353 16.426 16.426 16.426h79.826V156.288c0-9.074-7.353-16.427-16.427-16.427z" fill="#F8F8F8"/><path d="M129.145 139.861c-9.074 0-16.427 7.353-16.427 16.427v64.103h32.854v-64.103c0-9.074-7.353-16.427-16.427-16.427zM264 251.68H161.803v27.221h85.77c9.074 0 16.427-7.353 16.427-16.427V251.68z" fill="#E0E0E0"/><path d="M161.998 278.862c-9.073 0-16.426-7.353-16.426-16.427v-48.458h32.853v48.458c0 9.074-7.353 16.427-16.427 16.427z" fill="#F8F8F8"/><path d="M112.679 203.965v16.427H96.683c8.878-.235 15.996-7.51 15.996-16.427z" fill="#E0E0E0"/><path d="M58.98 61.209H45.956c-.86 0-1.565.704-1.565 1.564v13.024c0 .86.704 1.565 1.565 1.565H58.98c.86 0 1.564-.704 1.564-1.565V62.773c0-.86-.704-1.564-1.564-1.564z" stroke="#E2DCFC" stroke-width="3" stroke-miterlimit="10" stroke-linecap="round" stroke-linejoin="round"/><path d="M72.473 64.846h19.086M72.473 72.707h44.86M44.313 25.578h36.1M44.313 35.357h73.02M44.313 45.135h73.02" stroke="#E0E0E0" stroke-width="3" stroke-miterlimit="10" stroke-linecap="round" stroke-linejoin="round"/><path d="M49.045 68.796l3.012 2.464 4.498-4.733" stroke="#6C50F0" stroke-width="3" stroke-miterlimit="10" stroke-linecap="round" stroke-linejoin="round"/><path d="M58.98 90.934H45.956c-.86 0-1.565.704-1.565 1.564v13.024c0 .86.704 1.564 1.565 1.564H58.98c.86 0 1.564-.704 1.564-1.564V92.498c0-.86-.704-1.564-1.564-1.564z" stroke="#E2DCFC" stroke-width="3" stroke-miterlimit="10" stroke-linecap="round" stroke-linejoin="round"/><path d="M72.473 94.57h19.086M72.473 102.432h44.86" stroke="#E0E0E0" stroke-width="3" stroke-miterlimit="10" stroke-linecap="round" stroke-linejoin="round"/><path d="M49.045 98.52l3.012 2.464 4.498-4.732" stroke="#6C50F0" stroke-width="3" stroke-miterlimit="10" stroke-linecap="round" stroke-linejoin="round"/><path d="M58.98 120.658H45.956a1.57 1.57 0 00-1.565 1.565v13.024c0 .86.704 1.564 1.565 1.564H58.98c.86 0 1.564-.704 1.564-1.564v-13.024a1.57 1.57 0 00-1.564-1.565z" stroke="#E2DCFC" stroke-width="3" stroke-miterlimit="10" stroke-linecap="round" stroke-linejoin="round"/><path d="M72.473 124.295h19.086M72.473 132.156h44.86" stroke="#E0E0E0" stroke-width="3" stroke-miterlimit="10" stroke-linecap="round" stroke-linejoin="round"/><path d="M49.045 128.245l3.012 2.464 4.498-4.732" stroke="#6C50F0" stroke-width="3" stroke-miterlimit="10" stroke-linecap="round" stroke-linejoin="round"/><path d="M58.98 150.383H45.956c-.86 0-1.565.704-1.565 1.564v13.024a1.57 1.57 0 001.565 1.565H58.98a1.57 1.57 0 001.564-1.565v-13.024c0-.86-.704-1.564-1.564-1.564z" stroke="#E2DCFC" stroke-width="3" stroke-miterlimit="10" stroke-linecap="round" stroke-linejoin="round"/><path d="M72.473 154.02h19.086M72.473 161.881h44.86" stroke="#E0E0E0" stroke-width="3" stroke-miterlimit="10" stroke-linecap="round" stroke-linejoin="round"/><path d="M49.045 157.97l3.012 2.464 4.498-4.733" stroke="#6C50F0" stroke-width="3" stroke-miterlimit="10" stroke-linecap="round" stroke-linejoin="round"/><path d="M58.98 180.107H45.956a1.57 1.57 0 00-1.565 1.565v13.024c0 .86.704 1.564 1.565 1.564H58.98c.86 0 1.564-.704 1.564-1.564v-13.024a1.57 1.57 0 00-1.564-1.565z" stroke="#E2DCFC" stroke-width="3" stroke-miterlimit="10" stroke-linecap="round" stroke-linejoin="round"/><path d="M72.473 183.744h19.086M72.473 191.605h44.86" stroke="#E0E0E0" stroke-width="3" stroke-miterlimit="10" stroke-linecap="round" stroke-linejoin="round"/><path d="M49.045 187.694l3.012 2.464 4.498-4.732" stroke="#6C50F0" stroke-width="3" stroke-miterlimit="10" stroke-linecap="round" stroke-linejoin="round"/><path d="M172.128 162.625h-13.024c-.86 0-1.564.704-1.564 1.564v13.024a1.57 1.57 0 001.564 1.565h13.024a1.57 1.57 0 001.564-1.565v-13.024c0-.86-.664-1.564-1.564-1.564z" stroke="#E2DCFC" stroke-width="3" stroke-miterlimit="10" stroke-linecap="round" stroke-linejoin="round"/><path d="M185.661 166.301h19.086M185.661 174.123h44.821" stroke="#E0E0E0" stroke-width="3" stroke-miterlimit="10" stroke-linecap="round" stroke-linejoin="round"/><path d="M162.233 170.212l2.972 2.503 4.498-4.772" stroke="#6C50F0" stroke-width="3" stroke-miterlimit="10" stroke-linecap="round" stroke-linejoin="round"/><path d="M172.128 189.807h-13.024c-.86 0-1.564.704-1.564 1.564v13.024a1.57 1.57 0 001.564 1.565h13.024a1.57 1.57 0 001.564-1.565v-13.024c0-.86-.664-1.564-1.564-1.564z" stroke="#E2DCFC" stroke-width="3" stroke-miterlimit="10" stroke-linecap="round" stroke-linejoin="round"/><path d="M185.661 193.482h19.086M185.661 201.305h44.821" stroke="#E0E0E0" stroke-width="3" stroke-miterlimit="10" stroke-linecap="round" stroke-linejoin="round"/><path d="M162.233 197.393l2.972 2.504 4.498-4.772" stroke="#6C50F0" stroke-width="3" stroke-miterlimit="10" stroke-linecap="round" stroke-linejoin="round"/><path d="M172.128 216.988h-13.024a1.57 1.57 0 00-1.564 1.565v13.024c0 .86.704 1.564 1.564 1.564h13.024c.86 0 1.564-.704 1.564-1.564v-13.024c0-.861-.664-1.565-1.564-1.565z" stroke="#E2DCFC" stroke-width="3" stroke-miterlimit="10" stroke-linecap="round" stroke-linejoin="round"/><path d="M185.661 220.664h19.086M185.661 228.486h44.821" stroke="#E0E0E0" stroke-width="3" stroke-miterlimit="10" stroke-linecap="round" stroke-linejoin="round"/><path d="M162.233 224.577l2.972 2.503 4.498-4.771" stroke="#6C50F0" stroke-width="3" stroke-miterlimit="10" stroke-linecap="round" stroke-linejoin="round"/><path d="M236.739 63.947h-79.395a3.923 3.923 0 00-3.911 3.911v45.76a3.923 3.923 0 003.911 3.911h79.395a3.923 3.923 0 003.911-3.911v-45.76a3.923 3.923 0 00-3.911-3.91z" fill="#E2DCFC"/><path d="M240.65 72.785h-87.217v13.533h87.217V72.785z" fill="#F8F8F8"/><path d="M217.888 109.08a6.336 6.336 0 100-12.673 6.336 6.336 0 000 12.673z" fill="#9478FF"/><path d="M226.883 109.08a6.336 6.336 0 100-12.671 6.336 6.336 0 000 12.671z" fill="#9478FF"/><path d="M220.586 102.746c0 1.721.704 3.285 1.839 4.458a6.26 6.26 0 001.838-4.458c0-1.721-.704-3.286-1.838-4.459a6.26 6.26 0 00-1.839 4.459z" fill="#6C50F0"/><path d="M159.065 100.203h19.086M159.065 105.678h33.596" stroke="#9478FF" stroke-width="3" stroke-miterlimit="10" stroke-linecap="round" stroke-linejoin="round"/></svg>