<svg width="333" height="206" viewBox="0 0 333 206" fill="none" xmlns="http://www.w3.org/2000/svg">
<g clip-path="url(#clip0)">
<path fill-rule="evenodd" clip-rule="evenodd" d="M87.5706 166.174C89.1413 167.989 91.4799 169.35 93.2601 171.026C95.145 172.771 97.1694 174.307 99.0543 176.052C107.292 165.965 118.601 159.787 128.375 151.445C133.017 147.466 136.438 142.091 138.916 136.576C140.185 133.758 141.178 130.825 141.883 127.815C142.232 126.454 142.546 125.093 142.755 123.732C143.035 122.056 143.105 121.917 144.221 120.625C144.71 120.067 145.653 118.427 146.595 118.601C147.398 118.741 148.864 121.184 149.353 121.777C151.761 124.674 154.135 127.641 156.683 130.398C160.592 134.657 164.152 138.81 167.782 143.313C175.182 152.527 183.21 161.183 191.274 169.839C191.867 170.467 193.263 172.352 194.136 172.631C195.183 172.945 196.893 171.654 197.94 170.956C200.488 169.211 202.478 167.082 204.642 164.953C208.866 160.764 211.763 154.9 213.683 149.316C214.834 145.965 215.602 142.51 216.789 139.159C217.278 137.763 218.43 136.053 217.836 134.866C217.662 134.517 216.58 133.54 216.196 133.47C215.742 133.4 214.974 133.993 214.834 133.958C213.334 133.54 214.171 131.969 213.264 131.131C212.775 130.643 210.192 130.712 209.424 130.468C206.597 129.491 204.084 127.676 201.431 126.559C190.296 121.952 179.057 117.484 169.458 109.98C166.98 108.025 165.304 106.559 162.337 105.303C159.335 104.046 156.334 102.895 153.262 101.778C150.574 100.775 147.836 99.9132 145.059 99.1948C142.057 98.4269 137.764 97.4846 134.727 98.4619C128.793 100.382 126.874 105.268 124.535 110.399C121.359 117.379 117.484 123.941 113.296 130.363C105.198 142.684 95.4242 153.749 87.5706 166.174Z" fill="#6C50F0"/>
<path fill-rule="evenodd" clip-rule="evenodd" d="M265.97 57.1037C266.285 56.9292 268.833 57.9762 269.251 58.1159C270.962 58.7441 272.567 59.7912 274.173 60.6638C272.951 62.1646 271.695 63.6655 270.473 65.1663C269.286 62.2344 267.751 59.7912 265.97 57.1037ZM265.133 75.5326C265.552 75.5675 262.026 84.0839 261.607 85.0263C260.106 88.5166 258.536 91.9371 257 95.3925C255.534 98.7432 253.649 101.85 251.764 104.991C250.158 107.678 248.483 111.832 246.04 113.821C247.575 107.015 247.366 99.1621 251.799 93.4379C256.372 87.5393 260.874 81.7453 265.133 75.5326ZM87.5706 166.49C94.412 155.67 102.964 146.107 110.084 135.496C114.064 129.563 117.938 123.525 121.324 117.207C123.767 112.6 125.268 106.038 129.038 102.513C130.713 100.977 132.459 99.4413 134.692 98.7432C137.729 97.8008 141.953 98.7432 145.024 99.4762C150.749 100.872 156.334 103.036 161.744 105.34C167.224 107.644 171.901 111.832 176.858 115.148C182.163 118.743 187.923 121.361 193.891 123.629C199.092 125.619 203.7 128.481 208.866 130.47C209.878 130.854 212.007 130.819 212.845 131.343C213.787 131.901 213.403 133.577 214.52 134.17C215.044 134.449 215.184 133.437 215.602 133.472C216.091 133.507 216.51 134.065 216.964 134.414C218.849 135.845 217.697 136.823 216.964 138.812C214.555 145.304 213.229 151.901 209.843 158.044C207.01 163.14 203.074 167.54 198.324 170.923C197.591 171.447 195.288 173.401 194.415 173.262C193.647 173.157 192.111 171.133 191.588 170.574C189.214 168.096 187.05 165.408 184.676 162.93C181.011 159.091 177.486 155.147 173.926 151.273C169.807 146.77 166.142 141.639 162.442 136.823C160.732 134.589 158.533 132.809 156.648 130.749C154.1 127.992 151.761 124.99 149.318 122.128C148.585 121.256 147.363 119.022 146.211 119.057C145.408 119.092 144.012 120.942 143.593 121.535C142.057 123.734 142.057 127.678 141.289 130.4C139.405 137.067 136.019 143.594 131.342 148.725C126.699 153.855 120.765 157.485 115.285 161.604C109.351 166.072 103.732 170.609 99.0195 176.368C97.1346 174.623 95.1101 173.122 93.2252 171.342C91.4799 169.667 89.1413 168.305 87.5706 166.49ZM175.462 197.101C174.135 197.101 171.901 197.938 170.714 197.45C174.24 193.54 177.486 190.19 181.919 187.363C186.561 184.396 191.169 181.464 195.637 178.288C204.677 171.9 211.344 164.361 215.149 153.751C216.126 151.028 216.789 148.166 217.487 145.339C217.871 143.838 218.639 136.753 219.931 136.125C220.699 135.776 226.493 139.824 227.4 140.348C229.518 141.48 231.697 142.493 233.928 143.384C238.708 145.354 243.632 146.952 248.657 148.166C254.731 149.702 258.85 147.154 262.585 142.407C266.843 136.997 270.368 130.924 274.278 125.235C276.025 122.71 277.543 120.036 278.815 117.242C279.688 115.392 283.074 110.366 281.887 108.377C278.536 110.924 277.349 115.985 275.046 119.406C272.218 123.664 269.007 127.678 266.145 131.901C263.736 135.461 261.293 139.789 257.733 142.372C254.626 144.641 251.659 143.943 248.308 142.931C244.225 141.709 240.036 141.081 236.022 139.58C231.694 137.94 227.61 135.601 223.421 133.681C221.466 132.809 219.093 132.285 217.243 131.168C215.637 130.226 215.882 129.702 215.777 127.678C215.637 125.305 215.498 122.931 215.393 120.558C215.323 118.952 216.196 116.788 215.602 115.602C220.384 116.439 225.062 117.556 229.809 118.533C232.392 119.057 234.905 119.72 237.523 120.174C238.535 120.348 239.896 120.313 240.804 120.767C241.502 120.558 241.886 120.697 241.886 121.151C241.927 121.399 241.986 121.644 242.06 121.884C243.526 122.547 244.364 121.116 245.656 119.755C247.161 118.043 248.472 116.171 249.565 114.17C252.148 109.738 255.115 105.549 257.488 100.977C259.932 96.3 261.887 91.3088 263.946 86.4922C265.831 82.0595 267.052 77.2428 269.112 72.9148C270.05 71.051 271.223 69.315 272.602 67.7492C273.754 66.3879 275.499 63.491 277.175 62.8627C277.629 62.6882 278.815 62.9674 279.304 62.9325C280.316 62.8627 281.224 62.4788 282.271 62.5835C284.54 62.758 286.983 64.189 288.763 65.4455C287.612 66.4926 284.68 67.7492 286.774 69.599C288.798 71.414 289.915 68.168 290.683 66.737C294.313 69.7386 293.79 73.8572 294.209 78.0805C294.418 80.2794 295.011 82.4783 295.395 84.6423C295.675 86.213 295.465 87.8185 295.535 89.4241C295.744 93.4728 296.128 97.382 296.128 101.361C296.093 105.654 295.814 109.773 295.465 114.031C294.872 121.186 293.58 128.341 292.428 135.427C291.8 139.406 290.928 143.28 290.09 147.224C289.112 151.691 287.367 155.88 286.355 160.347C285.343 159.056 284.575 159.056 282.934 159.231C281.678 159.37 280.84 159.056 280.91 160.801C280.945 161.953 281.957 162.791 283.074 163C284.505 163.244 285.029 162.546 285.762 161.429C285.936 163.489 284.54 165.688 283.981 167.712C283.458 169.632 283.109 171.516 282.236 173.366C281.364 175.146 280.631 176.926 279.793 178.707C279.409 179.509 279.025 180.347 278.606 181.185C278.404 181.649 278.158 182.093 277.873 182.511C277.175 183.314 277.28 182.93 276.442 183.384C274.627 184.396 275.29 184.151 275.255 186.246C275.22 188.305 274.173 189.806 272.463 190.992C268.868 193.436 265.307 194.134 261.223 195.39C257.419 196.542 253.405 197.554 249.356 197.519C244.399 197.484 239.547 196.856 234.591 196.786C229.146 196.717 223.631 196.752 218.185 196.926C215.951 196.996 213.857 197.101 211.693 197.659C209.18 198.322 206.736 198.078 204.154 197.973C198.639 197.764 192.914 197.345 187.469 197.275C183.56 197.135 179.406 196.856 175.462 197.101ZM32.1762 199.23C31.1989 199.753 28.9999 199.544 27.9876 199.404C26.2424 199.16 26.0679 198.462 24.9509 196.926C23.066 194.238 21.4953 191.691 20.3783 188.584C18.2491 182.651 17.3765 176.612 16.4341 170.4C15.3869 163.524 17.3067 156.368 17.9699 149.527C18.1095 147.957 18.3538 146.421 18.5982 144.85C18.7378 143.908 18.7727 140.767 19.401 139.964C20.5878 138.428 26.0678 139.65 28.1971 139.789C34.2007 140.173 40.2393 140.278 46.243 140.348C49.4543 140.383 52.6655 140.522 55.8419 140.557C57.3079 140.557 58.7041 140.488 60.1701 140.348C60.6588 140.313 61.1474 140.173 61.6361 140.173C63.3116 140.069 63.2068 139.824 63.6257 141.325C64.3936 143.943 63.8003 147.259 64.0097 149.981C64.2889 153.611 64.4285 157.276 64.3587 160.906C64.2889 164.257 64.4285 167.607 64.2889 170.993C64.2425 172.301 64.0553 173.6 63.7304 174.867C63.3116 176.368 62.8578 179.893 61.8106 180.94C61.7059 181.045 60.7984 180.766 60.589 181.08C60.2399 181.534 60.3097 182.511 60.0305 182.79C59.2277 183.733 57.5871 183.802 56.3654 184.256C53.1444 185.399 49.9969 186.739 46.9411 188.27C44.1836 189.666 39.7157 190.888 38.0403 193.68C37.2724 194.971 37.1677 196.647 36.4696 197.973C35.6667 199.474 37.2724 198.706 35.3177 199.299C34.48 199.509 33.0489 199.23 32.1762 199.23ZM324.227 182.232C324.471 185.687 326.426 189.003 327.124 192.424C327.438 194.029 327.997 195.6 328.346 197.17C328.695 198.706 329.986 200.486 329.882 201.987C325.1 200.277 320.248 199.858 315.256 199.404C310.509 198.985 305.518 198.811 300.806 198.776C296.024 198.776 290.893 198.322 285.971 198.217C280.805 198.148 275.569 198.008 270.508 197.484C273.161 195.53 276.477 193.68 278.466 190.923C280.596 187.956 281.713 184.221 283.597 181.08C287.367 174.762 289.776 166.944 291.73 159.859C295.71 145.548 300.177 131.517 301.259 116.683C303.319 117.731 304.924 121.779 305.937 123.804C307.228 126.387 307.926 129.179 308.764 131.936C310.509 137.591 311.731 143.454 313.86 149.039C317.909 159.789 320.527 171.342 324.227 182.232ZM64.4983 98.9177C63.6257 105.305 61.7408 111.797 61.671 118.254C61.671 119.685 61.8805 121.256 61.6012 122.652C61.2871 124.153 60.2399 125.479 59.6465 126.91C58.7041 129.179 56.2957 133.821 58.6343 135.706C58.6692 133.891 60.3446 131.587 61.1823 129.982C62.4389 127.573 64.1144 125.409 65.4757 123.071C68.3145 118.126 71.585 113.443 75.2491 109.075C78.8443 104.886 82.998 101.152 86.8027 97.1377C87.9545 95.951 97.1346 84.3631 97.5185 84.5376C94.6563 95.5321 89.8045 105.096 83.1725 114.31C79.9264 118.813 76.017 121.779 72.0378 125.619C68.7568 128.795 62.5088 132.215 63.6606 137.416C58.4947 136.927 53.3985 136.125 48.1977 136.125C49.0703 129.528 49.6986 123.071 51.2344 116.579C52.9797 109.214 54.1315 101.64 55.5975 94.2407C57.0984 86.6667 59.6465 79.337 61.2173 71.763C62.7182 64.5381 64.0446 57.3131 65.1266 49.9834C66.0341 54.0322 65.72 58.4998 66.0342 62.6184C66.3368 66.8231 66.3951 71.0419 66.2087 75.2533C66.0691 83.2462 65.2314 91.0296 64.4983 98.9177ZM42.1591 61.2572C42.1242 57.8715 41.461 54.5557 41.2865 51.1701C41.2166 50.123 40.2044 43.0726 41.1469 42.7235C41.9497 44.4338 42.1242 46.6676 42.8572 48.4477C43.5902 50.2626 44.5326 51.9729 45.2307 53.7879C46.7317 57.7319 47.2203 62.1995 47.3948 66.3879C47.7439 75.8816 47.9533 85.3055 47.325 94.7992C47.0458 98.8479 46.8364 102.932 46.9062 107.015C46.976 111.483 47.6741 115.392 46.8364 119.825C46.0244 124.196 45.4881 128.614 45.2307 133.053C45.0213 136.194 44.9515 135.95 41.9846 135.741C39.8205 135.566 37.6563 135.741 35.4922 135.636C36.5045 123.42 36.679 111.204 38.2846 99.0225C39.1223 92.8097 39.1223 86.5271 40.1695 80.3492C40.6931 77.2777 41.5308 74.2761 42.0195 71.2046C42.4732 67.8888 42.194 64.573 42.1591 61.2572ZM260.7 53.5784C254.94 54.0671 248.832 55.8122 242.933 54.6604C243.91 54.2765 246.458 53.7181 245.307 52.1823C244.155 50.6117 242.165 52.6012 241.013 52.3917C240.28 52.2521 238.71 49.2853 238.291 48.6571C237.278 47.261 237.174 47.0166 235.359 46.6327C233.613 46.2837 233.229 46.6676 232.985 44.9224C232.741 42.9329 233.404 40.6991 233.369 38.6399C233.229 34.242 231.798 30.4027 230.472 26.2841C236.057 27.5057 241.537 28.9368 247.261 29.7395C249.705 30.0886 253.509 30.8564 255.743 29.1811C256.337 28.7622 256.232 28.1689 256.686 27.6453C257.628 26.7141 258.794 26.041 260.071 25.6908C266.983 24.2248 267.681 34.1024 264.19 37.8022C263.318 38.7446 262.096 39.1983 261.223 40.036C260.037 41.1529 259.932 42.3745 259.757 44.0848C259.393 47.3154 259.911 50.5845 261.258 53.5435L260.7 53.5784ZM176.648 100.209C174.589 100.593 172.46 100.523 170.435 100.837C169.702 100.942 167.538 101.361 166.875 100.942C165.898 100.279 165.549 97.9055 165.095 96.7887C164.292 94.8341 163.14 93.1238 162.372 91.1343C159.196 83.0019 156.264 74.8694 152.424 67.0162C153.89 66.6322 155.007 66.6322 156.508 66.4228C158.044 66.2134 159.44 65.3059 160.906 64.922C162.302 64.5381 163.768 64.6428 165.165 64.2239C165.932 63.9796 166.596 63.4561 167.329 63.2815C168.515 63.0023 169.912 62.8278 170.645 63.5957C171.378 64.3984 171.622 66.6322 172.041 67.6444C173.088 70.4367 174.345 73.0893 175.217 75.9514C176.02 78.4994 176.788 81.0473 177.486 83.6301C178.219 86.3526 179.685 88.6213 180.593 91.239C181.256 93.2285 181.919 95.2529 182.024 97.382C182.128 99.4413 182.408 99.5809 180.348 99.895C179.231 100.035 177.626 100.663 176.648 100.209ZM42.0893 196.926C41.8535 197.048 41.5888 197.102 41.3242 197.084C41.0594 197.065 40.8049 196.975 40.5883 196.821C45.1958 194.867 49.6986 192.179 54.5155 190.818C59.0182 189.561 63.4163 188.061 67.7794 186.525C71.3048 185.268 74.4812 184.291 77.6924 182.092C79.6494 180.821 81.3439 179.186 82.6839 177.276C84.1848 175.077 84.4989 171.97 86.1046 170.016C88.2687 172.389 90.8168 174.204 93.3997 176.089C94.2724 176.752 96.4365 178.183 96.7157 179.195C97.0997 180.487 96.0874 181.708 95.5638 183C94.2724 186.315 93.6092 189.631 92.9111 193.087C92.6318 194.483 92.0035 196.542 90.8866 197.135C89.8394 197.659 86.8725 197.275 85.581 197.17C78.8792 196.647 72.2822 196.158 65.5106 196.612C57.8664 197.135 49.6986 197.484 42.0893 196.926ZM28.6857 135.461C27.4641 135.461 26.2773 135.322 25.0556 135.322C25.7537 132.041 24.1132 127.818 23.5198 124.537C22.8566 120.872 22.3679 117.102 21.9491 113.403C21.053 105.687 20.6101 97.9248 20.6227 90.157C20.6227 82.583 19.2265 75.6722 17.3067 68.3774C15.2473 60.5591 11.8266 53.5435 9.03418 46.0044C12.1058 47.6449 13.8162 51.4493 15.4218 54.3463C17.4517 58.068 18.8884 62.0837 19.6802 66.2483C21.2859 74.2063 23.066 82.1991 24.916 90.157C26.8358 98.4291 27.9876 106.806 30.2216 115.008C31.3036 119.022 32.7696 123.943 32.8394 128.062C32.8743 129.772 33.3979 133.367 32.63 134.833C31.8621 136.229 30.2565 135.601 28.6857 135.461ZM212.81 125.165C212.88 126.003 212.95 126.84 213.089 127.678C211.414 127.678 209.25 125.898 207.819 125.13C206.038 124.188 204.293 123.106 202.548 122.163C199.197 120.313 195.427 119.092 191.867 117.556C187.783 115.811 184.013 113.682 180.104 111.553C178.743 110.82 168.934 106.562 169.074 105.41C171.238 105.34 173.367 105.27 175.531 105.2C177.381 105.131 180.244 105.549 182.024 104.991C183.001 104.677 184.083 103.525 184.432 102.617C184.781 101.71 183.978 97.6263 184.467 97.3471C186.876 99.8252 188.411 103.071 190.541 105.724C192.914 108.656 195.986 110.366 199.406 111.937C203.141 113.647 207.051 115.008 210.855 116.474C212.461 117.102 212.426 117.451 212.566 119.231C212.775 121.186 212.74 123.175 212.81 125.165ZM18.0746 199.648C14.0256 200.067 9.83701 199.823 5.75311 200.172C4.2522 200.312 2.19278 200.486 3.6937 202.476C4.63614 203.732 7.67288 203.348 9.03418 203.418C12.6992 203.662 16.6086 203.523 20.3085 203.488C21.0764 203.488 21.9491 203.244 22.7169 203.313C23.6245 203.383 24.7066 204.011 25.5443 204.011C26.0679 204.011 26.2424 203.488 26.6613 203.418C27.6114 203.308 28.5669 203.249 29.5234 203.244C44.1138 203.244 58.4947 202.964 73.0501 202.929C79.9962 202.929 87.0819 202.79 94.028 202.476C95.494 202.406 103.801 202.72 103.592 200.067C103.487 198.706 100.765 198.532 99.7525 198.392C99.0195 198.287 98.2516 198.287 97.5185 198.252C95.5639 198.148 94.6912 198.601 95.1101 196.472C96.6808 188.375 99.4732 181.673 105.477 175.844C110.364 171.063 116.263 166.77 121.812 162.756C128.549 157.904 133.994 152.843 138.008 145.444C140.347 141.116 142.302 136.718 143.489 131.936C143.907 130.226 143.942 128.271 144.466 126.596C144.885 125.305 145.792 124.432 146.351 123.106C153.053 134.275 161.918 143.664 170.051 153.751C174.015 158.611 178.357 163.151 183.036 167.328C184.397 168.585 185.689 169.876 186.98 171.202C188.062 172.319 189.773 173.331 190.68 174.553C191.553 175.74 191.343 175.705 190.017 176.647C188.272 177.904 186.317 178.951 184.537 180.172C181.675 182.127 178.568 183.768 176.02 186.106C173.263 188.654 170.854 191.586 168.446 194.448C166.84 196.368 164.746 198.811 164.327 201.219C164.187 202.022 163.699 203.976 164.362 204.57C164.92 205.058 164.885 204.884 165.583 204.57C166.526 204.186 166.805 203.243 167.922 202.825C170.819 201.708 174.345 202.092 177.381 202.092C180.418 202.092 183.455 202.406 186.492 202.406C193.403 202.371 200.174 202.929 207.086 203.244C214.416 203.558 221.85 202.79 229.18 202.894C234.591 202.964 240.176 202.58 245.725 202.86C248.588 202.999 251.415 202.65 254.207 202.615C257.872 202.545 261.607 203.069 265.307 203.139C271.381 203.244 277.349 203.244 283.423 203.418C296.547 203.732 309.567 204.046 322.691 204.256C324.436 204.291 326.356 204.221 328.101 204.43C329.951 204.64 328.974 205.024 330.231 205.687C333.756 207.537 332.953 200.696 332.849 199.334C332.395 192.109 330.545 185.024 328.346 178.183C326.251 171.691 324.541 164.885 322.796 158.218C320.841 150.958 318.328 143.978 316.024 136.753C313.686 129.388 311.766 121.71 307.507 115.183C306.53 113.682 305.518 112.076 303.982 111.134C302.237 110.087 302.167 110.68 302.167 108.76C302.167 106.945 302.062 104.537 302.481 102.792C302.865 101.221 302.795 102.164 303.668 101.047C304.366 100.139 305.134 99.5111 305.623 98.3942C308.764 101.57 315.92 99.895 318.921 97.6263C322.621 94.8341 325.449 90.1221 326.461 85.6196C327.299 82.0246 326.286 75.1486 322.272 73.4035C320.318 72.5658 313.197 71.9026 312.883 69.1802C312.743 67.7492 315.256 65.7597 315.815 64.5381C316.993 62.0872 317.805 59.4765 318.223 56.7895C318.817 51.938 316.618 46.528 313.092 43.2471C306.67 37.2437 295.36 34.1722 287.088 37.9767C288.833 31.3102 289.88 25.5511 289.008 18.6054C288.24 12.6369 284.714 9.28623 279.863 6.28455C271.59 1.18868 260.316 -0.800803 250.822 0.665133C248.657 1.01417 246.598 1.71223 244.609 2.30558C241.711 3.14326 238.256 2.86404 235.498 4.22526C233.509 5.20255 232.008 7.15714 230.263 8.44855C228.238 9.9843 226.528 12.253 225.131 14.3472C222.095 18.8497 223.282 27.1916 225.83 31.6941C226.352 32.644 227.065 33.4757 227.924 34.1373C228.866 34.8354 230.297 35.0448 230.751 35.9174C231.973 38.1861 230.786 43.1424 230.646 45.6205C230.472 48.4826 231.903 50.6466 235.149 50.856C237.034 50.9956 237.104 49.9136 237.977 52.1474C238.57 53.6133 239.093 55.184 239.931 56.5103C241.676 59.2677 244.853 58.9884 247.75 58.9186C251.101 58.8488 254.417 58.2904 257.768 57.9762C256.895 60.8034 254.452 63.0023 252.951 65.5502C250.891 68.9708 249.67 71.7979 249.321 75.7769C249.076 78.8484 249.6 81.2567 251.729 83.5254C252.602 84.4678 253.37 84.5027 253.16 85.6196C253.021 86.2828 251.869 87.3648 251.485 87.9232C250.403 89.3194 249.146 90.6108 248.204 92.1116C244.574 97.8707 243.492 106.666 243.492 113.368C243.492 113.682 243.317 114.345 243.457 114.659C243.561 114.903 244.329 115.636 244.329 115.706C244.469 116.579 243.631 118.045 242.305 118.184C240.909 118.324 238.395 117.172 237.104 116.788C235.045 116.195 232.95 115.741 230.891 115.113C227.575 114.101 224.259 113.298 220.873 112.495C219.337 112.146 217.801 111.832 216.266 111.518C214.52 111.134 213.718 110.401 212.81 112.181C212.042 113.717 212.531 113.996 210.646 113.228C208.796 112.46 206.981 111.518 205.166 110.645C201.954 109.144 198.15 107.783 195.392 105.549C190.785 101.815 189.075 95.8463 184.676 91.9022C183.455 90.7853 182.722 90.7853 181.954 89.2495C181.116 87.6091 180.697 85.5149 180.244 83.7348C179.476 80.6633 178.917 77.557 178.254 74.4855C177.381 70.6461 175.531 67.1558 174.17 63.5259C173.646 62.0948 173.367 60.2799 172.495 58.9884C172.285 58.6394 171.831 58.4649 171.657 58.1857C171.064 57.2084 171.064 56.9641 170.889 55.7773C170.156 50.3324 166.91 53.1945 163.384 54.451C161.883 54.9746 154.798 58.3602 157.52 60.6289C154.309 61.5713 149.143 61.0477 149.178 65.6899C149.213 68.0633 150.609 70.5763 151.377 72.8101C152.04 74.7647 152.703 76.7542 153.402 78.7088C154.902 83.0019 156.718 87.1903 158.184 91.5183C158.847 93.4728 159.405 95.4972 160.348 97.3471C161.185 98.9876 163.14 100.803 163.489 102.583C154.902 98.9177 146.944 93.6125 137.31 93.9615C133.087 94.1011 129.282 95.8812 126.944 99.5809C124.011 104.223 122.092 109.424 119.264 114.101C108.898 131.133 96.5412 146.63 85.1272 162.965C84.2546 164.222 83.1376 165.408 82.8235 166.944C82.6141 167.956 82.998 168.969 82.7886 169.946C82.2999 171.97 79.8217 174.483 78.1113 175.635C74.8651 177.869 69.6294 181.01 65.5804 180.731C68.1285 174.658 68.0936 167.991 67.9539 161.464C67.8492 155.286 67.186 149.178 66.3832 143.07C66.2437 141.715 65.9986 140.373 65.6502 139.056C65.1964 137.521 64.5681 137.66 65.9294 136.299C68.0238 134.17 70.5369 132.425 72.6312 130.261C77.2038 125.619 81.916 121.954 85.5112 116.404C88.9319 111.134 92.562 105.689 95.0752 99.895C97.6931 93.9266 98.7402 87.5742 100.032 81.2567C100.555 78.7088 102.475 75.8467 102.091 73.1592C101.602 69.7735 100.032 72.2517 99.4034 74.0666C97.4487 79.6162 92.9111 84.5725 89.1064 89.0401C85.0225 93.8568 80.0311 97.9056 75.7727 102.583C71.1303 107.678 67.9539 113.542 63.8351 118.987C63.8351 112.216 66.1389 105.34 67.0813 98.6734C67.919 92.7748 68.1634 86.8761 68.687 80.9775C69.8737 67.5397 68.8615 53.753 67.186 40.4199C66.3832 34.1024 66.837 27.9246 66.8021 21.5722C66.8021 19.5478 67.6398 14.9057 66.5577 13.0907C64.4984 9.67017 63.3116 17.1744 63.2068 18.2913C62.5786 24.9578 63.6955 31.5545 63.1371 38.221C62.5437 45.1668 61.2522 51.9031 60.1701 58.7441C58.9833 66.1785 57.0636 73.4384 55.2136 80.6982C53.2938 88.3421 51.6533 96.1604 49.4892 103.734C48.8958 101.361 49.7335 98.4291 49.8731 95.9859C50.1175 92.4956 50.5363 89.0401 50.6061 85.5498C50.6759 80.0002 50.7108 74.3459 50.3967 68.8312C50.0826 63.3862 50.1873 57.6621 48.5118 52.4266C47.6504 49.9358 46.6122 47.5097 45.4053 45.1668C44.0091 42.2698 43.5204 39.4775 42.7176 36.406C42.0544 33.7534 41.0771 31.2055 40.6233 28.5179C40.3441 26.8426 39.5761 21.9212 37.6563 25.6559C36.5394 27.8199 37.028 31.031 36.9931 33.3695C36.9583 36.3711 37.412 39.2681 37.4818 42.2349C37.6215 48.0637 37.7261 53.8926 38.145 59.7214C38.5937 65.6201 38.2177 71.5526 37.028 77.3475C35.7715 83.9443 35.3875 90.541 34.7243 97.2424C34.3753 100.698 33.8168 104.118 33.5375 107.574C33.3979 109.389 34.1309 114.659 32.8394 115.951C32.6998 112.774 31.7923 109.598 31.1291 106.527C30.3263 102.862 29.9772 99.0225 29.3839 95.3227C28.4065 89.3194 26.5216 83.5603 25.265 77.6268C22.6821 65.3757 20.5529 49.6344 9.76718 41.6415C8.371 40.5944 6.80026 39.8266 5.26443 38.954C4.39182 38.4653 3.10031 37.2088 2.12299 36.9645C1.04092 36.7202 0.587158 36.8947 0.168304 38.1512C-0.425079 39.8964 0.656982 40.6991 1.70413 41.9906C5.29935 46.3884 6.83517 52.0078 9.06909 57.1386C14.1652 68.901 16.4341 81.3265 16.4341 94.0662C16.4805 100.656 16.8767 107.239 17.6208 113.787C18.3887 120.907 19.401 128.446 21.5651 135.322C19.401 135.81 17.0274 135.078 16.4341 137.591C16.2944 138.219 16.5388 138.952 16.3991 139.755C16.1907 140.549 15.9342 141.33 15.6312 142.093C15.208 143.673 14.9046 145.284 14.7237 146.91C13.8511 153.227 12.3851 159.265 12.2105 165.688C12.0709 171.621 13.2228 177.625 14.3048 183.453C15.3869 189.317 18.4935 194.308 20.9019 199.614C20.1689 199.614 19.1217 199.614 18.0746 199.648Z" fill="#1E1C26"/>
<path fill-rule="evenodd" clip-rule="evenodd" d="M155.95 186.14C157.101 186.454 162.686 187.082 162.686 188.827C162.686 189.874 157.101 189.839 156.124 189.979C156.054 188.723 155.984 187.431 155.95 186.14ZM143.628 198.216C140.417 198.845 136.054 197.972 133.994 195.145C133.017 193.818 132.563 191.794 132.249 190.223C131.935 188.723 131.027 184.953 131.656 183.557C132.424 181.812 139.823 183.627 141.953 183.836C145.736 184.179 149.541 184.226 153.332 183.976C153.332 187.85 153.541 191.62 151.237 194.97C149.632 197.379 146.56 197.937 143.628 198.216ZM144.256 203.033C147.747 201.741 151.412 202.579 153.681 198.845C154.265 197.891 154.734 196.872 155.077 195.808C155.258 195.347 155.387 194.867 155.461 194.377C155.286 193.33 155.67 193.051 156.613 193.504C158.463 193.155 160.487 194.412 162.442 194.028C167.154 193.12 166.316 186.349 163.14 184.011C162.512 183.557 161.883 183.417 161.185 183.173C159.615 182.684 158.742 183.243 157.311 183.103C156.124 182.998 155.81 181.777 154.553 181.218C153.716 180.869 152.599 180.904 151.726 180.869C147.188 180.695 142.651 180.695 138.113 180.381C135.984 180.241 133.68 180.59 131.621 180.206C130.643 180.032 130.783 179.403 129.875 179.962C128.933 180.555 129.317 182.719 129.387 183.592C129.666 188.618 129.98 193.993 132.668 198.391C135.111 202.405 139.963 202.823 144.256 203.033Z" fill="#1E1C26"/>
<path fill-rule="evenodd" clip-rule="evenodd" d="M328.695 204.393C327.578 204.393 326.461 204.358 325.344 204.358C326.461 204.393 327.578 204.393 328.695 204.393Z" fill="#1E1C26"/>
<path fill-rule="evenodd" clip-rule="evenodd" d="M67.9535 159.333C67.9885 160.031 68.0236 160.764 68.0586 161.462C68.0586 160.764 68.0236 160.031 67.9535 159.333Z" fill="#1E1C26"/>
<path fill-rule="evenodd" clip-rule="evenodd" d="M18.0746 199.647C18.7727 199.647 19.4708 199.647 20.134 199.612C19.8081 199.471 19.4557 199.401 19.1006 199.407C18.7454 199.413 18.3956 199.495 18.0746 199.647Z" fill="#1E1C26"/>
<path fill-rule="evenodd" clip-rule="evenodd" d="M79.4028 202.788C78.9142 202.788 78.4255 202.788 77.9368 202.753C78.3906 202.753 78.9142 202.753 79.4028 202.788Z" fill="#1E1C26"/>
<path fill-rule="evenodd" clip-rule="evenodd" d="M16.9924 106.036C16.9924 105.513 16.9574 104.954 16.9574 104.431C16.9574 104.989 16.9574 105.513 16.9924 106.036Z" fill="#1E1C26"/>
<path fill-rule="evenodd" clip-rule="evenodd" d="M63.346 38.1841C63.381 37.6257 63.4161 37.0672 63.4861 36.5088C63.4161 37.1021 63.381 37.6606 63.346 38.1841Z" fill="#1E1C26"/>
<path fill-rule="evenodd" clip-rule="evenodd" d="M16.748 99.4048C16.748 98.8464 16.7481 98.2879 16.713 97.7295C16.713 98.2879 16.748 98.8464 16.748 99.4048Z" fill="#1E1C26"/>
<path fill-rule="evenodd" clip-rule="evenodd" d="M172.669 202.09C172.215 202.09 171.797 202.09 171.343 202.125C171.762 202.09 172.215 202.09 172.669 202.09Z" fill="#1E1C26"/>
<path fill-rule="evenodd" clip-rule="evenodd" d="M59.0879 202.997C58.669 202.997 58.2153 202.997 57.7964 203.032C58.2502 202.997 58.669 202.997 59.0879 202.997Z" fill="#1E1C26"/>
<path fill-rule="evenodd" clip-rule="evenodd" d="M12.5593 164.01L12.6643 162.544L12.5593 164.01Z" fill="#1E1C26"/>
<path fill-rule="evenodd" clip-rule="evenodd" d="M68.0935 202.998C67.7445 202.998 67.3954 202.998 67.0464 202.963C67.3954 202.998 67.7445 202.998 68.0935 202.998Z" fill="#1E1C26"/>
<path fill-rule="evenodd" clip-rule="evenodd" d="M255.778 202.823C255.394 202.788 255.045 202.788 254.661 202.753C255.045 202.753 255.429 202.788 255.778 202.823Z" fill="#1E1C26"/>
<path fill-rule="evenodd" clip-rule="evenodd" d="M153.087 61.5697C153.646 61.5348 154.204 61.465 154.728 61.4301C154.204 61.465 153.611 61.1509 153.087 61.5697Z" fill="#1E1C26"/>
<path fill-rule="evenodd" clip-rule="evenodd" d="M12.4899 199.856C13.0483 199.786 13.5719 199.751 14.1304 199.682C13.6068 199.717 13.0483 199.786 12.4899 199.856Z" fill="#1E1C26"/>
<path fill-rule="evenodd" clip-rule="evenodd" d="M50.4312 64.9199C50.4661 65.4086 50.5011 65.8623 50.5361 66.351C50.5011 65.8972 50.4661 65.4086 50.4312 64.9199Z" fill="#1E1C26"/>
<path fill-rule="evenodd" clip-rule="evenodd" d="M16.6084 84.7802L16.5034 83.4189C16.5384 83.9076 16.5734 84.3264 16.6084 84.7802Z" fill="#1E1C26"/>
<path fill-rule="evenodd" clip-rule="evenodd" d="M50.6405 72.3193C50.6755 72.808 50.7106 73.2617 50.7456 73.7504C50.7455 73.2714 50.7103 72.7932 50.6405 72.3193Z" fill="#1E1C26"/>
<path fill-rule="evenodd" clip-rule="evenodd" d="M16.8179 103.034V101.673C16.6891 101.877 16.6208 102.113 16.6208 102.353C16.6208 102.594 16.6891 102.83 16.8179 103.034Z" fill="#1E1C26"/>
<path fill-rule="evenodd" clip-rule="evenodd" d="M67.9532 169.037V170.433C68.0985 170.229 68.1765 169.985 68.1765 169.735C68.1765 169.485 68.0985 169.241 67.9532 169.037Z" fill="#1E1C26"/>
<path fill-rule="evenodd" clip-rule="evenodd" d="M33.2927 115.739C33.3627 115.285 33.3978 114.797 33.4678 114.343C33.3978 114.797 33.3627 115.285 33.2927 115.739Z" fill="#1E1C26"/>
<path fill-rule="evenodd" clip-rule="evenodd" d="M320.318 72.9482C320.667 73.4369 321.155 73.0879 321.609 73.1577C321.155 73.0879 320.737 73.018 320.318 72.9482Z" fill="#1E1C26"/>
<path fill-rule="evenodd" clip-rule="evenodd" d="M69.2454 74.9023C69.2104 75.2863 69.1753 75.6702 69.1053 76.0541C69.1753 75.6702 69.2104 75.2863 69.2454 74.9023Z" fill="#1E1C26"/>
<path fill-rule="evenodd" clip-rule="evenodd" d="M294.348 36.4044C294.802 36.4044 295.256 36.4393 295.709 36.4393C295.516 36.2892 295.279 36.2049 295.035 36.1986C294.79 36.1923 294.549 36.2644 294.348 36.4044Z" fill="#1E1C26"/>
<path fill-rule="evenodd" clip-rule="evenodd" d="M50.6755 79.0205C50.7105 79.4393 50.7455 79.8233 50.7805 80.2421C50.7105 79.8233 50.7105 79.4393 50.6755 79.0205Z" fill="#1E1C26"/>
<path fill-rule="evenodd" clip-rule="evenodd" d="M63.2417 29.1442C63.2067 28.7603 63.1717 28.4113 63.1366 28.0273C63.1352 28.4022 63.1704 28.7762 63.2417 29.1442Z" fill="#1E1C26"/>
<path fill-rule="evenodd" clip-rule="evenodd" d="M66.8366 27.9922C66.8716 28.411 66.9066 28.795 66.9417 29.2138C66.9066 28.795 66.8716 28.3761 66.8366 27.9922Z" fill="#1E1C26"/>
<path fill-rule="evenodd" clip-rule="evenodd" d="M265.761 1.15234C266.215 1.22215 266.703 1.25705 267.157 1.32686C266.669 1.25705 266.215 1.22215 265.761 1.15234Z" fill="#1E1C26"/>
<path fill-rule="evenodd" clip-rule="evenodd" d="M299.409 36.7188C299.898 36.7537 300.352 36.8235 300.841 36.8584C300.352 36.8235 299.863 36.7886 299.409 36.7188Z" fill="#1E1C26"/>
<path fill-rule="evenodd" clip-rule="evenodd" d="M37.3423 37.905C37.3073 37.521 37.2722 37.172 37.2722 36.7881C37.3072 37.172 37.3423 37.521 37.3423 37.905Z" fill="#1E1C26"/>
<path fill-rule="evenodd" clip-rule="evenodd" d="M66.8018 145.756C66.8368 146.175 66.8718 146.594 66.8718 147.012C66.8718 146.559 66.8368 146.14 66.8018 145.756Z" fill="#1E1C26"/>
<path fill-rule="evenodd" clip-rule="evenodd" d="M38.7033 65.1984C38.7033 64.8145 38.7383 64.3957 38.7383 64.0117C38.7383 64.3957 38.7383 64.7796 38.7033 65.1984Z" fill="#1E1C26"/>
<path fill-rule="evenodd" clip-rule="evenodd" d="M253.998 0.209419H255.255C255.073 0.0734831 254.853 0 254.626 0C254.4 0 254.179 0.0734831 253.998 0.209419Z" fill="#1E1C26"/>
<path fill-rule="evenodd" clip-rule="evenodd" d="M140.591 94.0992C141.045 94.0992 141.534 94.1341 141.988 94.1341C141.787 93.9841 141.545 93.9002 141.295 93.8939C141.045 93.8877 140.799 93.9594 140.591 94.0992Z" fill="#1E1C26"/>
<path fill-rule="evenodd" clip-rule="evenodd" d="M99.927 202.055C99.6473 202.049 99.3676 202.061 99.0893 202.09C99.369 202.097 99.6489 202.086 99.927 202.055Z" fill="#1E1C26"/>
<path fill-rule="evenodd" clip-rule="evenodd" d="M89.5601 202.544C89.2808 202.544 89.0016 202.509 88.7224 202.509C89.0006 202.538 89.2804 202.549 89.5601 202.544Z" fill="#1E1C26"/>
<path fill-rule="evenodd" clip-rule="evenodd" d="M252.113 202.753C251.822 202.748 251.53 202.76 251.241 202.788C251.53 202.76 251.822 202.748 252.113 202.753Z" fill="#1E1C26"/>
<path fill-rule="evenodd" clip-rule="evenodd" d="M12.8034 159.368C12.8384 158.984 12.8734 158.566 12.9434 158.182C12.8734 158.6 12.8384 158.984 12.8034 159.368Z" fill="#1E1C26"/>
<path fill-rule="evenodd" clip-rule="evenodd" d="M50.3269 92.9121C50.2919 93.296 50.2569 93.68 50.2219 94.029C50.2569 93.6451 50.2919 93.2611 50.3269 92.9121Z" fill="#1E1C26"/>
<path fill-rule="evenodd" clip-rule="evenodd" d="M35.8758 86.4553C35.9108 86.0713 35.9809 85.6525 36.0159 85.2686C35.9809 85.6525 35.9108 86.0364 35.8758 86.4553Z" fill="#1E1C26"/>
<path fill-rule="evenodd" clip-rule="evenodd" d="M249.774 202.997H248.902C249.192 202.98 249.484 202.98 249.774 202.997Z" fill="#1E1C26"/>
<path fill-rule="evenodd" clip-rule="evenodd" d="M144.256 203.032C143.977 203.032 143.698 202.998 143.419 202.998C143.698 202.992 143.978 203.003 144.256 203.032Z" fill="#1E1C26"/>
<path fill-rule="evenodd" clip-rule="evenodd" d="M38.2496 57.3456C38.2496 56.9268 38.2847 56.5429 38.2847 56.124C38.2496 56.5429 38.2496 56.9268 38.2496 57.3456Z" fill="#1E1C26"/>
<path fill-rule="evenodd" clip-rule="evenodd" d="M32.0715 203.207C31.7923 203.242 31.513 203.242 31.2337 203.277C31.513 203.242 31.7923 203.242 32.0715 203.207Z" fill="#1E1C26"/>
<path fill-rule="evenodd" clip-rule="evenodd" d="M29.5583 203.206C29.2787 203.2 28.9989 203.212 28.7207 203.241C28.9988 203.211 29.2787 203.199 29.5583 203.206Z" fill="#1E1C26"/>
<path fill-rule="evenodd" clip-rule="evenodd" d="M16.5384 88.0265C16.5734 87.6426 16.5734 87.2238 16.6084 86.8398C16.5734 87.2587 16.5384 87.6426 16.5384 88.0265Z" fill="#1E1C26"/>
<path fill-rule="evenodd" clip-rule="evenodd" d="M208.272 198.006C207.4 197.971 206.527 197.901 205.654 197.866C206.527 197.901 207.4 197.936 208.272 198.006Z" fill="#1E1C26"/>
<path fill-rule="evenodd" clip-rule="evenodd" d="M260.7 53.5762C259.932 53.646 259.199 53.7158 258.431 53.7856C259.199 53.7158 259.932 53.646 260.7 53.5762Z" fill="#1E1C26"/>
<path fill-rule="evenodd" clip-rule="evenodd" d="M47.7439 86.3506C47.7089 87.0836 47.7089 87.7816 47.6739 88.5146C47.6739 87.8165 47.7089 87.0836 47.7439 86.3506Z" fill="#1E1C26"/>
<path fill-rule="evenodd" clip-rule="evenodd" d="M32.1763 199.228C31.3734 199.262 30.6055 199.332 29.8027 199.367C30.6055 199.402 31.4083 199.646 32.1763 199.228Z" fill="#1E1C26"/>
<path fill-rule="evenodd" clip-rule="evenodd" d="M36.8186 114.098C36.8186 113.4 36.8186 112.737 36.7836 112.039C36.8186 112.737 36.8186 113.4 36.8186 114.098Z" fill="#1E1C26"/>
<path fill-rule="evenodd" clip-rule="evenodd" d="M38.843 135.669C38.1449 135.669 37.4468 135.704 36.7836 135.704C37.4468 135.704 38.1449 135.669 38.843 135.669Z" fill="#1E1C26"/>
<path fill-rule="evenodd" clip-rule="evenodd" d="M212.775 123.593C212.81 124.116 212.81 124.64 212.81 125.163C212.81 124.64 212.775 124.116 212.775 123.593Z" fill="#1E1C26"/>
<path fill-rule="evenodd" clip-rule="evenodd" d="M27.3242 101.429C27.3593 101.952 27.3943 102.476 27.3943 102.999C27.3943 102.476 27.3593 101.952 27.3242 101.429Z" fill="#1E1C26"/>
<path fill-rule="evenodd" clip-rule="evenodd" d="M42.0894 196.924C41.6007 196.889 41.0772 196.854 40.5885 196.819C40.9375 197.099 41.3215 197.134 42.0894 196.924Z" fill="#1E1C26"/>
<path fill-rule="evenodd" clip-rule="evenodd" d="M45.4402 128.862L45.3351 130.538L45.4402 128.862Z" fill="#1E1C26"/>
<path fill-rule="evenodd" clip-rule="evenodd" d="M44.8467 135.774L42.9618 135.739C43.2517 135.891 43.5729 135.973 43.9001 135.979C44.2273 135.985 44.5513 135.915 44.8467 135.774Z" fill="#1E1C26"/>
<path fill-rule="evenodd" clip-rule="evenodd" d="M189.319 197.134C188.691 197.134 188.097 197.134 187.469 197.169C187.753 197.326 188.074 197.406 188.399 197.4C188.723 197.394 189.041 197.302 189.319 197.134Z" fill="#1E1C26"/>
<path fill-rule="evenodd" clip-rule="evenodd" d="M304.506 198.914C303.877 198.844 303.249 198.809 302.656 198.739C303.284 198.809 303.912 198.879 304.506 198.914Z" fill="#1E1C26"/>
<path fill-rule="evenodd" clip-rule="evenodd" d="M47.4995 90.9922L47.3944 92.6675C47.4643 92.1118 47.4994 91.5523 47.4995 90.9922Z" fill="#1E1C26"/>
<path fill-rule="evenodd" clip-rule="evenodd" d="M245.621 54.9026C245.382 54.7684 245.114 54.695 244.84 54.6889C244.566 54.6828 244.295 54.7442 244.05 54.8677C244.574 54.8677 245.097 54.8677 245.621 54.9026Z" fill="#1E1C26"/>
<path fill-rule="evenodd" clip-rule="evenodd" d="M64.6379 97.4854C64.6029 97.974 64.5679 98.4277 64.4979 98.9164C64.5329 98.4277 64.5679 97.974 64.6379 97.4854Z" fill="#1E1C26"/>
<path fill-rule="evenodd" clip-rule="evenodd" d="M20.4124 86.3854C20.5412 86.1752 20.6094 85.9336 20.6094 85.6873C20.6094 85.441 20.5412 85.1995 20.4124 84.9893V86.3854Z" fill="#1E1C26"/>
<path fill-rule="evenodd" clip-rule="evenodd" d="M28.6858 135.459C28.1622 135.285 27.6037 135.076 27.0801 135.459H28.6858Z" fill="#1E1C26"/>
<path fill-rule="evenodd" clip-rule="evenodd" d="M202.722 197.797C202.164 197.762 201.64 197.692 201.082 197.657C201.64 197.692 202.164 197.727 202.722 197.797Z" fill="#1E1C26"/>
<path fill-rule="evenodd" clip-rule="evenodd" d="M277 197.797C276.512 197.587 276.023 197.448 275.534 197.797H277Z" fill="#1E1C26"/>
<path fill-rule="evenodd" clip-rule="evenodd" d="M175.462 197.098C174.938 196.854 174.414 196.749 173.891 197.098H175.462Z" fill="#1E1C26"/>
<path fill-rule="evenodd" clip-rule="evenodd" d="M293.615 128.409C293.58 128.898 293.545 129.352 293.51 129.84C293.545 129.386 293.58 128.898 293.615 128.409Z" fill="#1E1C26"/>
<path fill-rule="evenodd" clip-rule="evenodd" d="M170.4 100.836C169.877 100.661 169.353 100.556 168.83 100.871C169.353 100.836 169.877 100.836 170.4 100.836Z" fill="#1E1C26"/>
<path fill-rule="evenodd" clip-rule="evenodd" d="M47.5344 115.076C47.4994 115.53 47.4644 116.019 47.4644 116.472C47.4644 116.019 47.4994 115.565 47.5344 115.076Z" fill="#1E1C26"/>
<path fill-rule="evenodd" clip-rule="evenodd" d="M293.964 72.8086C293.991 73.1831 294.038 73.5559 294.104 73.9255C294.038 73.5559 293.991 73.1831 293.964 72.8086Z" fill="#1E1C26"/>
<path fill-rule="evenodd" clip-rule="evenodd" d="M324.227 182.229C324.262 182.613 324.297 182.962 324.297 183.346C324.297 182.962 324.262 182.613 324.227 182.229Z" fill="#1E1C26"/>
<path fill-rule="evenodd" clip-rule="evenodd" d="M36.5739 117.554L36.679 116.402C36.6439 116.821 36.6089 117.17 36.5739 117.554Z" fill="#1E1C26"/>
<path fill-rule="evenodd" clip-rule="evenodd" d="M74.6208 196.365H73.2246C73.6784 196.4 74.1671 196.365 74.6208 196.365Z" fill="#1E1C26"/>
<path fill-rule="evenodd" clip-rule="evenodd" d="M212.95 126.839C212.88 127.118 212.775 127.397 212.705 127.677C213.264 127.816 213.334 127.537 212.95 126.839Z" fill="#1E1C26"/>
<path fill-rule="evenodd" clip-rule="evenodd" d="M178.045 100.207H176.613C177.102 100.416 177.591 100.556 178.045 100.207Z" fill="#1E1C26"/>
<path fill-rule="evenodd" clip-rule="evenodd" d="M293.371 130.678C293.371 131.097 293.336 131.515 293.336 131.934C293.336 131.515 293.336 131.097 293.371 130.678Z" fill="#1E1C26"/>
<path fill-rule="evenodd" clip-rule="evenodd" d="M63.4861 135.11C63.4861 135.494 63.4511 135.878 63.4511 136.262C63.4511 135.878 63.4511 135.494 63.4861 135.11Z" fill="#1E1C26"/>
<path fill-rule="evenodd" clip-rule="evenodd" d="M298.048 198.704C297.851 198.559 297.612 198.481 297.368 198.481C297.123 198.481 296.884 198.559 296.687 198.704H298.048Z" fill="#1E1C26"/>
<path fill-rule="evenodd" clip-rule="evenodd" d="M286.25 67.4326C286.215 67.8166 286.215 68.2354 286.18 68.6194C286.18 68.2005 286.215 67.8166 286.25 67.4326Z" fill="#1E1C26"/>
<path fill-rule="evenodd" clip-rule="evenodd" d="M300.387 198.739H298.991C299.184 198.908 299.432 199.001 299.689 199.001C299.945 199.001 300.193 198.908 300.387 198.739Z" fill="#1E1C26"/>
<path fill-rule="evenodd" clip-rule="evenodd" d="M256.232 54.2744C255.778 54.3442 255.324 54.3791 254.906 54.4489C255.359 54.3791 255.813 54.3093 256.232 54.2744Z" fill="#1E1C26"/>
<path fill-rule="evenodd" clip-rule="evenodd" d="M295.605 88.7939C295.605 89.1779 295.605 89.5269 295.57 89.9109C295.605 89.5269 295.605 89.143 295.605 88.7939Z" fill="#1E1C26"/>
<path fill-rule="evenodd" clip-rule="evenodd" d="M39.157 88.7241C39.192 88.3402 39.192 87.9562 39.2271 87.5723C39.192 87.9562 39.192 88.3402 39.157 88.7241Z" fill="#1E1C26"/>
<path fill-rule="evenodd" clip-rule="evenodd" d="M143.209 198.32C142.651 198.355 142.092 198.425 141.569 198.46C142.092 198.425 142.651 198.355 143.209 198.32Z" fill="#1E1C26"/>
<path fill-rule="evenodd" clip-rule="evenodd" d="M145.024 184.045H145.897C145.607 184.08 145.314 184.08 145.024 184.045Z" fill="#1E1C26"/>
<path fill-rule="evenodd" clip-rule="evenodd" d="M145.024 198.076C144.571 198.111 144.117 198.181 143.628 198.216C144.082 198.181 144.536 198.146 145.024 198.076Z" fill="#1E1C26"/>
<path fill-rule="evenodd" clip-rule="evenodd" d="M228.098 167.012C227.505 170.398 232.776 173.714 233.195 168.897C233.334 167.117 232.182 165.895 230.856 164.813C228.971 163.277 227.924 164.743 228.098 167.012Z" fill="#1E1C26"/>
<path fill-rule="evenodd" clip-rule="evenodd" d="M286.25 125.582C284.994 126.106 275.499 129.177 280.456 130.748C281.747 131.167 283.737 131.236 284.854 130.503C286.215 129.631 287.577 127.048 286.25 125.582Z" fill="#1E1C26"/>
<path fill-rule="evenodd" clip-rule="evenodd" d="M283.912 79.6498C280.7 79.2658 277.733 84.5711 281.678 84.3966C284.575 84.257 288.449 79.6498 283.912 79.6498Z" fill="#1E1C26"/>
<path fill-rule="evenodd" clip-rule="evenodd" d="M272.358 92.5986C269.67 94.9372 274.662 100.208 276.651 98.1832C277.664 97.1361 276.721 94.9023 275.883 94.0297C275.046 93.1571 273.51 92.9826 272.358 92.5986Z" fill="#1E1C26"/>
<path fill-rule="evenodd" clip-rule="evenodd" d="M264.365 153.47C265.97 153.714 272.951 156.018 271.485 151.864C270.927 150.294 269.391 150.747 267.96 150.817C265.656 150.922 264.365 150.817 264.365 153.47Z" fill="#1E1C26"/>
<path fill-rule="evenodd" clip-rule="evenodd" d="M268.972 164.15C266.599 165.407 270.054 172.527 272.044 171.026C274.767 168.932 271.032 164.779 268.972 164.15Z" fill="#1E1C26"/>
<path fill-rule="evenodd" clip-rule="evenodd" d="M258.606 158.426C257.454 157.938 252.008 163.208 254.068 164.639C255.115 165.372 257.139 164.116 257.803 163.348C258.989 161.917 259.094 160.102 258.606 158.426Z" fill="#1E1C26"/>
<path fill-rule="evenodd" clip-rule="evenodd" d="M290.055 115.564C288.868 115.774 286.844 115.809 286.739 117.484C286.669 118.95 288.519 119.404 289.776 119.543C291.102 119.648 292.882 119.299 292.917 117.589C292.952 115.774 290.09 115.879 290.055 115.564Z" fill="#1E1C26"/>
<path fill-rule="evenodd" clip-rule="evenodd" d="M260.909 187.849C259.653 188.617 253.788 191.374 256.302 193.363C257.244 194.096 260.106 192.561 260.735 191.793C261.503 190.85 262.236 188.651 260.909 187.849Z" fill="#1E1C26"/>
<path fill-rule="evenodd" clip-rule="evenodd" d="M244.574 167.885C244.748 164.849 239.617 163.627 240.699 167.955C241.013 169.177 241.293 171.026 242.794 171.096C244.574 171.166 244.643 169.072 244.574 167.885Z" fill="#1E1C26"/>
<path fill-rule="evenodd" clip-rule="evenodd" d="M260.386 115.077C260.351 117.38 264.749 119.405 264.784 115.775C264.853 112.494 260.246 111.552 260.386 115.077Z" fill="#1E1C26"/>
<path fill-rule="evenodd" clip-rule="evenodd" d="M263.318 103.069C262.236 103.418 260.77 103.593 260.7 104.989C260.595 106.455 261.956 107.118 263.178 107.013C264.19 106.944 265.656 106.211 265.831 105.129C266.11 103.523 264.539 103.418 263.318 103.069Z" fill="#1E1C26"/>
<path fill-rule="evenodd" clip-rule="evenodd" d="M283.528 145.232C283.563 143.348 279.723 141.044 279.025 143.243C278.815 143.941 280.596 147.117 281.189 147.361C282.795 147.99 283.004 146.559 283.528 145.232Z" fill="#1E1C26"/>
<path fill-rule="evenodd" clip-rule="evenodd" d="M252.323 176.89C253.614 178.041 257.488 181.287 257.174 176.925C257 174.167 251.973 174.307 252.323 176.89Z" fill="#1E1C26"/>
<path fill-rule="evenodd" clip-rule="evenodd" d="M189.424 189.315C189.005 187.501 182.966 190.642 184.991 192.98C185.654 193.748 187.434 193.05 188.132 192.596C189.424 191.654 189.459 190.816 189.424 189.315Z" fill="#1E1C26"/>
<path fill-rule="evenodd" clip-rule="evenodd" d="M223.072 150.189C222.828 149.386 222.583 147.92 221.781 147.432C220.384 146.489 219.163 147.92 219.163 149.421C219.163 152.179 222.339 153.051 223.072 150.189Z" fill="#1E1C26"/>
<path fill-rule="evenodd" clip-rule="evenodd" d="M238.046 182.788C236.476 183.137 232.985 186.976 235.01 188.512C236.964 190.013 239.547 183.94 238.046 182.788Z" fill="#1E1C26"/>
<path fill-rule="evenodd" clip-rule="evenodd" d="M236.545 153.958C234.521 154.133 231.764 157.379 234.905 157.902C237.348 158.286 240.211 154.761 236.545 153.958Z" fill="#1E1C26"/>
<path fill-rule="evenodd" clip-rule="evenodd" d="M218.29 168.967C217.801 167.256 212.775 169.071 213.054 170.956C213.194 171.968 215.253 172.178 216.335 171.933C217.906 171.549 218.325 170.502 218.29 168.967Z" fill="#1E1C26"/>
<path fill-rule="evenodd" clip-rule="evenodd" d="M277.245 73.8201C277.21 71.6212 272.986 70.7137 272.672 72.9475C272.393 74.937 277.315 77.0661 277.245 73.8201Z" fill="#1E1C26"/>
<path fill-rule="evenodd" clip-rule="evenodd" d="M219.686 191.654C219.372 190.537 219.233 189.211 217.871 189.071C216.3 188.897 216.335 190.118 216.51 191.375C217.033 194.796 218.953 194.97 219.686 191.654Z" fill="#1E1C26"/>
<path fill-rule="evenodd" clip-rule="evenodd" d="M286.529 100.033C288.728 100.522 292.777 96.2987 290.299 95.3563C288.554 94.728 286.529 98.7419 286.529 100.033Z" fill="#1E1C26"/>
<path fill-rule="evenodd" clip-rule="evenodd" d="M258.396 133.016C259.513 133.54 259.792 133.854 260.63 132.981C261.398 132.213 261.363 130.119 260.7 129.351C258.221 126.349 258.291 131.829 258.396 133.016Z" fill="#1E1C26"/>
<path fill-rule="evenodd" clip-rule="evenodd" d="M249.216 126.943C248.029 127.083 244.574 130.399 246.389 131.69C248.588 133.296 249.844 128.27 249.216 126.943Z" fill="#1E1C26"/>
<path fill-rule="evenodd" clip-rule="evenodd" d="M223.875 127.781C224.713 131.062 226.842 128.863 226.737 126.385C226.563 122.406 224.329 125.861 223.875 127.781Z" fill="#1E1C26"/>
<path fill-rule="evenodd" clip-rule="evenodd" d="M210.96 180.45C209.529 181.044 207.574 186.558 209.634 186.838C211.937 187.152 211.169 181.602 210.96 180.45Z" fill="#1E1C26"/>
<path fill-rule="evenodd" clip-rule="evenodd" d="M228.936 177.343C227.296 176.785 226.667 180.275 227.645 180.904C229.774 182.335 229.32 178.181 228.936 177.343Z" fill="#1E1C26"/>
<path fill-rule="evenodd" clip-rule="evenodd" d="M244.573 167.885C244.608 168.339 244.608 168.792 244.643 169.281C244.608 168.792 244.608 168.339 244.573 167.885Z" fill="#1E1C26"/>
<path fill-rule="evenodd" clip-rule="evenodd" d="M189.423 189.315C189.423 189.804 189.458 190.258 189.458 190.746C189.458 190.258 189.423 189.769 189.423 189.315Z" fill="#1E1C26"/>
<path fill-rule="evenodd" clip-rule="evenodd" d="M218.29 168.967C218.29 169.351 218.325 169.77 218.325 170.154C218.325 169.77 218.29 169.386 218.29 168.967Z" fill="#1E1C26"/>
<path fill-rule="evenodd" clip-rule="evenodd" d="M36.0159 162.056C32.5952 161.951 28.7905 160.66 25.4396 161.078C24.5321 161.183 22.4029 161.427 23.8689 162.789C24.567 163.452 27.9528 163.103 28.9999 163.312C35.2829 164.639 42.4035 165.511 48.826 165.372C51.8279 165.337 54.8646 165.092 57.8665 164.918C60.8683 164.743 61.1824 163.522 57.7966 163.138C54.2712 162.719 50.676 162.893 47.1506 162.893C43.4157 162.928 39.7158 162.3 36.0159 162.056Z" fill="#1E1C26"/>
<path fill-rule="evenodd" clip-rule="evenodd" d="M28.5112 153.819C28.8254 154.761 29.1395 156.891 30.3961 157.03C32.1763 157.24 32.4555 154.203 32.3857 153.086C32.3159 151.76 31.8273 149.526 30.1518 149.98C28.7556 150.399 28.6159 152.772 28.5112 153.819Z" fill="#1E1C26"/>
<path fill-rule="evenodd" clip-rule="evenodd" d="M39.1921 153.156C38.9478 152.144 38.8082 149.91 37.3771 149.805C35.8063 149.735 35.3526 152.074 35.3526 153.191C35.3526 154.273 35.7714 156.297 37.028 156.542C38.7384 156.891 38.9129 154.308 39.1921 153.156Z" fill="#1E1C26"/>
<path fill-rule="evenodd" clip-rule="evenodd" d="M56.9937 154.936C57.5173 156.158 57.8314 157.798 59.4371 156.995C60.6587 156.367 60.8332 153.784 60.5889 152.632C60.3446 151.411 59.8559 150.015 58.4597 150.573C56.8541 151.201 56.9937 153.61 56.9937 154.936Z" fill="#1E1C26"/>
<path fill-rule="evenodd" clip-rule="evenodd" d="M43.5204 153.819C45.0213 158.426 47.8138 155.319 46.7317 151.864C45.6496 148.304 43.66 151.794 43.5204 153.819Z" fill="#1E1C26"/>
<path fill-rule="evenodd" clip-rule="evenodd" d="M50.8854 154.063C51.3043 154.865 51.758 156.611 52.875 156.436C54.2712 156.227 54.3061 153.539 54.1665 152.527C54.0269 151.654 53.6429 150.188 52.491 150.223C50.8156 150.258 50.9203 153.016 50.8854 154.063Z" fill="#1E1C26"/>
<path fill-rule="evenodd" clip-rule="evenodd" d="M20.6924 154.935C21.8094 157.448 23.3801 155.284 22.8915 153.504C22.1235 150.816 20.7623 153.19 20.6924 154.935Z" fill="#1E1C26"/>
<path fill-rule="evenodd" clip-rule="evenodd" d="M48.3025 162.929H52.0024C50.787 162.632 49.518 162.632 48.3025 162.929Z" fill="#1E1C26"/>
<path fill-rule="evenodd" clip-rule="evenodd" d="M23.8339 161.078C24.9159 161.078 25.9631 161.078 27.0452 161.113C26.004 160.77 24.8822 160.758 23.8339 161.078Z" fill="#1E1C26"/>
<path fill-rule="evenodd" clip-rule="evenodd" d="M36.016 162.056C36.8537 162.125 37.7263 162.16 38.564 162.23C37.7263 162.195 36.8886 162.125 36.016 162.056Z" fill="#1E1C26"/>
<path fill-rule="evenodd" clip-rule="evenodd" d="M56.9935 154.936C56.9935 154.308 56.9936 153.714 57.0286 153.086C56.8766 153.37 56.7942 153.685 56.7881 154.007C56.782 154.328 56.8524 154.647 56.9935 154.936Z" fill="#1E1C26"/>
<path fill-rule="evenodd" clip-rule="evenodd" d="M54.5155 162.963C55.2136 163.033 55.9117 163.068 56.6099 163.137C55.9117 163.103 55.2136 163.033 54.5155 162.963Z" fill="#1E1C26"/>
<path fill-rule="evenodd" clip-rule="evenodd" d="M45.0561 162.929H47.1155C46.792 162.782 46.4409 162.706 46.0858 162.706C45.7306 162.706 45.3795 162.782 45.0561 162.929Z" fill="#1E1C26"/>
<path fill-rule="evenodd" clip-rule="evenodd" d="M50.8851 154.063C50.8851 153.435 50.9202 152.772 50.9202 152.144C50.9202 152.772 50.9202 153.435 50.8851 154.063Z" fill="#1E1C26"/>
<path fill-rule="evenodd" clip-rule="evenodd" d="M60.589 152.632V154.517C60.624 153.889 60.624 153.26 60.589 152.632Z" fill="#1E1C26"/>
<path fill-rule="evenodd" clip-rule="evenodd" d="M32.1064 161.847C32.6997 161.916 33.328 161.951 33.9214 162.021C33.328 161.951 32.6997 161.882 32.1064 161.847Z" fill="#1E1C26"/>
<path fill-rule="evenodd" clip-rule="evenodd" d="M20.6922 154.935C20.7272 154.377 20.7272 153.853 20.7622 153.295C20.7272 153.853 20.6922 154.412 20.6922 154.935Z" fill="#1E1C26"/>
<path fill-rule="evenodd" clip-rule="evenodd" d="M46.627 165.406C46.2081 165.406 45.7892 165.406 45.3704 165.371C45.7543 165.406 46.1732 165.406 46.627 165.406Z" fill="#1E1C26"/>
<path fill-rule="evenodd" clip-rule="evenodd" d="M28.511 153.819C28.546 153.435 28.581 153.051 28.616 152.632C28.581 153.051 28.546 153.435 28.511 153.819Z" fill="#1E1C26"/>
<path fill-rule="evenodd" clip-rule="evenodd" d="M43.52 153.818C43.5551 153.399 43.5901 153.016 43.5901 152.597C43.5901 153.016 43.5551 153.434 43.52 153.818Z" fill="#1E1C26"/>
<path fill-rule="evenodd" clip-rule="evenodd" d="M262.236 35.6713C263.911 35.2176 264.225 32.879 263.946 31.448C263.632 30.75 263.353 30.0519 263.038 29.3538C263.143 29.1095 263.283 28.8303 263.387 28.586C263.248 27.1549 263.632 26.5267 261.991 27.12C258.955 28.202 258.466 35.5666 262.236 35.6713Z" fill="#1E1C26"/>
<path fill-rule="evenodd" clip-rule="evenodd" d="M237.558 31.1338C236.196 31.0291 233.683 32.6346 235.045 34.1704C235.882 35.1127 238.675 34.659 239.827 34.8684C241.327 35.1476 242.898 35.4967 242.095 33.228C241.467 31.4828 239.163 31.0989 237.558 31.1338Z" fill="#1E1C26"/>
<path fill-rule="evenodd" clip-rule="evenodd" d="M238.989 41.7792C240.385 40.6623 239.757 35.5664 237.627 36.4739C235.463 37.4163 237.837 41.0462 238.989 41.7792Z" fill="#1E1C26"/>
<path fill-rule="evenodd" clip-rule="evenodd" d="M263.945 31.4473V33.0528C264.099 32.8133 264.182 32.5347 264.182 32.25C264.182 31.9654 264.099 31.6867 263.945 31.4473Z" fill="#1E1C26"/>
<path fill-rule="evenodd" clip-rule="evenodd" d="M262.236 35.6716C261.956 35.6774 261.676 35.6658 261.398 35.6367C261.676 35.6658 261.956 35.6774 262.236 35.6716Z" fill="#1E1C26"/>
<path fill-rule="evenodd" clip-rule="evenodd" d="M89.9092 182.51C90.0488 184.813 92.5271 183.103 92.3525 181.567C92.0035 178.74 90.4327 181.532 89.9092 182.51Z" fill="#1E1C26"/>
</g>
<defs>
<clipPath id="clip0">
<rect width="333" height="206" fill="white" transform="matrix(-1 0 0 1 333 0)"/>
</clipPath>
</defs>
</svg>
