<svg width="333" height="206" fill="none" xmlns="http://www.w3.org/2000/svg"><g clip-path="url(#clip0)" fill-rule="evenodd" clip-rule="evenodd"><path d="M87.57 166.174c1.571 1.815 3.91 3.176 5.69 4.852 1.885 1.745 3.91 3.281 5.794 5.026 8.238-10.087 19.547-16.265 29.321-24.607 4.642-3.979 8.063-9.354 10.541-14.869a47.98 47.98 0 002.967-8.761c.349-1.361.663-2.722.872-4.083.28-1.676.35-1.815 1.466-3.107.489-.558 1.432-2.198 2.374-2.024.803.14 2.269 2.583 2.758 3.176 2.408 2.897 4.782 5.864 7.33 8.621a260.873 260.873 0 0111.099 12.915c7.4 9.214 15.428 17.87 23.492 26.526.593.628 1.989 2.513 2.862 2.792 1.047.314 2.757-.977 3.804-1.675 2.548-1.745 4.538-3.874 6.702-6.003 4.224-4.189 7.121-10.053 9.041-15.637 1.151-3.351 1.919-6.806 3.106-10.157.489-1.396 1.641-3.106 1.047-4.293-.174-.349-1.256-1.326-1.64-1.396-.454-.07-1.222.523-1.362.488-1.5-.418-.663-1.989-1.57-2.827-.489-.488-3.072-.419-3.84-.663-2.827-.977-5.34-2.792-7.993-3.909-11.135-4.607-22.374-9.075-31.973-16.579-2.478-1.955-4.154-3.421-7.121-4.677a202.753 202.753 0 00-9.075-3.525 82.735 82.735 0 00-8.203-2.583c-3.002-.768-7.295-1.71-10.332-.733-5.934 1.92-7.853 6.806-10.192 11.937-3.176 6.98-7.051 13.542-11.239 19.964-8.098 12.321-17.872 23.386-25.725 35.811z" fill="#6c50f0"/><path d="M265.97 57.104c.315-.175 2.863.872 3.281 1.012 1.711.628 3.316 1.675 4.922 2.548-1.222 1.5-2.478 3.002-3.7 4.502-1.187-2.932-2.722-5.375-4.503-8.062zm-.837 18.429c.419.034-3.107 8.55-3.526 9.493-1.501 3.49-3.071 6.911-4.607 10.367-1.466 3.35-3.351 6.457-5.236 9.598-1.606 2.687-3.281 6.841-5.724 8.83 1.535-6.806 1.326-14.659 5.759-20.383 4.573-5.899 9.075-11.693 13.334-17.905zM87.571 166.49c6.841-10.82 15.393-20.383 22.513-30.994 3.98-5.933 7.854-11.971 11.24-18.289 2.443-4.607 3.944-11.169 7.714-14.694 1.675-1.536 3.421-3.072 5.654-3.77 3.037-.942 7.261 0 10.332.733 5.725 1.396 11.31 3.56 16.72 5.864 5.48 2.304 10.157 6.492 15.114 9.808 5.305 3.595 11.065 6.213 17.033 8.481 5.201 1.99 9.809 4.852 14.975 6.841 1.012.384 3.141.349 3.979.873.942.558.558 2.234 1.675 2.827.524.279.664-.733 1.082-.698.489.035.908.593 1.362.942 1.885 1.431.733 2.409 0 4.398-2.409 6.492-3.735 13.089-7.121 19.232a39.192 39.192 0 01-11.519 12.879c-.733.524-3.036 2.478-3.909 2.339-.768-.105-2.304-2.129-2.827-2.688-2.374-2.478-4.538-5.166-6.912-7.644-3.665-3.839-7.19-7.783-10.75-11.657-4.119-4.503-7.784-9.634-11.484-14.45-1.71-2.234-3.909-4.014-5.794-6.074-2.548-2.757-4.887-5.759-7.33-8.621-.733-.872-1.955-3.106-3.107-3.071-.803.035-2.199 1.885-2.618 2.478-1.536 2.199-1.536 6.143-2.304 8.865-1.884 6.667-5.27 13.194-9.947 18.325-4.643 5.13-10.577 8.76-16.057 12.879-5.934 4.468-11.553 9.005-16.266 14.764-1.884-1.745-3.909-3.246-5.794-5.026-1.745-1.675-4.084-3.037-5.654-4.852zm87.891 30.611c-1.327 0-3.561.837-4.748.349 3.526-3.91 6.772-7.26 11.205-10.087 4.642-2.967 9.25-5.899 13.718-9.075 9.04-6.388 15.707-13.927 19.512-24.537.977-2.723 1.64-5.585 2.338-8.412.384-1.501 1.152-8.586 2.444-9.214.768-.349 6.562 3.699 7.469 4.223a64.96 64.96 0 006.528 3.036c4.78 1.97 9.704 3.568 14.729 4.782 6.074 1.536 10.193-1.012 13.928-5.759 4.258-5.41 7.783-11.483 11.693-17.172a51.684 51.684 0 004.537-7.993c.873-1.85 4.259-6.876 3.072-8.865-3.351 2.547-4.538 7.608-6.841 11.029-2.828 4.258-6.039 8.272-8.901 12.495-2.409 3.56-4.852 7.888-8.412 10.471-3.107 2.269-6.074 1.571-9.425.559-4.083-1.222-8.272-1.85-12.286-3.351-4.328-1.64-8.412-3.979-12.601-5.899-1.955-.872-4.328-1.396-6.178-2.513-1.606-.942-1.361-1.466-1.466-3.49-.14-2.373-.279-4.747-.384-7.12-.07-1.606.803-3.77.209-4.956 4.782.837 9.46 1.954 14.207 2.931 2.583.524 5.096 1.187 7.714 1.641 1.012.174 2.373.139 3.281.593.698-.209 1.082-.07 1.082.384.041.248.1.493.174.733 1.466.663 2.304-.768 3.596-2.129a30.876 30.876 0 003.909-5.585c2.583-4.432 5.55-8.621 7.923-13.193 2.444-4.677 4.399-9.668 6.458-14.485 1.885-4.433 3.106-9.25 5.166-13.577a24.44 24.44 0 013.49-5.166c1.152-1.361 2.897-4.258 4.573-4.886.454-.175 1.64.104 2.129.07 1.012-.07 1.92-.454 2.967-.35 2.269.175 4.712 1.606 6.492 2.862-1.151 1.048-4.083 2.304-1.989 4.154 2.024 1.815 3.141-1.431 3.909-2.862 3.63 3.002 3.107 7.12 3.526 11.344.209 2.198.802 4.397 1.186 6.561.28 1.571.07 3.177.14 4.782.209 4.049.593 7.958.593 11.937-.035 4.293-.314 8.412-.663 12.67-.593 7.155-1.885 14.31-3.037 21.396-.628 3.979-1.5 7.853-2.338 11.797-.978 4.467-2.723 8.656-3.735 13.123-1.012-1.291-1.78-1.291-3.421-1.116-1.256.139-2.094-.175-2.024 1.57.035 1.152 1.047 1.99 2.164 2.199 1.431.244 1.955-.454 2.688-1.571.174 2.06-1.222 4.259-1.781 6.283-.523 1.92-.872 3.804-1.745 5.654-.872 1.78-1.605 3.56-2.443 5.341-.384.802-.768 1.64-1.187 2.478a8.081 8.081 0 01-.733 1.326c-.698.803-.593.419-1.431.873-1.815 1.012-1.152.767-1.187 2.862-.035 2.059-1.082 3.56-2.792 4.746-3.595 2.444-7.156 3.142-11.24 4.398-3.804 1.152-7.818 2.164-11.867 2.129-4.957-.035-9.809-.663-14.765-.733a369.313 369.313 0 00-16.406.14c-2.234.07-4.328.175-6.492.733-2.513.663-4.957.419-7.539.314-5.515-.209-11.24-.628-16.685-.698-3.909-.14-8.063-.419-12.007-.174zM32.176 199.23c-.977.523-3.176.314-4.188.174-1.746-.244-1.92-.942-3.037-2.478-1.885-2.688-3.456-5.235-4.573-8.342-2.129-5.933-3.002-11.972-3.944-18.184-1.047-6.876.873-14.032 1.536-20.873.14-1.57.384-3.106.628-4.677.14-.942.175-4.083.803-4.886 1.187-1.536 6.667-.314 8.796-.175 6.004.384 12.042.489 18.046.559 3.211.035 6.422.174 9.599.209 1.466 0 2.862-.069 4.328-.209.489-.035.977-.175 1.466-.175 1.676-.104 1.57-.349 1.99 1.152.768 2.618.174 5.934.384 8.656.279 3.63.418 7.295.349 10.925-.07 3.351.07 6.701-.07 10.087a18.193 18.193 0 01-.559 3.874c-.418 1.501-.872 5.026-1.92 6.073-.104.105-1.012-.174-1.221.14-.35.454-.28 1.431-.558 1.71-.803.943-2.444 1.012-3.666 1.466a83.02 83.02 0 00-9.424 4.014c-2.757 1.396-7.225 2.618-8.9 5.41-.769 1.291-.873 2.967-1.571 4.293-.803 1.501.802.733-1.152 1.326-.838.21-2.27-.069-3.142-.069zm292.051-16.998c.244 3.455 2.199 6.771 2.897 10.192.314 1.605.873 3.176 1.222 4.746.349 1.536 1.64 3.316 1.536 4.817-4.782-1.71-9.634-2.129-14.626-2.583-4.747-.419-9.738-.593-14.45-.628-4.782 0-9.913-.454-14.835-.559-5.166-.069-10.402-.209-15.463-.733 2.653-1.954 5.969-3.804 7.958-6.561 2.13-2.967 3.247-6.702 5.131-9.843 3.77-6.318 6.179-14.136 8.133-21.221 3.98-14.311 8.447-28.342 9.529-43.176 2.06 1.048 3.665 5.096 4.678 7.121 1.291 2.583 1.989 5.375 2.827 8.132 1.745 5.655 2.967 11.518 5.096 17.103 4.049 10.75 6.667 22.303 10.367 33.193zM64.498 98.918c-.872 6.387-2.757 12.879-2.827 19.336 0 1.431.21 3.002-.07 4.398-.314 1.501-1.361 2.827-1.954 4.258-.943 2.269-3.351 6.911-1.013 8.796.035-1.815 1.71-4.119 2.548-5.724 1.257-2.409 2.932-4.573 4.294-6.911a96.65 96.65 0 019.773-13.996c3.595-4.189 7.749-7.923 11.554-11.937 1.151-1.187 10.332-12.775 10.716-12.6-2.863 10.994-7.715 20.558-14.347 29.772-3.246 4.503-7.155 7.469-11.134 11.309-3.281 3.176-9.53 6.596-8.377 11.797-5.166-.489-10.263-1.291-15.463-1.291.872-6.597 1.5-13.054 3.036-19.546 1.746-7.365 2.898-14.939 4.363-22.338 1.501-7.574 4.05-14.904 5.62-22.478 1.501-7.225 2.828-14.45 3.91-21.78.907 4.05.593 8.517.907 12.635.303 4.205.361 8.424.175 12.635-.14 7.993-.978 15.777-1.71 23.665zM42.16 61.258c-.035-3.387-.698-6.702-.873-10.088-.07-1.047-1.082-8.097-.14-8.447.804 1.71.978 3.945 1.711 5.725.733 1.815 1.676 3.525 2.374 5.34 1.5 3.944 1.99 8.412 2.164 12.6.349 9.494.558 18.917-.07 28.411-.28 4.049-.489 8.133-.419 12.216.07 4.468.768 8.377-.07 12.81a106.03 106.03 0 00-1.605 13.228c-.21 3.141-.28 2.897-3.246 2.688-2.164-.175-4.329 0-6.493-.105 1.013-12.216 1.187-24.432 2.793-36.614.837-6.212.837-12.495 1.885-18.673.523-3.071 1.36-6.073 1.85-9.144.453-3.316.174-6.632.14-9.948zm218.541-7.68c-5.76.49-11.868 2.234-17.767 1.082.977-.383 3.525-.942 2.374-2.478-1.152-1.57-3.142.42-4.294.21-.733-.14-2.303-3.107-2.722-3.735-1.013-1.396-1.117-1.64-2.932-2.024-1.746-.35-2.13.035-2.374-1.71-.244-1.99.419-4.224.384-6.283-.14-4.398-1.571-8.237-2.897-12.356 5.585 1.222 11.065 2.653 16.789 3.456 2.444.349 6.248 1.116 8.482-.559.594-.419.489-1.012.943-1.536a7.72 7.72 0 013.385-1.954c6.912-1.466 7.61 8.411 4.119 12.111-.872.943-2.094 1.396-2.967 2.234-1.186 1.117-1.291 2.338-1.466 4.049-.364 3.23.154 6.5 1.501 9.459l-.558.034zm-84.052 46.631c-2.059.384-4.188.314-6.213.628-.733.105-2.897.524-3.56.105-.977-.663-1.326-3.036-1.78-4.153-.803-1.955-1.955-3.665-2.723-5.655-3.176-8.132-6.108-16.265-9.948-24.118 1.466-.384 2.583-.384 4.084-.593 1.536-.21 2.932-1.117 4.398-1.501 1.396-.384 2.862-.28 4.259-.698.767-.244 1.431-.768 2.164-.943 1.186-.279 2.583-.453 3.316.315.733.802.977 3.036 1.396 4.048 1.047 2.793 2.304 5.445 3.176 8.307a193.316 193.316 0 012.269 7.68c.733 2.722 2.199 4.99 3.107 7.608.663 1.99 1.326 4.014 1.431 6.143.104 2.06.384 2.199-1.676 2.513-1.117.14-2.722.768-3.7.314zM42.089 196.926a1.45 1.45 0 01-1.5-.105c4.607-1.954 9.11-4.642 13.927-6.003 4.502-1.257 8.9-2.757 13.263-4.293 3.526-1.257 6.702-2.234 9.913-4.433a18.22 18.22 0 004.992-4.816c1.5-2.199 1.815-5.306 3.42-7.26 2.165 2.373 4.713 4.188 7.296 6.073.872.663 3.036 2.094 3.316 3.106.384 1.292-.629 2.513-1.152 3.805-1.292 3.315-1.955 6.631-2.653 10.087-.28 1.396-.907 3.455-2.024 4.048-1.048.524-4.014.14-5.306.035-6.702-.523-13.299-1.012-20.07-.558-7.645.523-15.812.872-23.422.314zm-13.403-61.465c-1.222 0-2.409-.139-3.63-.139.698-3.281-.943-7.504-1.536-10.785-.663-3.665-1.152-7.435-1.57-11.134a198.717 198.717 0 01-1.327-23.246c0-7.574-1.396-14.485-3.316-21.78-2.06-7.818-5.48-14.833-8.273-22.373 3.072 1.64 4.782 5.445 6.388 8.342a40.753 40.753 0 014.258 11.902c1.606 7.958 3.386 15.951 5.236 23.909 1.92 8.272 3.072 16.649 5.306 24.851 1.082 4.014 2.548 8.935 2.617 13.054.035 1.71.559 5.305-.209 6.771-.768 1.396-2.374.768-3.944.628zm184.124-10.296c.07.838.14 1.675.279 2.513-1.675 0-3.839-1.78-5.27-2.548-1.781-.942-3.526-2.024-5.271-2.967-3.351-1.85-7.121-3.071-10.681-4.607-4.084-1.745-7.854-3.874-11.763-6.003-1.361-.733-11.17-4.991-11.03-6.143l6.457-.21c1.85-.069 4.713.349 6.493-.209.977-.314 2.059-1.466 2.408-2.374.349-.907-.454-4.99.035-5.27 2.409 2.478 3.944 5.724 6.074 8.377 2.373 2.932 5.445 4.642 8.865 6.213 3.735 1.71 7.645 3.071 11.449 4.537 1.606.628 1.571.977 1.711 2.757.209 1.955.174 3.944.244 5.934zM18.075 199.648c-4.05.419-8.238.175-12.322.524-1.5.14-3.56.314-2.06 2.304.943 1.256 3.98.872 5.341.942 3.665.244 7.575.105 11.274.07.768 0 1.641-.244 2.409-.175.908.07 1.99.698 2.827.698.524 0 .698-.523 1.117-.593.95-.11 1.906-.169 2.862-.174 14.59 0 28.972-.28 43.527-.315 6.946 0 14.032-.139 20.978-.453 1.466-.07 9.773.244 9.564-2.409-.105-1.361-2.827-1.535-3.84-1.675-.733-.105-1.5-.105-2.233-.14-1.955-.104-2.828.349-2.409-1.78 1.57-8.097 4.363-14.799 10.367-20.628 4.887-4.781 10.786-9.074 16.335-13.088 6.737-4.852 12.182-9.913 16.196-17.312 2.339-4.328 4.294-8.726 5.481-13.508.418-1.71.453-3.665.977-5.34.419-1.291 1.326-2.164 1.885-3.49 6.702 11.169 15.567 20.558 23.7 30.645 3.964 4.86 8.306 9.4 12.985 13.577a103.68 103.68 0 013.944 3.874c1.082 1.117 2.793 2.129 3.7 3.351.873 1.187.663 1.152-.663 2.094-1.745 1.257-3.7 2.304-5.48 3.525-2.862 1.955-5.969 3.596-8.517 5.934-2.757 2.548-5.166 5.48-7.574 8.342-1.606 1.92-3.7 4.363-4.119 6.771-.14.803-.628 2.757.035 3.351.558.488.523.314 1.221 0 .943-.384 1.222-1.327 2.339-1.745 2.897-1.117 6.423-.733 9.459-.733 3.037 0 6.074.314 9.111.314 6.911-.035 13.682.523 20.594.838 7.33.314 14.764-.454 22.094-.35 5.411.07 10.996-.314 16.545-.034 2.863.139 5.69-.21 8.482-.245 3.665-.07 7.4.454 11.1.524 6.074.105 12.042.105 18.116.279 13.124.314 26.144.628 39.268.838 1.745.035 3.665-.035 5.41.174 1.85.21.873.594 2.13 1.257 3.525 1.85 2.722-4.991 2.618-6.353-.454-7.225-2.304-14.31-4.503-21.151-2.095-6.492-3.805-13.298-5.55-19.965-1.955-7.26-4.468-14.24-6.772-21.465-2.338-7.365-4.258-15.043-8.517-21.57-.977-1.501-1.989-3.107-3.525-4.049-1.745-1.047-1.815-.454-1.815-2.374 0-1.815-.105-4.223.314-5.968.384-1.571.314-.628 1.187-1.745.698-.908 1.466-1.536 1.955-2.653 3.141 3.176 10.297 1.501 13.298-.768 3.7-2.792 6.528-7.504 7.54-12.006.838-3.595-.175-10.471-4.189-12.217-1.954-.837-9.075-1.5-9.389-4.223-.14-1.43 2.373-3.42 2.932-4.642a27.726 27.726 0 002.408-7.748c.594-4.852-1.605-10.262-5.131-13.543-6.422-6.003-17.732-9.075-26.004-5.27 1.745-6.667 2.792-12.426 1.92-19.372-.768-5.968-4.294-9.319-9.145-12.32-8.273-5.096-19.547-7.086-29.041-5.62-2.165.35-4.224 1.047-6.213 1.64-2.898.838-6.353.559-9.111 1.92-1.989.978-3.49 2.932-5.235 4.224-2.025 1.535-3.735 3.804-5.132 5.898-3.036 4.503-1.849 12.845.699 17.347a7.865 7.865 0 002.094 2.443c.942.698 2.373.908 2.827 1.78 1.222 2.27.035 7.225-.105 9.703-.174 2.863 1.257 5.027 4.503 5.236 1.885.14 1.955-.942 2.828 1.291.593 1.466 1.116 3.037 1.954 4.363 1.745 2.758 4.922 2.478 7.819 2.409 3.351-.07 6.667-.629 10.018-.943-.873 2.827-3.316 5.026-4.817 7.574-2.06 3.42-3.281 6.248-3.63 10.227-.245 3.071.279 5.48 2.408 7.748.873.943 1.641.978 1.431 2.095-.139.663-1.291 1.745-1.675 2.303-1.082 1.396-2.339 2.688-3.281 4.189-3.63 5.759-4.712 14.554-4.712 21.256 0 .314-.175.977-.035 1.291.104.244.872.977.872 1.047.14.873-.698 2.339-2.024 2.478-1.396.14-3.91-1.012-5.201-1.396-2.059-.593-4.154-1.047-6.213-1.675-3.316-1.012-6.632-1.815-10.018-2.618-1.536-.349-3.072-.663-4.607-.977-1.746-.384-2.548-1.117-3.456.663-.768 1.536-.279 1.815-2.164 1.047-1.85-.768-3.665-1.71-5.48-2.583-3.212-1.501-7.016-2.862-9.774-5.096-4.607-3.734-6.317-9.703-10.716-13.647-1.221-1.117-1.954-1.117-2.722-2.653-.838-1.64-1.257-3.734-1.71-5.514-.768-3.072-1.327-6.178-1.99-9.25-.873-3.839-2.723-7.33-4.084-10.96-.524-1.43-.803-3.245-1.675-4.537-.21-.349-.664-.523-.838-.802-.593-.978-.593-1.222-.768-2.409-.733-5.445-3.979-2.583-7.505-1.326-1.501.524-8.586 3.91-5.864 6.178-3.211.942-8.377.419-8.342 5.06.035 2.374 1.431 4.887 2.199 7.121.663 1.955 1.326 3.944 2.025 5.899 1.5 4.293 3.316 8.481 4.782 12.81.663 1.954 1.221 3.978 2.164 5.828.837 1.64 2.792 3.456 3.141 5.236-8.587-3.665-16.545-8.97-26.179-8.621-4.223.14-8.028 1.92-10.366 5.619-2.933 4.642-4.852 9.843-7.68 14.52-10.366 17.032-22.723 32.529-34.137 48.864-.872 1.257-1.99 2.443-2.303 3.979-.21 1.012.174 2.025-.035 3.002-.49 2.024-2.967 4.537-4.678 5.689-3.246 2.234-8.482 5.375-12.53 5.096 2.547-6.073 2.513-12.74 2.373-19.267-.105-6.178-.768-12.286-1.57-18.394a26.178 26.178 0 00-.734-4.014c-.454-1.535-1.082-1.396.28-2.757 2.094-2.129 4.607-3.874 6.701-6.038 4.573-4.642 9.285-8.307 12.88-13.857 3.42-5.27 7.051-10.715 9.564-16.509 2.618-5.968 3.665-12.32 4.957-18.638.523-2.548 2.443-5.41 2.059-8.098-.489-3.386-2.059-.907-2.688.908-1.954 5.55-6.492 10.506-10.297 14.973-4.084 4.817-9.075 8.866-13.333 13.543-4.643 5.095-7.82 10.959-11.938 16.404 0-6.771 2.304-13.647 3.246-20.314.838-5.898 1.082-11.797 1.606-17.695 1.187-13.438.175-27.225-1.501-40.558-.803-6.318-.349-12.495-.384-18.848 0-2.024.838-6.666-.244-8.481-2.06-3.42-3.246 4.083-3.351 5.2-.628 6.667.489 13.264-.07 19.93-.593 6.946-1.885 13.682-2.967 20.523-1.187 7.434-3.106 14.694-4.956 21.954-1.92 7.644-3.56 15.462-5.725 23.036-.593-2.373.245-5.305.384-7.748.245-3.49.663-6.946.733-10.436.07-5.55.105-11.204-.21-16.719-.313-5.445-.209-11.169-1.884-16.404a55.375 55.375 0 00-3.107-7.26c-1.396-2.897-1.885-5.69-2.687-8.761-.664-2.653-1.64-5.2-2.095-7.888-.279-1.675-1.047-6.597-2.967-2.862-1.117 2.164-.628 5.375-.663 7.714-.035 3.001.419 5.898.489 8.865.14 5.829.244 11.658.663 17.486a63.643 63.643 0 01-1.117 17.627c-1.256 6.596-1.64 13.193-2.304 19.894-.349 3.456-.907 6.876-1.186 10.332-.14 1.815.593 7.085-.699 8.377-.14-3.177-1.047-6.353-1.71-9.424-.803-3.665-1.152-7.505-1.745-11.204-.977-6.004-2.862-11.763-4.119-17.696-2.583-12.251-4.712-27.993-15.498-35.985-1.396-1.048-2.967-1.815-4.503-2.688-.872-.489-2.164-1.745-3.141-1.99-1.082-.244-1.536-.07-1.955 1.187-.593 1.745.489 2.548 1.536 3.84C5.3 46.388 6.835 52.008 9.07 57.139c5.096 11.762 7.365 24.187 7.365 36.927.046 6.59.443 13.173 1.187 19.721.768 7.12 1.78 14.659 3.944 21.535-2.164.488-4.538-.244-5.13 2.269-.14.628.104 1.361-.036 2.164a20.296 20.296 0 01-.768 2.338 32.52 32.52 0 00-.907 4.817c-.873 6.317-2.339 12.355-2.514 18.778-.14 5.933 1.013 11.937 2.095 17.765 1.082 5.864 4.189 10.855 6.597 16.161-.733 0-1.78 0-2.827.034z" fill="#1e1c26"/><path d="M155.95 186.14c1.151.314 6.736.942 6.736 2.687 0 1.047-5.585 1.012-6.562 1.152-.07-1.256-.14-2.548-.174-3.839zm-12.322 12.076c-3.211.629-7.574-.244-9.634-3.071-.977-1.327-1.431-3.351-1.745-4.922-.314-1.5-1.222-5.27-.593-6.666.768-1.745 8.167.07 10.297.279 3.783.343 7.588.39 11.379.14 0 3.874.209 7.644-2.095 10.994-1.605 2.409-4.677 2.967-7.609 3.246zm.628 4.817c3.491-1.292 7.156-.454 9.425-4.188a14.107 14.107 0 001.396-3.037c.181-.461.31-.941.384-1.431-.175-1.047.209-1.326 1.152-.873 1.85-.349 3.874.908 5.829.524 4.712-.908 3.874-7.679.698-10.017-.628-.454-1.257-.594-1.955-.838-1.57-.489-2.443.07-3.874-.07-1.187-.105-1.501-1.326-2.758-1.885-.837-.349-1.954-.314-2.827-.349-4.538-.174-9.075-.174-13.613-.488-2.129-.14-4.433.209-6.492-.175-.978-.174-.838-.803-1.746-.244-.942.593-.558 2.757-.488 3.63.279 5.026.593 10.401 3.281 14.799 2.443 4.014 7.295 4.432 11.588 4.642zM328.695 204.393c-1.117 0-2.234-.035-3.351-.035 1.117.035 2.234.035 3.351.035zM67.954 159.333l.105 2.129c0-.698-.035-1.431-.105-2.129zM18.075 199.647c.698 0 1.396 0 2.059-.035a2.497 2.497 0 00-2.06.035zM79.403 202.788c-.489 0-.978 0-1.466-.035.454 0 .977 0 1.466.035zM16.992 106.036c0-.523-.035-1.082-.035-1.605 0 .558 0 1.082.035 1.605zM63.346 38.184c.035-.558.07-1.117.14-1.675-.07.593-.105 1.152-.14 1.675zM16.748 99.405c0-.559 0-1.117-.035-1.675 0 .558.035 1.116.035 1.675zM172.669 202.09c-.454 0-.872 0-1.326.035.419-.035.872-.035 1.326-.035zM59.088 202.997c-.419 0-.873 0-1.292.035.454-.035.873-.035 1.292-.035zM12.56 164.01l.104-1.466-.105 1.466zM68.094 202.998c-.35 0-.699 0-1.048-.035.35.035.698.035 1.047.035zM255.778 202.823c-.384-.035-.733-.035-1.117-.07.384 0 .768.035 1.117.07zM153.087 61.57c.559-.035 1.117-.105 1.641-.14-.524.035-1.117-.28-1.641.14zM12.49 199.856c.558-.07 1.082-.105 1.64-.174-.523.035-1.082.104-1.64.174zM50.431 64.92l.105 1.431c-.035-.454-.07-.942-.105-1.431zM16.608 84.78l-.105-1.361c.035.489.07.907.105 1.361zM50.64 72.32c.035.488.07.942.106 1.43 0-.479-.036-.957-.105-1.43zM16.818 103.034v-1.361a1.274 1.274 0 000 1.361zM67.953 169.037v1.396a1.203 1.203 0 000-1.396zM33.293 115.739c.07-.454.105-.942.175-1.396-.07.454-.105.942-.175 1.396zM320.318 72.948c.349.489.837.14 1.291.21-.454-.07-.872-.14-1.291-.21zM69.245 74.902zM294.348 36.404c.454 0 .908.035 1.361.035a1.148 1.148 0 00-1.361-.035zM50.675 79.02l.106 1.222c-.07-.419-.07-.803-.105-1.222zM63.242 29.144c-.035-.384-.07-.733-.105-1.117-.002.375.033.75.105 1.117zM66.837 27.992l.105 1.222c-.035-.419-.07-.838-.105-1.222zM265.761 1.152c.454.07.942.105 1.396.175-.488-.07-.942-.105-1.396-.175zM299.409 36.719c.489.035.943.105 1.432.14-.489-.035-.978-.07-1.432-.14zM37.342 37.905c-.035-.384-.07-.733-.07-1.117.035.384.07.733.07 1.117zM66.802 145.756c.035.419.07.838.07 1.256 0-.453-.035-.872-.07-1.256zM38.703 65.198c0-.383.035-.802.035-1.186 0 .384 0 .768-.035 1.186zM253.998.21h1.257a1.05 1.05 0 00-1.257 0zM140.591 94.1c.454 0 .943.034 1.397.034a1.21 1.21 0 00-1.397-.035zM99.927 202.055c-.28-.006-.56.006-.838.035.28.007.56-.004.838-.035zM89.56 202.544c-.28 0-.558-.035-.838-.035.279.029.558.04.838.035zM252.113 202.753zM12.803 159.368c.035-.384.07-.802.14-1.186-.07.418-.105.802-.14 1.186zM50.327 92.912c-.035.384-.07.768-.105 1.117.035-.384.07-.768.105-1.117zM35.876 86.455c.035-.384.105-.802.14-1.186-.035.383-.105.767-.14 1.186zM249.774 202.997h-.872c.29-.017.582-.017.872 0z" fill="#1e1c26"/><path d="M144.256 203.032c-.279 0-.558-.034-.837-.034.279-.006.559.005.837.034zM38.25 57.346c0-.42.035-.803.035-1.222-.035.419-.035.803-.035 1.222zM32.072 203.207c-.28.035-.559.035-.838.07.279-.035.558-.035.837-.07zM29.558 203.206zM16.538 88.026c.035-.383.035-.802.07-1.186-.035.419-.07.803-.07 1.186zM208.272 198.006c-.872-.035-1.745-.105-2.618-.14.873.035 1.746.07 2.618.14zM260.7 53.576c-.768.07-1.501.14-2.269.21.768-.07 1.501-.14 2.269-.21zM47.744 86.35c-.035.734-.035 1.432-.07 2.165 0-.698.035-1.431.07-2.164zM32.176 199.228c-.803.034-1.57.104-2.373.139.802.035 1.605.279 2.373-.139zM36.819 114.098c0-.698 0-1.361-.035-2.059.035.698.035 1.361.035 2.059zM38.843 135.669c-.698 0-1.396.035-2.06.035.664 0 1.362-.035 2.06-.035zM212.775 123.593a23.5 23.5 0 01.035 1.57c0-.523-.035-1.047-.035-1.57zM27.324 101.429zM42.09 196.924l-1.502-.105c.35.28.733.315 1.501.105zM45.44 128.862l-.105 1.676.105-1.676zM44.847 135.774l-1.885-.035a2.103 2.103 0 001.885.035zM189.319 197.134c-.628 0-1.222 0-1.85.035a1.853 1.853 0 001.85-.035zM304.506 198.914c-.629-.07-1.257-.105-1.85-.175.628.07 1.256.14 1.85.175zM47.5 90.992l-.106 1.675c.07-.555.105-1.115.105-1.675zM245.621 54.903a1.67 1.67 0 00-1.571-.035c.524 0 1.047 0 1.571.035zM64.638 97.485c-.035.489-.07.943-.14 1.431.035-.488.07-.942.14-1.43zM20.412 86.385a1.336 1.336 0 000-1.396v1.396zM28.686 135.459c-.524-.174-1.082-.383-1.606 0h1.606zM202.722 197.797c-.558-.035-1.082-.105-1.64-.14.558.035 1.082.07 1.64.14zM277 197.797c-.488-.21-.977-.349-1.466 0H277zM175.462 197.098c-.524-.244-1.048-.349-1.571 0h1.571zM293.615 128.409l-.105 1.431c.035-.454.07-.942.105-1.431zM170.4 100.836c-.523-.175-1.047-.28-1.57.035.523-.035 1.047-.035 1.57-.035zM47.534 115.076c-.035.454-.07.943-.07 1.396 0-.453.035-.907.07-1.396zM293.964 72.809zM324.227 182.229c.035.384.07.733.07 1.117 0-.384-.035-.733-.07-1.117zM36.574 117.554l.105-1.152c-.035.419-.07.768-.105 1.152zM74.62 196.365h-1.395c.453.035.942 0 1.396 0zM212.95 126.839c-.07.279-.175.558-.245.838.559.139.629-.14.245-.838zM178.045 100.207h-1.432c.489.209.978.349 1.432 0zM293.371 130.678c0 .419-.035.837-.035 1.256 0-.419 0-.837.035-1.256zM63.486 135.11c0 .384-.035.768-.035 1.152 0-.384 0-.768.035-1.152zM298.048 198.704a1.149 1.149 0 00-1.361 0h1.361zM286.25 67.433c-.035.384-.035.802-.07 1.186 0-.418.035-.802.07-1.186zM300.387 198.739h-1.396a1.06 1.06 0 001.396 0zM256.232 54.274c-.454.07-.908.105-1.326.175.453-.07.907-.14 1.326-.175zM295.605 88.794c0 .384 0 .733-.035 1.117.035-.384.035-.768.035-1.117zM39.157 88.724c.035-.384.035-.768.07-1.152-.035.384-.035.768-.07 1.152zM143.209 198.32c-.558.035-1.117.105-1.64.14.523-.035 1.082-.105 1.64-.14zM145.024 184.045h.873c-.29.035-.583.035-.873 0zM145.024 198.076c-.453.035-.907.105-1.396.14.454-.035.908-.07 1.396-.14zM228.098 167.012c-.593 3.386 4.678 6.702 5.097 1.885.139-1.78-1.013-3.002-2.339-4.084-1.885-1.536-2.932-.07-2.758 2.199zM286.25 125.582c-1.256.524-10.751 3.595-5.794 5.166 1.291.419 3.281.488 4.398-.245 1.361-.872 2.723-3.455 1.396-4.921zM283.912 79.65c-3.212-.384-6.179 4.921-2.234 4.747 2.897-.14 6.771-4.747 2.234-4.747zM272.358 92.599c-2.688 2.338 2.304 7.609 4.293 5.584 1.013-1.047.07-3.28-.768-4.153-.837-.873-2.373-1.047-3.525-1.431zM264.365 153.47c1.605.244 8.586 2.548 7.12-1.606-.558-1.57-2.094-1.117-3.525-1.047-2.304.105-3.595 0-3.595 2.653zM268.972 164.15c-2.373 1.257 1.082 8.377 3.072 6.876 2.723-2.094-1.012-6.247-3.072-6.876zM258.606 158.426c-1.152-.488-6.598 4.782-4.538 6.213 1.047.733 3.071-.523 3.735-1.291 1.186-1.431 1.291-3.246.803-4.922zM290.055 115.564c-1.187.21-3.211.245-3.316 1.92-.07 1.466 1.78 1.92 3.037 2.059 1.326.105 3.106-.244 3.141-1.954.035-1.815-2.827-1.71-2.862-2.025zM260.909 187.849c-1.256.768-7.121 3.525-4.607 5.514.942.733 3.804-.802 4.433-1.57.768-.943 1.501-3.142.174-3.944zM244.574 167.885c.174-3.036-4.957-4.258-3.875.07.314 1.222.594 3.071 2.095 3.141 1.78.07 1.849-2.024 1.78-3.211zM260.386 115.077c-.035 2.303 4.363 4.328 4.398.698.069-3.281-4.538-4.223-4.398-.698zM263.318 103.069c-1.082.349-2.548.524-2.618 1.92-.105 1.466 1.256 2.129 2.478 2.024 1.012-.069 2.478-.802 2.653-1.884.279-1.606-1.292-1.711-2.513-2.06zM283.528 145.232c.035-1.884-3.805-4.188-4.503-1.989-.21.698 1.571 3.874 2.164 4.118 1.606.629 1.815-.802 2.339-2.129zM252.323 176.89c1.291 1.151 5.165 4.397 4.851.035-.174-2.758-5.201-2.618-4.851-.035zM189.424 189.315c-.419-1.814-6.458 1.327-4.433 3.665.663.768 2.443.07 3.141-.384 1.292-.942 1.327-1.78 1.292-3.281zM223.072 150.189c-.244-.803-.489-2.269-1.291-2.757-1.397-.943-2.618.488-2.618 1.989 0 2.758 3.176 3.63 3.909.768zM238.046 182.788c-1.57.349-5.061 4.188-3.036 5.724 1.954 1.501 4.537-4.572 3.036-5.724zM236.545 153.958c-2.024.175-4.781 3.421-1.64 3.944 2.443.384 5.306-3.141 1.64-3.944zM218.29 168.967c-.489-1.711-5.515.104-5.236 1.989.14 1.012 2.199 1.222 3.281.977 1.571-.384 1.99-1.431 1.955-2.966zM277.245 73.82c-.035-2.199-4.259-3.106-4.573-.872-.279 1.989 4.643 4.118 4.573.872zM219.686 191.654c-.314-1.117-.453-2.443-1.815-2.583-1.571-.174-1.536 1.047-1.361 2.304.523 3.421 2.443 3.595 3.176.279zM286.529 100.033c2.199.489 6.248-3.734 3.77-4.677-1.745-.628-3.77 3.386-3.77 4.677zM258.396 133.016c1.117.524 1.396.838 2.234-.035.768-.768.733-2.862.07-3.63-2.479-3.002-2.409 2.478-2.304 3.665zM249.216 126.943c-1.187.14-4.642 3.456-2.827 4.747 2.199 1.606 3.455-3.42 2.827-4.747zM223.875 127.781c.838 3.281 2.967 1.082 2.862-1.396-.174-3.979-2.408-.524-2.862 1.396zM210.96 180.45c-1.431.594-3.386 6.108-1.326 6.388 2.303.314 1.535-5.236 1.326-6.388zM228.936 177.343c-1.64-.558-2.269 2.932-1.291 3.561 2.129 1.431 1.675-2.723 1.291-3.561z" fill="#1e1c26"/><path d="M244.573 167.885c.035.454.035.907.07 1.396-.035-.489-.035-.942-.07-1.396zM189.423 189.315c0 .489.035.943.035 1.431 0-.488-.035-.977-.035-1.431zM218.29 168.967c0 .384.035.803.035 1.187 0-.384-.035-.768-.035-1.187zM36.016 162.056c-3.42-.105-7.225-1.396-10.576-.978-.908.105-3.037.349-1.571 1.711.698.663 4.084.314 5.13.523 6.284 1.327 13.405 2.199 19.827 2.06 3.002-.035 6.039-.28 9.04-.454 3.002-.175 3.316-1.396-.07-1.78-3.525-.419-7.12-.245-10.645-.245-3.735.035-7.435-.593-11.135-.837zM28.511 153.819c.314.942.629 3.072 1.885 3.211 1.78.21 2.06-2.827 1.99-3.944-.07-1.326-.559-3.56-2.234-3.106-1.396.419-1.536 2.792-1.64 3.839zM39.192 153.156c-.244-1.012-.384-3.246-1.815-3.351-1.57-.07-2.024 2.269-2.024 3.386 0 1.082.418 3.106 1.675 3.351 1.71.349 1.885-2.234 2.164-3.386zM56.994 154.936c.523 1.222.837 2.862 2.443 2.059 1.222-.628 1.396-3.211 1.152-4.363-.244-1.221-.733-2.617-2.13-2.059-1.605.628-1.465 3.037-1.465 4.363zM43.52 153.819c1.501 4.607 4.294 1.5 3.212-1.955-1.082-3.56-3.072-.07-3.212 1.955zM50.885 154.063c.42.802.873 2.548 1.99 2.373 1.396-.209 1.431-2.897 1.291-3.909-.14-.873-.523-2.339-1.675-2.304-1.675.035-1.57 2.793-1.606 3.84zM20.692 154.935c1.117 2.513 2.688.349 2.2-1.431-.768-2.688-2.13-.314-2.2 1.431z" fill="#1e1c26"/><path d="M48.303 162.929h3.7a7.793 7.793 0 00-3.7 0zM23.834 161.078c1.082 0 2.13 0 3.211.035a5.31 5.31 0 00-3.211-.035zM36.016 162.056c.838.069 1.71.104 2.548.174-.838-.035-1.675-.105-2.548-.174zM56.993 154.936c0-.628 0-1.222.036-1.85a2.032 2.032 0 00-.036 1.85zM54.516 162.963c.698.07 1.396.105 2.094.174-.698-.034-1.396-.104-2.094-.174zM45.056 162.929h2.06a2.489 2.489 0 00-2.06 0zM50.885 154.063c0-.628.035-1.291.035-1.919 0 .628 0 1.291-.035 1.919zM60.589 152.632v1.885c.035-.628.035-1.257 0-1.885zM32.106 161.847c.594.069 1.222.104 1.815.174a31.822 31.822 0 00-1.815-.174zM20.692 154.935c.035-.558.035-1.082.07-1.64a26.83 26.83 0 00-.07 1.64zM46.627 165.406c-.419 0-.838 0-1.257-.035.384.035.803.035 1.257.035zM28.511 153.819zM43.52 153.818c.035-.419.07-.802.07-1.221 0 .419-.035.837-.07 1.221zM262.236 35.671c1.675-.453 1.989-2.792 1.71-4.223-.314-.698-.593-1.396-.908-2.094.105-.244.245-.524.349-.768-.139-1.431.245-2.06-1.396-1.466-3.036 1.082-3.525 8.447.245 8.551zM237.558 31.134c-1.362-.105-3.875 1.5-2.513 3.036.837.943 3.63.489 4.782.698 1.5.28 3.071.629 2.268-1.64-.628-1.745-2.932-2.13-4.537-2.094zM238.989 41.78c1.396-1.118.768-6.214-1.362-5.306-2.164.942.21 4.572 1.362 5.305z" fill="#1e1c26"/><path d="M263.945 31.447v1.606a1.485 1.485 0 000-1.606zM262.236 35.672zM89.91 182.51c.139 2.303 2.617.593 2.443-.943-.35-2.827-1.92-.035-2.444.943z" fill="#1e1c26"/></g><defs><clipPath id="clip0"><path d="M0 0h333v206H0z" fill="#fff" transform="matrix(-1 0 0 1 333 0)"/></clipPath></defs></svg>