<svg width="48" height="48" fill="none" xmlns="http://www.w3.org/2000/svg"><path opacity=".2" d="M24 46c12.15 0 22-9.85 22-22S36.15 2 24 2 2 11.85 2 24s9.85 22 22 22z" fill="#7c72f2"/><path d="M32.8 24c0-1.238.99-2.25 2.2-2.25v-4.5c0-1.238-.99-2.25-2.2-2.25H15.2c-1.21 0-2.189 1.012-2.189 2.25v4.5c1.21 0 2.189 1.012 2.189 2.25s-.979 2.25-2.2 2.25v4.5c0 1.238.99 2.25 2.2 2.25h17.6c1.21 0 2.2-1.012 2.2-2.25v-4.5c-1.21 0-2.2-1.012-2.2-2.25zm-4.862 5.4L24 26.813 20.062 29.4l1.188-4.635-3.619-3.026 4.664-.282L24 17.026l1.694 4.444 4.664.281-3.619 3.026 1.199 4.624z" fill="#7c72f2"/></svg>