<svg width="48" height="48" viewBox="0 0 48 48" fill="none" xmlns="http://www.w3.org/2000/svg">
<path opacity="0.2" d="M24 46C36.1503 46 46 36.1503 46 24C46 11.8497 36.1503 2 24 2C11.8497 2 2 11.8497 2 24C2 36.1503 11.8497 46 24 46Z" fill="#7C72F2"/>
<path d="M32.8 24C32.8 22.7625 33.79 21.75 35 21.75V17.25C35 16.0125 34.01 15 32.8 15H15.2C13.99 15 13.011 16.0125 13.011 17.25V21.75C14.221 21.75 15.2 22.7625 15.2 24C15.2 25.2375 14.221 26.25 13 26.25V30.75C13 31.9875 13.99 33 15.2 33H32.8C34.01 33 35 31.9875 35 30.75V26.25C33.79 26.25 32.8 25.2375 32.8 24ZM27.938 29.4L24 26.8125L20.062 29.4L21.25 24.765L17.631 21.7388L22.295 21.4575L24 17.025L25.694 21.4688L30.358 21.75L26.739 24.7763L27.938 29.4Z" fill="#7C72F2"/>
</svg>
