<svg width="48" height="48" viewBox="0 0 48 48" fill="none" xmlns="http://www.w3.org/2000/svg">
<path opacity="0.2" d="M24 46C36.1503 46 46 36.1503 46 24C46 11.8497 36.1503 2 24 2C11.8497 2 2 11.8497 2 24C2 36.1503 11.8497 46 24 46Z" fill="#7C72F2"/>
<path d="M15 21C13.35 21 12 22.35 12 24C12 25.65 13.35 27 15 27C16.65 27 18 25.65 18 24C18 22.35 16.65 21 15 21ZM33 21C31.35 21 30 22.35 30 24C30 25.65 31.35 27 33 27C34.65 27 36 25.65 36 24C36 22.35 34.65 21 33 21ZM24 21C22.35 21 21 22.35 21 24C21 25.65 22.35 27 24 27C25.65 27 27 25.65 27 24C27 22.35 25.65 21 24 21Z" fill="#7C72F2"/>
</svg>
