<svg width="48" height="48" fill="none" xmlns="http://www.w3.org/2000/svg"><path opacity=".2" d="M24 46c12.15 0 22-9.85 22-22S36.15 2 24 2 2 11.85 2 24s9.85 22 22 22z" fill="#7c72f2"/><path d="M31.014 27.975c.022.015.048.031.07.053l4.283 4.273c.844.846.844 2.221 0 3.066a2.17 2.17 0 01-3.064 0l-4.276-4.284c-.021-.02-.037-.047-.059-.069a10.212 10.212 0 001.681-1.365c.52-.52.98-1.082 1.365-1.674zM14.923 14.919c3.892-3.892 10.223-3.892 14.115-.001 3.892 3.891 3.892 10.228 0 14.12-3.892 3.89-10.224 3.89-14.118 0-3.894-3.892-3.893-10.228.003-14.119zm12.283 1.834c-2.88-2.88-7.57-2.88-10.45.002-2.882 2.878-2.883 7.569-.002 10.45 2.883 2.882 7.57 2.872 10.452 0 2.878-2.886 2.88-7.572 0-10.452zm-5.228.993c.58 0 1.05.42 1.05.936a.844.844 0 01-.087.369c.43.23.8.611 1.087 1.091L25 18.821a.42.42 0 01.677.498l-1.25 1.698c.096.309.147.647.177.993h.467l1.823 1.8a.419.419 0 11-.591.598l-1.577-1.559h-.122a4.699 4.699 0 01-.177.992l1.25 1.699a.421.421 0 01-.677.498l-.972-1.32c-.488.815-1.22 1.346-2.05 1.346-.83 0-1.563-.531-2.05-1.347l-.972 1.322a.42.42 0 01-.678-.498l1.25-1.7a4.775 4.775 0 01-.177-.992h-.122l-1.576 1.559a.419.419 0 11-.59-.597l1.822-1.801h.467c.03-.346.081-.684.177-.993l-1.25-1.698a.42.42 0 11.678-.498l.971 1.321c.288-.48.656-.862 1.086-1.091a.845.845 0 01-.087-.369c0-.516.47-.936 1.05-.936z" fill="#7c72f2"/></svg>