<svg width="48" height="48" viewBox="0 0 48 48" fill="none" xmlns="http://www.w3.org/2000/svg">
<path opacity="0.2" d="M24 46C36.1503 46 46 36.1503 46 24C46 11.8497 36.1503 2 24 2C11.8497 2 2 11.8497 2 24C2 36.1503 11.8497 46 24 46Z" fill="#62C378"/>
<path d="M26.25 13H17.25C16.0125 13 15.0112 13.99 15.0112 15.2L15 32.8C15 34.01 16.0013 35 17.2388 35H30.75C31.9875 35 33 34.01 33 32.8V19.6L26.25 13ZM28.5 30.6H19.5V28.4H28.5V30.6ZM28.5 26.2H19.5V24H28.5V26.2ZM25.125 20.7V14.65L31.3125 20.7H25.125Z" fill="#62C378"/>
</svg>
