<svg width="48" height="48" viewBox="0 0 48 48" fill="none" xmlns="http://www.w3.org/2000/svg">
<path opacity="0.2" d="M24 46C36.1503 46 46 36.1503 46 24C46 11.8497 36.1503 2 24 2C11.8497 2 2 11.8497 2 24C2 36.1503 11.8497 46 24 46Z" fill="#F6944D"/>
<path d="M36 23.1538C36 27.96 33.1029 32.0723 28.9543 33.9338C27.4858 34.6446 25.8343 35 24 35C22.1657 35 20.52 34.6446 19.0629 33.9338C14.8971 32.0723 12 27.96 12 23.1538H36ZM18.96 13C18.5829 15.1492 19.0286 15.6062 19.7486 16.4523C21.6686 18.6862 21.5314 19.5154 21.2743 21.4615H19.56C20.1429 19.1431 19.1657 18.4154 18.7886 18.0092C17.3143 16.4692 16.9029 14.8785 17.2629 13H18.96ZM23.2114 13C22.8343 15.1323 23.28 15.6062 24 16.4523C25.92 18.6862 25.7829 19.5154 25.5257 21.4615H23.8114C24.4114 19.1431 23.4343 18.4154 23.04 18.0092C21.5657 16.4692 21.1543 14.8785 21.5143 13H23.2114ZM27.5314 13C27.1543 15.1492 27.6 15.6062 28.32 16.4523C30.24 18.6862 30.1029 19.5154 29.8457 21.4615H28.1314C28.7143 19.1431 27.7371 18.4154 27.36 18.0092C25.8857 16.4692 25.4743 14.8785 25.8343 13H27.5314Z" fill="#F6944D"/>
</svg>
