<svg width="48" height="48" fill="none" xmlns="http://www.w3.org/2000/svg"><path opacity=".2" d="M24 46c12.15 0 22-9.85 22-22S36.15 2 24 2 2 11.85 2 24s9.85 22 22 22z" fill="#f6944d"/><path d="M36 23.154c0 4.806-2.897 8.918-7.046 10.78C27.486 34.644 25.834 35 24 35c-1.834 0-3.48-.355-4.937-1.066C14.897 32.072 12 27.96 12 23.154h24zM18.96 13c-.377 2.15.069 2.606.789 3.452 1.92 2.234 1.782 3.063 1.525 5.01H19.56c.583-2.319-.394-3.047-.771-3.453-1.475-1.54-1.886-3.13-1.526-5.009h1.697zm4.251 0c-.377 2.132.069 2.606.789 3.452 1.92 2.234 1.783 3.063 1.526 5.01H23.81c.6-2.319-.377-3.047-.771-3.453-1.474-1.54-1.886-3.13-1.526-5.009h1.697zm4.32 0c-.377 2.15.069 2.606.789 3.452 1.92 2.234 1.783 3.063 1.526 5.01H28.13c.583-2.319-.394-3.047-.771-3.453-1.474-1.54-1.886-3.13-1.526-5.009h1.697z" fill="#f6944d"/></svg>