<svg width="48" height="48" fill="none" xmlns="http://www.w3.org/2000/svg"><path opacity=".2" d="M24 46c12.15 0 22-9.85 22-22S36.15 2 24 2 2 11.85 2 24s9.85 22 22 22z" fill="#7c72f2"/><path d="M23.747 27.244l1.123 1.685a2.24 2.24 0 002.573.882l6.013-2.004v4.36a.746.746 0 01-.51.708l-8.959 2.987a.829.829 0 01-.24.04.774.774 0 01-.158-.017h-.001l-.041-.01-.04-.014-8.959-2.986a.746.746 0 01-.51-.708v-4.36l6.009 2.003a2.238 2.238 0 002.577-.881l1.123-1.685zm2.366-14.91a.743.743 0 01.858-.294l9.012 2.987a.746.746 0 01.386 1.123l-2.762 4.067 2.761 4.067a.748.748 0 01-.385 1.123l-9.012 2.987a.746.746 0 01-.858-.294l-2.366-3.549-2.366 3.55a.747.747 0 01-.858.293l-9.012-2.987a.746.746 0 01-.385-1.123l2.76-4.067-2.76-4.067a.748.748 0 01.385-1.123l9.012-2.987c.318-.11.67.012.858.294l2.366 3.549 2.366-3.55zm-2.366 5.682l-6.602 2.201 6.602 2.2 6.602-2.2-6.602-2.2z" fill="#7c72f2"/></svg>