<svg width="48" height="48" fill="none" xmlns="http://www.w3.org/2000/svg"><path opacity=".2" d="M24 46c12.15 0 22-9.85 22-22S36.15 2 24 2 2 11.85 2 24s9.85 22 22 22z" fill="#659ef1"/><path d="M20.974 19.742c.653-.021 3.31-.005 3.892 0h.113s.44.161.44.825c0 .483-.441.465-.441 1.046 0 .339.507.451.507 1.161 0 .403-.529.691-.529 1.078 0 .388.137.567.347.76.21.194 2.152 1.033 2.152 4.566v6.048s.103.774-.485.774h-8.401c-.054-.013-.569-.158-.569-1.258V29.34c.01-.645.175-5.164 2.974-9.6zm4.51-1.936v1.549h-4.726v-1.549h4.727zm3.501-3.484s.028 2.446 1.82 4.259c0 0 .321.242.088.537-.092.115-.285.164-.86-.174-1.107-.651-2.755-2.04-3.203-4.621h2.155zm.44-2.322v1.935h-3.127l-1.449 3.484h-3.526l-.105-1.16-2.269.039s-1.174-.113-.08-1.077c.6-.528 2.58-2.438 2.87-2.719l.035-.034S22.226 12 22.96 12h6.464zm.393.242l1.182.411v.75l-1.182.315v-1.476z" fill="#659ef1"/></svg>