<svg width="48" height="48" fill="none" xmlns="http://www.w3.org/2000/svg"><path opacity=".2" d="M24 46c12.15 0 22-9.85 22-22S36.15 2 24 2 2 11.85 2 24s9.85 22 22 22z" fill="#659ef1"/><path d="M35.532 12.468a1.603 1.603 0 00-2.265 0l-6.378 6.379-3.792-3.792a2.46 2.46 0 00-3.478 0l-2.73 2.73.34.341-4.72 3.023a1.105 1.105 0 00-.185 1.711l12.815 12.816a1.105 1.105 0 001.712-.185l3.022-4.72.34.34 2.731-2.73a2.46 2.46 0 000-3.479l-3.791-3.791 6.378-6.379a1.603 1.603 0 000-2.264zM25.73 33.142l-2.195-2.195 2.154-3.212-3.212 2.155-1.847-1.848 1.372-2.045-2.046 1.372-2.095-2.095 1.665-2.482-2.482 1.664-2.188-2.187 3.972-2.543 9.445 9.445-2.543 3.971z" fill="#659ef1"/></svg>