<svg width="48" height="48" viewBox="0 0 48 48" fill="none" xmlns="http://www.w3.org/2000/svg">
<path opacity="0.2" d="M24 46C36.1503 46 46 36.1503 46 24C46 11.8497 36.1503 2 24 2C11.8497 2 2 11.8497 2 24C2 36.1503 11.8497 46 24 46Z" fill="#659EF1"/>
<path d="M35.5315 12.4681C34.9073 11.8439 33.8916 11.844 33.2673 12.4682L26.8889 18.8467L23.0974 15.0553C22.1371 14.0949 20.5799 14.0949 19.6195 15.0553L16.8889 17.7858L17.2294 18.1262L12.5091 21.1486C12.2273 21.3291 12.0425 21.6275 12.0064 21.9601C11.9704 22.2928 12.0871 22.6239 12.3237 22.8605L25.1392 35.6761C25.3475 35.8844 25.629 35.9997 25.9204 35.9997C25.9599 35.9997 25.9997 35.9975 26.0395 35.9933C26.3721 35.9573 26.6705 35.7725 26.8509 35.4906L29.8733 30.7703L30.2138 31.1107L32.9443 28.3801C33.9047 27.4198 33.9047 25.8626 32.9442 24.9021L29.1529 21.1108L35.5314 14.7323C36.1557 14.108 36.1557 13.0924 35.5315 12.4681ZM25.7306 33.1423L23.5358 30.9474L25.6904 27.7351L22.478 29.8897L20.6307 28.0425L22.0025 25.9973L19.9573 27.3691L17.862 25.2737L19.5265 22.792L17.0449 24.4565L14.8575 22.2691L18.8292 19.726L28.2738 29.1706L25.7306 33.1423Z" fill="#659EF1"/>
</svg>
