<svg width="48" height="48" fill="none" xmlns="http://www.w3.org/2000/svg"><path opacity=".2" d="M24 46c12.15 0 22-9.85 22-22S36.15 2 24 2 2 11.85 2 24s9.85 22 22 22z" fill="#659ef1"/><path d="M17.613 28.665l1.538 8.207L13 38v-8.54l4.613-.795zm11.541-1.574c.694 0 1.24 1.386-.015 1.66-1.21.267-4.264 1.097-4.473 1.154l-.011.003 5.65.346s4.779-1.688 6.15-2.34c1.376-.654 1.948.952 1.241 1.413-.71.464-6.64 4.438-7.614 4.627-.973.187-8.142 0-8.97 0-.778 0-1.559 1.236-1.643 1.374l-.007.012-1.063-6.588 4.015-1.416s6.047-.245 6.74-.245zm-.413-12.727l3.275 3.192a4.476 4.476 0 011.354 3.186c0 1.13-.451 2.322-1.354 3.203a4.682 4.682 0 01-3.275 1.328 4.682 4.682 0 01-3.276-1.328 4.514 4.514 0 01-1.354-3.203c0-1.13.451-2.305 1.354-3.186l3.276-3.192zm-9.26 2.727l.868 1.875 1.91.852-1.91.852-.867 1.875-.869-1.875-1.91-.852 1.91-.852.869-1.875zM24.111 8l1.157 2.5 2.547 1.136-2.547 1.137-1.157 2.5-1.157-2.5-2.547-1.137 2.547-1.136L24.11 8z" fill="#659ef1"/></svg>