<svg width="48" height="48" viewBox="0 0 48 48" fill="none" xmlns="http://www.w3.org/2000/svg">
<path opacity="0.2" d="M24 46C36.1503 46 46 36.1503 46 24C46 11.8497 36.1503 2 24 2C11.8497 2 2 11.8497 2 24C2 36.1503 11.8497 46 24 46Z" fill="#659EF1"/>
<path d="M17.6125 28.6648L19.1514 36.8718L13 38V29.4598L17.6125 28.6648ZM29.1543 27.0909C29.8482 27.0909 30.394 28.477 29.1391 28.7516C27.9295 29.0177 24.8752 29.8477 24.666 29.9046L24.6547 29.9077L30.3044 30.2544C30.3044 30.2544 35.084 28.5658 36.4547 27.9135C37.8308 27.2601 38.4031 28.8662 37.696 29.3275C36.9859 29.791 31.0558 33.7648 30.0822 33.9538C29.1091 34.1406 21.9404 33.9538 21.1128 33.9538C20.334 33.9538 19.5534 35.1903 19.4691 35.3277L19.4616 35.34L18.399 28.7516L22.414 27.3355C22.414 27.3355 28.4606 27.0909 29.1543 27.0909ZM28.7407 14.3636L32.0162 17.5556C32.919 18.4369 33.3704 19.612 33.3704 20.7419C33.3704 21.8718 32.919 23.0638 32.0162 23.9451C31.1134 24.8264 29.9271 25.2727 28.7407 25.2727C27.5544 25.2727 26.3681 24.8264 25.4653 23.9451C24.5625 23.0638 24.1111 21.8718 24.1111 20.7419C24.1111 19.612 24.5625 18.4369 25.4653 17.5556L28.7407 14.3636ZM19.4815 17.0909L20.3495 18.9659L22.2593 19.8182L20.3495 20.6705L19.4815 22.5455L18.6134 20.6705L16.7037 19.8182L18.6134 18.9659L19.4815 17.0909ZM24.1111 8L25.2685 10.5L27.8148 11.6364L25.2685 12.7727L24.1111 15.2727L22.9537 12.7727L20.4074 11.6364L22.9537 10.5L24.1111 8Z" fill="#659EF1"/>
</svg>
