<svg width="48" height="48" fill="none" xmlns="http://www.w3.org/2000/svg"><path opacity=".2" d="M24 46c12.15 0 22-9.85 22-22S36.15 2 24 2 2 11.85 2 24s9.85 22 22 22z" fill="#62c378"/><path d="M33.9 13H14.1c-.611 0-1.1.489-1.1 1.1v19.8c0 .489.489 1.1 1.1 1.1h19.8c.489 0 1.1-.611 1.1-1.1V14.1c0-.611-.611-1.1-1.1-1.1zm-11.122 4.889h7.333v2.444h-7.333V17.89zm0 4.889h7.333v2.444h-7.333v-2.444zm0 4.889h7.333v2.444h-7.333v-2.444zm-4.89-9.778h2.445v2.444H17.89V17.89zm0 4.889h2.445v2.444H17.89v-2.444zm0 4.889h2.445v2.444H17.89v-2.444z" fill="#62c378"/></svg>