<svg width="48" height="48" viewBox="0 0 48 48" fill="none" xmlns="http://www.w3.org/2000/svg">
<path opacity="0.2" d="M24 46C36.1503 46 46 36.1503 46 24C46 11.8497 36.1503 2 24 2C11.8497 2 2 11.8497 2 24C2 36.1503 11.8497 46 24 46Z" fill="#F6944D"/>
<path d="M24 35C25.8343 35 27.4858 34.6446 28.9543 33.9338C33.1029 32.0723 36 27.96 36 23.1538H12C12 27.96 14.8971 32.0723 19.0629 33.9338C20.52 34.6446 22.1657 35 24 35Z" fill="#F6944D"/>
<path d="M29 16.5H26.915L28.535 14.88L27.83 14.17L25.5 16.5H24.5V15.5L26.83 13.17L26.12 12.465L24.5 14.085V12H23.5V14.085L21.88 12.465L21.17 13.17L23.5 15.5V16.5H22.5L20.17 14.17L19.465 14.88L21.085 16.5H19V17.5H21.085L19.465 19.12L20.17 19.83L22.5 17.5H23.5V18.5L21.17 20.83L21.88 21.535L23.5 19.915V22H24.5V19.915L26.12 21.535L26.83 20.83L24.5 18.5V17.5H25.5L27.83 19.83L28.535 19.12L26.915 17.5H29V16.5Z" fill="#F6944D" stroke="#F6944D" stroke-width="0.4"/>
</svg>
