<svg width="48" height="48" fill="none" xmlns="http://www.w3.org/2000/svg"><path opacity=".2" d="M24 46c12.15 0 22-9.85 22-22S36.15 2 24 2 2 11.85 2 24s9.85 22 22 22z" fill="#f6944d"/><path d="M24 35c1.834 0 3.486-.355 4.954-1.066C33.103 32.072 36 27.96 36 23.154H12c0 4.806 2.897 8.918 7.063 10.78C20.52 34.644 22.166 35 24 35z" fill="#f6944d"/><path d="M29 16.5h-2.085l1.62-1.62-.705-.71-2.33 2.33h-1v-1l2.33-2.33-.71-.705-1.62 1.62V12h-1v2.085l-1.62-1.62-.71.705 2.33 2.33v1h-1l-2.33-2.33-.705.71 1.62 1.62H19v1h2.085l-1.62 1.62.705.71 2.33-2.33h1v1l-2.33 2.33.71.705 1.62-1.62V22h1v-2.085l1.62 1.62.71-.705-2.33-2.33v-1h1l2.33 2.33.705-.71-1.62-1.62H29v-1z" fill="#f6944d" stroke="#f6944d" stroke-width=".4"/></svg>