<svg width="48" height="48" viewBox="0 0 48 48" fill="none" xmlns="http://www.w3.org/2000/svg"><path opacity=".2" d="M24 46C36.1503 46 46 36.1503 46 24 46 11.8497 36.1503 2 24 2 11.8497 2 2 11.8497 2 24 2 36.1503 11.8497 46 24 46z" fill="#f6944d"/><path d="M24 35C25.8343 35 27.4858 34.6446 28.9543 33.9338 33.1029 32.0723 36 27.96 36 23.1538H12C12 27.96 14.8971 32.0723 19.0629 33.9338 20.52 34.6446 22.1657 35 24 35z" fill="#f6944d"/><path d="M29 16.5H26.915L28.535 14.88 27.83 14.17 25.5 16.5h-1v-1L26.83 13.17 26.12 12.465 24.5 14.085V12h-1V14.085L21.88 12.465 21.17 13.17 23.5 15.5v1h-1L20.17 14.17 19.465 14.88 21.085 16.5H19v1H21.085L19.465 19.12 20.17 19.83 22.5 17.5h1v1L21.17 20.83 21.88 21.535 23.5 19.915V22h1V19.915L26.12 21.535 26.83 20.83 24.5 18.5v-1h1L27.83 19.83 28.535 19.12 26.915 17.5H29v-1z" fill="#f6944d" stroke="#f6944d" stroke-width=".4"/></svg>