<svg width="48" height="48" fill="none" xmlns="http://www.w3.org/2000/svg"><path opacity=".2" d="M24 46c12.15 0 22-9.85 22-22S36.15 2 24 2 2 11.85 2 24s9.85 22 22 22z" fill="#7c72f2"/><path d="M31.91 18H15.363A2.363 2.363 0 0013 20.364V31h2.364a3.548 3.548 0 003.545 3.545A3.548 3.548 0 0022.455 31h6.5a3.548 3.548 0 003.545 3.545A3.548 3.548 0 0036.045 31H39v-5.91L31.91 18zm-13 14.773A1.77 1.77 0 0117.135 31c0-.98.792-1.773 1.773-1.773.981 0 1.773.792 1.773 1.773a1.77 1.77 0 01-1.773 1.773zm13.59 0A1.77 1.77 0 0130.727 31c0-.98.792-1.773 1.773-1.773.98 0 1.773.792 1.773 1.773a1.77 1.77 0 01-1.773 1.773zm-2.954-7.682v-4.727h1.181l4.728 4.727h-5.91z" fill="#7c72f2"/><path d="M13.995 14A4.998 4.998 0 009 19c0 2.76 2.235 5 4.995 5A5.003 5.003 0 0019 19c0-2.76-2.24-5-5.005-5z" fill="#fff"/><path d="M13.995 13.5a5.475 5.475 0 00-3.886 1.61A5.486 5.486 0 008.5 19c0 1.518.615 2.893 1.61 3.89a5.475 5.475 0 003.885 1.61 5.49 5.49 0 003.892-1.61A5.48 5.48 0 0019.5 19a5.48 5.48 0 00-1.613-3.89 5.49 5.49 0 00-3.892-1.61z" fill="#7c72f2" stroke="#e5e3fc"/></svg>