<svg width="48" height="48" viewBox="0 0 48 48" fill="none" xmlns="http://www.w3.org/2000/svg">
<path opacity="0.2" d="M24 46C36.1503 46 46 36.1503 46 24C46 11.8497 36.1503 2 24 2C11.8497 2 2 11.8497 2 24C2 36.1503 11.8497 46 24 46Z" fill="#7C72F2"/>
<path d="M31.9091 18H15.3636C14.0636 18 13 19.0518 13 20.3636V31H15.3636C15.3636 32.95 16.9473 34.5455 18.9091 34.5455C20.8709 34.5455 22.4545 32.95 22.4545 31H28.9545C28.9545 32.95 30.5382 34.5455 32.5 34.5455C34.4618 34.5455 36.0455 32.95 36.0455 31H39V25.0909L31.9091 18ZM18.9091 32.7727C17.9282 32.7727 17.1364 31.9809 17.1364 31C17.1364 30.0191 17.9282 29.2273 18.9091 29.2273C19.89 29.2273 20.6818 30.0191 20.6818 31C20.6818 31.9809 19.89 32.7727 18.9091 32.7727ZM32.5 32.7727C31.5191 32.7727 30.7273 31.9809 30.7273 31C30.7273 30.0191 31.5191 29.2273 32.5 29.2273C33.4809 29.2273 34.2727 30.0191 34.2727 31C34.2727 31.9809 33.4809 32.7727 32.5 32.7727ZM29.5455 25.0909V20.3636H30.7273L35.4545 25.0909H29.5455Z" fill="#7C72F2"/>
<path d="M13.995 14C11.235 14 9 16.24 9 19C9 21.76 11.235 24 13.995 24C16.76 24 19 21.76 19 19C19 16.24 16.76 14 13.995 14Z" fill="white"/>
<path d="M13.995 13.5C12.4772 13.5 11.1037 14.1157 10.1094 15.1109C9.11493 16.1065 8.5 17.4817 8.5 19C8.5 20.5183 9.11493 21.8935 10.1094 22.8891C11.1037 23.8843 12.4772 24.5 13.995 24.5C15.5153 24.5 16.8912 23.8843 17.8872 22.8893C18.8838 21.8937 19.5 20.5184 19.5 19C19.5 17.4816 18.8838 16.1063 17.8872 15.1107C16.8912 14.1157 15.5153 13.5 13.995 13.5Z" fill="#7C72F2" stroke="#E5E3FC"/>
</svg>
