<svg width="216" height="174" fill="none" xmlns="http://www.w3.org/2000/svg"><g clip-path="url(#clip0)" fill-rule="evenodd" clip-rule="evenodd"><path d="M53.958 96.733c1.218 9.509 2.444 19.018 3.68 28.528l.984 7.666c.13.962 0 2.885.492 3.74.182.294.622.454.933.641 1.114.615 2.254 1.256 3.369 1.87a14664.72 14664.72 0 0028.476 15.76c9.121 5.049 18.233 10.088 27.336 15.119.933.534 2.462 1.87 3.472 1.523.959-.347 1.944-1.176 2.825-1.71l5.052-3.045c10.209-6.17 20.41-12.332 30.601-18.485 4.198-2.537 8.421-5.075 12.619-7.639 1.14-.695 2.306-1.389 3.446-2.084.596-.374.674-.347.907-.962.881-2.297 1.296-4.941 1.918-7.345.699-2.645 1.373-5.289 2.072-7.907.311-1.176.156-1.336-.336-2.458-.985-2.244-1.996-4.514-2.98-6.758-2.203-4.995-4.414-9.99-6.633-14.985-.881-2.03-3.032-3.446-4.587-4.915l-24.045-23.08c-.622-.587-1.218-1.175-1.84-1.763-.104 3.526-.777 7.32.207 10.712 1.633 5.583 3.239 11.165 4.872 16.748.777 2.698 1.58 5.396 2.358 8.094.155.508 1.036 2.484.803 2.938-.13.241-1.244.481-1.503.588-1.036.401-2.099.828-3.135 1.229-2.902 1.149-5.83 2.27-8.732 3.419-2.617 1.015-5.234 2.057-7.851 3.072-.881.347-1.918.988-2.877.935-.829-.054-1.787-.481-2.591-.695-1.425-.374-2.85-.748-4.275-1.148l-8.395-2.244c-3.161-.828-5.804-3.286-8.499-5.102-4.638-3.126-9.268-6.251-13.888-9.376-1.063-.721-1.063-1.122-1.477-2.43-.96-2.94-1.892-5.877-2.85-8.816-.519-1.576-1.14-3.152-1.504-4.755-.621-2.644-1.01-5.395-1.502-8.067-.156-.801-.311-1.63-.44-2.43-1.944.8-3.888 1.629-5.83 2.43-.286.107-1.66.481-1.763.748-.078.187.337 1.015.389 1.176l4.82 14.745c.518 1.549 1.01 3.098 1.528 4.648-1.218-1.95-2.41-3.927-3.627-5.877-.96 3.285-1.892 6.598-2.85 9.883-2.255-2.67-4.483-5.342-6.738-8.013l-2.332 8.013c-2.41-3.285-4.845-6.597-7.255-9.883-.285 1.71-.57 3.446-.855 5.155-.078.508-.078 2.004-.414 2.431-.26.32-1.037.16-1.555.16z" fill="#7166ed"/><path d="M207.067 117.273c-.129 4.488-.052 10.284-2.409 14.211-.389.641-1.685 2.618-1.84.881-.13-1.709.259-3.392-.13-5.128-.207-.935-.933-2.939-2.176-2.111-.622.428-.804 1.47-1.037 2.137-.362.989-.777 1.95-1.166 2.912-1.347 3.392-2.746 7.453-5.726 9.696.389-2.938 1.451-6.063.751-9.028-.233-1.015-.984-2.858-2.254-2.271-1.244.588-2.047 3.152-2.643 4.301-1.788 3.472-3.602 6.892-5.597 10.231a27.222 27.222 0 01-3.42 4.648c-.829.908-1.866 2.43-3.161 2.564 0-2.564.829-5.049 1.555-7.453.803-2.591 1.528-5.209 2.332-7.826a77.342 77.342 0 001.71-6.812c.181-.962.337-1.95 1.14-2.564.699-.561 1.839-.828 2.617-1.229a61.935 61.935 0 006.167-3.553c.803-.534 1.477-1.255 2.306-1.736a26.225 26.225 0 002.72-1.71c3.783-2.938 7.204-6.571 9.484-10.872.363 1.737.855 3.42.933 5.209 0 1.843-.104 3.687-.156 5.503zm-31.145 20.568c-.596-1.041-1.529-.614-2.332-.106a288.26 288.26 0 01-3.783 2.35c-2.591 1.576-5.105 3.259-7.618 4.942-5.13 3.419-10.442 6.224-15.832 9.109-5.234 2.805-10.235 6.144-15.132 9.509-1.166.802-2.358 1.63-3.472 2.511-1.01.775-1.814 1.87-2.85 2.565-1.088.721-1.866.133-2.902-.401-1.322-.668-2.695-1.229-4.042-1.817-5.416-2.43-10.857-4.941-16.143-7.693-5.234-2.724-10.209-5.876-15.236-9.028-2.383-1.496-4.741-3.072-7.1-4.622-2.513-1.656-5.104-2.884-7.747-4.273-1.166-.615-2.202-1.47-3.394-2.031-1.27-.587-2.591-1.015-3.705-1.869-.519-.374-.933-.829-1.503-1.122-.467-.214-1.01-.267-1.477-.508-.959-.481-1.218-1.442-1.4-2.457-1.191-6.491-1.813-13.169-2.513-19.767-.388-3.687-.829-7.373-1.347-11.059-.233-1.656.233-2.939.492-4.568.285-1.897.415-3.793.622-5.69.933 1.79 1.762 3.687 2.954 5.316.88 1.202 2.384 2.912 4.016 2.885 2.514-.053 2.41-4.514 2.514-6.277 1.14 1.068 1.502 2.778 2.461 4.007.881 1.121 2.047 2.51 3.394 3.018 2.825 1.068 2.54-4.327 2.384-5.85-.078-.775-.492-1.977.493-1.63.906.321 1.813 1.657 2.59 2.271 1.322 1.069 2.8 1.923 4.147 2.938 1.684 1.256 3.523 2.164 5.26 3.313 1.088.721 2.254.881 3.446 1.442 1.736.775 3.239 1.95 4.897 2.912a56.222 56.222 0 0010.416 4.674c1.14.374 2.695 1.389 3.55.348.544-.641.881-1.63 1.347-2.378a44.962 44.962 0 011.84-2.698 61.303 61.303 0 017.566-8.708 61.954 61.954 0 0110.598-8.12c1.632-.989 8.447-5.396 9.95-2.297-1.218-.08-2.306.374-3.343.961-.259.134-1.58 1.122-1.27.267-.388.08-.725.588-1.01.828-.584.439-1.199.831-1.84 1.176-.57.32-1.295.4-1.814.801-.181.134-.31.374-.492.534h-.518c-.078.294-.156.588-.233.908-.285-.988-.726.294-1.218.722a5.942 5.942 0 01-1.114.668c-.259.106-.311-.16-.544.053-.234.187-.363.614-.622.828a9.08 9.08 0 01-1.011.748c-.648.48-1.321.855-1.943 1.282-.881.615-1.322 1.63-2.177 2.27-.388.294-1.01.321-1.243.535-.545.481-.363 1.202-1.374 1.229.098.14.152.308.156.48a1.24 1.24 0 01-.648-.32c.052 1.042-.959 1.416-1.555 2.057a7.165 7.165 0 00-1.01 1.335 4.332 4.332 0 00-.13.668c-.103.054-.648-.454-.596-.427-.155.961-1.062 1.87-1.451 2.751-.207.481-.414 1.229-.829 1.549-.104.081-.466 0-.725.294-.236.285-.42.61-.545.962-.051.214 0 .721-.077.855-.156.213-.389 0-.622.16-.441.294-.441.775-1.063.828.441 1.095 3.058 1.416 3.991 1.736 2.695.882 5.493 1.737 8.006 3.072.648.347 1.27.641 1.374 1.416.155 1.095-.389 2.564-.493 3.686a83.375 83.375 0 00-.285 9.162c.052 2.859.156 5.77.285 8.628.13 2.672.648 5.263.933 7.907.078.721.026 3.98 1.244 3.82 1.01-.133.363-2.377.363-3.018-.052-1.416.259-2.859.233-4.301 0-.695.285-1.282.311-1.923.026-.641-.285-1.176-.182-1.843.078-.642 1.944-4.354.156-3.927.103-.534.207-1.069.337-1.603.183.181.34.388.466.615.156-1.149.104-2.271.207-3.42.052-.507.259-1.095.182-1.602a1.828 1.828 0 00-.078-.641.557.557 0 00-.415-.187.64.64 0 01.052-.641.457.457 0 01.141-.238.436.436 0 01.248-.11c.363-.053.414-.267.129-.641a5.214 5.214 0 00.052-2.003c-.077-.641.233-1.87-.103-2.458-.389-.668-.596-.026-.648-.935a2.08 2.08 0 01.052-.801c.077-.214.337-.134.362-.214.208-.507.234-1.522-.544-1.442.026-.374.052-.748.104-1.095.57.667.363.106.674-.268.414-.507.855-.587 1.451-.774 1.632-.534 3.187-1.309 4.767-1.95 3.369-1.362 6.789-2.565 10.054-4.141 6.866-3.365 13.603-6.998 20.496-10.284-.493-.935-.182-.988.181-1.87.492.348.389.107.725.08-.025-.293.052-.373.26-.266.166.058.343.076.518.053.44.08.777.32 1.166.4.124.098.264.17.414.214a.726.726 0 00.363-.213c.622.133.829.614.881 1.308 0 .134-.363.241-.259.428.181.294.674.214.959.267-.052.294-.13.588-.182.908 1.244-.587.907 1.256 1.296 1.843.104.161.337.027.466.241.156.267.104.614.233.881.311.561.596.508.907 1.149 1.581 3.419 3.68 6.624 5.209 10.124.725 1.656 1.373 3.365 2.124 5.022.7 1.522 1.089 2.804.596 4.487-1.14 3.847-2.384 7.773-3.886 11.513a.52.52 0 01-.258-.087.546.546 0 01-.183-.207zm-80.143 28.796l-.311.561c-.233-1.416.389-.748.31-.561zm-5.053-2.671c-.337-.107-.207-.695-.181-.935.222.283.43.577.622.881-.146.03-.293.048-.44.054zm-13.888-5.449c.363-.214.622-.348 1.036-.588-.44.828-.44.828-1.036.588zm-21.87-73.966c-.543 1.389 1.14 10.07-.44 10.337-.233-.748-.259-2.858-1.192-3.098-1.166-.32-1.036 1.843-1.192 2.51-2.383-1.709-3.446-4.995-4.56-7.612-1.45-3.34-2.591-6.785-3.68-10.258-.932-2.965-1.71-5.983-2.642-8.948-.596-1.87-1.218-3.713-1.633-5.637-.077-.427-.414-1.469-.13-1.87.415-.587 1.918.08 2.41.241 3.162.988 6.427 1.389 9.665 1.977 3.602.64 7.204 1.282 10.831 1.763.907.133 1.814.24 2.72.347.597.08 1.478 0 2.048.267 1.14.561 1.373 2.645 1.788 3.74 1.554 4.087 3.42 8.013 5.052 12.047 1.477 3.633 2.617 7.506 4.742 10.818-1.58-.72-3.602-4.567-5.39-2.35-.777.961-.57 2.217-.517 3.365.077 1.657.103 3.313.103 4.969-1.736-.454-2.902-2.511-3.835-3.954a19.387 19.387 0 01-2.59-6.09c-.234-.988-.882-1.015-1.452-1.603-.363-.374-.544-.881-1.062-.347-.648.695-.208 2.591-.104 3.42.26 1.922 1.14 4.914.285 6.73-1.166 2.458-4.25-3.712-4.612-4.62-.13-.455-3.42-9.136-4.612-6.144zm-2.15-42.072c.207.027.389.054.596.08-.155.134-.492.641-.751.508.052-.16.103-.374.155-.588zm10.313-2.27c-.052.08-.13.133-.182.213-.285-.347-.181-.881-.181-1.309.17.115.299.285.365.483a.967.967 0 01-.002.613zm.829 4.006v1.176c-.752-.347-.777-.535 0-1.176zm.959 1.496c-.544-.16-.596-.267-.519-1.148.208.48.363.801.519 1.148zm3.109 8.709c-.233.614-1.555-.829-1.503-1.256.052-.4.26-.534.544-.267.104.08-.052.4.026.507.182.401.622.722.933 1.015zm.026 3.632c-.337.855-.933-.48-.052-.534.044.174.062.355.052.534zm-.648-1.362c-.13-.172-.25-.35-.363-.534.44.08.804.774 1.27.32-.078.695-.544.695-.907.214zM38.437 45.578c-.725-.802 3.965-1.39 4.535-1.523a64.852 64.852 0 0011.841-4.274c1.84-.855 3.654-1.71 5.442-2.671.777-.4 1.84-.748 2.487-1.362.467-.428.44-.775 1.037-1.042.518-.214.544 0 .777-.4.13-.241.31-1.123.207-1.39-.233-.721-.544-.133-1.01-.614-.337-.347-.26-1.363-.156-1.763.122.191.194.412.207.64.493-.266.311-1.121.855-1.281.57-.16.519.32.674.801.44-.668.078-1.229-.155-1.87 1.192-.24 2.487-.454 3.68-.053.854.294 1.606 1.042 2.513 1.175.88.134 1.062-.294 1.71-.748.544-.347.984.054 1.27-.213-.182.908-1.633.8-1.452 1.923.078.507.7.988.985 1.389.345.507.632 1.054.855 1.63.933 2.216 1.321 4.754 1.71 7.131.959 5.824 1.088 11.754 1.995 17.604.44 2.778.855 5.556 1.088 8.387.052.695.467 2.297.13 2.965-.285.561-.933.561-1.503.722a27.78 27.78 0 00-3.187 1.041c-.959.374-1.218.588-1.84-.32-.596-.882-.88-1.95-1.295-2.912-.544-1.229-1.192-2.43-1.814-3.633 1.218 0 1.918-.668 1.892-1.95-.026-1.415-1.166-1.763-1.633-2.911-.44.614-.492.614-.803.053-.363-.668-.622-1.87-.855-2.618.155.187.31.348.492.535.415-.588-.233-1.496-.44-2.03-.337-.829-.389-1.737-.7-2.592-.181-.454-.57-.828-.674-1.282-.051-.32.182-.614.13-.935-.104-.56-.725-1.175-.907-1.736-.285-.882-.622-1.656-.985-2.51-.492-1.176-.388-2.378-.466-3.634-.103-1.282-.492-2.51-.622-3.793-.103-.881.207-2.003-.44-2.698-.078 1.175.259 1.149-.83 1.362-1.217.24-2.098 1.176-3.264 1.47-.233.053-.415-1.015-.311.454-.544-.428-1.736.107-1.296.347-.337.374-.984.107-1.114.668-1.14-1.149-2.954 2.725-4.301.721-.233 1.362-1.192 2.19-2.488 2.35-.647.08-1.036.321-1.632.508-.13.054-.156.214-.31.267-.208.08-.52-.133-.675-.107-.31.08-.647.508-1.088.588-.507.08-1.022.08-1.529 0-.621-.08-.907-.16-1.502.054-.545.187-1.14.72-1.633.133-.751 1.336-2.643.989-3.602-.053zm36.898-17.176c-.596-.08-.181-.614.104-.775.751-.427.544.855-.104.775zM41.91 33.504c3.55-5.262 9.613-8.895 14.95-11.94 2.902-1.657 5.882-3.286 8.94-4.648 1.528-.668 3.057-1.336 4.612-1.924.829-.32 1.658-.614 2.513-.881.233-.08.648-.32.907-.294-.052 0 .596.187.467.24.414-.187.621-.667 1.114-.881a5.337 5.337 0 011.84-.32c.518-.027.984.213 1.476.213.337 0 .596-.16.933-.16.156 0 .156.24.26.267.051 0 .466-.16.492-.16.155.107.31.507.44.668a4.65 4.65 0 001.555 1.015c.673.293 2.306.587 1.528 1.682.545-.08.778.428.104.535-.363.08-.518-.268-.777-.508-.622-.534-2.125-1.309-3.032-1.282-.492.027-.907.427-1.373.56-.467.134-.674-.08-1.088-.053-.467.054-.778.455-1.218.535-.415.08-.648-.214-1.037-.214-.44.027-.88.427-1.295.561a8.747 8.747 0 00-1.84.721c-1.27.695-2.72.935-4.042 1.523-1.062.48-2.254.721-3.239 1.229-1.088.587-2.176 1.148-3.239 1.79-.777.453-2.332.614-3.187.507 0 1.602-.777.48-1.555 1.175.182.165.393.292.622.374-.829.347-1.606.775-2.435 1.175-.83.401-1.736.508-2.28 1.283-.519.72-.337.347-1.089.614-.337.134-.648.534-.907.801-.44.454-.518 1.149-.777.214-.078.107-.363.828-.415.855-.31-.347-.362.053-.518.213.078.321-.052.508-.389.615l-.544.4c-.648.481-1.502.882-1.943 1.577a.633.633 0 01-.334-.408.67.67 0 01.075-.527c-.648.614-1.425 1.255-1.607 2.217a1.067 1.067 0 00-.285-.187c-.259.187.078.721.26.855.725-.294-.182-.187.31-.134.142.06.29.105.44.134.443 0 .884-.026 1.322-.08.991-.184 1.97-.433 2.928-.748 1.037-.321 2.1-.642 3.11-1.042.829-.32 1.658-.695 2.487-1.042.337-.134.674-.294.985-.427.622-.268.959-.722.88.053.493-.08.934-.828 1.322-1.122a5.76 5.76 0 011.788-.935 2.24 2.24 0 01.726-.187c.13 0 .207.374.285.374.57-.133.31-.48.57-.935.57-1.042 2.098-1.603 3.031-2.19.596-.374 1.01-.882 1.555-1.282.21-.159.448-.276.7-.348.207-.053.466.428.596-.053-.428-.225-.87-.421-1.322-.588-.337-.107.078-.454-.44-.24-.208.08-.285.507-.363.668-.57-.535-2.203.026-2.876.24-.052.027-.26-.107-.363-.08-.389.027-.674.588-.933.801-.7.615-1.45.882-2.28 1.256.233-1.282 1.891-1.79 2.85-2.297 1.425-.722 2.747-1.63 4.301-2.004 1.037-.267 2.41-.454 2.85.775.26.748.311 2.59-.595 2.938-.104-.347.207-.641.31-.935-.906.348-1.062 1.47-1.736 2.057a2.314 2.314 0 00-.7.748 2.449 2.449 0 01-.699.935c-.7-1.55-.596.56-.958.828.155-.107-.596.214-.493.16-.026 0-.363-.507-.57-.507-.362.026-.31.454-.492.668-.622.72-1.4 1.202-2.384 1.095-.026.507.13 1.122-.544 1.175l-.078-1.149c-.362.401-.855.748-1.166 1.203-.337.507-.31.828-.88 1.175-.597.347-1.866 1.068-2.566 1.122a.45.45 0 00.113-.374.454.454 0 00-.217-.32c-.362.373-.88.427-1.27.747 1.322.561-1.01.534-1.32.614-.208.054-.363.24-.57.268-.26.053-.312-.24-.519-.134-.337.134-.207.508-.544.695-.26.133-.674.133-.959.267-.673.32-2.124.988-2.59.16-.234 1.416-2.618.561-3.473.454-1.244-.24-3.317-.828-2.203-2.484zm5.052-14.612a.346.346 0 01.265-.106.338.338 0 01.253.133c-.233-1.282 1.607-1.923 2.41-2.457 1.063-.722 2.306-2.137 3.706-2.03-.234.186-.467.373-.7.534.337.053.674.08 1.01.133-.181.294-.388.588-.57.855-.31-1.763-1.943.454-2.41.801-.483.28-.942.602-1.373.962-.414.4-.803 1.122-1.477.748-.051 1.015-.855.748-1.399 1.309-.078-.347.13-.588.285-.882zm7.203-5.048c1.685-.641 3.136-1.843 4.716-2.698 1.503-.828 3.058-1.55 4.587-2.324.777-.4 2.202-1.39 3.109-.882 1.192.695-.44.909-.881 1.149-.156-1.068-.725-.107-.389.48-.907-.4-2.928 1.203-3.809 1.63-.207.107-.103.16-.337.267-.051.027-.621.16-.803.214-.829.294-1.373.053-1.71 1.095l-.233-.72c-.518 1.201-2.073 1.709-3.084 2.43-.259.187-.984.881-1.321.748-.44-.187-.26-1.229.156-1.39zm30.317 3.606c.7.053.025.4.207.614-.026-.026.414.374.363.267.077.134.259.134.362.428.337 1.015-1.14 2.083-1.632 2.644-.959 1.122-1.529 2.538-2.513 3.633-.409.478-.938.83-1.53 1.015-.44.134-.906 0-1.295.428-.337.347-.259.56-.622.748-.621.32-.907.053-1.528.747-.519-1.495.984-1.469 1.788-2.297 1.088-1.148 2.306-2.297 3.316-3.526.907-1.095 1.27-2.03 1.71-3.366.13-.427.285-1.308.674-1.576.622-.4.26.214.7.24zm3.498 38.546a23.76 23.76 0 016.659-5.37c.907-.454 2.176-1.068 3.083-.347.907.695.726 2.084.337 3.045-.363-.133-.026-1.469-.207-1.79-.389-.72-1.244-.347-1.84-.106a6.162 6.162 0 00-1.84 1.095c-.207.214-.647.4-.777.534-.207-.08-.337-.027-.363.187a.54.54 0 01-.026.4c-.026.054-.31-.133-.337-.106-.18.16-.336.347-.518.48a4.823 4.823 0 00-.984.856c-.622.8-1.451 1.255-2.073 2.003-.126.206-.238.42-.337.641-.311.374-.777.695-1.14 1.095a15.926 15.926 0 01-1.995 1.763 3.613 3.613 0 00-.881.909c-.104.16-.156 1.068-.156 1.068-.7.801-.57-.801-.518-.988.596-2.164 2.513-3.794 3.913-5.37zm-3.835 14.53c.078.348.155.615.259.963-.57-.481-.57-.481-.26-.962zm-.596 1.096l-.622.641c-.467-.507.7-.721.622-.64zm-.311-8.521c-.207.908-1.01 2.003-1.555 2.725.052-.08-.466.08-.518.106-.207.107.285.882-.415.535-.233.133.234.72-.103.961-.933-2.217 1.632-4.14 2.617-5.77.518.454.103.935-.026 1.443zm-6.115 11.967c.7.187 1.036.08 1.503-.641.285-.428.388-1.149 1.01-.534l.104-.802c.907.374.829 1.763 1.244 2.538.18-.882.647-3.312 2.047-2.912 1.58.428-1.037 3.232-1.296 3.927-.544-.855-.337-.053-.725.053-.363.107-.907-.16-1.322-.133-1.296.08-2.436.668-3.628 1.175-.31-.828-.596-1.656-.907-2.51.7.053 2.151-1.87 2.332-.455-.518-.08-.673-.08-.906.427.171-.079.356-.124.544-.133zm2.902 10.872c.483.036.967.045 1.45.026.908-.347.57-1.415.778-2.19.389.347.182 1.015.285 1.47.13.534.544 1.014.57 1.602.078 1.309-.958 1.015-1.762 1.442-.673.374-.751.828-1.321-.16-.156-.267-.493-.962-.467-1.309.052-.294.57-.587.467-.881zm1.088 5.69l-.363-.428c1.115.347.467-.187.7-.882.855.588 1.555 1.176 2.202.027l1.166 4.835c-.777.187-1.787-1.042-2.332-1.469-.31-.24-2.02-1.202-.984-1.47-.13-.213-.26-.4-.389-.614zm7.592-15.146c-.648.64-1.296.988-1.995 1.469-.622.427-.415.935-.933 1.416-.363.32-1.192.64-1.632.908-.778.427-1.477.534-2.28.026.207 1.817-.985 1.95-2.488 2.324-.725.16-1.14.428-1.658-.24-.363-.454-.493-1.309-.052-1.71.7-.667 2.565-.427 3.446-.854.674-.32 1.373-2.11 2.203-1.47-.44-.72.077-.908.44-1.415.415-.561.674-1.202 1.088-1.763a11.292 11.292 0 013.187-2.725c1.01-.56 1.53-.16 1.685 1.015.077.588.077 1.47-.234 1.977-.103.16-.44.16-.544.32-.13.267.026.454-.233.722zm11.841-14.05c.804.64.726 2.002.856 2.91.181 1.31.051 2.565.025 3.874-.025 1.389-.673 2.297-.984 3.58-.337 1.442-.778 2.216-1.555 3.418.83.134-.414 2.725-.622 3.046-.233.374-2.02 2.03-1.243 2.03-.415.587-.881 1.175-1.322 1.736-.155.214-.466.32-.596.454-.259.32-.285.615-.466.962-.285.56-.389.4-.778.828-.259.294-.44.668-.7.935-.828.881-.932.16-1.424-.508a.58.58 0 01-.154.222.557.557 0 01-.235.126c-.155-.748.855-1.523 1.296-1.977.7-.748 1.321-1.603 1.943-2.404a32.01 32.01 0 003.42-5.663 28.224 28.224 0 002.203-6.812c.311-1.79.622-4.835-1.71-5.289-1.685-.32-3.55.722-4.924 1.576a36.762 36.762 0 00-2.513 1.63c-.881.64-1.632 1.522-2.591 2.03.518-.267-1.192.56-.933.32-.13.107-.026.454-.104.588-.18.212-.4.385-.647.508-.44.347-1.14.694-1.322 1.228-2.772-2.03 2.72-5.636 4.146-6.544 2.85-1.817 7.696-5.37 10.934-2.805zm7.463-19.741c-.026-1.47 1.14-3.446 1.917-4.648.389-.588.985-.561 1.218-1.256.13-.4-.052-.8 0-1.202a3.772 3.772 0 01.544-1.442c2.358-4.194 5.234-7.88 8.292-11.54 1.503-1.79 2.928-3.66 4.56-5.369.674-.694 2.514-3.232 3.55-2.992.544.134.881 1.015 1.114 1.443.41.727.869 1.423 1.374 2.083a19.81 19.81 0 004.664 4.595c1.114.801 2.254 1.55 3.368 2.377.907.668 2.28 1.47 2.928 2.404.648.962-.311 1.763-.829 2.565-.803 1.229-1.555 2.51-2.358 3.74-.311-.241-.233-.722-.467-1.042a2.66 2.66 0 00-.751-.561c-.518-.32-1.036-.721-1.503-.187-.829.935.311 3.152 1.529 2.911.155.935-2.28 2.458-2.902 2.965-1.866 1.576-3.783 2.939-6.245 3.072a7.513 7.513 0 01-2.979-.374 3.329 3.329 0 01-1.296-.748c-.415-.427-.518-1.068-.933-1.495-.363-.374-.829-.428-1.192-.802-.363-.374-.518-.962-.673-1.442-.285-.935-.337-1.924-.596-2.858-.156-.562-.285-1.336-.83-.775-.751.801-.388 3.285-.181 4.22.285 1.363.933 2.431 1.607 3.606.751 1.256 1.01 2.431 1.14 3.9a22.736 22.736 0 002.202 7.8c.492 1.042 1.088 2.004 1.632 3.019.26.48.804 2.083 1.503 2.083 1.089-.026-.466-3.285-.673-3.846-1.192-3.045-2.332-6.25-2.591-9.563 1.71.454 3.575.881 5.363.588-1.14 2.644.052 5.262-.104 7.986-.077 1.363-.129 2.618-.103 3.98.026 1.203-.492 2.378-.959 3.473-.907 2.137-2.021 4.782-3.679 6.411-1.399 1.362-3.265 1.47-5.079 1.149-4.146-.722-6.84-4.007-8.576-7.72a33.279 33.279 0 01-2.488-7.533c-.622-2.911-.466-5.93-.518-8.975zm5.364-20.248c-3.861-2.885 1.736-6.144 4.612-5.69.673.107 1.891.401 1.839 1.283-.051.747-1.243 1.549-1.71 2.003-1.295 1.282-2.643 3.98-4.741 2.404zm28.061 63.949c-.129-.134-1.218.187-.777-.481.363-.534 1.347.134 1.71.267-.311.214-.57.534-.933.214zM125.369 121.2c-.336.053-.673-.882.519-.187-.182.053-.337.133-.519.187zm-.026 15.039c.052.4.156.694-.129.988-.233-.321-.259-.748.129-.988zm.493 6.197c-.026.214-.078.454-.104.668-.285-.134-.544-.294-.829-.428l.933-.24zm.337-5.236c.414.161.207-.347.518-.427a1.819 1.819 0 01-.311 1.416 9.81 9.81 0 01-.207-.989zm10.494-37.477c-.57-.08-.674.561-1.089.802-.285.16-1.114.026-1.269.347.207.053.414.133.622.187-.467.267-.959.534-1.426.801 1.141 0 2.332-.561 3.473-.401.222.021.438.089.634.199.196.11.368.261.506.443.195.275.319.596.362.934.026.321-.207.561-.181.695.518.027.441.881.337 1.229-.259.774-1.244 1.976-2.125 1.469.363.534.285.855-.285 1.175.052-.187.078-.507-.207-.454-.078.294-.052.775-.285 1.015-.259.267-.518-.053-.752.134-.311.187-.207.507-.44.721-.311.294-.363.08-.726.134-.57.08-.207-.294-.673.187-.156.16-.13.587-.389.828-.492.454-1.814.935-2.28.347-1.14 1.843-4.535 2.297-6.115.828-2.514-2.324 2.176-7.079 3.731-8.601 1.555-1.523 3.291-2.805 5.053-4.087.984-.722 2.021-1.363 3.057-2.004.648-.4 1.451-1.122 2.255-1.041.699.053 1.321.64 2.072.748.545.08 1.581.213.907.961-.311.347-1.58.935-1.995 1.015-.259.054-.518-.053-.751 0-.415.08-.7.454-1.166.4.129.749-.13 1.096-.855.99zm7.488-25.964c0 .534-.959.4-1.166.214-.337-.294-.337-1.229-.466-1.63.544.16 1.632.695 1.632 1.416zm-7.799-18.057A52.512 52.512 0 01142.782 51c.803-.507 1.943-1.496 2.954-1.389.414.054 1.295.561.984 1.096-.052.106-.518.133-.674.213-.155.08-.285.32-.44.428-1.062.8-2.332 1.282-3.394 2.11-.881.668-1.685 1.416-2.617 2.003-.907.561-1.84.908-2.695 1.523.026 0-1.114.4-.881.48-1.011-.32.052-1.522.337-1.762zm13.551-.642c1.218-.507 2.384-1.095 3.654-1.442a5.253 5.253 0 011.943-.214.282.282 0 01.186-.186.274.274 0 01.255.053c.143.224.339.408.57.534.362.294 1.684.668 1.425 1.282-.182.428-1.503.454-1.866.534-1.114.294-2.125.909-3.265 1.069a1.52 1.52 0 01-.466-.107c-.441.107-.803.561-1.192.802-.829.48-1.995.56-2.591 1.415 1.891 1.336 3.55 0 5.234-.988a15.534 15.534 0 013.187-1.416c.57-.214 1.14-.4 1.736-.587a3.45 3.45 0 01.751-.188.406.406 0 01.312.026c.097.05.171.136.207.242.699-.027.751-.481 1.192.374.596 1.202-.311 1.122-1.166 1.282-1.192.213-2.384.668-3.576.961-.259.08-2.643.642-2.643.668-.104.775 6.685.054 7.255-.053 1.036-.214 2.125-.775 3.187-.641.829.107 2.669 1.335 1.373 2.163-.259-1.255-1.14-.213-1.606.214-.622.561-1.503.508-2.332.748-1.14.294-4.094 1.443-4.923 0 .259 1.282-4.431.641-5.079.588-.622-.054-1.451.107-2.047-.08-.388-.134-.622-.374-.984-.455a.911.911 0 01-.337.214 2.308 2.308 0 01-.518-.374c-1.244-.587-3.213-.935-2.514-2.831.7-1.843 3.058-2.939 4.638-3.607zm11.79 1.096c.026-.118.061-.234.103-.347 0 .347.804.48.7.934-.207.989-1.114-.48-1.192-.64.128.03.258.048.389.053zm4.819 1.63c.104.4 1.14 1.255.881 1.442-.414-.561-1.554-.294-.881-1.443zm-17.723 36.648c.389-.775 1.555.561 1.425-.801.622.053.233.56.985.347.285-.08.466-.4.829-.48.207-.014.415-.014.622 0 .466-.027 2.254-.054 1.01-.695.7-.481.778-.24 1.4.187-.156-.882.751-.374 1.191-.267-.31-.508.441-1.042.7-1.39-.078.535-.052 1.123.7.775.181-.08.155-.454.285-.507.259-.107.414.08.518.08.164.03.332.02.492-.027.259-.107.13-.454.467-.507.207-.027.362.293.621.293.13 0 .363-.133.467-.133.026 0 .155-.32.311-.32.233 0 .311.614.414.747.401.56.937 1.002 1.555 1.282-1.114 1.042-3.342.935-4.742 1.283-.726.196-1.43.474-2.098.828a2.09 2.09 0 00-.441.4 2.721 2.721 0 01-.285-.213c-.389.026-.725-.16-1.166-.107-1.321.24-2.358 1.255-3.679 1.469-.596.107-1.089.24-1.477-.294-.415-.427-.337-1.442-.104-1.95zm-1.814-6.277c.311.267-.052 1.095.518 1.015.415-.053.337-.721.648-.855.415-.187.674.24 1.089.214.751-.08.699-.748.077-1.042.648-.187.855.614 1.425.614.752 0 .57-.934 1.218-1.095.285-.053.182.348.363.4.363.108.622-.08.933-.24.285-.133.492-.427.803-.507.155-.053.518.027.622-.053.207-.16.389-.775.596-.855.226.161.47.295.725.4-.051.268-.207.294-.414.08 0 .588 1.58.775 1.269.054.855.374.208.561.13 1.069-.026.213-.155.187-.104.427.026.107.467.027.467.16-.026.882-2.747 1.149-3.265 1.229a18.26 18.26 0 00-3.109.775c-.778.24-2.073.961-2.902.908-1.166-.054-1.322-1.63-1.089-2.698zm-2.617-8.975c-.285-.989.622-2.992 1.814-2.752.285.054.363.32.596.428.311.16.829.08 1.114.24.622.347.311 1.282.933 1.603-.985.24-3.99 2.03-4.457.48zm1.14 3.793c.415-.24 1.115-.267 1.4-.721.155.106.414.72.673.614.13-.054.233-.374.233-.374.234 0 .285-.32.622-.294.311.027.674.427.959.588-.052-.989.207-1.069.959-1.603.181-.107.311-.561.466-.721-.155 1.041.233 1.041 1.037 1.202.46.068.892.266 1.249.572.357.307.624.71.772 1.164-.855-.16-1.97.027-2.306.988-.674-1.282-3.162.481-3.965.855-.596.267-1.295.641-1.788 0-.362-.454-.155-.961-.129-1.362 0-.134.129-.134.103-.32 0-.214-.285-.321-.285-.588zm9.121 20.221c-.233.08-1.399.133-1.399-.267 0-.348 2.047 0 1.399.267zm-1.891-1.282c-.881.561-1.866-1.416-2.177-1.977.933.133 1.373-.668 1.917-1.282.519 1.175 1.296.56 2.125.16.985-.454 2.047-.454 3.032-.828.311-.107.596-.294.907-.427.233-.107.492-.188.725-.294a.553.553 0 00.182-.588c-.078-.187-.026-.32.155-.374.228.07.462.115.7.134.388-.08.932-.454.466-.855.492-.454.985 0 1.477.213-.104-.347-.233-.667-.337-1.015.233.107.933 1.122 1.011 1.122.466-.026.414-.667.673-.908.156.187.208 1.63.778 1.149.259-.214-.285-.909-.441-1.069.674.16 1.27.989 1.451 1.656a1.252 1.252 0 01-.907-.213c-.181.908 1.451.534 1.71 1.015.519.935-2.824 1.576-3.264 1.656-.881.16-1.892.24-2.695.641-.777.374-.959.481-1.84.561-1.01.08-2.021.427-3.006.695-.803.186-1.865.347-2.642.828zm18.681-33.097c.804-.294 3.524-1.843 4.224-1.175.132.37.297.729.492 1.068.052.642.026.882-.725 1.203-.544.213-1.011-.24-1.503-.054-.544.214-.156.561-.441.801-.31.267-.88.401-1.269.508-.933.294-1.84.534-2.773.855a61.726 61.726 0 01-5.752 1.683c-1.425.347-3.861 1.175-5.182.187-.13.56-.441.48-.881.56-.419.104-.843.184-1.27.24-.518.028-1.917-.133-1.71-.854-.052.214 1.088-.48.907-.534.492.107.337-.16.725-.294.519-.187 1.063-.187 1.607-.374 1.347-.48 2.462-1.122 3.887-1.442 3.264-.668 6.555-1.23 9.664-2.378zM41.417 144.573c-.259 0-.466-.775.337-.214-.104.054-.207.134-.337.214zm-6.296-1.015c-.363.107-.492-.107-.415-.615.467-.187.622 0 .415.615zm-4.897-1.015c-.104-.454.233-.561.518-.748 0 .587 0 .587-.518.748zm-12.256-3.713c-.493-.107-1.14-.615-1.27.213-.078-.187-.492-1.095-.311-1.308.104-.107.44.4.415.347.44-.908 1.166.187 1.606.507-.155.08-.31.161-.44.241zm128.467-99.663c.182-.374.363-.481.596-.347-.363.854-1.58 1.335-.596.347zm8.551-8.174c.311.588-.156.828-.492 1.335.207-.534.336-.881.492-1.335zm37.156 57.511c1.089 0 3.447-.588 4.094.695.441-.882.933.774 1.322 1.041.052.027.311-.187.44-.106.198.177.357.396.467.64.337.588.466 1.283.648 1.924-1.918 0-3.887-.454-5.805-.641a29.4 29.4 0 00-3.757-.054c-.259.027-.751-.08-.958-.026-.208.053-.622.507-.855.427.362.721 5.156 2.458 5.519 1.656-.441-.267-1.4-.48-1.4-1.122 0-.72.907-.72 1.374-.694 1.036.053 2.798.4 3.213 1.522.181.481.233 1.683.026 2.137-.13.294-.337.668-.7.722-.155.026-.337-.16-.363-.16-.725.16-2.047.747-2.824-.08-.57.747-3.265-.081-4.094-.348-1.451-.508-3.446-1.175-4.327-2.565-1.063-1.709 1.114-3.125 2.358-3.82 1.762-.934 3.705-1.148 5.622-1.148zm7.307 3.927c.337.107.674.187 1.011.294-.078.614-1.425.133-1.011-.294zm10.183 22.144c.104-2.431-.57-4.594-.984-6.945-.104-.588 0-1.603-.441-2.084-.414-.454-1.321-.08-1.373-.908-.415.481-.363.588-.855.027.095.237.113.499.052.748-.311-.187-1.425-.801-1.348.053-.932-.213-.647-.801-1.191-1.255-.078-.054-.389.16-.493.08a5.053 5.053 0 01-.492-.561 6.847 6.847 0 01-.803.721 1.175 1.175 0 00-.855-.721c.362.775 1.217 1.736.025 2.19-.725.268-1.891-.053-2.642 0-2.799.214-5.882-.4-8.603-1.095-2.798-.721-5.597-1.709-8.11-3.179a7.561 7.561 0 01-1.322-1.068c-.44-.374-.777-.427-1.321-.668a8.302 8.302 0 01-2.591-1.896c-1.581-1.656-3.058-3.847-2.617-6.278.44-2.43 2.047-4.327 3.783-5.903a30.614 30.614 0 016.789-4.728c1.088-.561 3.886-2.698 4.974-1.443.7.802.311 1.817-.647 2.004-.234.053-.467-.107-.7 0-.337.16-.207.347-.363.48a4.21 4.21 0 01-.855.802c-1.269.695-2.487 1.256-3.705 2.11-.57.4-1.088.561-1.581.908-.492.348-.596.909-1.269.561.233.989-1.166 2.057-1.736 2.645-.855.935-1.892 2.137-1.477 3.526.777 2.725 4.301 4.781 6.581 5.983a29.925 29.925 0 009.069 3.179c1.555.241 3.187.401 4.742.561 1.218.134 3.109-.32 3.99.828.026-1.335 4.042-1.202 4.897-1.389-1.71-6.037-5.078-11.406-8.68-16.428-1.762-2.457-3.498-4.995-5.519-7.266-2.202-2.484-4.716-4.674-7.126-6.945-4.689-4.46-10.001-8.44-15.391-11.94-5.389-3.5-10.96-6.945-16.868-9.43-6.737-2.858-13.836-4.727-20.936-6.33.959-1.256 2.539-1.897 3.757-2.805.44-.32 1.011-1.095 1.581-1.202.596-.107 1.088.561 1.528.908 1.244.962 2.099.561 3.524.508.855-.027 2.876.454 3.213-.721.467.667-.207 1.175-.57 1.656.259.374.467-.027.726-.08.077-.08.155-.134.233-.214.129-.187.233-.187.337 0 .155.24.311.187.466-.16.052-.027.078-.054.13-.08.181-.107.362-.268.544-.374a23.714 23.714 0 013.861-2.458c1.192-.588.544-1.71 1.347-2.51.181-.188.492-.081.674-.241.181-.16.207-.32.362-.481.337-.374-.051-.828.778-.374l-.311-1.763c1.632 1.63 1.632-3.072 1.865-3.793-.025.08.156-.615.156-.615.052-1.415.233-2.457-1.373-2.537.621-.4.803.374 1.088-.428.129-.4-.311-1.095.414-.828.156-.854 0-1.549-.181-2.377-.181-.855-.078-1.416-.078-2.27 0-.962-.414-1.924-.57-2.886-.103-.748 0-1.896-.933-1.629-.129-.214.337-.855.311-1.175-.025-.508-.544-1.015-.699-1.47a.754.754 0 01-.383.24.733.733 0 01-.446-.026c.285-.64.026-.854-.259-1.415-.156-.321-.052-.668-.389-.909-.181-.133-.518.08-.648-.053-.311-.32-.207-.775-.414-1.202-.285-.534-.907-.962-1.322-1.39-2.41-2.296-5.027-4.086-8.24-4.968-3.239-.908-6.996-1.228-10.235-.187-1.295.428-2.435.374-3.601 1.149-.389.267-.415.187-.596.614-.052.107.363.374.103.535-.259.187-.57-.187-.699-.481-1.684 1.255-3.239 2.911-4.198 4.835-.958 1.896-1.036 4.14-1.399 6.197-1.658-2.164-3.913-3.099-6.374-2.164-2.151.828-3.809 2.645-4.224 4.995a6.792 6.792 0 00.648 4.167c.285.561.596 1.176 1.114 1.55.389.294 1.089.267 1.27.801.285.828-1.373 2.591-1.788 3.312a26.94 26.94 0 00-2.047 4.06c-1.969-2.857-3.861-6.01-6.089-8.654-2.125-2.484-4.638-4.728-7.1-6.838-5.13-4.381-10.468-8.495-16.194-11.994C74.92 2.064 68.469.274 62.25.888c-6.09.615-10.753 4.595-14.666 9.163-7.54 8.788-12.152 21.343-12.593 33.043-.163 3.493.16 6.992.959 10.39.389 1.63.337 3.233.57 4.862.26 1.843.725 3.713 1.166 5.53a203.184 203.184 0 006.219 20.541c1.243 3.473 2.746 6.892 4.793 9.964.933 1.415 2.15 2.537 3.187 3.873.985 1.309 1.244 2.912 1.451 4.514.519 3.847.855 7.693 1.166 11.567.13 1.629.285 3.259.493 4.888.181 1.416-.285 1.336-1.425 1.843.233-1.282-5.286-.401-5.83-.32-.57.106-1.166.106-1.607.16a7.146 7.146 0 01-1.555.187c-.855-.027-2.435-.241-2.746.855-.233-1.283-1.684.133-.596-.107-1.114.133-2.254-.08-3.394.027-1.296.133-2.592.24-3.887.454-.907.133-1.762.507-2.643.587-1.14.134-2.358.107-3.498.214-4.276.401-8.706 1.362-12.852 2.458-.933.24-2.021.427-2.928.828-.233.106-.466.347-.7.427-.388.16-.336.053-.673.107-2.047.427-4.172 1.122-6.245 1.656-1.14.294-3.006.561-3.938 1.389-.415.374-.778 1.015-.104 1.442.544.321 1.296-.187 1.736-.48-.389 1.041-1.114 1.549-.726 2.724.311.935 1.011 2.084 2.073 1.469.156.348.208 1.042.622 1.149.389.107.648-.374 1.037-.267.13.053.077.294.207.374.21.096.426.176.648.24.241.108.493.189.751.241.16-.051.31-.133.44-.241.312.054.467.668.7.828.255.205.56.335.881.374.752.161 1.71.454 2.229-.32-.104.561.622.507.958.587a1.146 1.146 0 00-.146-.42 1.1 1.1 0 00-.294-.327c.725.053.44.801.985 1.015.388.133.336-.214.647-.268.389-.053.7.241 1.296-.026.13.614.181 1.229.907 1.309.414.053 1.425-.748 1.347-.08.959-.294 1.296-.081 1.814.774.078-.534.492-.374.855-.401.596-.053.596 0 1.062-.347.052-.026.389-.881.57-.347.078.24-.414.801-.57.935.208.107.933.507 1.218.427.233-.053.233-.481.518-.507-.077.24-.13.481-.207.721.544.08 1.01-.294 1.451-.588.415 1.096 1.607.481 2.254 1.309.337.428.363.775 1.01.882.675.107 1.27-.187 1.84.374-.18-.348-.621-.641-.18-1.042.31.454.466.988.802 1.389l.156-.641c.907 1.015 2.073 1.015 3.239 1.576v-.641c.829 1.309.88.481 1.891-.054-.077.401-.13.775-.207 1.176.725-.054 1.4.828 1.995.08.363.614.803.32 1.373.507.337.107.57.454.907.561.493.187.622.187 1.089.348.414.133.647.427 1.14.507.317.049.639.058.958.027.13 0 .078-.294.363-.214.415.107.726.641 1.037.935.466-1.175 1.736.401 2.358.614.051-.293.051-.667.259-.908.259.561.337 1.042.855 1.389.337.204.705.349 1.088.428.207.053.622 0 .751.053.234.107.311.427.545.454.13.027.336-.347.44-.32.466.133.752.721 1.218 1.041 1.425.962 3.239 1.042 4.82 1.256.388.053.466-.054.777.187.181.133.103.534.31.641.804.427.804-.481.985-1.015.26.374.311.828.674 1.122.199-.005.398.004.596.026.105.132.176.288.207.455.492.347 1.037.213 1.529.48.155.081.44.588.648.722.408.247.855.418 1.321.507.855.241 2.099-.08 2.617.855.674-.748.415.134.881.347.285.107.674-.32.985-.294.544.081.751.695.907 1.122.337-.08.103-1.041.103-1.255.415-.054.493 1.068.57 1.309.648-.321-.414-1.336.285-1.656-.051.854.596 1.576-.596 1.682.156.508 3.99 1.096 4.25.642.052.854.596.053.803-.241.026.481-.13 1.202.389 1.416.362.16 1.192-.241 1.321-.615.156.561.44.535.778.909.233.24.388.667.621.881.44.374 1.296.321 1.814.241 1.037-.161.907-.374 1.27.721.078-.428.337-1.282.803-.641.285.4-.337 1.309-.492 1.683a4.872 4.872 0 011.244-.588c.043.195.034.398-.026.588.233.117.458.251.673.4.014-.28.058-.558.13-.828.622.401.181 1.176.751 1.576.156.107.493-.027.648.054.311.106.57.4.83.587-.208-.294-.182-.801-.182-1.148.13.08.233.374.363.4.051 0 .596.08.596.08.57.401.44.455-.026.962.181.294.907-.214 1.088-.294.052.107.052.508.13.588.054.111.097.227.13.347a.523.523 0 01.466-.107c.103.027.932.374.984.267a1.77 1.77 0 01-.492-.267c.466-.427.777-.667 1.218-.026.051.08-.13.374-.078.48.207.401.648.695.933 1.016.13-.428-.156-1.523.518-1.496.544.026.933 1.362.751 1.789.208-.24 1.477-.48 1.71-.4.674.213.493.854 1.322-.08.57.4.078.56.181 1.041a.466.466 0 00.415-.107c-.104 2.084 1.4.481 2.384.802.388.133.492.561.88.694.208.08.467-.107.674-.053.182-.027.337-.054.493-.08.207-.107.31 0 .285.374.337.187.207.24.622.294.259.026.492-.241.777-.214.492.08.44.481.751.694.293.165.634.213.959.134.181-.027.7-.267.751-.267.389 0 .182-.08.622.24.27.252.588.444.933.561.492.134 1.399.428 1.71.08.467.695.804.187 1.399.241.311.026.363.16.622.187.441.08.985 0 1.477.16.752.24.829.374 1.581.401.129-.054.285-.107.414-.161.045.224.154.428.311.588.415.08.7-.133 1.063-.374.259.828 1.114.908 1.839 1.015 1.166.187 2.281.267 3.421.668a28.4 28.4 0 012.824 1.149c.803.374 1.555.935 2.487.667 2.073-.587 4.069-2.778 5.779-4.033 2.047-1.496 4.249-2.698 6.374-4.034 8.499-5.315 17.49-9.803 25.885-15.332 4.586-3.019 8.836-6.572 13.733-9.029-.7 2.992-1.892 6.01-1.684 9.135.077 1.256.44 2.752 1.399 3.633 1.166 1.095 2.461.401 3.602-.374 2.409-1.656 3.99-4.087 5.778-6.357 2.124-2.698 3.757-5.583 5.337-8.655.363.534.078 1.443.104 2.057.012.764.198 1.515.544 2.19.881 1.763 2.565 2.191 4.094.989 2.928-2.324 4.638-6.465 6.219-9.777.907 1.71 2.176 3.9 4.327 2.671 1.788-1.015 2.824-3.285 3.369-5.209 1.736-5.769 1.243-11.486 1.476-17.229zM206.938 80.893c-.207-.508-.285-.427.078-.908.311.294.078.534-.078.908zm8.991 30.746c-.57-1.683-.207-3.5-.57-5.209-.155-.775-.414-1.549-.492-2.351-.052-.347-.337-1.95-.13-2.217-.647-.401-.647-.694-.803-1.496.233-.24.207-.454-.078-.64a7.267 7.267 0 00-.57-.695c.829.4.337-.642.259-1.256a8.807 8.807 0 00-.259-1.442c-.181-.561-.622-.855.259-.855-.285-.347-.725-.695-.881-1.122-.207-.614.13-1.39-.285-1.923-.233-.294-1.477-.401-1.243-1.069.103-.32.596-.08.751-.32.596-.909-1.192-1.282-1.27-1.656-.103-.508.545-.615.571-1.069.025-.454-.648-1.202-.83-1.603-.259.054-.518.454-.803.267-.052-.026.026-1.602-.026-1.816-.052-.214-.181-.748-.233-.855-.181-.4-.7-.587-.803-1.068-.052-.294 1.036-.722-.208-.722.441-.8-.362-1.282-.673-1.976-.389-.882-.596-1.843-.985-2.725a15.013 15.013 0 00-1.347-2.457c-.493-.695-.7-1.363-1.114-2.084-.078-.053-.156-.133-.234-.187-.336.054-.44-.107-.311-.454-.259-.374-.44-.801-.673-1.202-.259-.454-.596-.855-.881-1.309-.363-.614-.467-1.282-.855-1.897-.493-.747-1.037-1.388-1.503-2.163-.57-.962-1.192-1.576-1.918-2.324-.336-.347-.388-1.256-.803-1.763-.466-.561-.907-.695-1.218-1.416-.414-.935-1.01-1.389-1.606-2.19-.492-.668-.726-1.443-1.27-2.084-.466-.56-.984-1.068-1.477-1.602-.622-.668-1.088-1.47-1.71-2.11.104.08-.57-.455-.518-.428a1.529 1.529 0 00-.544-.107c-.985-.588-2.203-2.751-3.654-1.603-.777.615-.388 1.71.13 2.297.233.268 1.425 1.523 1.684.989.285.4 1.14 2.377 1.866 1.816-.078.668.311.454.57.909.155.293.077.454.207.908.337 1.282 1.581 2.564 2.254 3.686 1.685 2.805 3.524 5.476 5.183 8.28 1.606 2.672 3.394 5.21 4.923 7.934 1.736 3.099 3.912 6.01 5.234 9.323.052.107.414.294.492.454.155.294.13.801.233 1.122a12.83 12.83 0 001.581 3.232c.57.828.622 1.977 1.01 2.938.544 1.39 1.14 2.752 1.685 4.114a62.305 62.305 0 011.995 6.464c.382 1.445.651 2.919.803 4.408.104 1.389.13 2.831.622 4.14.311-.454.699-1.149.466-1.816z" fill="#1e1c26"/><path d="M24.42 141.314c-.597-.134-1.167-.294-1.296-1.015-.078.347-.182.668-.26 1.015.726.16 1.477.347 2.203.507a.816.816 0 00-.256-.346.78.78 0 00-.392-.161zM26.026 24.423c.045-.201.105-.397.181-.588.052.187.285.588.156.775-.182.213-.363.107-.337-.187zm2.954-5.77c.207.08.622.107.88.187-.647.56-.75.4-1.58.32-.026-.56.181-.747.7-.507zm-5.52 14.13h.26a7.21 7.21 0 00-.026-.747c.855.187.389-1.363.104-1.683.855.026 1.27-2.725 1.528-3.26.233-.48.518-.667.674-1.228.143-.495.325-.978.544-1.442.492-1.095 1.166-2.084 1.037-3.366.414.962.803 0 1.062-.454.44-.748 1.503-1.683 1.606-2.565.104-.774-.466-.8-.13-1.522.338-.721.597-.641 1.193-.882.388-.16.466.027.725-.48.182-.321.104-.561.337-.829.089.071.199.109.311.107a1.97 1.97 0 00.363-.828c.12-.41.267-.812.44-1.202.208-.374.596-1.389.803-1.55.208-.186 1.426-.106 1.426-.08.492-.64-.415-1.308.855-1.148-.26-.48.621-1.095.88-1.362.648-.668.7-.989.83-1.817.078-.427-.389-.374.233-.48.26-.054.492.293.674.24.803-.214-.026-.16.181-.508.078-.106.415-.534.415-.534a1.41 1.41 0 01.155-.48c.15-.012.297-.039.44-.08.078-.161.13-.321.208-.482.57-.48 1.425-.72 1.814-1.255.259-.347.181-.695.518-1.042.31-.32.725-.08.803-.855.078-.961-.907-1.389-1.321-.427-1.114-1.389-5.727 3.74-6.245 4.408-2.306 2.911-4.586 5.903-6.478 9.135a55.05 55.05 0 00-4.56 9.91 38.185 38.185 0 00-1.27 5.076c-.13.587-.984 3.152-.622 3.74.104 0 .156-.027.234-.027zM205.694 104.292c.389-.267.389-.267.467-.774-.519.106-.519.106-.467.774zM13.226 138.644c.13.267.311.347.57.187.104.187-.907-.935-.57-.187z" fill="#1e1c26"/><path d="M30.82 16.115c-.622 1.229.155.348.103.748.052-.267.156-.64-.103-.748zM130.111 35.242c.259 2.217 3.213 1.175 3.861-.16.492-.962 1.684-4.835.389-5.637-.959-.614-1.166 2.004-1.425 2.565-.389.961-.726.294-1.607.534-.959.267-1.321 1.763-1.218 2.698zM126.898 31.18c1.062.24 2.073.107 2.824-.748.415-.48.959-1.416.208-1.87-.674-.427-1.451.561-2.151.347-.959-.267-.466-1.335-.803-2.056-1.192.747-1.866 3.926-.078 4.327zM127.987 36.765c-1.011 0-1.011 1.282-.493 1.843.519.534 1.788 1.068 2.462.64 1.373-.8-1.14-2.403-1.969-2.483zM69.09 87.81c.208.108.855.669 1.115.401l-1.14-1.175c-.182.24-.337.588.025.775zM64.322 31.501l-.31.24c.362.32.362.401.725.107a1.704 1.704 0 00-.415-.347zM132.91 104.933c-.208-.374-.596.321-.856.427-.414.187-.777-.801-.647.374-.959-.454-1.529.588-2.151 1.122-.881.775-1.943 1.176-2.513 2.244 2.746.668 5.726-1.763 7.773-3.366.337-.267 1.995-1.576.881-1.709-.466-.027-2.151 1.549-2.487.908zM132.106 102.662c.545-.428-.621-.481-.803-.508.026.348.026.695.052 1.042.259-.187.492-.347.751-.534zM130.085 104.104c.156-.107.596-.427.311-.667a1.153 1.153 0 00-.342.343 1.207 1.207 0 00-.176.458.552.552 0 00.207-.134zM85.803 76.057a.603.603 0 00-.355.243.637.637 0 00-.111.425.597.597 0 00.357-.242.63.63 0 00.11-.426z" fill="#1e1c26"/></g><defs><clipPath id="clip0"><path d="M0 0h216v174H0z" fill="#fff"/></clipPath></defs></svg>