<svg width="216" height="174" viewBox="0 0 216 174" fill="none" xmlns="http://www.w3.org/2000/svg">
<g clip-path="url(#clip0)">
<path fill-rule="evenodd" clip-rule="evenodd" d="M53.958 96.7325C55.1758 106.242 56.4023 115.751 57.6374 125.261L58.622 132.927C58.7516 133.889 58.622 135.812 59.1143 136.667C59.2957 136.961 59.7362 137.121 60.0471 137.308C61.1613 137.923 62.3014 138.564 63.4156 139.178C72.8991 144.44 82.3912 149.694 91.8919 154.938C101.013 159.987 110.125 165.026 119.228 170.057C120.161 170.591 121.69 171.927 122.7 171.58C123.659 171.233 124.644 170.404 125.525 169.87L130.577 166.825C140.786 160.655 150.987 154.493 161.178 148.34C165.376 145.803 169.599 143.265 173.797 140.701C174.937 140.006 176.103 139.312 177.243 138.617C177.839 138.243 177.917 138.27 178.15 137.655C179.031 135.358 179.446 132.714 180.068 130.31C180.767 127.665 181.441 125.021 182.14 122.403C182.451 121.227 182.296 121.067 181.804 119.945C180.819 117.701 179.808 115.431 178.824 113.187C176.621 108.192 174.41 103.197 172.191 98.2016C171.31 96.1715 169.159 94.7558 167.604 93.2866L143.559 70.2073C142.937 69.6197 142.341 69.032 141.719 68.4443C141.615 71.9703 140.942 75.7635 141.926 79.1559C143.559 84.7387 145.165 90.3215 146.798 95.9044C147.575 98.6023 148.378 101.3 149.156 103.998C149.311 104.506 150.192 106.482 149.959 106.936C149.829 107.177 148.715 107.417 148.456 107.524C147.42 107.925 146.357 108.352 145.321 108.753C142.419 109.902 139.491 111.023 136.589 112.172C133.972 113.187 131.355 114.229 128.738 115.244C127.857 115.591 126.82 116.232 125.861 116.179C125.032 116.125 124.074 115.698 123.27 115.484C121.845 115.11 120.42 114.736 118.995 114.336L110.6 112.092C107.439 111.264 104.796 108.806 102.101 106.99C97.4628 103.864 92.8334 100.739 88.2125 97.614C87.1502 96.8927 87.1502 96.4921 86.7356 95.1832C85.7769 92.2448 84.8441 89.3065 83.8854 86.3682C83.3672 84.7921 82.7453 83.2161 82.3825 81.6134C81.7607 78.9689 81.372 76.2176 80.8797 73.5464C80.7242 72.745 80.5688 71.9169 80.4392 71.1155C78.4959 71.9169 76.5525 72.745 74.6092 73.5464C74.3242 73.6532 72.9509 74.0272 72.8472 74.2943C72.7695 74.4813 73.1841 75.3093 73.2359 75.4696L78.0554 90.2147C78.5736 91.764 79.0659 93.3133 79.5841 94.8626C78.3663 92.9126 77.1744 90.9359 75.9566 88.9859C74.9979 92.2715 74.0651 95.5838 73.1063 98.8694C70.8521 96.1982 68.6237 93.527 66.3694 90.8558L64.0374 98.8694C61.6277 95.5838 59.1921 92.2715 56.7823 88.9859C56.4973 90.6955 56.2123 92.4318 55.9273 94.1414C55.8495 94.6489 55.8495 96.1448 55.5127 96.5722C55.2536 96.8927 54.4762 96.7325 53.958 96.7325Z" fill="#7166ED"/>
<path fill-rule="evenodd" clip-rule="evenodd" d="M207.067 117.273C206.938 121.761 207.015 127.557 204.658 131.484C204.269 132.125 202.973 134.102 202.818 132.365C202.688 130.656 203.077 128.973 202.688 127.237C202.481 126.302 201.755 124.298 200.512 125.126C199.89 125.554 199.708 126.596 199.475 127.263C199.113 128.252 198.698 129.213 198.309 130.175C196.962 133.567 195.563 137.628 192.583 139.871C192.972 136.933 194.034 133.808 193.334 130.843C193.101 129.828 192.35 127.985 191.08 128.572C189.836 129.16 189.033 131.724 188.437 132.873C186.649 136.345 184.835 139.765 182.84 143.104C181.865 144.774 180.718 146.333 179.42 147.752C178.591 148.66 177.554 150.182 176.259 150.316C176.259 147.752 177.088 145.267 177.814 142.863C178.617 140.272 179.342 137.654 180.146 135.037C180.819 132.766 181.389 130.549 181.856 128.225C182.037 127.263 182.193 126.275 182.996 125.661C183.695 125.1 184.835 124.833 185.613 124.432C187.732 123.369 189.791 122.182 191.78 120.879C192.583 120.345 193.257 119.624 194.086 119.143C195.025 118.63 195.934 118.059 196.806 117.433C200.589 114.495 204.01 110.862 206.29 106.561C206.653 108.298 207.145 109.981 207.223 111.77C207.223 113.613 207.119 115.457 207.067 117.273ZM175.922 137.841C175.326 136.8 174.393 137.227 173.59 137.735C172.32 138.536 171.077 139.311 169.807 140.085C167.216 141.661 164.702 143.344 162.189 145.027C157.059 148.446 151.747 151.251 146.357 154.136C141.123 156.941 136.122 160.28 131.225 163.645C130.059 164.447 128.867 165.275 127.753 166.156C126.743 166.931 125.939 168.026 124.903 168.721C123.815 169.442 123.037 168.854 122.001 168.32C120.679 167.652 119.306 167.091 117.959 166.503C112.543 164.073 107.102 161.562 101.816 158.81C96.5821 156.086 91.6071 152.934 86.5804 149.782C84.1965 148.286 81.8386 146.71 79.4807 145.16C76.9673 143.504 74.3762 142.276 71.7333 140.887C70.5673 140.272 69.5308 139.417 68.3389 138.856C67.0693 138.269 65.7478 137.841 64.6336 136.987C64.1154 136.613 63.7008 136.158 63.1308 135.865C62.6644 135.651 62.1202 135.598 61.6538 135.357C60.6951 134.876 60.436 133.915 60.2546 132.9C59.0627 126.409 58.4409 119.731 57.7413 113.133C57.3526 109.446 56.9121 105.76 56.3939 102.074C56.1607 100.418 56.6271 99.1355 56.8862 97.5061C57.1712 95.6095 57.3008 93.713 57.508 91.8164C58.4408 93.6061 59.27 95.5027 60.4619 97.1321C61.3429 98.3342 62.8457 100.044 64.4781 100.017C66.9915 99.9636 66.8879 95.5027 66.9915 93.7397C68.1316 94.8082 68.4944 96.5177 69.4531 97.7465C70.3341 98.8684 71.5001 100.257 72.8475 100.765C75.6718 101.833 75.3867 96.4376 75.2313 94.915C75.1535 94.1404 74.739 92.9383 75.7236 93.2856C76.6305 93.6061 77.5374 94.9417 78.3147 95.5561C79.6362 96.6246 81.1131 97.4794 82.4605 98.4944C84.1447 99.7499 85.9844 100.658 87.7205 101.807C88.8087 102.528 89.9747 102.688 91.1666 103.249C92.9027 104.024 94.4055 105.199 96.0639 106.161C99.3766 108.072 102.866 109.638 106.48 110.835C107.62 111.209 109.175 112.224 110.03 111.183C110.574 110.542 110.911 109.553 111.377 108.805C111.947 107.897 112.569 106.989 113.217 106.107C115.467 102.965 118 100.049 120.783 97.3992C124.024 94.31 127.577 91.5876 131.381 89.2788C133.013 88.2904 139.828 83.8829 141.331 86.9815C140.113 86.9014 139.025 87.3555 137.988 87.9432C137.729 88.0767 136.408 89.0651 136.718 88.2103C136.33 88.2904 135.993 88.7979 135.708 89.0384C135.124 89.4765 134.509 89.8693 133.868 90.2137C133.298 90.5342 132.573 90.6144 132.054 91.015C131.873 91.1486 131.744 91.389 131.562 91.5493H131.044C130.966 91.8431 130.888 92.1369 130.811 92.4575C130.526 91.4691 130.085 92.7513 129.593 93.1787C129.246 93.4422 128.872 93.6661 128.479 93.8465C128.22 93.9534 128.168 93.6862 127.935 93.8999C127.701 94.0869 127.572 94.5143 127.313 94.728C126.993 95.001 126.655 95.2509 126.302 95.476C125.654 95.9568 124.981 96.3307 124.359 96.7581C123.478 97.3725 123.037 98.3876 122.182 99.0287C121.794 99.3225 121.172 99.3492 120.939 99.5629C120.394 100.044 120.576 100.765 119.565 100.792C119.663 100.932 119.717 101.1 119.721 101.272C119.479 101.233 119.254 101.121 119.073 100.952C119.125 101.994 118.114 102.368 117.518 103.009C117.132 103.411 116.792 103.86 116.508 104.344C116.447 104.563 116.404 104.786 116.378 105.012C116.275 105.066 115.73 104.558 115.782 104.585C115.627 105.546 114.72 106.455 114.331 107.336C114.124 107.817 113.917 108.565 113.502 108.885C113.398 108.966 113.036 108.885 112.777 109.179C112.541 109.464 112.357 109.789 112.232 110.141C112.181 110.355 112.232 110.862 112.155 110.996C111.999 111.209 111.766 110.996 111.533 111.156C111.092 111.45 111.092 111.931 110.47 111.984C110.911 113.079 113.528 113.4 114.461 113.72C117.156 114.602 119.954 115.457 122.467 116.792C123.115 117.139 123.737 117.433 123.841 118.208C123.996 119.303 123.452 120.772 123.348 121.894C123.085 124.94 122.99 127.999 123.063 131.056C123.115 133.915 123.219 136.826 123.348 139.684C123.478 142.356 123.996 144.947 124.281 147.591C124.359 148.312 124.307 151.571 125.525 151.411C126.535 151.278 125.888 149.034 125.888 148.393C125.836 146.977 126.147 145.534 126.121 144.092C126.121 143.397 126.406 142.81 126.432 142.169C126.458 141.528 126.147 140.993 126.25 140.326C126.328 139.684 128.194 135.972 126.406 136.399C126.509 135.865 126.613 135.33 126.743 134.796C126.926 134.977 127.083 135.184 127.209 135.411C127.365 134.262 127.313 133.14 127.416 131.991C127.468 131.484 127.675 130.896 127.598 130.389C127.61 130.172 127.584 129.955 127.52 129.748C127.467 129.689 127.403 129.642 127.332 129.609C127.26 129.577 127.183 129.561 127.105 129.561C127.056 129.459 127.035 129.346 127.044 129.233C127.053 129.119 127.092 129.011 127.157 128.92C127.179 128.827 127.228 128.744 127.298 128.682C127.367 128.62 127.454 128.581 127.546 128.572C127.909 128.519 127.96 128.305 127.675 127.931C127.822 127.274 127.839 126.592 127.727 125.928C127.65 125.287 127.96 124.058 127.624 123.47C127.235 122.802 127.028 123.444 126.976 122.535C126.941 122.267 126.959 121.995 127.028 121.734C127.105 121.52 127.365 121.6 127.39 121.52C127.598 121.013 127.624 119.998 126.846 120.078C126.872 119.704 126.898 119.33 126.95 118.983C127.52 119.65 127.313 119.089 127.624 118.715C128.038 118.208 128.479 118.128 129.075 117.941C130.707 117.407 132.262 116.632 133.842 115.991C137.211 114.629 140.631 113.426 143.896 111.85C150.762 108.485 157.499 104.852 164.392 101.566C163.899 100.631 164.21 100.578 164.573 99.6965C165.065 100.044 164.962 99.8033 165.298 99.7766C165.273 99.4828 165.35 99.4026 165.558 99.5095C165.724 99.5681 165.901 99.5864 166.076 99.5629C166.516 99.6431 166.853 99.8835 167.242 99.9636C167.366 100.061 167.506 100.133 167.656 100.177C167.795 100.144 167.921 100.069 168.019 99.9636C168.641 100.097 168.848 100.578 168.9 101.272C168.9 101.406 168.537 101.513 168.641 101.7C168.822 101.994 169.315 101.914 169.6 101.967C169.548 102.261 169.47 102.555 169.418 102.875C170.662 102.288 170.325 104.131 170.714 104.718C170.818 104.879 171.051 104.745 171.18 104.959C171.336 105.226 171.284 105.573 171.413 105.84C171.724 106.401 172.009 106.348 172.32 106.989C173.901 110.408 176 113.613 177.529 117.113C178.254 118.769 178.902 120.478 179.653 122.135C180.353 123.657 180.742 124.939 180.249 126.622C179.109 130.469 177.865 134.395 176.363 138.135C176.271 138.13 176.182 138.099 176.105 138.048C176.028 137.997 175.965 137.925 175.922 137.841ZM95.7788 166.637L95.4679 167.198C95.2347 165.782 95.8566 166.45 95.7788 166.637ZM90.7262 163.966C90.3893 163.859 90.5189 163.271 90.5448 163.031C90.7666 163.314 90.9741 163.608 91.1666 163.912C91.0214 163.942 90.8741 163.96 90.7262 163.966ZM76.8378 158.517C77.2005 158.303 77.4596 158.169 77.8742 157.929C77.4337 158.757 77.4337 158.757 76.8378 158.517ZM54.9688 84.5507C54.4246 85.9397 56.1088 94.6212 54.5283 94.8883C54.2951 94.1404 54.2692 92.0301 53.3364 91.7897C52.1704 91.4691 52.2999 93.6328 52.1444 94.3006C49.7606 92.5911 48.6983 89.3055 47.5841 86.6877C46.1331 83.3487 44.993 79.9028 43.9047 76.4302C42.9719 73.4652 42.1946 70.4467 41.2618 67.4817C40.6658 65.6118 40.0439 63.7687 39.6294 61.8454C39.5516 61.418 39.2148 60.3763 39.4998 59.9756C39.9144 59.3879 41.4172 60.0557 41.9095 60.216C45.0707 61.2043 48.3355 61.605 51.5744 62.1927C55.176 62.8338 58.7777 63.4749 62.4053 63.9557C63.3121 64.0892 64.219 64.1961 65.1259 64.3029C65.7219 64.3831 66.6029 64.3029 67.1729 64.5701C68.313 65.131 68.5462 67.2146 68.9608 68.3098C70.5154 72.3967 72.3811 76.3234 74.0135 80.3569C75.4904 83.9898 76.6305 87.863 78.7552 91.1753C77.1746 90.4541 75.1535 86.6075 73.3657 88.8246C72.5883 89.7863 72.7956 91.0418 72.8475 92.1904C72.9252 93.8465 72.9511 95.5027 72.9511 97.1588C71.215 96.7047 70.049 94.6479 69.1162 93.2054C67.9134 91.3473 67.0364 89.2859 66.5251 87.1151C66.2919 86.1267 65.6442 86.1 65.0741 85.5123C64.7114 85.1384 64.53 84.6309 64.0117 85.1651C63.364 85.8596 63.8045 87.7562 63.9081 88.5842C64.1672 90.5075 65.0482 93.4993 64.1931 95.3157C63.0271 97.7732 59.9437 91.6027 59.5809 90.6945C59.4514 90.2404 56.1607 81.559 54.9688 84.5507ZM52.8181 42.4791C53.0254 42.5059 53.2068 42.5326 53.4141 42.5593C53.2586 42.6928 52.9218 43.2004 52.6627 43.0668C52.7145 42.9065 52.7663 42.6928 52.8181 42.4791ZM63.1308 40.2086C63.0789 40.2888 63.0012 40.3422 62.9494 40.4223C62.6644 40.0751 62.768 39.5408 62.768 39.1134C62.9385 39.2279 63.0668 39.398 63.1326 39.5965C63.1983 39.795 63.1977 40.0105 63.1308 40.2086ZM63.9599 44.2154V45.3908C63.2085 45.0435 63.1826 44.8565 63.9599 44.2154ZM64.9186 45.7113C64.3745 45.551 64.3227 45.4442 64.4004 44.5627C64.6077 45.0435 64.7632 45.3641 64.9186 45.7113ZM68.028 54.4195C67.7948 55.0338 66.4733 53.5914 66.5251 53.164C66.577 52.7633 66.7842 52.6297 67.0693 52.8969C67.1729 52.977 67.0174 53.2975 67.0952 53.4044C67.2766 53.8051 67.717 54.1256 68.028 54.4195ZM68.0539 58.0523C67.717 58.9071 67.1211 57.5715 68.0021 57.5181C68.0462 57.6923 68.0637 57.8725 68.0539 58.0523ZM67.4061 56.69C67.2766 56.5183 67.1555 56.34 67.0434 56.1557C67.4838 56.2359 67.8466 56.9304 68.313 56.4763C68.2353 57.1708 67.7689 57.1708 67.4061 56.69ZM38.4374 45.5777C37.7119 44.7764 42.4018 44.1887 42.9719 44.0552C47.0414 43.0204 51.0064 41.5893 54.8133 39.7812C56.653 38.9264 58.4668 38.0716 60.2546 37.11C61.032 36.7093 62.0943 36.3621 62.7421 35.7477C63.2085 35.3203 63.1826 34.973 63.7786 34.7059C64.2968 34.4922 64.3227 34.7059 64.5559 34.3052C64.6854 34.0648 64.8668 33.1833 64.7632 32.9162C64.53 32.195 64.219 32.7826 63.7526 32.3018C63.4158 31.9546 63.4935 30.9395 63.5972 30.5388C63.7195 30.7301 63.791 30.9512 63.8045 31.1799C64.2968 30.9128 64.1154 30.058 64.6595 29.8977C65.2296 29.7375 65.1778 30.2183 65.3332 30.6991C65.7737 30.0313 65.4109 29.4703 65.1777 28.8293C66.3697 28.5889 67.6652 28.3752 68.8571 28.7758C69.7122 29.0697 70.4636 29.8176 71.3705 29.9512C72.2515 30.0847 72.4329 29.6573 73.0807 29.2032C73.6248 28.856 74.0653 29.2567 74.3503 28.9895C74.1689 29.8977 72.7179 29.7909 72.8993 30.9128C72.977 31.4203 73.5989 31.9012 73.8839 32.3018C74.2289 32.8092 74.5159 33.3559 74.739 33.9313C75.6718 36.1484 76.0604 38.686 76.4491 41.0634C77.4078 46.8866 77.5374 52.8167 78.4443 58.6667C78.8848 61.4447 79.2993 64.2228 79.5325 67.0543C79.5844 67.7488 79.9989 69.3515 79.6621 70.0193C79.3771 70.5803 78.7293 70.5803 78.1592 70.7406C77.078 71.023 76.0138 71.3708 74.9722 71.7823C74.0135 72.1563 73.7543 72.37 73.1325 71.4618C72.5365 70.5803 72.2515 69.5118 71.8369 68.5502C71.2928 67.3214 70.645 66.1194 70.0231 64.9173C71.241 64.9173 71.9406 64.2495 71.9146 62.9673C71.8887 61.5516 70.7487 61.2043 70.2823 60.0557C69.8418 60.6701 69.7899 60.6701 69.479 60.1091C69.1162 59.4413 68.8571 58.2393 68.6239 57.4913C68.7794 57.6783 68.9349 57.8386 69.1162 58.0256C69.5308 57.4379 68.883 56.5297 68.6758 55.9955C68.3389 55.1674 68.2871 54.2592 67.9762 53.4044C67.7948 52.9503 67.4061 52.5763 67.3025 52.1222C67.2506 51.8017 67.4838 51.5078 67.432 51.1873C67.3284 50.6263 66.7065 50.012 66.5251 49.451C66.2401 48.5695 65.9033 47.7949 65.5405 46.9401C65.0482 45.7647 65.1518 44.5627 65.0741 43.3072C64.9705 42.025 64.5818 40.7963 64.4522 39.5141C64.3486 38.6326 64.6595 37.5107 64.0117 36.8162C63.934 37.9915 64.2709 37.9648 63.1826 38.1785C61.9648 38.4189 61.0838 39.3538 59.9178 39.6477C59.6846 39.7011 59.5032 38.6326 59.6069 40.1018C59.0627 39.6744 57.8708 40.2086 58.3113 40.449C57.9745 40.823 57.3267 40.5559 57.1971 41.1168C56.057 39.9682 54.2432 43.8415 52.8959 41.8381C52.6627 43.2004 51.704 44.0284 50.4084 44.1887C49.7606 44.2689 49.3719 44.5093 48.776 44.6962C48.6464 44.7497 48.6205 44.9099 48.4651 44.9634C48.2578 45.0435 47.9468 44.8298 47.7914 44.8565C47.4804 44.9367 47.1436 45.3641 46.7031 45.4442C46.1965 45.5243 45.681 45.5243 45.1743 45.4442C44.5525 45.3641 44.2674 45.2839 43.6715 45.4976C43.1274 45.6846 42.5314 46.2188 42.0391 45.6312C41.2877 46.9668 39.3962 46.6195 38.4374 45.5777ZM75.3349 28.4019C74.739 28.3217 75.1535 27.7875 75.4386 27.6272C76.19 27.1998 75.9827 28.482 75.3349 28.4019ZM41.9095 33.5039C45.4594 28.2416 51.5226 24.6087 56.8603 21.5636C59.7623 19.9074 62.7421 18.278 65.7996 16.9157C67.3284 16.2479 68.8571 15.5801 70.4118 14.9924C71.241 14.6718 72.0701 14.378 72.9252 14.1109C73.1584 14.0308 73.573 13.7903 73.8321 13.8171C73.7803 13.8171 74.428 14.004 74.2985 14.0575C74.7131 13.8705 74.9203 13.3897 75.4127 13.176C76.0036 12.9616 76.6259 12.8532 77.2523 12.8554C77.7706 12.8287 78.237 13.0691 78.7293 13.0691C79.0661 13.0691 79.3252 12.9088 79.6621 12.9088C79.8176 12.9088 79.8176 13.1493 79.9212 13.176C79.973 13.176 80.3876 13.0157 80.4135 13.0157C80.569 13.1225 80.7244 13.5232 80.854 13.6835C81.3017 14.1249 81.8302 14.47 82.4087 14.6986C83.0824 14.9924 84.7148 15.2862 83.9374 16.3814C84.4816 16.3013 84.7148 16.8088 84.0411 16.9157C83.6783 16.9958 83.5229 16.6485 83.2637 16.4081C82.6419 15.8739 81.139 15.0992 80.2321 15.1259C79.7398 15.1527 79.3252 15.5533 78.8588 15.6869C78.3924 15.8205 78.1852 15.6068 77.7706 15.6335C77.3042 15.6869 76.9932 16.0876 76.5527 16.1677C76.1382 16.2479 75.905 15.954 75.5163 15.954C75.0758 15.9807 74.6353 16.3814 74.2207 16.515C73.5836 16.6846 72.9666 16.9265 72.3811 17.2362C71.1114 17.9307 69.6604 18.1711 68.3389 18.7588C67.2766 19.2396 66.0846 19.48 65.1 19.9876C64.0117 20.5752 62.9235 21.1362 61.8611 21.7773C61.0838 22.2314 59.5291 22.3916 58.674 22.2848C58.674 23.8875 57.8967 22.7656 57.1194 23.4601C57.3012 23.6251 57.5124 23.7521 57.7413 23.8341C56.9121 24.1814 56.1348 24.6087 55.3056 25.0094C54.4764 25.4101 53.5696 25.517 53.0254 26.2916C52.5072 27.0128 52.6886 26.6389 51.9371 26.906C51.6003 27.0395 51.2894 27.4402 51.0303 27.7073C50.5898 28.1615 50.512 28.856 50.2529 27.921C50.1752 28.0279 49.8902 28.7491 49.8383 28.7758C49.5274 28.4286 49.4756 28.8293 49.3201 28.9895C49.3979 29.3101 49.2683 29.4971 48.9315 29.6039L48.3873 30.0046C47.7395 30.4854 46.8845 30.8861 46.444 31.5806C46.3636 31.5409 46.2923 31.484 46.2348 31.4138C46.1773 31.3436 46.1349 31.2616 46.1104 31.1732C46.0859 31.0849 46.0799 30.9922 46.0927 30.9012C46.1056 30.8103 46.137 30.7232 46.1849 30.6457C45.5371 31.2601 44.7598 31.9011 44.5784 32.8628C44.4936 32.7853 44.3974 32.7222 44.2934 32.6758C44.0342 32.8628 44.3711 33.397 44.5525 33.5306C45.278 33.2368 44.3711 33.3436 44.8634 33.397C45.0053 33.4573 45.1529 33.5021 45.3039 33.5306C45.7455 33.5313 46.1868 33.5045 46.6254 33.4505C47.6162 33.2674 48.5943 33.0176 49.5533 32.7025C50.5898 32.382 51.6521 32.0614 52.6627 31.6607C53.4918 31.3402 54.321 30.9662 55.1501 30.619C55.487 30.4854 55.8238 30.3251 56.1348 30.1916C56.7566 29.9245 57.0935 29.4703 57.0157 30.245C57.508 30.1649 57.9485 29.4169 58.3372 29.1231C58.8763 28.7073 59.4812 28.3909 60.1251 28.1882C60.3554 28.0854 60.6005 28.0222 60.8506 28.0012C60.9801 28.0012 61.0579 28.3752 61.1356 28.3752C61.7057 28.2416 61.4465 27.8943 61.7057 27.4402C62.2757 26.3985 63.8045 25.8375 64.7373 25.2498C65.3332 24.8759 65.7478 24.3683 66.2919 23.9677C66.5029 23.8094 66.7399 23.6918 66.9915 23.6204C67.1988 23.567 67.4579 24.0478 67.5875 23.567C67.1596 23.3423 66.7182 23.146 66.266 22.9793C65.9292 22.8725 66.3438 22.5252 65.8255 22.7389C65.6182 22.819 65.5405 23.2464 65.4628 23.4067C64.8927 22.8725 63.2603 23.4334 62.5866 23.6471C62.5348 23.6738 62.3275 23.5403 62.2239 23.567C61.8352 23.5937 61.5502 24.1546 61.2911 24.3683C60.5915 24.9827 59.8401 25.2498 59.0109 25.6238C59.2441 24.3416 60.9024 23.8341 61.8611 23.3266C63.2862 22.6053 64.6077 21.6971 66.1624 21.3232C67.1988 21.056 68.5721 20.8691 69.0126 22.0978C69.2717 22.8457 69.3235 24.6889 68.4166 25.0361C68.313 24.6889 68.6239 24.395 68.7276 24.1012C67.8207 24.4485 67.6652 25.5704 66.9915 26.158C66.707 26.3502 66.4679 26.6058 66.2919 26.906C66.1359 27.2716 65.8958 27.5925 65.5923 27.8409C64.8927 26.2916 64.9964 28.4019 64.6336 28.669C64.7891 28.5621 64.0377 28.8827 64.1413 28.8293C64.1154 28.8293 63.7785 28.3217 63.5713 28.3217C63.2085 28.3484 63.2603 28.7758 63.0789 28.9895C62.4571 29.7108 61.6797 30.1916 60.6951 30.0847C60.6692 30.5923 60.8247 31.2066 60.151 31.2601L60.0733 30.1114C59.7105 30.5121 59.2182 30.8594 58.9073 31.3135C58.5704 31.821 58.5963 32.1416 58.0263 32.4888C57.4303 32.8361 56.1607 33.5573 55.4611 33.6107C55.5061 33.5614 55.5396 33.5021 55.5591 33.4375C55.5786 33.3728 55.5835 33.3044 55.5736 33.2374C55.5636 33.1705 55.5389 33.1067 55.5015 33.0511C55.464 32.9954 55.4148 32.9493 55.3574 32.9162C54.9947 33.2902 54.4764 33.3436 54.0878 33.6642C55.4092 34.2251 53.0772 34.1984 52.7663 34.2785C52.559 34.332 52.4036 34.5189 52.1963 34.5456C51.9371 34.5991 51.8853 34.3052 51.678 34.4121C51.3412 34.5456 51.4708 34.9196 51.1339 35.1066C50.8748 35.2402 50.4602 35.2402 50.1752 35.3737C49.5015 35.6943 48.0505 36.3621 47.5841 35.534C47.3509 36.9497 44.9671 36.095 44.112 35.9881C42.8682 35.7477 40.7954 35.16 41.9095 33.5039ZM46.9622 18.8924C46.9966 18.8563 47.0379 18.8282 47.0836 18.8098C47.1293 18.7915 47.1782 18.7833 47.2271 18.7858C47.2761 18.7883 47.324 18.8015 47.3676 18.8245C47.4113 18.8474 47.4497 18.8797 47.4804 18.9191C47.2472 17.6369 49.0869 16.9958 49.8902 16.4616C50.9525 15.7403 52.1963 14.3246 53.5955 14.4314C53.3623 14.6184 53.1291 14.8054 52.8959 14.9657C53.2327 15.0191 53.5696 15.0458 53.9064 15.0992C53.725 15.3931 53.5177 15.6869 53.3364 15.954C53.0254 14.191 51.393 16.4081 50.9266 16.7554C50.4434 17.0355 49.984 17.3572 49.5533 17.717C49.1387 18.1177 48.7501 18.8389 48.0764 18.465C48.0246 19.48 47.2213 19.2129 46.6772 19.7739C46.5995 19.4266 46.8067 19.1862 46.9622 18.8924ZM54.1655 13.8438C55.8497 13.2027 57.3008 12.0006 58.8813 11.1458C60.3842 10.3178 61.9389 9.59654 63.4676 8.82189C64.2449 8.42121 65.6701 7.43286 66.577 7.94039C67.7689 8.63491 66.1365 8.84861 65.696 9.08901C65.5405 8.02053 64.9705 8.98217 65.3073 9.56983C64.4004 9.16915 62.3793 10.7719 61.4984 11.1993C61.2911 11.3061 61.3947 11.3595 61.1615 11.4664C61.1097 11.4931 60.5397 11.6267 60.3583 11.6801C59.5291 11.9739 58.985 11.7335 58.6481 12.7753L58.4149 12.0541C57.8967 13.2561 56.342 13.7636 55.3315 14.4849C55.0724 14.6718 54.3469 15.3664 54.01 15.2328C53.5696 15.0458 53.7509 14.004 54.1655 13.8438ZM84.4816 17.4499C85.1812 17.5033 84.5075 17.8506 84.6889 18.0643C84.6629 18.0376 85.1034 18.4382 85.0516 18.3314C85.1293 18.465 85.3107 18.465 85.4144 18.7588C85.7512 19.7739 84.2743 20.8423 83.782 21.4033C82.8232 22.5252 82.2532 23.9409 81.2686 25.0361C80.8604 25.5143 80.331 25.8658 79.7398 26.0512C79.2993 26.1848 78.8329 26.0512 78.4443 26.4786C78.1074 26.8258 78.1852 27.0395 77.8224 27.2265C77.2005 27.5471 76.9155 27.28 76.2936 27.9745C75.7754 26.4786 77.2783 26.5053 78.0815 25.6772C79.1698 24.5286 80.3876 23.38 81.3981 22.1512C82.305 21.056 82.6678 20.1211 83.1083 18.7855C83.2378 18.3581 83.3933 17.4766 83.782 17.2095C84.4038 16.8088 84.0411 17.4232 84.4816 17.4499ZM87.9796 55.9955C89.8684 53.8078 92.1241 51.9891 94.6387 50.6263C95.5456 50.1722 96.8153 49.5579 97.7222 50.2791C98.6291 50.9736 98.4477 52.3626 98.059 53.3243C97.6963 53.1907 98.0331 51.8551 97.8517 51.5345C97.4631 50.8133 96.608 51.1873 96.012 51.4277C95.3423 51.681 94.7199 52.0515 94.1723 52.5229C93.965 52.7366 93.5246 52.9236 93.395 53.0571C93.1877 52.977 93.0582 53.0304 93.0322 53.2441C93.0537 53.3094 93.0624 53.3784 93.058 53.4471C93.0535 53.5159 93.036 53.583 93.0063 53.6448C92.9804 53.6982 92.6954 53.5112 92.6695 53.538C92.4881 53.6982 92.3326 53.8852 92.1513 54.0188C91.7872 54.2567 91.456 54.5442 91.1666 54.8736C90.5448 55.6749 89.7156 56.129 89.0937 56.877C88.9682 57.083 88.8557 57.2971 88.7569 57.5181C88.446 57.892 87.9796 58.2126 87.6168 58.6133C87.0005 59.2571 86.3331 59.8468 85.6217 60.3763C85.2785 60.6232 84.9802 60.9307 84.7407 61.2845C84.637 61.4447 84.5852 62.353 84.5852 62.353C83.8856 63.1543 84.0152 61.5516 84.067 61.3646C84.6629 59.2009 86.5804 57.5715 87.9796 55.9955ZM84.1447 70.5269C84.2225 70.8741 84.3002 71.1412 84.4038 71.4885C83.8338 71.0077 83.8338 71.0077 84.1447 70.5269ZM83.5488 71.6221L82.9269 72.2631C82.4605 71.7556 83.6265 71.5419 83.5488 71.6221ZM83.2378 63.1009C83.0305 64.0091 82.2273 65.1043 81.6832 65.8255C81.735 65.7454 81.2168 65.9057 81.1649 65.9324C80.9576 66.0392 81.45 66.8139 80.7504 66.4666C80.5172 66.6002 80.9836 67.1878 80.6467 67.4283C79.7139 65.2111 82.2791 63.2879 83.2637 61.6584C83.782 62.1125 83.3674 62.5934 83.2378 63.1009ZM77.1228 75.0679C77.8224 75.2549 78.1592 75.148 78.6256 74.4268C78.9107 73.9994 79.0143 73.2782 79.6362 73.8926L79.7398 73.0912C80.6467 73.4652 80.569 74.8542 80.9836 75.6289C81.1649 74.7474 81.6313 72.3166 83.0305 72.7173C84.6111 73.1446 81.9941 75.9494 81.735 76.6439C81.1908 75.7891 81.3981 76.5905 81.0095 76.6974C80.6467 76.8042 80.1026 76.5371 79.688 76.5638C78.3924 76.6439 77.2523 77.2316 76.0604 77.7391C75.7495 76.911 75.4645 76.083 75.1535 75.2282C75.8531 75.2816 77.3042 73.3583 77.4855 74.7741C76.9673 74.6939 76.8119 74.6939 76.5787 75.2015C76.7504 75.1223 76.9349 75.077 77.1228 75.0679ZM80.0248 85.9397C80.5077 85.9764 80.9921 85.9853 81.4759 85.9665C82.3828 85.6192 82.0459 84.5507 82.2532 83.7761C82.6419 84.1233 82.4346 84.7911 82.5382 85.2452C82.6678 85.7795 83.0824 86.2603 83.1083 86.848C83.186 88.1568 82.1496 87.863 81.3463 88.2904C80.6726 88.6644 80.5949 89.1185 80.0248 88.1301C79.8694 87.863 79.5325 87.1685 79.5584 86.8212C79.6103 86.5274 80.1285 86.2336 80.0248 85.9397ZM81.1131 91.6294L80.7504 91.202C81.8645 91.5493 81.2168 91.015 81.45 90.3205C82.305 90.9082 83.0046 91.4959 83.6524 90.3472L84.8184 95.1821C84.0411 95.3691 83.0305 94.1404 82.4864 93.713C82.1755 93.4726 80.4653 92.5109 81.5018 92.2438C81.3722 92.0301 81.2427 91.8431 81.1131 91.6294ZM88.7051 76.4837C88.0573 77.1247 87.4095 77.472 86.7099 77.9528C86.0881 78.3802 86.2953 78.8877 85.7771 79.3686C85.4144 79.6891 84.5852 80.0097 84.1447 80.2768C83.3674 80.7042 82.6678 80.811 81.8645 80.3035C82.0718 82.1199 80.8799 82.2535 79.3771 82.6274C78.6516 82.7877 78.237 83.0548 77.7188 82.387C77.356 81.9329 77.2264 81.0781 77.6669 80.6775C78.3665 80.0097 80.2321 80.2501 81.1131 79.8227C81.7868 79.5021 82.4864 77.7124 83.3156 78.3535C82.8751 77.6323 83.3933 77.4453 83.7561 76.9378C84.1706 76.3768 84.4297 75.7357 84.8443 75.1748C85.7333 74.0704 86.8141 73.1464 88.0314 72.4501C89.0419 71.8892 89.5602 72.2899 89.7156 73.4652C89.7934 74.0529 89.7934 74.9343 89.4824 75.4419C89.3788 75.6022 89.0419 75.6022 88.9383 75.7624C88.8087 76.0295 88.9642 76.2165 88.7051 76.4837ZM100.546 62.4331C101.35 63.0742 101.272 64.4365 101.402 65.3447C101.583 66.6536 101.453 67.9091 101.427 69.218C101.402 70.607 100.754 71.5152 100.443 72.7974C100.106 74.2398 99.6655 75.0145 98.8882 76.2165C99.7173 76.3501 98.4736 78.9412 98.2663 79.2617C98.0331 79.6357 96.2452 81.2918 97.0226 81.2918C96.608 81.8795 96.1416 82.4672 95.7011 83.0281C95.5456 83.2418 95.2347 83.3487 95.1051 83.4822C94.846 83.8028 94.8201 84.0966 94.6387 84.4439C94.3537 85.0048 94.2501 84.8445 93.8614 85.2719C93.6023 85.5658 93.4209 85.9397 93.1618 86.2069C92.3326 87.0884 92.229 86.3671 91.7367 85.6993C91.7033 85.7849 91.6507 85.861 91.5831 85.9214C91.5155 85.9818 91.4349 86.0247 91.348 86.0466C91.1926 85.2987 92.2031 84.524 92.6436 84.0699C93.3432 83.322 93.965 82.4672 94.5869 81.6658C95.9162 79.9068 97.0626 78.0088 98.0072 76.0028C99.0258 73.8408 99.7662 71.5509 100.21 69.1913C100.521 67.4015 100.832 64.3564 98.4995 63.9023C96.8153 63.5817 94.9497 64.6235 93.5764 65.4783C92.7213 65.9858 91.8922 66.52 91.063 67.1077C90.182 67.7488 89.4306 68.6303 88.4719 69.1378C88.9901 68.8707 87.28 69.6988 87.5391 69.4584C87.4095 69.5652 87.5132 69.9125 87.4354 70.046C87.2546 70.2582 87.0343 70.4308 86.7877 70.5536C86.3472 70.9008 85.6476 71.2481 85.4662 71.7823C82.6937 69.7522 88.1869 66.1461 89.612 65.2379C92.4622 63.4214 97.3076 59.8687 100.546 62.4331ZM108.009 42.6928C107.983 41.2237 109.149 39.247 109.926 38.0449C110.315 37.4573 110.911 37.484 111.144 36.7895C111.274 36.3888 111.092 35.9881 111.144 35.5874C111.225 35.0724 111.41 34.5808 111.688 34.145C114.046 29.9512 116.922 26.2649 119.98 22.6053C121.483 20.8156 122.908 18.9458 124.54 17.2362C125.214 16.5417 127.054 14.004 128.09 14.2444C128.634 14.378 128.971 15.2595 129.204 15.6869C129.614 16.4138 130.073 17.1101 130.578 17.7704C131.875 19.5577 133.451 21.1104 135.242 22.3649C136.356 23.1663 137.496 23.9142 138.61 24.7423C139.517 25.4101 140.89 26.2115 141.538 27.1464C142.186 28.108 141.227 28.9094 140.709 29.7108C139.906 30.9395 139.154 32.2217 138.351 33.4505C138.04 33.21 138.118 32.7292 137.884 32.4087C137.668 32.1778 137.413 31.9879 137.133 31.8477C136.615 31.5272 136.097 31.1265 135.63 31.6607C134.801 32.5957 135.941 34.8128 137.159 34.5724C137.314 35.5073 134.879 37.0299 134.257 37.5374C132.391 39.1134 130.474 40.4757 128.012 40.6093C127.005 40.6865 125.993 40.5594 125.033 40.2353C124.552 40.0888 124.109 39.8332 123.737 39.4874C123.322 39.06 123.219 38.4189 122.804 37.9915C122.441 37.6175 121.975 37.5641 121.612 37.1901C121.249 36.8162 121.094 36.2285 120.939 35.7477C120.654 34.8128 120.602 33.8244 120.343 32.8895C120.187 32.3285 120.058 31.5539 119.513 32.1148C118.762 32.9162 119.125 35.4004 119.332 36.3354C119.617 37.6977 120.265 38.7662 120.939 39.9415C121.69 41.197 121.949 42.3723 122.079 43.8415C122.342 46.5588 123.088 49.203 124.281 51.6414C124.773 52.6832 125.369 53.6448 125.913 54.6599C126.173 55.1407 126.717 56.7434 127.416 56.7434C128.505 56.7167 126.95 53.4578 126.743 52.8969C125.551 49.8517 124.411 46.6462 124.152 43.3339C125.862 43.788 127.727 44.2154 129.515 43.9216C128.375 46.5661 129.567 49.1839 129.411 51.9085C129.334 53.2708 129.282 54.5263 129.308 55.8886C129.334 57.0907 128.816 58.266 128.349 59.3612C127.442 61.4982 126.328 64.1427 124.67 65.7721C123.271 67.1344 121.405 67.2413 119.591 66.9207C115.445 66.1995 112.751 62.9139 111.015 59.2009C109.89 56.8042 109.055 54.2744 108.527 51.6681C107.905 48.7565 108.061 45.738 108.009 42.6928ZM113.373 22.4451C109.512 19.5602 115.109 16.3013 117.985 16.7554C118.658 16.8622 119.876 17.1561 119.824 18.0376C119.773 18.7855 118.581 19.5869 118.114 20.041C116.819 21.3232 115.471 24.0211 113.373 22.4451ZM141.434 86.3938C141.305 86.2603 140.216 86.5808 140.657 85.913C141.02 85.3788 142.004 86.0466 142.367 86.1802C142.056 86.3938 141.797 86.7144 141.434 86.3938ZM125.369 121.2C125.033 121.253 124.696 120.318 125.888 121.013C125.706 121.066 125.551 121.146 125.369 121.2ZM125.343 136.239C125.395 136.639 125.499 136.933 125.214 137.227C124.981 136.906 124.955 136.479 125.343 136.239ZM125.836 142.436C125.81 142.65 125.758 142.89 125.732 143.104C125.447 142.97 125.188 142.81 124.903 142.676L125.836 142.436ZM126.173 137.2C126.587 137.361 126.38 136.853 126.691 136.773C126.739 137.018 126.736 137.271 126.682 137.515C126.629 137.759 126.526 137.989 126.38 138.189C126.294 137.863 126.225 137.533 126.173 137.2ZM136.667 99.7232C136.097 99.6431 135.993 100.284 135.578 100.525C135.293 100.685 134.464 100.551 134.309 100.872C134.516 100.925 134.723 101.005 134.931 101.059C134.464 101.326 133.972 101.593 133.505 101.86C134.646 101.86 135.837 101.299 136.978 101.459C137.2 101.48 137.416 101.548 137.612 101.658C137.808 101.768 137.98 101.919 138.118 102.101C138.313 102.376 138.437 102.697 138.48 103.035C138.506 103.356 138.273 103.596 138.299 103.73C138.817 103.757 138.74 104.611 138.636 104.959C138.377 105.733 137.392 106.935 136.511 106.428C136.874 106.962 136.796 107.283 136.226 107.603C136.278 107.416 136.304 107.096 136.019 107.149C135.941 107.443 135.967 107.924 135.734 108.164C135.475 108.431 135.216 108.111 134.982 108.298C134.671 108.485 134.775 108.805 134.542 109.019C134.231 109.313 134.179 109.099 133.816 109.153C133.246 109.233 133.609 108.859 133.143 109.34C132.987 109.5 133.013 109.927 132.754 110.168C132.262 110.622 130.94 111.103 130.474 110.515C129.334 112.358 125.939 112.812 124.359 111.343C121.845 109.019 126.535 104.264 128.09 102.742C129.645 101.219 131.381 99.9369 133.143 98.6547C134.127 97.9335 135.164 97.2924 136.2 96.6513C136.848 96.2506 137.651 95.5294 138.455 95.6095C139.154 95.6629 139.776 96.2506 140.527 96.3575C141.072 96.4376 142.108 96.5712 141.434 97.3191C141.123 97.6664 139.854 98.254 139.439 98.3342C139.18 98.3876 138.921 98.2807 138.688 98.3342C138.273 98.4143 137.988 98.7883 137.522 98.7348C137.651 99.4828 137.392 99.83 136.667 99.7232ZM144.155 73.759C144.155 74.2933 143.196 74.1597 142.989 73.9727C142.652 73.6789 142.652 72.744 142.523 72.3433C143.067 72.5036 144.155 73.0378 144.155 73.759ZM136.356 55.7016C138.38 53.9708 140.529 52.3993 142.782 51.0003C143.585 50.4928 144.725 49.5044 145.736 49.6113C146.15 49.6647 147.031 50.1722 146.72 50.7065C146.668 50.8133 146.202 50.84 146.046 50.9202C145.891 51.0003 145.761 51.2407 145.606 51.3476C144.544 52.1489 143.274 52.6297 142.212 53.4578C141.331 54.1256 140.527 54.8736 139.595 55.4612C138.688 56.0222 137.755 56.3694 136.9 56.9838C136.926 56.9838 135.786 57.3845 136.019 57.4646C135.008 57.1441 136.071 55.942 136.356 55.7016ZM149.907 55.0605C151.125 54.553 152.291 53.9654 153.561 53.6181C154.191 53.4258 154.849 53.3534 155.504 53.4044C155.518 53.3602 155.543 53.3203 155.575 53.2879C155.608 53.2556 155.647 53.2318 155.69 53.2187C155.734 53.2056 155.779 53.2035 155.824 53.2126C155.868 53.2216 155.909 53.2416 155.945 53.2708C156.088 53.4953 156.284 53.679 156.515 53.8051C156.877 54.0989 158.199 54.4729 157.94 55.0873C157.758 55.5147 156.437 55.5414 156.074 55.6215C154.96 55.9153 153.949 56.5297 152.809 56.69C152.649 56.6792 152.492 56.6431 152.343 56.5831C151.902 56.69 151.54 57.1441 151.151 57.3845C150.322 57.8653 149.156 57.9455 148.56 58.8002C150.451 60.1358 152.11 58.8002 153.794 57.8119C154.803 57.2206 155.871 56.7458 156.981 56.3961C157.551 56.1825 158.121 55.9955 158.717 55.8085C158.96 55.7181 159.212 55.6553 159.468 55.6215C159.572 55.5879 159.683 55.597 159.78 55.6468C159.877 55.6967 159.951 55.7834 159.987 55.8886C160.686 55.8619 160.738 55.4078 161.179 56.2626C161.775 57.4646 160.868 57.3845 160.013 57.5448C158.821 57.7585 157.629 58.2126 156.437 58.5064C156.178 58.5865 153.794 59.1475 153.794 59.1742C153.69 59.9489 160.479 59.2276 161.049 59.1208C162.085 58.9071 163.174 58.3461 164.236 58.4797C165.065 58.5865 166.905 59.8153 165.609 60.6434C165.35 59.3879 164.469 60.4297 164.003 60.8571C163.381 61.418 162.5 61.3646 161.671 61.605C160.531 61.8988 157.577 63.0475 156.748 61.605C157.007 62.8872 152.317 62.2461 151.669 62.1927C151.047 62.1393 150.218 62.2995 149.622 62.1125C149.234 61.979 149 61.7386 148.638 61.6584C148.542 61.7542 148.427 61.8271 148.301 61.8721C148.112 61.7723 147.938 61.6465 147.783 61.4982C146.539 60.9105 144.57 60.5632 145.269 58.6667C145.969 56.8235 148.327 55.7283 149.907 55.0605ZM161.697 56.1557C161.723 56.0375 161.758 55.9215 161.8 55.8085C161.8 56.1557 162.604 56.2893 162.5 56.7434C162.293 57.7318 161.386 56.2626 161.308 56.1023C161.436 56.1332 161.566 56.1511 161.697 56.1557ZM166.516 57.7852C166.62 58.1859 167.656 59.0406 167.397 59.2276C166.983 58.6667 165.843 58.9338 166.516 57.7852ZM148.793 94.4342C149.182 93.6595 150.348 94.9951 150.218 93.6328C150.84 93.6862 150.451 94.1938 151.203 93.9801C151.488 93.9 151.669 93.5794 152.032 93.4993C152.239 93.4859 152.447 93.4859 152.654 93.4993C153.12 93.4726 154.908 93.4458 153.664 92.8047C154.364 92.3239 154.442 92.5643 155.064 92.9917C154.908 92.1102 155.815 92.6178 156.255 92.7246C155.945 92.2171 156.696 91.6828 156.955 91.3356C156.877 91.8698 156.903 92.4575 157.655 92.1102C157.836 92.0301 157.81 91.6561 157.94 91.6027C158.199 91.4959 158.354 91.6828 158.458 91.6828C158.622 91.7122 158.79 91.7031 158.95 91.6561C159.209 91.5493 159.08 91.202 159.417 91.1486C159.624 91.1219 159.779 91.4424 160.038 91.4424C160.168 91.4424 160.401 91.3089 160.505 91.3089C160.531 91.3089 160.66 90.9883 160.816 90.9883C161.049 90.9883 161.127 91.6027 161.23 91.7363C161.631 92.2964 162.167 92.7385 162.785 93.0184C161.671 94.0602 159.443 93.9534 158.043 94.3006C157.317 94.497 156.613 94.7747 155.945 95.1287C155.78 95.2399 155.632 95.3749 155.504 95.5294C155.405 95.4646 155.309 95.3932 155.219 95.3157C154.83 95.3424 154.494 95.1554 154.053 95.2088C152.732 95.4492 151.695 96.4643 150.374 96.678C149.778 96.7849 149.285 96.9184 148.897 96.3842C148.482 95.9568 148.56 94.9417 148.793 94.4342ZM146.979 88.1568C147.29 88.424 146.927 89.252 147.497 89.1719C147.912 89.1185 147.834 88.4507 148.145 88.3171C148.56 88.1301 148.819 88.5575 149.234 88.5308C149.985 88.4507 149.933 87.7829 149.311 87.489C149.959 87.3021 150.166 88.1034 150.736 88.1034C151.488 88.1034 151.306 87.1685 151.954 87.0082C152.239 86.9548 152.136 87.3555 152.317 87.4089C152.68 87.5158 152.939 87.3288 153.25 87.1685C153.535 87.0349 153.742 86.7411 154.053 86.661C154.208 86.6075 154.571 86.6877 154.675 86.6075C154.882 86.4473 155.064 85.8329 155.271 85.7528C155.497 85.914 155.741 86.0484 155.996 86.1534C155.945 86.4206 155.789 86.4473 155.582 86.2336C155.582 86.8212 157.162 87.0082 156.851 86.287C157.706 86.661 157.059 86.848 156.981 87.3555C156.955 87.5692 156.826 87.5425 156.877 87.7829C156.903 87.8897 157.344 87.8096 157.344 87.9432C157.318 88.8247 154.597 89.0918 154.079 89.1719C153.023 89.3383 151.983 89.5974 150.97 89.9466C150.192 90.187 148.897 90.9082 148.068 90.8548C146.902 90.8013 146.746 89.2253 146.979 88.1568ZM144.362 79.1816C144.077 78.1932 144.984 76.1898 146.176 76.4302C146.461 76.4837 146.539 76.7508 146.772 76.8576C147.083 77.0179 147.601 76.9378 147.886 77.098C148.508 77.4453 148.197 78.3802 148.819 78.7008C147.834 78.9412 144.829 80.7309 144.362 79.1816ZM145.502 82.9747C145.917 82.7343 146.617 82.7076 146.902 82.2535C147.057 82.3603 147.316 82.9747 147.575 82.8679C147.705 82.8144 147.808 82.4939 147.808 82.4939C148.042 82.4939 148.093 82.1733 148.43 82.2001C148.741 82.2268 149.104 82.6274 149.389 82.7877C149.337 81.7994 149.596 81.7192 150.348 81.185C150.529 81.0781 150.659 80.624 150.814 80.4638C150.659 81.5055 151.047 81.5055 151.851 81.6658C152.311 81.7335 152.743 81.9317 153.1 82.2383C153.457 82.545 153.724 82.9479 153.872 83.4021C153.017 83.2418 151.902 83.4288 151.566 84.3904C150.892 83.1083 148.404 84.8713 147.601 85.2452C147.005 85.5123 146.306 85.8863 145.813 85.2452C145.451 84.7911 145.658 84.2836 145.684 83.8829C145.684 83.7493 145.813 83.7494 145.787 83.5624C145.787 83.3487 145.502 83.2418 145.502 82.9747ZM154.623 103.196C154.39 103.276 153.224 103.329 153.224 102.929C153.224 102.581 155.271 102.929 154.623 103.196ZM152.732 101.914C151.851 102.475 150.866 100.498 150.555 99.9369C151.488 100.07 151.928 99.2691 152.472 98.6547C152.991 99.83 153.768 99.2157 154.597 98.815C155.582 98.3609 156.644 98.3609 157.629 97.9869C157.94 97.8801 158.225 97.6931 158.536 97.5595C158.769 97.4527 159.028 97.3725 159.261 97.2657C159.345 97.1978 159.407 97.1055 159.44 97.0006C159.472 96.8958 159.473 96.7834 159.443 96.678C159.365 96.491 159.417 96.3575 159.598 96.304C159.826 96.3743 160.06 96.419 160.298 96.4376C160.686 96.3575 161.23 95.9835 160.764 95.5828C161.256 95.1287 161.749 95.5828 162.241 95.7965C162.137 95.4492 162.008 95.1287 161.904 94.7814C162.137 94.8883 162.837 95.9034 162.915 95.9034C163.381 95.8766 163.329 95.2356 163.588 94.9951C163.744 95.1821 163.796 96.6246 164.366 96.1438C164.625 95.9301 164.081 95.2355 163.925 95.0753C164.599 95.2355 165.195 96.0636 165.376 96.7314C165.059 96.7799 164.735 96.7036 164.469 96.5177C164.288 97.4259 165.92 97.052 166.179 97.5328C166.698 98.4677 163.355 99.1088 162.915 99.1889C162.034 99.3492 161.023 99.4294 160.22 99.83C159.443 100.204 159.261 100.311 158.38 100.391C157.37 100.471 156.359 100.818 155.374 101.086C154.571 101.272 153.509 101.433 152.732 101.914ZM171.413 68.8173C172.217 68.5234 174.937 66.9741 175.637 67.6419C175.769 68.0129 175.934 68.3706 176.129 68.7104C176.181 69.3515 176.155 69.5919 175.404 69.9125C174.86 70.1262 174.393 69.6721 173.901 69.8591C173.357 70.0727 173.745 70.42 173.46 70.6604C173.15 70.9275 172.58 71.0611 172.191 71.1679C171.258 71.4618 170.351 71.7022 169.418 72.0227C167.553 72.6638 165.583 73.2515 163.666 73.7056C162.241 74.0528 159.805 74.8809 158.484 73.8926C158.354 74.4535 158.043 74.3734 157.603 74.4535C157.184 74.5571 156.76 74.6373 156.333 74.6939C155.815 74.7207 154.416 74.5604 154.623 73.8392C154.571 74.0528 155.711 73.3583 155.53 73.3049C156.022 73.4118 155.867 73.1446 156.255 73.0111C156.774 72.8241 157.318 72.8241 157.862 72.6371C159.209 72.1563 160.324 71.5152 161.749 71.1947C165.013 70.5269 168.304 69.9659 171.413 68.8173ZM41.4172 144.573C41.1581 144.573 40.9508 143.798 41.7541 144.359C41.6504 144.413 41.5468 144.493 41.4172 144.573ZM35.1208 143.558C34.7581 143.665 34.6285 143.451 34.7062 142.943C35.1726 142.756 35.3281 142.943 35.1208 143.558ZM30.2236 142.543C30.12 142.089 30.4568 141.982 30.7418 141.795C30.7418 142.382 30.7418 142.382 30.2236 142.543ZM17.9676 138.83C17.4753 138.723 16.8275 138.215 16.698 139.043C16.6203 138.856 16.2057 137.948 16.387 137.735C16.4907 137.628 16.8275 138.135 16.8016 138.082C17.2421 137.174 17.9676 138.269 18.4081 138.589C18.2527 138.669 18.0972 138.75 17.9676 138.83ZM146.435 39.1668C146.617 38.7929 146.798 38.686 147.031 38.8196C146.668 39.6744 145.451 40.1552 146.435 39.1668ZM154.986 30.9929C155.297 31.5806 154.83 31.821 154.494 32.3285C154.701 31.7943 154.83 31.447 154.986 30.9929ZM192.142 88.5041C193.231 88.5041 195.589 87.9164 196.236 89.1986C196.677 88.3171 197.169 89.9733 197.558 90.2404C197.61 90.2671 197.869 90.0534 197.998 90.1335C198.196 90.3112 198.355 90.5296 198.465 90.7746C198.802 91.3623 198.931 92.0568 199.113 92.6979C197.195 92.6979 195.226 92.2438 193.308 92.0568C192.058 91.9589 190.804 91.9411 189.551 92.0034C189.292 92.0301 188.8 91.9233 188.593 91.9767C188.385 92.0301 187.971 92.4842 187.738 92.4041C188.1 93.1253 192.894 94.8616 193.257 94.0602C192.816 93.7931 191.857 93.5794 191.857 92.9383C191.857 92.2171 192.764 92.2171 193.231 92.2438C194.267 92.2972 196.029 92.6445 196.444 93.7664C196.625 94.2472 196.677 95.4492 196.47 95.9034C196.34 96.1972 196.133 96.5712 195.77 96.6246C195.615 96.6513 195.433 96.4643 195.407 96.4643C194.682 96.6246 193.36 97.2122 192.583 96.3842C192.013 97.1321 189.318 96.304 188.489 96.0369C187.038 95.5294 185.043 94.8616 184.162 93.4725C183.099 91.763 185.276 90.3472 186.52 89.6527C188.282 88.7178 190.225 88.5041 192.142 88.5041ZM199.449 92.4308C199.786 92.5376 200.123 92.6178 200.46 92.7246C200.382 93.339 199.035 92.8582 199.449 92.4308ZM209.632 114.575C209.736 112.144 209.062 109.981 208.648 107.63C208.544 107.042 208.648 106.027 208.207 105.546C207.793 105.092 206.886 105.466 206.834 104.638C206.419 105.119 206.471 105.226 205.979 104.665C206.074 104.902 206.092 105.164 206.031 105.413C205.72 105.226 204.606 104.612 204.683 105.466C203.751 105.253 204.036 104.665 203.492 104.211C203.414 104.157 203.103 104.371 202.999 104.291C202.822 104.117 202.657 103.929 202.507 103.73C202.258 103.992 201.989 104.233 201.704 104.451C201.629 104.268 201.513 104.106 201.364 103.98C201.214 103.855 201.038 103.769 200.849 103.73C201.211 104.505 202.066 105.466 200.874 105.92C200.149 106.188 198.983 105.867 198.232 105.92C195.433 106.134 192.35 105.52 189.629 104.825C186.831 104.104 184.032 103.116 181.519 101.646C181.041 101.342 180.598 100.984 180.197 100.578C179.757 100.204 179.42 100.151 178.876 99.9102C177.902 99.4561 177.022 98.8121 176.285 98.0136C174.704 96.3575 173.227 94.1671 173.668 91.7363C174.108 89.3055 175.715 87.4089 177.451 85.8329C179.498 83.951 181.782 82.3607 184.24 81.1049C185.328 80.5439 188.126 78.4069 189.214 79.6624C189.914 80.4638 189.525 81.4788 188.567 81.6658C188.333 81.7192 188.1 81.559 187.867 81.6658C187.53 81.8261 187.66 82.0131 187.504 82.1466C187.257 82.4531 186.969 82.7228 186.649 82.948C185.38 83.6425 184.162 84.2035 182.944 85.0582C182.374 85.4589 181.856 85.6192 181.363 85.9665C180.871 86.3137 180.767 86.8747 180.094 86.5274C180.327 87.5158 178.928 88.5842 178.358 89.1719C177.503 90.1068 176.466 91.3089 176.881 92.6979C177.658 95.4225 181.182 97.4794 183.462 98.6814C186.304 100.226 189.365 101.299 192.531 101.86C194.086 102.101 195.718 102.261 197.273 102.421C198.491 102.555 200.382 102.101 201.263 103.249C201.289 101.914 205.305 102.047 206.16 101.86C204.45 95.8232 201.082 90.4541 197.48 85.4322C195.718 82.9747 193.982 80.437 191.961 78.1665C189.759 75.6823 187.245 73.4919 184.835 71.2214C180.146 66.7605 174.834 62.7803 169.444 59.2811C164.055 55.7818 158.484 52.3359 152.576 49.8517C145.839 46.9935 138.74 45.1236 131.64 43.5209C132.599 42.2654 134.179 41.6244 135.397 40.7161C135.837 40.3956 136.408 39.6209 136.978 39.5141C137.574 39.4073 138.066 40.0751 138.506 40.4223C139.75 41.3839 140.605 40.9833 142.03 40.9298C142.885 40.9031 144.906 41.3839 145.243 40.2086C145.71 40.8764 145.036 41.3839 144.673 41.8648C144.932 42.2387 145.14 41.8381 145.399 41.7846C145.476 41.7045 145.554 41.6511 145.632 41.5709C145.761 41.3839 145.865 41.3839 145.969 41.5709C146.124 41.8113 146.28 41.7579 146.435 41.4107C146.487 41.3839 146.513 41.3572 146.565 41.3305C146.746 41.2237 146.927 41.0634 147.109 40.9566C148.317 40.0127 149.61 39.1898 150.97 38.499C152.162 37.9114 151.514 36.7895 152.317 35.9881C152.498 35.8011 152.809 35.908 152.991 35.7477C153.172 35.5874 153.198 35.4272 153.353 35.2669C153.69 34.8929 153.302 34.4388 154.131 34.8929L153.82 33.1299C155.452 34.7593 155.452 30.058 155.685 29.3368C155.66 29.4169 155.841 28.7224 155.841 28.7224C155.893 27.3067 156.074 26.2649 154.468 26.1848C155.089 25.7841 155.271 26.5587 155.556 25.7574C155.685 25.3567 155.245 24.6622 155.97 24.9293C156.126 24.0745 155.97 23.38 155.789 22.5519C155.608 21.6971 155.711 21.1362 155.711 20.2814C155.711 19.3197 155.297 18.3581 155.141 17.3965C155.038 16.6485 155.141 15.4999 154.208 15.767C154.079 15.5533 154.545 14.9123 154.519 14.5917C154.494 14.0842 153.975 13.5766 153.82 13.1225C153.719 13.24 153.585 13.3233 153.437 13.3614C153.289 13.3996 153.134 13.3908 152.991 13.3362C153.276 12.6951 153.017 12.4815 152.732 11.9205C152.576 11.6 152.68 11.2527 152.343 11.0123C152.162 10.8787 151.825 11.0924 151.695 10.9589C151.384 10.6383 151.488 10.1842 151.281 9.75682C150.996 9.22257 150.374 8.79518 149.959 8.36779C147.549 6.07055 144.932 4.28084 141.719 3.39934C138.48 2.49112 134.723 2.17058 131.484 3.21235C130.189 3.63974 129.049 3.58632 127.883 4.36097C127.494 4.62809 127.468 4.54796 127.287 4.97535C127.235 5.0822 127.65 5.34932 127.39 5.50959C127.131 5.69658 126.82 5.32261 126.691 5.02877C125.007 6.28424 123.452 7.94039 122.493 9.86367C121.535 11.7602 121.457 14.004 121.094 16.0609C119.436 13.8972 117.181 12.9623 114.72 13.8972C112.569 14.7253 110.911 16.5417 110.496 18.8924C110.265 20.317 110.492 21.7807 111.144 23.0594C111.429 23.6204 111.74 24.2348 112.258 24.6087C112.647 24.9026 113.347 24.8759 113.528 25.4101C113.813 26.2382 112.155 28.0012 111.74 28.7224C110.946 30.0128 110.261 31.3712 109.693 32.7826C107.724 29.9245 105.832 26.7724 103.604 24.1279C101.479 21.6437 98.9659 19.3999 96.5043 17.2896C91.3739 12.9088 86.0362 8.79518 80.3099 5.2959C74.9203 2.06373 68.4685 0.274019 62.2498 0.888398C56.1607 1.50278 51.4967 5.48288 47.5841 10.0507C40.0439 18.8389 35.4317 31.3936 34.9913 43.0935C34.828 46.5866 35.1509 50.0858 35.95 53.4845C36.3386 55.114 36.2868 56.7167 36.52 58.3461C36.7791 60.1893 37.2455 62.0591 37.686 63.8755C39.3974 70.8335 41.4733 77.6908 43.9047 84.4172C45.1484 87.8897 46.6513 91.3089 48.6983 94.3808C49.6311 95.7965 50.8489 96.9184 51.8853 98.254C52.87 99.5629 53.1291 101.166 53.3364 102.768C53.8546 106.615 54.1914 110.461 54.5024 114.335C54.6319 115.964 54.7874 117.594 54.9947 119.223C55.176 120.639 54.7096 120.559 53.5696 121.066C53.8028 119.784 48.2837 120.665 47.7395 120.746C47.1695 120.852 46.5735 120.852 46.1331 120.906C45.6228 121.025 45.1016 121.088 44.5784 121.093C43.7233 121.066 42.1427 120.852 41.8318 121.948C41.5986 120.665 40.1476 122.081 41.2358 121.841C40.1217 121.974 38.9816 121.761 37.8415 121.868C36.5459 122.001 35.2504 122.108 33.9548 122.322C33.0479 122.455 32.1929 122.829 31.3119 122.909C30.1718 123.043 28.954 123.016 27.8139 123.123C23.5385 123.524 19.1077 124.485 14.9619 125.581C14.0291 125.821 12.9409 126.008 12.034 126.409C11.8008 126.515 11.5676 126.756 11.3344 126.836C10.9457 126.996 10.9975 126.889 10.6607 126.943C8.6137 127.37 6.48899 128.065 4.41609 128.599C3.276 128.893 1.4104 129.16 0.477599 129.988C0.063021 130.362 -0.299735 131.003 0.373955 131.43C0.918089 131.751 1.66951 131.243 2.11 130.95C1.72133 131.991 0.995822 132.499 1.38449 133.674C1.69542 134.609 2.39503 135.758 3.45738 135.143C3.61285 135.491 3.66467 136.185 4.07925 136.292C4.46792 136.399 4.72703 135.918 5.1157 136.025C5.24525 136.078 5.19343 136.319 5.32299 136.399C5.53301 136.495 5.7495 136.575 5.97076 136.639C6.21202 136.747 6.46398 136.828 6.72219 136.88C6.88233 136.829 7.03176 136.747 7.16268 136.639C7.47361 136.693 7.62908 137.307 7.86228 137.467C8.11746 137.672 8.42206 137.802 8.74326 137.841C9.49468 138.002 10.4534 138.295 10.9716 137.521C10.868 138.082 11.5935 138.028 11.9303 138.108C11.9096 137.96 11.8598 137.817 11.7842 137.688C11.7085 137.56 11.6083 137.448 11.4898 137.361C12.2154 137.414 11.9303 138.162 12.4745 138.376C12.8631 138.509 12.8113 138.162 13.1222 138.108C13.5109 138.055 13.8218 138.349 14.4178 138.082C14.5474 138.696 14.5992 139.311 15.3247 139.391C15.7393 139.444 16.7498 138.643 16.6721 139.311C17.6308 139.017 17.9676 139.23 18.4859 140.085C18.5636 139.551 18.9782 139.711 19.3409 139.684C19.9369 139.631 19.9369 139.684 20.4033 139.337C20.4551 139.311 20.7919 138.456 20.9733 138.99C21.0511 139.23 20.5587 139.791 20.4033 139.925C20.6106 140.032 21.3361 140.432 21.6211 140.352C21.8543 140.299 21.8543 139.871 22.1393 139.845C22.0616 140.085 22.0098 140.326 21.932 140.566C22.4762 140.646 22.9426 140.272 23.3831 139.978C23.7976 141.074 24.9896 140.459 25.6373 141.287C25.9742 141.715 26.0001 142.062 26.6479 142.169C27.3216 142.276 27.9175 141.982 28.4876 142.543C28.3062 142.195 27.8657 141.902 28.3062 141.501C28.6171 141.955 28.7726 142.489 29.1094 142.89L29.2649 142.249C30.1718 143.264 31.3378 143.264 32.5038 143.825V143.184C33.3329 144.493 33.3848 143.665 34.3953 143.13C34.3176 143.531 34.2657 143.905 34.188 144.306C34.9135 144.252 35.5872 145.134 36.1832 144.386C36.5459 145 36.9864 144.706 37.5565 144.893C37.8933 145 38.1265 145.347 38.4633 145.454C38.9557 145.641 39.0852 145.641 39.5516 145.802C39.9662 145.935 40.1994 146.229 40.6917 146.309C41.0091 146.358 41.331 146.367 41.6504 146.336C41.78 146.336 41.7282 146.042 42.0132 146.122C42.4278 146.229 42.7387 146.763 43.0496 147.057C43.516 145.882 44.7857 147.458 45.4075 147.671C45.4594 147.378 45.4594 147.004 45.6667 146.763C45.9258 147.324 46.0035 147.805 46.5217 148.152C46.8587 148.356 47.2266 148.501 47.61 148.58C47.8173 148.633 48.2319 148.58 48.3614 148.633C48.5946 148.74 48.6723 149.06 48.9055 149.087C49.0351 149.114 49.2424 148.74 49.346 148.767C49.8124 148.9 50.0975 149.488 50.5639 149.808C51.989 150.77 53.8028 150.85 55.3833 151.064C55.772 151.117 55.8497 151.01 56.1607 151.251C56.342 151.384 56.2643 151.785 56.4716 151.892C57.2748 152.319 57.2748 151.411 57.4562 150.877C57.7153 151.251 57.7672 151.705 58.1299 151.999C58.3289 151.994 58.528 152.003 58.7259 152.025C58.8307 152.157 58.902 152.313 58.9332 152.48C59.4255 152.827 59.9696 152.693 60.4619 152.96C60.6174 153.041 60.9024 153.548 61.1097 153.682C61.5183 153.929 61.9654 154.1 62.4312 154.189C63.2862 154.43 64.53 154.109 65.0482 155.044C65.7219 154.296 65.4628 155.178 65.9292 155.391C66.2142 155.498 66.6029 155.071 66.9138 155.097C67.4579 155.178 67.6652 155.792 67.8207 156.219C68.1575 156.139 67.9243 155.178 67.9243 154.964C68.3389 154.91 68.4166 156.032 68.4944 156.273C69.1422 155.952 68.0798 154.937 68.7794 154.617C68.7276 155.471 69.3754 156.193 68.1834 156.299C68.3389 156.807 72.1738 157.395 72.4329 156.941C72.4847 157.795 73.0288 156.994 73.2361 156.7C73.262 157.181 73.1066 157.902 73.6248 158.116C73.9875 158.276 74.8167 157.875 74.9463 157.501C75.1017 158.062 75.3867 158.036 75.7236 158.41C75.9568 158.65 76.1123 159.077 76.3455 159.291C76.7859 159.665 77.641 159.612 78.1592 159.532C79.1957 159.371 79.0661 159.158 79.4289 160.253C79.5066 159.825 79.7657 158.971 80.2321 159.612C80.5172 160.012 79.8953 160.921 79.7398 161.295C80.126 161.04 80.5446 160.843 80.9836 160.707C81.0268 160.902 81.0178 161.105 80.9576 161.295C81.1909 161.412 81.416 161.546 81.6313 161.695C81.645 161.415 81.6885 161.137 81.7609 160.867C82.3828 161.268 81.9423 162.043 82.5123 162.443C82.6678 162.55 83.0046 162.416 83.1601 162.497C83.471 162.603 83.7301 162.897 83.9893 163.084C83.782 162.79 83.8079 162.283 83.8079 161.936C83.9374 162.016 84.0411 162.31 84.1706 162.336C84.2225 162.336 84.7666 162.416 84.7666 162.416C85.3366 162.817 85.2071 162.871 84.7407 163.378C84.9221 163.672 85.6476 163.164 85.8289 163.084C85.8808 163.191 85.8808 163.592 85.9585 163.672C86.0129 163.783 86.0563 163.899 86.0881 164.019C86.1522 163.965 86.2278 163.927 86.3089 163.908C86.3899 163.89 86.474 163.891 86.5545 163.912C86.6581 163.939 87.4873 164.286 87.5391 164.179C87.3625 164.117 87.1964 164.027 87.0468 163.912C87.5132 163.485 87.8241 163.245 88.2646 163.886C88.3164 163.966 88.135 164.26 88.1869 164.366C88.3941 164.767 88.8346 165.061 89.1197 165.382C89.2492 164.954 88.9642 163.859 89.6379 163.886C90.182 163.912 90.5707 165.248 90.3893 165.675C90.5966 165.435 91.8662 165.195 92.0994 165.275C92.7731 165.488 92.5918 166.129 93.4209 165.195C93.991 165.595 93.4986 165.755 93.6023 166.236C93.6747 166.252 93.7497 166.251 93.8216 166.232C93.8934 166.214 93.9602 166.179 94.0169 166.129C93.9132 168.213 95.4161 166.61 96.4007 166.931C96.7894 167.064 96.893 167.492 97.2817 167.625C97.489 167.705 97.7481 167.518 97.9554 167.572C98.1367 167.545 98.2922 167.518 98.4477 167.492C98.655 167.385 98.7586 167.492 98.7327 167.866C99.0695 168.053 98.94 168.106 99.3546 168.16C99.6137 168.186 99.8469 167.919 100.132 167.946C100.624 168.026 100.572 168.427 100.883 168.64C101.176 168.805 101.517 168.853 101.842 168.774C102.023 168.747 102.542 168.507 102.593 168.507C102.982 168.507 102.775 168.427 103.215 168.747C103.485 168.999 103.803 169.191 104.148 169.308C104.64 169.442 105.547 169.736 105.858 169.388C106.325 170.083 106.662 169.575 107.257 169.629C107.568 169.655 107.62 169.789 107.879 169.816C108.32 169.896 108.864 169.816 109.356 169.976C110.108 170.216 110.185 170.35 110.937 170.377C111.066 170.323 111.222 170.27 111.351 170.216C111.396 170.44 111.505 170.644 111.662 170.804C112.077 170.884 112.362 170.671 112.725 170.43C112.984 171.258 113.839 171.338 114.564 171.445C115.73 171.632 116.845 171.712 117.985 172.113C118.945 172.445 119.888 172.828 120.809 173.262C121.612 173.636 122.364 174.197 123.296 173.929C125.369 173.342 127.365 171.151 129.075 169.896C131.122 168.4 133.324 167.198 135.449 165.862C143.948 160.547 152.939 156.059 161.334 150.53C165.92 147.511 170.17 143.958 175.067 141.501C174.367 144.493 173.175 147.511 173.383 150.636C173.46 151.892 173.823 153.388 174.782 154.269C175.948 155.364 177.243 154.67 178.384 153.895C180.793 152.239 182.374 149.808 184.162 147.538C186.286 144.84 187.919 141.955 189.499 138.883C189.862 139.417 189.577 140.326 189.603 140.94C189.615 141.704 189.801 142.455 190.147 143.13C191.028 144.893 192.712 145.321 194.241 144.119C197.169 141.795 198.879 137.654 200.46 134.342C201.367 136.052 202.636 138.242 204.787 137.013C206.575 135.998 207.611 133.728 208.156 131.804C209.892 126.035 209.399 120.318 209.632 114.575Z" fill="#1E1C26"/>
<path fill-rule="evenodd" clip-rule="evenodd" d="M206.938 80.8931C206.731 80.3855 206.653 80.4657 207.016 79.9849C207.327 80.2787 207.094 80.5191 206.938 80.8931ZM215.929 111.639C215.359 109.956 215.722 108.139 215.359 106.43C215.204 105.655 214.945 104.881 214.867 104.079C214.815 103.732 214.53 102.129 214.737 101.862C214.09 101.461 214.09 101.168 213.934 100.366C214.167 100.126 214.141 99.9121 213.856 99.7251C213.68 99.4817 213.49 99.2497 213.286 99.0306C214.115 99.4313 213.623 98.3895 213.545 97.7751C213.499 97.2876 213.412 96.805 213.286 96.3327C213.105 95.7717 212.664 95.4779 213.545 95.4779C213.26 95.1306 212.82 94.7834 212.664 94.356C212.457 93.7416 212.794 92.9669 212.379 92.4327C212.146 92.1389 210.902 92.032 211.136 91.3642C211.239 91.0437 211.732 91.2841 211.887 91.0437C212.483 90.1355 210.695 89.7615 210.617 89.3875C210.514 88.88 211.162 88.7731 211.188 88.319C211.213 87.8649 210.54 87.117 210.358 86.7163C210.099 86.7697 209.84 87.1704 209.555 86.9834C209.503 86.9567 209.581 85.3807 209.529 85.167C209.477 84.9533 209.348 84.4191 209.296 84.3122C209.115 83.9115 208.596 83.7246 208.493 83.2437C208.441 82.9499 209.529 82.5225 208.285 82.5225C208.726 81.7211 207.923 81.2403 207.612 80.5458C207.223 79.6643 207.016 78.7027 206.627 77.8212C206.255 76.9598 205.803 76.137 205.28 75.3637C204.787 74.6692 204.58 74.0014 204.166 73.2801C204.088 73.2267 204.01 73.1466 203.932 73.0931C203.596 73.1466 203.492 72.9863 203.621 72.639C203.362 72.2651 203.181 71.8377 202.948 71.437C202.689 70.9829 202.352 70.5822 202.067 70.1281C201.704 69.5137 201.6 68.8459 201.212 68.2315C200.719 67.4836 200.175 66.8425 199.709 66.0679C199.139 65.1062 198.517 64.4918 197.791 63.7439C197.455 63.3966 197.403 62.4884 196.988 61.9809C196.522 61.42 196.081 61.2864 195.77 60.5652C195.356 59.6302 194.76 59.1761 194.164 58.3748C193.672 57.707 193.438 56.9323 192.894 56.2912C192.428 55.7303 191.91 55.2227 191.417 54.6885C190.795 54.0207 190.329 53.2193 189.707 52.5782C189.811 52.6584 189.137 52.1241 189.189 52.1509C189.015 52.0823 188.831 52.0461 188.645 52.044C187.66 51.4563 186.442 49.2927 184.991 50.4413C184.214 51.0557 184.603 52.1508 185.121 52.7385C185.354 53.0056 186.546 54.2611 186.805 53.7269C187.09 54.1275 187.945 56.1042 188.671 55.5433C188.593 56.2111 188.982 55.9974 189.241 56.4515C189.396 56.7453 189.318 56.9056 189.448 57.3597C189.785 58.6419 191.029 59.9241 191.702 61.046C193.387 63.8508 195.226 66.522 196.885 69.3267C198.491 71.9979 200.279 74.5356 201.808 77.2602C203.544 80.3588 205.72 83.2704 207.042 86.5827C207.094 86.6896 207.456 86.8766 207.534 87.0369C207.689 87.3307 207.664 87.8382 207.767 88.1588C208.141 89.3086 208.674 90.3971 209.348 91.3909C209.918 92.219 209.97 93.3676 210.358 94.3293C210.902 95.7183 211.498 97.0806 212.043 98.4429C212.824 100.558 213.49 102.716 214.038 104.907C214.42 106.352 214.689 107.826 214.841 109.315C214.945 110.704 214.971 112.146 215.463 113.455C215.774 113.001 216.162 112.306 215.929 111.639Z" fill="#1E1C26"/>
<path fill-rule="evenodd" clip-rule="evenodd" d="M24.4192 141.314C23.8232 141.18 23.2532 141.02 23.1236 140.299C23.0459 140.646 22.9422 140.967 22.8645 141.314C23.59 141.474 24.3414 141.661 25.0669 141.821C25.0138 141.684 24.9254 141.565 24.8113 141.475C24.6972 141.386 24.5616 141.33 24.4192 141.314Z" fill="#1E1C26"/>
<path fill-rule="evenodd" clip-rule="evenodd" d="M26.0258 24.4227C26.0707 24.222 26.1313 24.0255 26.2072 23.835C26.259 24.022 26.4922 24.4227 26.3627 24.6097C26.1813 24.8234 25.9999 24.7165 26.0258 24.4227ZM28.9797 18.6529C29.187 18.733 29.6016 18.7597 29.8607 18.8398C29.2129 19.4008 29.1092 19.2405 28.2801 19.1604C28.2542 18.5994 28.4615 18.4125 28.9797 18.6529ZM23.4606 32.7836H23.7197C23.724 32.534 23.7154 32.2843 23.6938 32.0356C24.5489 32.2226 24.0825 30.6733 23.7975 30.3528C24.6525 30.3795 25.0671 27.6281 25.3262 27.0939C25.5594 26.6131 25.8444 26.4261 25.9999 25.8651C26.1428 25.3698 26.3248 24.8874 26.544 24.4227C27.0364 23.3275 27.71 22.3391 27.5805 21.0569C27.9951 22.0186 28.3837 21.0569 28.6428 20.6028C29.0833 19.8549 30.1457 18.92 30.2493 18.0385C30.353 17.2638 29.7829 17.2371 30.1198 16.5159C30.4566 15.7947 30.7157 15.8748 31.3117 15.6344C31.7004 15.4741 31.7781 15.6611 32.0372 15.1536C32.2186 14.833 32.1409 14.5926 32.3741 14.3255C32.463 14.3963 32.5726 14.4339 32.685 14.4323C32.8677 14.1898 32.9921 13.906 33.0477 13.6043C33.1674 13.1936 33.3146 12.7919 33.4882 12.4022C33.6955 12.0283 34.0842 11.0132 34.2915 10.8529C34.4988 10.6659 35.7166 10.7461 35.7166 10.7728C36.2089 10.1317 35.302 9.4639 36.5717 9.62417C36.3125 9.14335 37.1935 8.52897 37.4526 8.26185C38.1004 7.59405 38.1522 7.2735 38.2818 6.44543C38.3595 6.01803 37.8931 6.07146 38.515 5.96461C38.7741 5.91119 39.0073 6.25844 39.1887 6.20502C39.9919 5.99132 39.1628 6.04475 39.3701 5.69749C39.4478 5.59064 39.7846 5.16325 39.7846 5.16325C39.8072 4.99445 39.8599 4.83142 39.9401 4.68243C40.0892 4.67104 40.2368 4.64419 40.3806 4.60229C40.4583 4.44202 40.5102 4.28175 40.5879 4.12147C41.1579 3.64066 42.013 3.40025 42.4017 2.86601C42.6608 2.51875 42.583 2.17149 42.9199 1.82423C43.2308 1.50369 43.6454 1.7441 43.7231 0.969446C43.8009 0.00781065 42.8162 -0.419583 42.4017 0.542053C41.2875 -0.846977 36.6753 4.28175 36.1571 4.94955C33.851 7.86117 31.5708 10.8529 29.6793 14.0851C27.8385 17.2213 26.3106 20.5416 25.1189 23.9953C24.5806 25.6542 24.1564 27.3502 23.8493 29.0706C23.7197 29.6582 22.8647 32.2226 23.2274 32.8103C23.3311 32.8103 23.3829 32.7836 23.4606 32.7836Z" fill="#1E1C26"/>
<path fill-rule="evenodd" clip-rule="evenodd" d="M205.694 104.292C206.083 104.025 206.083 104.025 206.161 103.518C205.642 103.624 205.642 103.624 205.694 104.292Z" fill="#1E1C26"/>
<path fill-rule="evenodd" clip-rule="evenodd" d="M13.2263 138.644C13.3558 138.911 13.5372 138.991 13.7963 138.831C13.9 139.018 12.8894 137.896 13.2263 138.644Z" fill="#1E1C26"/>
<path fill-rule="evenodd" clip-rule="evenodd" d="M30.8195 16.1152C30.1976 17.344 30.975 16.4625 30.9232 16.8632C30.975 16.5961 31.0786 16.2221 30.8195 16.1152Z" fill="#1E1C26"/>
<path fill-rule="evenodd" clip-rule="evenodd" d="M130.111 35.2418C130.37 37.4589 133.324 36.4172 133.972 35.0816C134.464 34.1199 135.656 30.2467 134.361 29.4453C133.402 28.8309 133.195 31.4487 132.936 32.0097C132.547 32.9713 132.21 32.3035 131.329 32.5439C130.37 32.811 130.008 34.3069 130.111 35.2418Z" fill="#1E1C26"/>
<path fill-rule="evenodd" clip-rule="evenodd" d="M126.898 31.1799C127.96 31.4203 128.971 31.2868 129.722 30.432C130.137 29.9511 130.681 29.0162 129.93 28.5621C129.256 28.1347 128.479 29.1231 127.779 28.9094C126.82 28.6423 127.313 27.5738 126.976 26.8525C125.784 27.6005 125.11 30.7792 126.898 31.1799Z" fill="#1E1C26"/>
<path fill-rule="evenodd" clip-rule="evenodd" d="M127.987 36.7646C126.976 36.7646 126.976 38.0468 127.494 38.6078C128.013 39.142 129.282 39.6763 129.956 39.2489C131.329 38.4475 128.816 36.8448 127.987 36.7646Z" fill="#1E1C26"/>
<path fill-rule="evenodd" clip-rule="evenodd" d="M69.0904 87.8108C69.2977 87.9176 69.9455 88.4786 70.2046 88.2115L69.0645 87.0361C68.8831 87.2765 68.7276 87.6238 69.0904 87.8108Z" fill="#1E1C26"/>
<path fill-rule="evenodd" clip-rule="evenodd" d="M64.3224 31.501L64.0115 31.7414C64.3742 32.0619 64.3742 32.1421 64.737 31.8482C64.6175 31.7106 64.4776 31.5934 64.3224 31.501Z" fill="#1E1C26"/>
<path fill-rule="evenodd" clip-rule="evenodd" d="M132.91 104.933C132.702 104.559 132.314 105.254 132.054 105.36C131.64 105.547 131.277 104.559 131.407 105.734C130.448 105.28 129.878 106.322 129.256 106.856C128.375 107.631 127.313 108.032 126.743 109.1C129.489 109.768 132.469 107.337 134.516 105.734C134.853 105.467 136.511 104.158 135.397 104.025C134.931 103.998 133.246 105.574 132.91 104.933Z" fill="#1E1C26"/>
<path fill-rule="evenodd" clip-rule="evenodd" d="M132.106 102.662C132.651 102.234 131.485 102.181 131.303 102.154C131.329 102.502 131.329 102.849 131.355 103.196C131.614 103.009 131.847 102.849 132.106 102.662Z" fill="#1E1C26"/>
<path fill-rule="evenodd" clip-rule="evenodd" d="M130.085 104.104C130.241 103.997 130.681 103.677 130.396 103.437C130.26 103.525 130.143 103.642 130.054 103.78C129.965 103.918 129.905 104.074 129.878 104.238C129.956 104.21 130.026 104.164 130.085 104.104Z" fill="#1E1C26"/>
<path fill-rule="evenodd" clip-rule="evenodd" d="M85.8031 76.0566C85.6598 76.0904 85.5334 76.1769 85.4476 76.2998C85.3617 76.4227 85.3223 76.5737 85.3366 76.7245C85.4806 76.6921 85.6079 76.6059 85.694 76.4827C85.7801 76.3594 85.8189 76.2077 85.8031 76.0566Z" fill="#1E1C26"/>
</g>
<defs>
<clipPath id="clip0">
<rect width="216" height="174" fill="white"/>
</clipPath>
</defs>
</svg>
