<svg width="143" height="188" viewBox="0 0 143 188" fill="none" xmlns="http://www.w3.org/2000/svg"><path d="M40.0702 51.2143H14.98V62.456H40.0702V51.2143z" fill="#f5f5f5"/><path d="M40.0702 68.7047H14.98V79.9464H40.0702V68.7047z" fill="#f5f5f5"/><path d="M83.949 35.601H58.8588V46.8426H83.949V35.601z" fill="#f5f5f5"/><path d="M83.949 53.0894H58.8588V64.3311H83.949V53.0894z" fill="#f5f5f5"/><path d="M143 188H0V23.7039L21.6034.0H143V188z" fill="url(#paint0_linear)"/><path d="M140.789 183.004H2.52386V24.9833L23.4158 2.18713H140.789V183.004z" fill="#fff"/><path d="M83.3843 21.7043H16.0245V32.946H83.3843V21.7043z" fill="#e0e0e0"/><path d="M65.5216 52.4653H16.1601V63.707H65.5216V52.4653z" fill="#e0e0e0"/><path opacity=".2" d="M126.882 98.6842H16.1601V139.906H126.882V98.6842z" fill="#6c50f0"/><path d="M126.882 21.8598H101.792V33.1015H126.882V21.8598z" fill="#e0e0e0"/><path d="M126.882 39.3483H101.792V50.5899H126.882V39.3483z" fill="#e0e0e0"/><path d="M126.882 56.8377H101.792V68.0794H126.882V56.8377z" fill="#e0e0e0"/><path d="M25.57 2.18713V27.1702H2.52386V24.9833L23.3594 2.18713H25.57z" fill="url(#paint1_linear)"/><path d="M2.46735 24.9833 23.3593 2.18713V24.9833H2.46735z" fill="#eee"/><defs><linearGradient id="paint0_linear" x1="80185.8" y1="126547" x2="80185.8" y2="0" gradientUnits="userSpaceOnUse"><stop offset=".01" stop-color="gray" stop-opacity=".25"/><stop offset=".54" stop-color="gray" stop-opacity=".12"/><stop offset="1" stop-color="gray" stop-opacity=".1"/></linearGradient><linearGradient id="paint1_linear" x1="8235.52" y1="2432.54" x2="8235.52" y2="197.804" gradientUnits="userSpaceOnUse"><stop stop-color="#b3b3b3" stop-opacity=".25"/><stop offset=".54" stop-color="#b3b3b3" stop-opacity=".1"/><stop offset="1" stop-color="#b3b3b3" stop-opacity=".05"/></linearGradient></defs></svg>