<svg width="264" height="250" viewBox="0 0 264 250" fill="none" xmlns="http://www.w3.org/2000/svg">
<g clip-path="url(#clip0)">
<path d="M164.274 250H0V61.0268L24.8205 33.7626H164.274V250Z" fill="url(#paint0_linear)"/>
<path d="M161.737 244.253H2.90259V62.5019L26.8993 36.2786H161.737V244.253Z" fill="#FAFAFA"/>
<path d="M95.7892 58.7268H18.4087V71.657H95.7892V58.7268Z" fill="#E0E0E0"/>
<path d="M75.2691 94.1086H18.5642V107.039H75.2691V94.1086Z" fill="#E0E0E0"/>
<path opacity="0.2" d="M145.758 147.268H18.5642V194.681H145.758V147.268Z" fill="#6C50F0"/>
<path d="M145.758 58.9066H116.935V71.8367H145.758V58.9066Z" fill="#F5F5F5"/>
<path d="M145.758 79.0236H116.935V91.9537H145.758V79.0236Z" fill="#F5F5F5"/>
<path d="M29.3739 36.2786V65.0141H2.90259V62.5019L26.8345 36.2786H29.3739Z" fill="url(#paint1_linear)"/>
<path d="M2.83789 62.5019L26.8346 36.2786V62.5019H2.83789Z" fill="#EEEEEE"/>
<path d="M214.68 232.039H50.4065V43.0665L75.227 15.8055H214.68V232.039Z" fill="url(#paint2_linear)"/>
<path d="M212.144 226.292H53.3091V44.5406L77.3058 18.3173H212.144V226.292Z" fill="#FAFAFA"/>
<path d="M146.196 40.7698H68.8152V53.6999H146.196V40.7698Z" fill="#E0E0E0"/>
<path d="M125.676 76.1481H68.9709V89.0783H125.676V76.1481Z" fill="#E0E0E0"/>
<path opacity="0.2" d="M196.164 129.311H68.9709V176.723H196.164V129.311Z" fill="#6C50F0"/>
<path d="M196.164 40.9487H167.342V53.8788H196.164V40.9487Z" fill="#F5F5F5"/>
<path d="M196.164 61.0631H167.342V73.9933H196.164V61.0631Z" fill="#F5F5F5"/>
<path d="M79.7804 18.3173V47.0528H53.3091V44.5406L77.241 18.3173H79.7804Z" fill="url(#paint3_linear)"/>
<path d="M53.2444 44.5406L77.2411 18.3173V44.5406H53.2444Z" fill="#EEEEEE"/>
<path d="M264 216.237H99.7266V27.2641L124.544 0H264V216.237Z" fill="url(#paint4_linear)"/>
<path d="M261.461 210.49H102.626V28.7352L126.626 2.51514H261.461V210.49Z" fill="white"/>
<path d="M195.516 24.9642H118.135V37.8944H195.516V24.9642Z" fill="#E0E0E0"/>
<path d="M174.996 60.3459H118.291V73.2761H174.996V60.3459Z" fill="#E0E0E0"/>
<path opacity="0.2" d="M245.484 113.506H118.291V160.919H245.484V113.506Z" fill="#6C50F0"/>
<path d="M245.484 25.1439H216.662V38.0741H245.484V25.1439Z" fill="#E0E0E0"/>
<path d="M245.484 45.2576H216.662V58.1877H245.484V45.2576Z" fill="#E0E0E0"/>
<path d="M245.484 65.3737H216.662V78.3039H245.484V65.3737Z" fill="#E0E0E0"/>
<path d="M129.101 2.51514V31.2506H102.626V28.7352L126.561 2.51514H129.101Z" fill="url(#paint5_linear)"/>
<path d="M102.561 28.7352L126.561 2.51514V28.7352H102.561Z" fill="#EEEEEE"/>
</g>
<defs>
<linearGradient id="paint0_linear" x1="82.1384" y1="250" x2="82.1384" y2="33.7626" gradientUnits="userSpaceOnUse">
<stop offset="0.01" stop-color="#808080" stop-opacity="0.25"/>
<stop offset="0.54" stop-color="#808080" stop-opacity="0.12"/>
<stop offset="1" stop-color="#808080" stop-opacity="0.1"/>
</linearGradient>
<linearGradient id="paint1_linear" x1="16.1383" y1="65.0141" x2="16.1383" y2="36.2786" gradientUnits="userSpaceOnUse">
<stop stop-color="#B3B3B3" stop-opacity="0.25"/>
<stop offset="0.54" stop-color="#B3B3B3" stop-opacity="0.1"/>
<stop offset="1" stop-color="#B3B3B3" stop-opacity="0.05"/>
</linearGradient>
<linearGradient id="paint2_linear" x1="67185.7" y1="156204" x2="67185.7" y2="10654.5" gradientUnits="userSpaceOnUse">
<stop offset="0.01" stop-color="#808080" stop-opacity="0.25"/>
<stop offset="0.54" stop-color="#808080" stop-opacity="0.12"/>
<stop offset="1" stop-color="#808080" stop-opacity="0.1"/>
</linearGradient>
<linearGradient id="paint3_linear" x1="5484.7" y1="4227.49" x2="5484.7" y2="1656.81" gradientUnits="userSpaceOnUse">
<stop stop-color="#B3B3B3" stop-opacity="0.25"/>
<stop offset="0.54" stop-color="#B3B3B3" stop-opacity="0.1"/>
<stop offset="1" stop-color="#B3B3B3" stop-opacity="0.05"/>
</linearGradient>
<linearGradient id="paint4_linear" x1="92214.5" y1="145553" x2="92214.5" y2="0" gradientUnits="userSpaceOnUse">
<stop offset="0.01" stop-color="#808080" stop-opacity="0.25"/>
<stop offset="0.54" stop-color="#808080" stop-opacity="0.12"/>
<stop offset="1" stop-color="#808080" stop-opacity="0.1"/>
</linearGradient>
<linearGradient id="paint5_linear" x1="9560.41" y1="2797.9" x2="9560.41" y2="227.514" gradientUnits="userSpaceOnUse">
<stop stop-color="#B3B3B3" stop-opacity="0.25"/>
<stop offset="0.54" stop-color="#B3B3B3" stop-opacity="0.1"/>
<stop offset="1" stop-color="#B3B3B3" stop-opacity="0.05"/>
</linearGradient>
<clipPath id="clip0">
<rect width="264" height="250" fill="white"/>
</clipPath>
</defs>
</svg>
