<svg width="143" height="188" viewBox="0 0 143 188" fill="none" xmlns="http://www.w3.org/2000/svg">
<path d="M40.0702 51.2143H14.98V62.456H40.0702V51.2143Z" fill="#F5F5F5"/>
<path d="M40.0702 68.7047H14.98V79.9464H40.0702V68.7047Z" fill="#F5F5F5"/>
<path d="M83.949 35.601H58.8588V46.8426H83.949V35.601Z" fill="#F5F5F5"/>
<path d="M83.949 53.0894H58.8588V64.3311H83.949V53.0894Z" fill="#F5F5F5"/>
<path d="M143 188H0V23.7039L21.6034 0H143V188Z" fill="url(#paint0_linear)"/>
<path d="M140.789 183.004H2.52386V24.9833L23.4158 2.18713H140.789V183.004Z" fill="white"/>
<path d="M83.3843 21.7043H16.0245V32.946H83.3843V21.7043Z" fill="#E0E0E0"/>
<path d="M65.5216 52.4653H16.1601V63.707H65.5216V52.4653Z" fill="#E0E0E0"/>
<path opacity="0.2" d="M126.882 98.6842H16.1601V139.906H126.882V98.6842Z" fill="#6C50F0"/>
<path d="M126.882 21.8598H101.792V33.1015H126.882V21.8598Z" fill="#E0E0E0"/>
<path d="M126.882 39.3483H101.792V50.5899H126.882V39.3483Z" fill="#E0E0E0"/>
<path d="M126.882 56.8377H101.792V68.0794H126.882V56.8377Z" fill="#E0E0E0"/>
<path d="M25.57 2.18713V27.1702H2.52386V24.9833L23.3594 2.18713H25.57Z" fill="url(#paint1_linear)"/>
<path d="M2.46735 24.9833L23.3593 2.18713V24.9833H2.46735Z" fill="#EEEEEE"/>
<defs>
<linearGradient id="paint0_linear" x1="80185.8" y1="126547" x2="80185.8" y2="0" gradientUnits="userSpaceOnUse">
<stop offset="0.01" stop-color="#808080" stop-opacity="0.25"/>
<stop offset="0.54" stop-color="#808080" stop-opacity="0.12"/>
<stop offset="1" stop-color="#808080" stop-opacity="0.1"/>
</linearGradient>
<linearGradient id="paint1_linear" x1="8235.52" y1="2432.54" x2="8235.52" y2="197.804" gradientUnits="userSpaceOnUse">
<stop stop-color="#B3B3B3" stop-opacity="0.25"/>
<stop offset="0.54" stop-color="#B3B3B3" stop-opacity="0.1"/>
<stop offset="1" stop-color="#B3B3B3" stop-opacity="0.05"/>
</linearGradient>
</defs>
</svg>
