<svg width="264" height="250" fill="none" xmlns="http://www.w3.org/2000/svg"><g clip-path="url(#clip0)"><path d="M164.274 250H0V61.027l24.82-27.264h139.454V250z" fill="url(#paint0_linear)"/><path d="M161.737 244.253H2.903V62.502l23.996-26.223h134.838v207.974z" fill="#fafafa"/><path d="M95.79 58.727H18.408v12.93h77.38v-12.93zM75.27 94.109H18.563v12.93H75.27v-12.93z" fill="#e0e0e0"/><path opacity=".2" d="M145.758 147.268H18.564v47.413h127.194v-47.413z" fill="#6c50f0"/><path d="M145.758 58.907h-28.823v12.93h28.823v-12.93zM145.758 79.024h-28.823v12.93h28.823v-12.93z" fill="#f5f5f5"/><path d="M29.374 36.279v28.735H2.903v-2.512l23.931-26.223h2.54z" fill="url(#paint1_linear)"/><path d="M2.838 62.502l23.997-26.223v26.223H2.838z" fill="#eee"/><path d="M214.68 232.039H50.406V43.067l24.821-27.261H214.68v216.233z" fill="url(#paint2_linear)"/><path d="M212.144 226.292H53.309V44.541l23.997-26.224h134.838v207.975z" fill="#fafafa"/><path d="M146.196 40.77h-77.38V53.7h77.38V40.77zM125.676 76.148H68.971v12.93h56.705v-12.93z" fill="#e0e0e0"/><path opacity=".2" d="M196.164 129.311H68.971v47.412h127.193v-47.412z" fill="#6c50f0"/><path d="M196.164 40.949h-28.822v12.93h28.822v-12.93zM196.164 61.063h-28.822v12.93h28.822v-12.93z" fill="#f5f5f5"/><path d="M79.78 18.317v28.736H53.31V44.54L77.24 18.317h2.54z" fill="url(#paint3_linear)"/><path d="M53.244 44.54l23.997-26.223v26.224H53.244z" fill="#eee"/><path d="M264 216.237H99.727V27.264L124.544 0H264v216.237z" fill="url(#paint4_linear)"/><path d="M261.461 210.49H102.626V28.735l24-26.22h134.835V210.49z" fill="#fff"/><path d="M195.516 24.964h-77.381v12.93h77.381v-12.93zM174.996 60.346h-56.705v12.93h56.705v-12.93z" fill="#e0e0e0"/><path opacity=".2" d="M245.484 113.506H118.291v47.413h127.193v-47.413z" fill="#6c50f0"/><path d="M245.484 25.144h-28.822v12.93h28.822v-12.93zM245.484 45.258h-28.822v12.93h28.822v-12.93zM245.484 65.374h-28.822v12.93h28.822v-12.93z" fill="#e0e0e0"/><path d="M129.101 2.515v28.736h-26.475v-2.516l23.935-26.22h2.54z" fill="url(#paint5_linear)"/><path d="M102.561 28.735l24-26.22v26.22h-24z" fill="#eee"/></g><defs><linearGradient id="paint0_linear" x1="82.138" y1="250" x2="82.138" y2="33.763" gradientUnits="userSpaceOnUse"><stop offset=".01" stop-color="gray" stop-opacity=".25"/><stop offset=".54" stop-color="gray" stop-opacity=".12"/><stop offset="1" stop-color="gray" stop-opacity=".1"/></linearGradient><linearGradient id="paint1_linear" x1="16.138" y1="65.014" x2="16.138" y2="36.279" gradientUnits="userSpaceOnUse"><stop stop-color="#b3b3b3" stop-opacity=".25"/><stop offset=".54" stop-color="#b3b3b3" stop-opacity=".1"/><stop offset="1" stop-color="#b3b3b3" stop-opacity=".05"/></linearGradient><linearGradient id="paint2_linear" x1="67185.7" y1="156204" x2="67185.7" y2="10654.5" gradientUnits="userSpaceOnUse"><stop offset=".01" stop-color="gray" stop-opacity=".25"/><stop offset=".54" stop-color="gray" stop-opacity=".12"/><stop offset="1" stop-color="gray" stop-opacity=".1"/></linearGradient><linearGradient id="paint3_linear" x1="5484.7" y1="4227.49" x2="5484.7" y2="1656.81" gradientUnits="userSpaceOnUse"><stop stop-color="#b3b3b3" stop-opacity=".25"/><stop offset=".54" stop-color="#b3b3b3" stop-opacity=".1"/><stop offset="1" stop-color="#b3b3b3" stop-opacity=".05"/></linearGradient><linearGradient id="paint4_linear" x1="92214.5" y1="145553" x2="92214.5" y2="0" gradientUnits="userSpaceOnUse"><stop offset=".01" stop-color="gray" stop-opacity=".25"/><stop offset=".54" stop-color="gray" stop-opacity=".12"/><stop offset="1" stop-color="gray" stop-opacity=".1"/></linearGradient><linearGradient id="paint5_linear" x1="9560.41" y1="2797.9" x2="9560.41" y2="227.514" gradientUnits="userSpaceOnUse"><stop stop-color="#b3b3b3" stop-opacity=".25"/><stop offset=".54" stop-color="#b3b3b3" stop-opacity=".1"/><stop offset="1" stop-color="#b3b3b3" stop-opacity=".05"/></linearGradient><clipPath id="clip0"><path d="M0 0h264v250H0z" fill="#fff"/></clipPath></defs></svg>