<svg width="64" height="64" viewBox="0 0 64 64" fill="none" xmlns="http://www.w3.org/2000/svg">
<path d="M37.1592 63.5835C36.8926 63.627 36.625 63.667 36.3564 63.7036C36.625 63.667 36.8926 63.627 37.1592 63.5835Z" fill="black"/>
<path d="M37.7993 63.4741C37.6719 63.4976 37.5444 63.519 37.417 63.541C37.5444 63.519 37.6719 63.4976 37.7993 63.4741Z" fill="black"/>
<path d="M35.6421 63.7925C35.3301 63.8276 35.0161 63.8589 34.7012 63.8853C35.0161 63.8589 35.3301 63.8276 35.6421 63.7925Z" fill="black"/>
<path d="M36.2568 63.7173C36.1069 63.7373 35.9561 63.7559 35.8057 63.7734C35.9561 63.7559 36.1069 63.7373 36.2568 63.7173Z" fill="black"/>
<path d="M38.6709 63.3013C38.5586 63.3252 38.4458 63.3491 38.333 63.3721C38.4458 63.3491 38.5586 63.3252 38.6709 63.3013Z" fill="black"/>
<path d="M40.833 62.7642C40.7422 62.79 40.6514 62.8145 40.5605 62.8398C40.6514 62.8145 40.7422 62.79 40.833 62.7642Z" fill="black"/>
<path d="M40.1787 62.9429C40.0801 62.9687 39.981 62.9951 39.8818 63.02C39.981 62.9951 40.0801 62.9692 40.1787 62.9429Z" fill="black"/>
<path d="M39.3232 63.1567C39.2187 63.1812 39.1133 63.2041 39.0078 63.2275C39.1133 63.2041 39.2187 63.1812 39.3232 63.1567Z" fill="black"/>
<path d="M34.6914 63.8862C34.5229 63.9004 34.3545 63.9131 34.1855 63.9243C34.3545 63.9131 34.5229 63.9004 34.6914 63.8862Z" fill="black"/>
<path d="M64 32C64 14.3296 49.6704 0 32 0C14.3296 0 0 14.3296 0 32C0 49.6704 14.3296 64 32 64C32.188 64 32.375 63.9961 32.5625 63.9927V39.082H25.6875V31.0698H32.5625V25.1738C32.5625 18.3359 36.7368 14.6143 42.8364 14.6143C45.7573 14.6143 48.2681 14.832 49 14.9292V22.0757H44.7939C41.4756 22.0757 40.833 23.6528 40.833 25.9668V31.0698H48.7676L47.7334 39.082H40.833V62.7637C54.2085 58.9292 64 46.6064 64 32Z" fill="#425893"/>
<path d="M34.1143 63.9287C33.7813 63.9502 33.4468 63.9673 33.1113 63.9785C33.4468 63.9673 33.7813 63.9502 34.1143 63.9287Z" fill="black"/>
<path d="M33.0938 63.9795C32.917 63.9854 32.7397 63.9897 32.5625 63.9927C32.7397 63.9897 32.917 63.9854 33.0938 63.9795Z" fill="black"/>
</svg>
