<svg width="64" height="64" fill="none" xmlns="http://www.w3.org/2000/svg"><path d="M37.16 63.584zM37.8 63.474c-.128.024-.256.045-.383.067.127-.022.255-.043.382-.067zM35.642 63.792zM36.257 63.717zM38.67 63.301zM40.833 62.764l-.273.076.273-.076zM40.179 62.943l-.297.077c.099-.025.198-.05.297-.077zM39.323 63.157l-.315.07.315-.07zM34.691 63.886z" fill="#000"/><path d="M64 32C64 14.33 49.67 0 32 0S0 14.33 0 32s14.33 32 32 32c.188 0 .375-.004.563-.007V39.082h-6.876V31.07h6.875v-5.896c0-6.838 4.175-10.56 10.274-10.56 2.921 0 5.432.218 6.164.315v7.147h-4.206c-3.318 0-3.961 1.577-3.961 3.89v5.104h7.935l-1.035 8.012h-6.9v23.682C54.209 58.929 64 46.606 64 32z" fill="#425893"/><path d="M34.114 63.929zM33.094 63.98z" fill="#000"/></svg>