<svg width="64" height="64" fill="none" xmlns="http://www.w3.org/2000/svg"><path d="M32 0C14.33 0 0 14.33 0 32s14.33 32 32 32 32-14.33 32-32S49.67 0 32 0zm-9.299 48.375h-7.793V24.928H22.7v23.447zm-3.896-26.648h-.051c-2.615 0-4.307-1.8-4.307-4.05 0-2.301 1.743-4.052 4.41-4.052 2.666 0 4.306 1.75 4.357 4.051 0 2.25-1.691 4.05-4.41 4.05zm31.998 26.648H43.01V35.831c0-3.152-1.128-5.302-3.948-5.302-2.153 0-3.435 1.45-3.998 2.85-.207.501-.257 1.202-.257 1.902v13.094h-7.793s.102-21.247 0-23.447h7.793v3.32c1.036-1.598 2.889-3.87 7.024-3.87 5.127 0 8.972 3.351 8.972 10.553v13.444z" fill="#3375b0"/></svg>