<svg width="64" height="64" viewBox="0 0 64 64" fill="none" xmlns="http://www.w3.org/2000/svg">
<path d="M32 0C14.3296 0 0 14.3296 0 32C0 49.6704 14.3296 64 32 64C49.6704 64 64 49.6704 64 32C64 14.3296 49.6704 0 32 0ZM46.6108 24.9502C46.625 25.2651 46.6318 25.5815 46.6318 25.8994C46.6318 35.605 39.2441 46.7969 25.7339 46.7974H25.7344H25.7339C21.5859 46.7974 17.7261 45.5815 14.4756 43.498C15.0503 43.5659 15.6353 43.5996 16.2275 43.5996C19.6689 43.5996 22.8359 42.4258 25.3501 40.4556C22.1348 40.396 19.4238 38.2725 18.4883 35.354C18.936 35.4399 19.3965 35.4868 19.8687 35.4868C20.5391 35.4868 21.1885 35.3965 21.8057 35.228C18.4448 34.5552 15.9131 31.585 15.9131 28.0283C15.9131 27.9951 15.9131 27.9653 15.9141 27.9346C16.9038 28.4849 18.0356 28.8159 19.2407 28.853C17.2686 27.5371 15.9722 25.2876 15.9722 22.7393C15.9722 21.3936 16.3359 20.1328 16.9668 19.0474C20.5889 23.4917 26.002 26.4146 32.1064 26.7217C31.9805 26.1836 31.9155 25.623 31.9155 25.0469C31.9155 20.9922 35.2051 17.7026 39.2612 17.7026C41.374 17.7026 43.2822 18.5957 44.6226 20.0234C46.2959 19.6934 47.8672 19.082 49.2866 18.2407C48.7373 19.9551 47.5732 21.3936 46.0566 22.3032C47.5425 22.1255 48.9585 21.7314 50.2744 21.1465C49.2915 22.6196 48.0449 23.9136 46.6108 24.9502Z" fill="#4D9FEB"/>
</svg>
