<svg width="64" height="64" fill="none" xmlns="http://www.w3.org/2000/svg"><path d="M32 0C14.33 0 0 14.33 0 32s14.33 32 32 32 32-14.33 32-32S49.67 0 32 0zm14.61 24.95c.015.315.022.631.022.95 0 9.705-7.388 20.897-20.898 20.897a20.79 20.79 0 01-11.258-3.299c.574.068 1.16.102 1.751.102 3.442 0 6.609-1.174 9.123-3.144a7.353 7.353 0 01-6.862-5.102 7.313 7.313 0 003.318-.126 7.347 7.347 0 01-5.893-7.2l.001-.093c.99.55 2.122.88 3.327.918a7.338 7.338 0 01-3.269-6.114c0-1.345.364-2.606.995-3.692a20.853 20.853 0 0015.14 7.675 7.346 7.346 0 0112.516-6.698 14.73 14.73 0 004.664-1.783 7.373 7.373 0 01-3.23 4.062 14.649 14.649 0 004.217-1.157 14.926 14.926 0 01-3.663 3.804z" fill="#4d9feb"/></svg>